<?xml version="1.0" encoding="utf-8"?>
<!-- Generator: Adobe Illustrator 21.1.0, SVG Export Plug-In . SVG Version: 6.00 Build 0)  -->
<svg version="1.1" id="Layer_3" xmlns="http://www.w3.org/2000/svg" xmlns:xlink="http://www.w3.org/1999/xlink" x="0px" y="0px"
	 viewBox="0 0 280 45" style="enable-background:new 0 0 280 45;" xml:space="preserve">
<style type="text/css">
	.st0{fill:#FFFDFD;}
	.st1{fill:#FFFFFF;}
	.st2{fill:#FCFCFC;}
</style>
<path class="st0" d="M24.1,43.1C12.8,43.1,3.7,34,3.7,22.7c0-11.3,9.2-20.5,20.5-20.5c4.8,0,9.4,1.7,13.1,4.8
	c0.4,0.3,0.4,0.9,0.1,1.2c-0.3,0.4-0.9,0.4-1.2,0.1C32.8,5.5,28.5,4,24.1,4C13.8,4,5.4,12.4,5.4,22.7c0,10.3,8.4,18.7,18.7,18.7
	c4.4,0,8.6-1.5,12-4.3c0.4-0.3,0.9-0.3,1.2,0.1c0.3,0.4,0.3,0.9-0.1,1.2C33.6,41.4,28.9,43.1,24.1,43.1z"/>
<path class="st0" d="M31.5,35.2c0,0.4-0.3,0.8-0.8,0.8c-0.4,0-0.8-0.3-0.8-0.8c0-0.4,0.3-0.8,0.8-0.8C31.2,34.5,31.5,34.8,31.5,35.2
	z"/>
<path class="st0" d="M24.1,7.2C15.7,7.2,8.9,14,8.9,22.4c0,8.4,6.8,15.2,15.2,15.2c2.4,0,4.8-0.6,7-1.7l-0.7-1.3
	c-0.4,0.2-0.9,0.4-1.3,0.6c-0.5-0.3-1.1-0.4-1.5-0.4c-0.3,0-0.5,0-0.5,0l-0.2,0l0-0.2c0,0,0.1-0.9-0.3-2c-0.5-1.6-1.8-3-1.8-3l0,0
	l0-1.8l0.2,0.1c0.7,0.4,1.3,0.6,1.8,0.7c0.3,0,0.5,0.1,0.7,0.1c0.6,0,0.8-0.2,0.8-0.3c0-0.1-0.2-0.3-0.7-0.4c-1.1-0.2-2.6-1.5-3-2
	l0,0c-0.2-0.3-0.6-0.8-1.6-0.7c0,0,0,0-0.1,0l-0.1,0l0,0c-0.1,0-0.1,0-0.2,0c-0.6,0-1.5,0.3-2,1.5c-0.5,0.8-0.8,1.8-0.9,3.2
	c-0.1,0.6,0.1,0.8,0.1,0.9c0.1,0.1,0.4,0.1,0.5-0.1c0.1-0.1,0.2-0.3,0.2-0.5c0-0.2,0-0.4,0.1-0.6l0-0.3l0.2,0.2
	c0.3,0.3,0.8,0.5,1.4,0.5l0.2,0l0,0.1c0,0.8-0.4,2.9-2.7,5.1c-4.4-1.5-7.7-5-8.9-9.5c-0.1-0.8,0.6-0.8,0.6-0.8h4.1v-7.2l4.9-2.4
	l0,3.5l4.5,0v-2.5h4.9l0,4h3.4v4.7H38c0,0,1,0,1.2-1.1c0.1-0.6,0.1-1.1,0.1-1.7C39.4,14,32.5,7.2,24.1,7.2z M21.4,35.3l-0.3-0.1
	l0.2-0.2c1.4-1,2.5-2.1,3-3l0.1-0.1l0.1,0.1c0.2,0.2,0.4,0.3,0.6,0.5c0.8,1,1.2,2.6,1.3,3.4c-0.7,0.1-1.5,0.2-2.2,0.2
	c-0.6,0-1.3,0-1.9-0.1C22.1,35.7,21.9,35.5,21.4,35.3z M37.8,23c0,0.5-0.3,0.7-0.5,0.7h-2.9v-4.3h-3.5v-4H29v-0.8h-1.2v-1.3h-0.9
	v1.3h-1.2v0.8h-1.9v2h-2.2v-3.9l-7.1,3.7v6.4h-3.9c0-0.4-0.1-0.8-0.1-1.2c0-7.6,6.2-13.7,13.7-13.7c7.6,0,13.7,6.2,13.7,13.7
	C37.8,22.6,37.8,22.8,37.8,23z"/>
<path class="st0" d="M23.7,22.4c-0.1,0-0.3,0-0.4,0.1c-0.7,0.2-1.1,0.9-0.9,1.6c0.2,0.6,0.7,0.9,1.3,0.9c0.1,0,0.3,0,0.4-0.1
	c0.7-0.2,1.1-0.9,0.9-1.6C24.7,22.8,24.2,22.4,23.7,22.4z"/>
<path class="st0" d="M40.4,39.2c0.3,0.2,0.6,0.4,0.7,0.7c0.2,0.3,0.3,0.7,0.3,1.1s-0.1,0.7-0.3,1.1c-0.2,0.3-0.4,0.6-0.8,0.8
	c-0.3,0.2-0.7,0.3-1.1,0.3s-0.7-0.1-1.1-0.3c-0.3-0.2-0.6-0.4-0.8-0.8c-0.2-0.3-0.3-0.7-0.3-1.1s0.1-0.7,0.3-1.1
	c0.2-0.3,0.4-0.6,0.8-0.8c0.3-0.2,0.7-0.3,1.1-0.3C39.7,39,40.1,39,40.4,39.2z M40.2,42.6c0.3-0.2,0.5-0.4,0.7-0.7
	c0.2-0.3,0.2-0.6,0.2-0.9c0-0.3-0.1-0.6-0.2-0.9c-0.2-0.3-0.4-0.5-0.6-0.7c-0.3-0.2-0.6-0.2-0.9-0.2c-0.3,0-0.6,0.1-0.9,0.2
	c-0.3,0.2-0.5,0.4-0.7,0.7c-0.2,0.3-0.2,0.6-0.2,0.9c0,0.3,0.1,0.6,0.2,0.9c0.2,0.3,0.4,0.5,0.7,0.7c0.3,0.2,0.6,0.2,0.9,0.2
	C39.7,42.9,40,42.8,40.2,42.6z M40.3,41.1c-0.1,0.1-0.2,0.2-0.4,0.3l0.5,0.8H40l-0.5-0.8h-0.1h-0.5v0.8h-0.4v-2.4h0.9
	c0.3,0,0.5,0.1,0.7,0.2c0.2,0.1,0.3,0.3,0.3,0.6C40.4,40.8,40.3,41,40.3,41.1z M39.8,41c0.1-0.1,0.2-0.2,0.2-0.3
	c0-0.1-0.1-0.3-0.2-0.3c-0.1-0.1-0.3-0.1-0.4-0.1h-0.5v0.9h0.5C39.6,41.1,39.7,41.1,39.8,41z"/>
<path class="st0" d="M61.5,26.9c-0.4,0-0.7,0.2-0.9,0.5c-0.6,0.7-1.4,1.4-2.2,1.8c-1,0.5-2.1,0.8-3.2,0.8c-3.8,0-6.9-3.3-6.9-7.3
	c0-3.7,2.1-6.3,5.7-6.8c0.5-0.1,1-0.1,1.4-0.1c2.1,0,3.6,0.7,5,2.1c0.2,0.2,0.5,0.4,0.9,0.4c0.5,0,1-0.3,1.2-0.8
	c0.2-0.4,0.1-0.8-0.2-1.2c-2.2-2.3-5.1-3.3-8.6-2.8c-4.6,0.7-7.9,4.6-7.9,9.2c0,5.5,4.1,9.8,9.4,9.8c1.3,0,2.9-0.4,4.3-1
	c1.3-0.6,2.4-1.5,3.1-2.6c0.3-0.4,0.3-0.8,0.1-1.2C62.5,27.2,62,26.9,61.5,26.9z"/>
<path class="st0" d="M64.5,14.3v16.9c0,0.8,0.7,1.2,1.3,1.2c0.7,0,1.3-0.4,1.3-1.2V14.3C67.1,12.6,64.5,12.6,64.5,14.3z"/>
<path class="st0" d="M84.3,13.6H69.7c-0.5,0-0.8,0.2-0.9,0.4c-0.2,0.2-0.3,0.5-0.3,0.8c0,0.6,0.4,1.2,1.2,1.2h6v15
	c0,0.8,0.7,1.3,1.3,1.3c0.7,0,1.3-0.5,1.3-1.3c0-2.5,0-5.1,0-7.7c0-2.5,0-4.9,0-7.4h6c0.8,0,1.3-0.6,1.3-1.2
	C85.6,14.3,85.1,13.6,84.3,13.6z"/>
<path class="st0" d="M103,13.4c-0.4,0-0.8,0.2-1.1,0.6l-6.2,8.5L89.6,14c-0.3-0.4-0.7-0.6-1.1-0.6c-0.5,0-1,0.3-1.2,0.7
	c-0.2,0.4-0.1,0.8,0.2,1.2l7.1,9.4v6.2c0,0.8,0.5,1.3,1.3,1.3c0.6,0,1.3-0.5,1.3-1.3v-6.2l7-9.4c0.3-0.4,0.3-0.9,0.1-1.2
	C104,13.6,103.5,13.4,103,13.4z"/>
<path class="st1" d="M120.7,15c0.5,0,0.7-0.4,0.7-0.7c0-0.3-0.2-0.7-0.7-0.7h-12.7c-0.6,0-1,0.4-1,1v16.4c0,0.6,0.4,1,1,1h12.6
	c0.5,0,0.7-0.4,0.7-0.7c0-0.3-0.2-0.7-0.7-0.7h-12.2v-7h11.6c0.5,0,0.7-0.4,0.7-0.7c0-0.3-0.2-0.7-0.7-0.7h-11.6V15H120.7z"/>
<path class="st1" d="M132.7,22.7l7.1-8.1c0.2-0.2,0.2-0.6,0.1-0.8c-0.1-0.2-0.4-0.4-0.6-0.4c-0.2,0-0.4,0.1-0.6,0.3l-6.9,8l-6.9-8
	c-0.4-0.4-1-0.3-1.2,0.1c-0.1,0.3-0.1,0.6,0.2,0.8l7,8.1l-7.3,8.3c-0.2,0.3-0.3,0.6-0.2,0.8c0.2,0.4,0.9,0.5,1.3,0.1l7.2-8.3
	l7.1,8.3c0.2,0.2,0.4,0.3,0.6,0.3c0.3,0,0.5-0.1,0.6-0.4c0.1-0.3,0.1-0.6-0.1-0.9L132.7,22.7z"/>
<path class="st1" d="M150.3,13.6h-6.4c-0.4,0-0.7,0.3-0.7,0.7v17.1c0,0.2,0.1,0.4,0.2,0.5c0.1,0.1,0.3,0.2,0.5,0.2
	c0.4,0,0.7-0.3,0.7-0.7v-4.9h5.7c4.5,0,7.4-2.4,7.4-6.2C157.7,17,155.2,13.6,150.3,13.6z M150.3,25.1h-5.7V15h5.7
	c3.8,0,5.9,2.7,5.9,5.3c0,1.2-0.4,2.4-1.2,3.2C154,24.6,152.3,25.1,150.3,25.1z"/>
<path class="st1" d="M174.2,30.7h-11.6V14.3c0-1-1.5-1-1.5,0v17.1c0,0.5,0.3,0.8,0.8,0.8h12.3c0.5,0,0.7-0.4,0.7-0.7
	S174.7,30.7,174.2,30.7z"/>
<path class="st1" d="M185.8,13.4c-1-0.1-2.1-0.1-3.1,0c-4.3,0.7-7.3,4.4-7.5,9.2c-0.1,2.7,0.9,5.2,2.7,7.1c1.7,1.8,4.1,2.8,6.5,2.8
	c2.4,0,4.8-1,6.5-2.8c1.8-1.9,2.8-4.4,2.7-7.1C193.5,18,190.2,14.1,185.8,13.4z M184.4,31.1c-2,0-3.9-0.8-5.4-2.4
	c-1.6-1.6-2.4-3.8-2.3-6.1c0.1-4.1,2.6-7.3,6.2-7.8c0.4-0.1,0.9-0.1,1.3-0.1c0.5,0,0.9,0,1.3,0.1c3.7,0.6,6.5,3.9,6.6,7.8
	c0.1,2.3-0.8,4.5-2.3,6.1C188.4,30.2,186.4,31.1,184.4,31.1z"/>
<path class="st1" d="M212.5,19.8c0-3-2.3-6.1-7.4-6.1H198c-0.4,0-0.7,0.3-0.7,0.7v17.1c0,0.2,0.1,0.4,0.2,0.5
	c0.4,0.3,1.2,0.2,1.2-0.6v-6h6.2l6.3,6.6c0.2,0.2,0.4,0.2,0.5,0.2c0.3,0,0.5-0.2,0.6-0.4c0.1-0.3,0.1-0.6-0.2-0.8l-5.5-5.6
	C210.4,25,212.5,23,212.5,19.8z M211,19.8c0,1.1-0.3,2.1-1.1,2.8c-1,1-2.7,1.6-4.9,1.6h-6.4V15h6.4C208.6,15,211,17,211,19.8z"/>
<path class="st1" d="M229.4,15c0.5,0,0.7-0.4,0.7-0.7c0-0.3-0.2-0.7-0.7-0.7h-12.7c-0.6,0-1,0.4-1,1v16.4c0,0.6,0.4,1,1,1h12.6
	c0.5,0,0.7-0.4,0.7-0.7c0-0.3-0.2-0.7-0.7-0.7h-12.2v-7h11.6c0.5,0,0.7-0.4,0.7-0.7c0-0.3-0.2-0.7-0.7-0.7h-11.6V15H229.4z"/>
<path class="st1" d="M249,19.8c0-3-2.3-6.1-7.4-6.1h-7.1c-0.4,0-0.7,0.3-0.7,0.7v17.1c0,0.2,0.1,0.4,0.2,0.5
	c0.4,0.3,1.2,0.2,1.2-0.6v-6h6.2l6.3,6.6c0.2,0.2,0.4,0.2,0.5,0.2c0.3,0,0.5-0.2,0.6-0.4c0.1-0.3,0.1-0.6-0.2-0.8l-5.5-5.6
	C246.9,25,249,23,249,19.8z M247.6,19.8c0,1.1-0.3,2.1-1.1,2.8c-1,1-2.7,1.6-4.9,1.6h-6.4V15h6.4C245.1,15,247.5,17,247.6,19.8z"/>
<path class="st1" d="M260.5,22.1c-3.5-0.3-6.8-0.6-6.8-3.5c0-0.3,0.1-0.6,0.2-0.9c0.7-1.9,3.4-2.8,5.5-2.9c0.1,0,0.2,0,0.4,0
	c0.1,0,0.2,0,0.3,0c3.7,0,5.9,1,6.6,2.8c0.1,0.3,0.4,0.5,0.7,0.5c0.2,0,0.4-0.1,0.5-0.3c0.1-0.1,0.2-0.4,0-0.7
	c-1.2-3.2-5.5-3.7-7.9-3.7c-0.8,0-1.6,0.1-2.4,0.2c-3.3,0.7-5.3,2.6-5.3,4.9c0,4.2,4.3,4.5,8.1,4.8c3.5,0.3,6.8,0.5,6.8,3.4
	c0,4.1-6.1,4.2-6.8,4.2c-0.4,0-0.9,0-1.3-0.1c-2.4-0.2-5.2-1.2-5.8-3.2c-0.1-0.3-0.3-0.5-0.7-0.5c-0.2,0-0.4,0.1-0.6,0.3
	c-0.1,0.2-0.2,0.4-0.1,0.6c1.1,3.9,6.7,4.2,8.4,4.2c4,0,8.3-1.5,8.3-5.5C268.5,22.8,264.2,22.5,260.5,22.1z"/>
<path class="st2" d="M271.3,13.4v3.8h-0.5v-3.8h-1.4v-0.5h3.3v0.5H271.3z"/>
<path class="st2" d="M277.3,17.2l0-3.5l-1.6,3.1h-0.3l-1.6-3.1v3.5h-0.5v-4.3h0.6l1.6,3.1l1.6-3.1h0.6v4.3H277.3z"/>
</svg>
