<?xml version="1.0" encoding="utf-8"?>
<!-- Generator: Adobe Illustrator 21.1.0, SVG Export Plug-In . SVG Version: 6.00 Build 0)  -->
<svg version="1.1" id="Layer_1" xmlns="http://www.w3.org/2000/svg" xmlns:xlink="http://www.w3.org/1999/xlink" x="0px" y="0px"
	 viewBox="0 0 42.9 33" style="enable-background:new 0 0 42.9 33;" xml:space="preserve">
<style type="text/css">
	.st0{fill:#EE464C;}
</style>
<path class="st0" d="M8,2.2c6,0,12.1,0,18.1,0c2.8,0,5.8-0.3,8.4,0.8s4.8,3.4,4.6,6.4C39,10.5,39,11.6,39,12.8c0,1.9,0,3.9,0,5.8
	c0,1.1,0.3,2.6,0,3.7c-0.3,1.3-3.6,0.9-4.6,0.8c-2.1-0.1-1.9-1.6-1.9-3.1c0-3.3-0.1-6.6,0-9.9c0-0.2,0-0.3,0,0c0-0.1,0.1-0.3,0-0.4
	c0-0.6-0.1-1.1-0.4-1.7c-0.9-1.5-2.8-2.1-4.4-2.2c-3.4-0.2-6.9,0-10.3,0c-1.6,0-3.3,0-4.9,0c-0.7,0-1.4,0-2.1-0.2
	C9.4,5.4,8.5,5,7.7,4.3C6.9,3.5,6.3,2.3,8,2.2c1-0.1,1-1.6,0-1.5C5.5,0.9,4.6,3.2,6.4,5c1.6,1.6,3.8,2.1,6,2.1c3.8,0,7.5,0,11.3,0
	c2.2,0,7.4-0.8,7.5,2.5c0,0.4,0,2.1,0,2.9c0,2.2,0,4.3,0,6.5c0,1.2-0.3,2.8,0.4,3.9c1.1,1.9,3.6,1.5,5.4,1.5c1.7,0,3.6-0.2,3.7-2.3
	c0.1-1.5,0-3,0-4.5c0-2,0-4,0-6.1c0-1.5,0.2-3.1-0.2-4.6C39.1,2.5,34.3,0.7,30,0.7c-7.3,0-14.6,0-21.9,0C7.1,0.7,7.1,2.2,8,2.2z"/>
<path class="st0" d="M10.1,6.1c-1.8,1.3-3.1,3.3-4,5.3c-2.3,5.4-1.3,11.5,0.7,16.8c0.1,0.3,0.4,0.5,0.7,0.5c8,0,16,0,24.1,0
	c1,0,1-1.5,0-1.5c-8,0-16,0-24.1,0c0.2,0.2,0.5,0.4,0.7,0.5c-1.9-5-2.9-10.8-0.7-15.9C8,10.7,8.8,9.5,9.7,8.5
	c0.3-0.3,0.6-0.6,0.9-0.9c0.2-0.2,0.3-0.3,0.3-0.2C11.6,6.8,10.8,5.5,10.1,6.1L10.1,6.1z"/>
<path class="st0" d="M2.9,17.4c-0.4,0.1,0.3,0,0.4,0c0.3,0,0.7,0,1,0.2s0.4,0.4,0.5,0.7c0.2,0.5,0-0.2,0,0.1c0,0.1,0,0.1,0,0.2
	c0,1.3-0.3,2.4-1.9,2.1C3,20.8,3.2,20.9,3.3,21c-0.7-1.2-0.6-2.7,0-3.9c0.4-0.9-0.9-1.6-1.3-0.7c-0.6,1.2-0.8,2.4-0.6,3.7
	c0.1,0.5,0.3,1.4,0.7,1.9c0.6,0.5,1.9,0.3,2.6,0c0.6-0.3,1.1-0.9,1.3-1.6c0.4-1,0.5-2.4,0-3.3c-0.7-1.2-2.2-1.3-3.4-1.2
	C1.6,16.1,2,17.5,2.9,17.4z"/>
<path class="st0" d="M13.1,6.9c0,7,0,14.1,0,21.1c0,1,1.5,1,1.5,0c0-7,0-14.1,0-21.1C14.6,6,13.1,6,13.1,6.9L13.1,6.9z"/>
<path class="st0" d="M5.5,18.9c2.8,0,5.5,0,8.3,0c1,0,1-1.5,0-1.5c-2.8,0-5.5,0-8.3,0C4.6,17.5,4.6,18.9,5.5,18.9L5.5,18.9z"/>
<path class="st0" d="M6.3,23.1c-1-0.2-2-0.1-2.9,0.3c-1.9,0.8-2.6,2.7-2.7,4.6c0,0.4,0.4,0.7,0.7,0.7c2,0,4.1,0,6.1,0
	c1,0,1-1.5,0-1.5c-2,0-4.1,0-6.1,0c0.2,0.2,0.5,0.5,0.7,0.7c0.1-1.5,0.6-2.9,2.1-3.3c0.4-0.1,0.8-0.1,1.2-0.1c0.2,0,0.5,0,0.5,0
	C6.8,24.7,7.2,23.3,6.3,23.1L6.3,23.1z"/>
<path class="st0" d="M2,28c-0.1,2,1.5,4.3,3.7,4.3c2.5,0.1,4.4-1.8,4.2-4.3c-0.1-0.9-1.6-0.9-1.5,0c0.2,1.7-0.9,2.9-2.7,2.8
	c-1.4-0.1-2.2-1.6-2.2-2.8C3.5,27,2,27,2,28L2,28z"/>
<path class="st0" d="M35.6,23.1c-1-0.2-2-0.1-2.9,0.3c-1.9,0.8-2.6,2.7-2.7,4.6c0,0.4,0.4,0.7,0.7,0.7c2,0,4.1,0,6.1,0
	c1,0,1-1.5,0-1.5c-2,0-4.1,0-6.1,0c0.2,0.2,0.5,0.5,0.7,0.7c0.1-1.5,0.6-2.9,2.1-3.3c0.4-0.1,0.8-0.1,1.2-0.1c0.2,0,0.5,0,0.5,0
	C36.2,24.7,36.6,23.3,35.6,23.1L35.6,23.1z"/>
<path class="st0" d="M36.6,24.6c0,0,0.2,0,0.4,0c0.4,0,0.8,0,1.2,0.1c1.5,0.4,2,1.9,2.1,3.3c0.2-0.2,0.5-0.5,0.7-0.7
	c-2,0-4.1,0-6.1,0c-1,0-1,1.5,0,1.5c2,0,4.1,0,6.1,0c0.4,0,0.8-0.3,0.7-0.7c-0.1-1.9-0.8-3.8-2.7-4.6c-0.9-0.4-2-0.5-2.9-0.3
	C35.3,23.3,35.7,24.7,36.6,24.6L36.6,24.6z"/>
<path class="st0" d="M32.4,28c-0.1,2,1.5,4.3,3.7,4.3c2.5,0.1,4.4-1.8,4.2-4.3c-0.1-0.9-1.6-0.9-1.5,0c0.2,1.7-0.9,2.9-2.7,2.8
	c-1.4-0.1-2.2-1.6-2.2-2.8C33.9,27.1,32.4,27.1,32.4,28L32.4,28z"/>
<path class="st0" d="M23.5,6.7c0,7.1,0,14.2,0,21.3c0,1,1.5,1,1.5,0c0-7.1,0-14.2,0-21.3C25,5.8,23.5,5.8,23.5,6.7L23.5,6.7z"/>
<path class="st0" d="M22.9,21.8c-0.9,0-1.7,0-2.6,0c-0.5,0-1,0-1.5,0c-0.7,0-1.9-0.5-0.7-1.2c0.6-0.4,2.1-0.1,2.8-0.1
	c0.5,0,1,0,1.5,0c0.1,0,0.3,0,0.4,0c1,0.2,0.9,1.2-0.1,1.4c-0.9,0.1-0.5,1.6,0.4,1.4c2.7-0.4,2.4-4-0.2-4.3c-1.5-0.1-3.2-0.2-4.7,0
	c-2.7,0.3-2.7,4,0,4.3c1.5,0.2,3.2,0,4.7,0C23.8,23.3,23.8,21.8,22.9,21.8z"/>
<path class="st0" d="M22.9,27.3c-1.4,0-2.9,0.1-4.3,0c-1-0.1-1-0.7-1-1.6c0-0.7-0.3-2.2,0.4-2.6c0.5-0.3,1.4-0.1,2-0.1
	c0.8,0,1.7-0.1,2.5,0c1.1,0.1,1,0.8,1,1.7c0,0.9,0.3,2.4-0.9,2.6c-0.9,0.1-0.5,1.6,0.4,1.4c1.6-0.2,2-1.5,2-2.9c0-1,0.2-2.5-0.4-3.4
	c-0.8-1.1-2-0.9-3.2-0.9c-1.1,0-2.2-0.1-3.2,0c-1.5,0.2-2,1.3-2.1,2.6c0,1-0.3,2.6,0.4,3.5c0.7,1.1,1.9,1,3,1s2.3,0,3.4,0
	C23.8,28.7,23.8,27.3,22.9,27.3z"/>
</svg>
