<?xml version="1.0" encoding="utf-8"?>
<!-- Generator: Adobe Illustrator 21.1.0, SVG Export Plug-In . SVG Version: 6.00 Build 0)  -->
<svg version="1.1" id="Layer_1" xmlns="http://www.w3.org/2000/svg" xmlns:xlink="http://www.w3.org/1999/xlink" x="0px" y="0px"
	 viewBox="0 0 31.1 33" style="enable-background:new 0 0 31.1 33;" xml:space="preserve">
<style type="text/css">
	.st0{fill:#EE464C;}
</style>
<path class="st0" d="M22.6,26.3c-4.8,0-9.6,0.2-14.3,0c-3.5-0.2-2.9-4-2.9-6.4c0-3.4,0-6.7,0-10.1c0-1.9-0.6-5.3,0.9-6.8
	c0.9-1,2.2-0.9,3.4-0.9c1.5,0,2.9,0,4.4,0c2.8,0,5.6-0.1,8.4,0c3.3,0.1,3.1,2.9,3.1,5.3c0,3.7,0,7.4,0,11.1
	C25.5,21.1,26.4,26.1,22.6,26.3c-0.9,0-0.9,1.4,0,1.3c2.4-0.1,4.2-1.9,4.3-4.3c0-0.7,0-1.5,0-2.2c0-3.7,0-7.3,0-11
	c0-2.2,0.6-5.7-0.8-7.6c-1.8-2.5-5.6-1.8-8.2-1.8c-3.1,0-6.3-0.1-9.4,0c-1.8,0-3.4,1-4.1,2.7c-0.5,1-0.4,2-0.4,3c0,3.5,0,7,0,10.5
	c0,1.6,0,3.2,0,4.8c0,0.8-0.1,1.7,0.1,2.6c0.9,4.1,5.6,3.4,8.7,3.4c3.3,0,6.5,0,9.8,0C23.5,27.6,23.5,26.3,22.6,26.3z"/>
<path class="st0" d="M4.7,7.1c7.2,0,14.4,0,21.5,0c0.9,0,0.9-1.3,0-1.3c-7.2,0-14.4,0-21.5,0C3.8,5.7,3.8,7.1,4.7,7.1L4.7,7.1z"/>
<path class="st0" d="M4.8,21.4c7.2,0,14.4,0,21.5,0c0.9,0,0.9-1.3,0-1.3c-7.2,0-14.4,0-21.5,0C3.9,20,3.9,21.4,4.8,21.4L4.8,21.4z"
	/>
<path class="st0" d="M13.2,4.6c1.5,0,3.1,0,4.6,0c0.9,0,0.9-1.3,0-1.3c-1.5,0-3.1,0-4.6,0C12.4,3.2,12.4,4.6,13.2,4.6L13.2,4.6z"/>
<path class="st0" d="M14.8,6.4c0,4.8,0,9.6,0,14.3c0,0.9,1.3,0.9,1.3,0c0-4.8,0-9.6,0-14.3C16.1,5.5,14.8,5.5,14.8,6.4L14.8,6.4z"/>
<path class="st0" d="M8.2,24.4c0.8,0,1.6,0,2.4,0c0.9,0,0.9-1.3,0-1.3c-0.8,0-1.6,0-2.4,0C7.4,23.1,7.4,24.4,8.2,24.4L8.2,24.4z"/>
<path class="st0" d="M20.1,24.4c0.8,0,1.6,0,2.4,0c0.9,0,0.9-1.3,0-1.3c-0.8,0-1.6,0-2.4,0C19.2,23.1,19.2,24.4,20.1,24.4L20.1,24.4
	z"/>
<path class="st0" d="M4.1,11.4c-0.4,0-1.3,0.2-1.6,0c0.1,0,0,0.2,0.1-0.1c0-0.3,0-0.6,0-0.8c0-0.7,0-1.4,0-2.1c0-0.2,0-1.2-0.1-1.2
	C2.4,7.3,3.1,7.3,3.2,7.3c0.2,0,0.7-0.1,0.9,0C4,7.3,4.1,7.1,4,7.5C4,7.7,4,8,4,8.2c0,0.7,0,1.4,0,2.1c0,0.3,0,0.6,0,0.9
	C4,11.3,4,11.4,4.1,11.4C3.9,11.7,4.1,11.5,4.1,11.4c-0.9,0.3-0.6,1.6,0.3,1.4s1-0.9,1-1.8c0-1,0-2,0-2.9c0-0.7,0.1-1.5-0.6-1.9
	C4.2,5.8,3,5.8,2.3,5.9C1.4,6.1,1.2,6.8,1.2,7.6c0,1,0,1.9,0,2.9c0,0.7-0.1,1.5,0.5,2c0.6,0.4,1.7,0.2,2.4,0.2
	C5,12.8,5,11.4,4.1,11.4z"/>
<path class="st0" d="M28.4,11.1c-0.4,0-1.3,0.2-1.6,0c0.1,0,0,0.2,0.1-0.1c0-0.3,0-0.6,0-0.8c0-0.7,0-1.4,0-2.1c0-0.2,0-1.2-0.1-1.2
	C26.6,7,27.3,7,27.4,7c0.2,0,0.7-0.1,0.9,0c-0.1,0,0-0.2-0.1,0.2c0,0.2,0,0.5,0,0.8c0,0.7,0,1.4,0,2.1c0,0.3,0,0.6,0,0.9
	c0,0.1,0,0.2,0,0.3c-0.1,0.2,0.1,0,0,0c-0.8,0.2-0.5,1.5,0.4,1.3s1-0.9,1-1.8c0-1,0-2,0-2.9c0-0.7,0.1-1.5-0.6-1.9
	c-0.6-0.3-1.8-0.3-2.4-0.2c-0.9,0.1-1.1,0.9-1.1,1.7c0,1,0,1.9,0,2.9c0,0.7-0.1,1.5,0.5,2c0.6,0.4,1.7,0.2,2.4,0.2
	C29.3,12.5,29.3,11.1,28.4,11.1z"/>
<path class="st0" d="M11.5,30.9c-0.5,0-1-0.1-1.5,0c-0.1,0-0.2,0-0.2,0s0.1,0.2,0.1,0.1c0-0.2,0-0.4,0-0.6c0-0.6,0-1.2,0-1.8
	c0-0.3,0-0.5,0-0.8c0-0.1,0.1-0.4-0.1-0.3c-0.1,0.1,0.4,0.1,0.5,0.1c0.3,0,0.6,0.1,0.9,0c0.1,0,0.2,0,0.2,0c-0.1,0-0.1-0.2-0.1,0
	s0,0.4,0,0.6c0,0.6,0,1.2,0,1.8c0,0.3,0,0.5,0,0.8c0,0.1,0,0.2,0,0.2c-0.1,0.2,0.1,0,0,0c-0.9,0.2-0.5,1.5,0.4,1.3
	c0.9-0.2,1-0.9,1-1.7c0-0.8,0-1.7,0-2.5s-0.1-1.6-1-1.7c-0.6-0.1-1.4-0.1-2,0c-0.9,0.1-1.1,0.8-1.1,1.6c0,0.9,0,1.7,0,2.6
	c0,0.7,0,1.5,0.8,1.7c0.6,0.2,1.5,0.1,2.1,0.1C12.3,32.3,12.3,30.9,11.5,30.9z"/>
<path class="st0" d="M21.6,30.9c-0.5,0-1-0.1-1.5,0c-0.1,0-0.2,0-0.2,0S20,31.1,20,31c0-0.2,0-0.4,0-0.6c0-0.6,0-1.2,0-1.8
	c0-0.3,0-0.5,0-0.8c0-0.1,0.1-0.4-0.1-0.3c-0.1,0.1,0.4,0.1,0.5,0.1c0.3,0,0.6,0.1,0.9,0c0.1,0,0.2,0,0.2,0c-0.1,0-0.1-0.2-0.1,0
	s0,0.4,0,0.6c0,0.6,0,1.2,0,1.8c0,0.3,0,0.5,0,0.8c0,0.1,0,0.2,0,0.2c-0.1,0.2,0.1,0,0,0c-0.9,0.2-0.5,1.5,0.4,1.3
	c0.9-0.2,1-0.9,1-1.7c0-0.8,0-1.7,0-2.5s-0.1-1.6-1-1.7c-0.6-0.1-1.4-0.1-2,0c-0.9,0.1-1.1,0.8-1.1,1.6c0,0.9,0,1.7,0,2.6
	c0,0.7,0,1.5,0.8,1.7c0.6,0.2,1.5,0.1,2.1,0.1C22.4,32.3,22.4,30.9,21.6,30.9z"/>
<path class="st0" d="M9.2,8.1c-1,0.9-1.9,1.8-2.8,2.7c-0.6,0.6,0.3,1.6,1,1c0.9-0.9,1.9-1.8,2.8-2.7C10.8,8.4,9.8,7.5,9.2,8.1
	L9.2,8.1z"/>
<path class="st0" d="M10.1,9.4c-0.9,0.9-1.9,1.8-2.8,2.7c-0.6,0.6,0.3,1.6,1,1c0.9-0.9,1.9-1.8,2.8-2.7C11.7,9.8,10.8,8.8,10.1,9.4
	L10.1,9.4z"/>
</svg>
