<?xml version="1.0" encoding="utf-8"?>
<!-- Generator: Adobe Illustrator 21.1.0, SVG Export Plug-In . SVG Version: 6.00 Build 0)  -->
<svg version="1.1" id="Layer_1" xmlns="http://www.w3.org/2000/svg" xmlns:xlink="http://www.w3.org/1999/xlink" x="0px" y="0px"
	 viewBox="0 0 16 16" style="enable-background:new 0 0 16 16;" xml:space="preserve">
<style type="text/css">
	.st0{fill:#FEFEFE;}
</style>
<g id="Layer_26">
	<g>
		<path class="st0" d="M0,6.5c0-0.1,0-0.1,0-0.2c0.1-0.1,0.2-0.2,0.4-0.2c5,0,9.9,0,14.9,0c0.1,0,0.1,0,0.2,0c0-0.3,0-0.7,0-1
			c-0.1,0-0.1,0-0.2,0c-0.7,0-1.3,0-2,0c-0.9,0-1.7-0.7-1.8-1.6c-0.1-0.4,0-0.8,0-1.2c0-0.1,0-0.1,0-0.2c-0.1,0-0.1,0-0.2,0
			c-3.6,0-7.3,0-10.9,0C0.2,2.2,0.1,2.2,0,2V1.9c0.1-0.1,0.2-0.2,0.4-0.2c1.7,0,3.5,0,5.2,0c2.4,0,4.9,0,7.3,0
			c1.5,0,2.8,1.1,3.1,2.5c0,0.1,0,0.3,0,0.4c0,0.8,0,1.7,0,2.5l0,0c-0.2,0.6-0.6,1-1.2,1c-0.4,0-0.8,0-1.2,0h-0.1
			c-0.1,0.1-0.1,0.3-0.2,0.5c0.1,0,0.1,0,0.2,0c0.7,0,1.5,0,2.2,0c0.2,0,0.3,0,0.4,0.2c0,0.1,0,0.1,0,0.2c-0.1,0.2-0.2,0.2-0.4,0.2
			c-2.8,0-5.6,0-8.4,0c-2.3,0-4.6,0-6.9,0C0.2,9.2,0.1,9.2,0,9c0-0.1,0-0.1,0-0.2c0.1-0.2,0.2-0.2,0.4-0.2c0.4,0,0.9,0,1.3,0h0.1
			C1.7,8.4,1.7,8.3,1.6,8.1H1.5c-0.4,0-0.7,0-1.1,0c-0.2,0-0.3,0-0.4-0.2c0-0.1,0-0.1,0-0.2c0.1-0.2,0.2-0.2,0.4-0.2
			c0.6,0,1.2,0,1.8,0c1.1,0,2.1,0,3.2,0c1,0,2,0,3.1,0s2.3,0,3.4,0c0.5,0,0.9,0,1.4,0s1,0,1.6,0c0.3,0,0.6-0.2,0.6-0.4
			c0-0.1,0-0.3,0-0.4c-0.1,0-0.1,0-0.2,0c-5,0-9.9,0-14.9,0C0.2,6.7,0.1,6.7,0,6.5z M15.4,4.6c0-0.1,0-0.2,0-0.2
			c-0.3-1.3-1.3-2.1-2.6-2.2c-0.3,0-0.5,0-0.8,0c0,0.4,0,0.7,0,1.1c0,0.8,0.6,1.3,1.4,1.3c0.6,0,1.3,0,1.9,0
			C15.3,4.6,15.4,4.6,15.4,4.6z M5.3,8.1C5.4,8.4,5.7,8.6,6,8.6c0.3,0,0.6-0.2,0.7-0.5C6.2,8.1,5.8,8.1,5.3,8.1z M2.2,8.1
			C2.3,8.4,2.6,8.6,3,8.6c0.3,0,0.6-0.2,0.6-0.5C3.1,8.1,2.7,8.1,2.2,8.1z M11.5,8.1c0.1,0.3,0.4,0.5,0.8,0.5c0.3,0,0.6-0.2,0.6-0.5
			l0,0C12.4,8.1,11.9,8.1,11.5,8.1z M8.4,8.1c0.1,0.3,0.4,0.5,0.7,0.5s0.6-0.2,0.7-0.5C9.3,8.1,8.9,8.1,8.4,8.1z M4,8.6
			c0.3,0,0.6,0,0.9,0C4.8,8.4,4.8,8.3,4.7,8.1c-0.2,0-0.3,0-0.5,0C4.1,8.3,4.1,8.4,4,8.6z M7.1,8.6c0.3,0,0.6,0,0.9,0
			C7.9,8.4,7.9,8.3,7.8,8.1c-0.2,0-0.3,0-0.5,0C7.2,8.3,7.2,8.4,7.1,8.6z M10.2,8.6c0.3,0,0.6,0,0.9,0C11,8.5,11,8.3,10.9,8.2
			c0,0,0-0.1-0.1-0.1s-0.3,0-0.4,0c0,0-0.1,0-0.1,0.1C10.3,8.3,10.2,8.5,10.2,8.6z"/>
		<path class="st0" d="M0,3.8L0,3.8c0.1-0.4,0.3-0.5,0.6-0.5c0.9,0,1.9,0,2.8,0c0.4,0,0.7,0.3,0.7,0.7c0,0.2,0,0.4,0,0.6
			c0,0.4-0.3,0.6-0.7,0.6c-0.9,0-1.9,0-2.8,0C0.4,5.2,0.2,5,0,4.7V4.6C0,4.4,0,4.1,0,3.8z M2.1,4.6c0.4,0,0.9,0,1.3,0
			c0.1,0,0.2,0,0.2-0.2s0-0.3,0-0.5c0-0.1-0.1-0.2-0.2-0.2c-0.9,0-1.8,0-2.7,0C0.6,3.8,0.5,3.9,0.5,4s0,0.3,0,0.4
			c0,0.2,0,0.2,0.2,0.2C1.2,4.6,1.6,4.6,2.1,4.6z"/>
		<path class="st0" d="M7.9,3.3c0.4,0,0.9,0,1.3,0C9.7,3.3,10,3.5,10,4c0,0.2,0,0.3,0,0.5c0,0.4-0.3,0.7-0.7,0.7c-0.9,0-1.8,0-2.7,0
			c-0.4,0-0.7-0.3-0.7-0.7c0-0.2,0-0.4,0-0.5c0-0.4,0.3-0.7,0.7-0.7S7.5,3.3,7.9,3.3z M7.9,4.6c0.4,0,0.9,0,1.3,0
			c0.2,0,0.2,0,0.2-0.2c0-0.1,0-0.3,0-0.4c0-0.2,0-0.2-0.2-0.2c-0.1,0-0.2,0-0.4,0c-0.8,0-1.5,0-2.3,0c-0.2,0-0.2,0-0.2,0.2
			c0,0.1,0,0.3,0,0.4c0,0.2,0,0.2,0.2,0.2C7.1,4.6,7.5,4.6,7.9,4.6z"/>
	</g>
</g>
</svg>
