<?xml version="1.0" encoding="utf-8"?>
<!-- Generator: Adobe Illustrator 21.1.0, SVG Export Plug-In . SVG Version: 6.00 Build 0)  -->
<svg version="1.1" id="Layer_1" xmlns="http://www.w3.org/2000/svg" xmlns:xlink="http://www.w3.org/1999/xlink" x="0px" y="0px"
	 viewBox="0 0 16 16" style="enable-background:new 0 0 16 16;" xml:space="preserve">
<style type="text/css">
	.st0{fill:#EB343C;}
</style>
<g id="Layer_14">
	<g>
		<g>
			<g>
				<g>
					<path class="st0" d="M15,4.7h-2.2V2.5H15V3l-0.6,0.6L15,4.2V4.7z M13.2,4.3h1.4l-0.7-0.7l0.7-0.7h-1.4V4.3z"/>
				</g>
			</g>
			<g>
				<g>
					<path class="st0" d="M12.1,6.7H4v-4h8.1V6.7z M4.4,6.4h7.3V3.1H4.4V6.4z"/>
				</g>
			</g>
			<g>
				<g>
					<path class="st0" d="M13,13.6h0.2V1.4H3.9c-0.6,0-1.1,0.5-1.1,1.1v6.3H2.4C1.6,8.8,1,9.4,1,10.2s0.6,1.4,1.4,1.4h0.5v2.7
						c0,0.6,0.5,1.1,1.1,1.1h9.3v-0.5H13c-0.4,0-0.7-0.3-0.7-0.7C12.3,13.9,12.6,13.6,13,13.6z M3.3,11.1H2.8V9.3h0.5V11.1z
						 M3.7,10.4h6.6v0.7H3.7V10.4z M10.7,9.5l1,0.7l-1,0.7V9.5z M10.3,10H3.7V9.3h6.6V10z M1.5,10.2c0-0.5,0.4-0.9,0.9-0.9v1.8
						C1.9,11.1,1.5,10.7,1.5,10.2z M12.1,14.9H3.9c-0.4,0-0.7-0.3-0.7-0.7s0.3-0.7,0.7-0.7h8.2c-0.1,0.2-0.2,0.4-0.2,0.7
						C11.9,14.5,12,14.7,12.1,14.9z M3.9,13.1c-0.3,0-0.5,0.1-0.7,0.2v-1.8h7.3l1.9-1.4l-1.9-1.4H3.3V2.5c0-0.4,0.3-0.7,0.7-0.7h8.8
						v11.3H3.9z"/>
				</g>
			</g>
		</g>
	</g>
</g>
</svg>
