<?xml version="1.0" encoding="utf-8"?>
<!-- Generator: Adobe Illustrator 21.1.0, SVG Export Plug-In . SVG Version: 6.00 Build 0)  -->
<svg version="1.1" id="Layer_1" xmlns="http://www.w3.org/2000/svg" xmlns:xlink="http://www.w3.org/1999/xlink" x="0px" y="0px"
	 viewBox="0 0 16 16" style="enable-background:new 0 0 16 16;" xml:space="preserve">
<style type="text/css">
	.st0{fill:#EB343C;}
</style>
<g id="Layer_17">
	<g>
		<g>
			<g>
				<path class="st0" d="M8,2.1C4.7,2.1,2.1,4.7,2.1,8s2.6,5.9,5.9,5.9s5.9-2.6,5.9-5.9S11.3,2.1,8,2.1z M11.9,4.4l-1.6,1.3l1.3-1.6
					C11.7,4.2,11.8,4.3,11.9,4.4z M8,2.7c0.1,0,0.1,0,0.2,0L8,4.7l-0.2-2C7.9,2.7,7.9,2.7,8,2.7z M4.4,4.1l1.3,1.6L4.1,4.4
					C4.2,4.3,4.3,4.2,4.4,4.1z M2.7,8c0-0.1,0-0.1,0-0.2l2,0.2l-2,0.2C2.7,8.1,2.7,8.1,2.7,8z M4.1,11.6l1.6-1.3l-1.3,1.6
					C4.3,11.8,4.2,11.7,4.1,11.6z M8,13.3c-0.1,0-0.1,0-0.2,0l0.2-2l0.2,2C8.1,13.3,8.1,13.3,8,13.3z M11.6,11.9l-1.3-1.6l1.6,1.3
					C11.8,11.7,11.7,11.8,11.6,11.9z M12.3,11.2L9.7,9.1C9.6,9.3,9.3,9.6,9.1,9.7l2.1,2.5c-0.7,0.5-1.5,0.9-2.4,1L8.5,10
					c-0.2,0-0.3,0-0.5,0s-0.3,0-0.5,0l-0.3,3.3c-0.9-0.1-1.7-0.5-2.4-1l2.1-2.5C6.7,9.6,6.4,9.3,6.3,9.1l-2.5,2.1
					c-0.5-0.7-0.9-1.5-1-2.4L6,8.5C6,8.3,6,8.2,6,8s0-0.3,0-0.5L2.7,7.3c0.1-0.9,0.5-1.7,1-2.4L6.2,7c0.2-0.3,0.4-0.5,0.7-0.7
					L4.8,3.7c0.7-0.5,1.5-0.9,2.4-1L7.5,6C7.7,6,7.8,6,8,6s0.3,0,0.5,0l0.3-3.3c0.9,0.1,1.7,0.5,2.4,1L9.1,6.3
					C9.4,6.5,9.6,6.7,9.8,7l2.5-2.1c0.5,0.7,0.9,1.5,1,2.4L10,7.5c0,0.2,0,0.3,0,0.5s0,0.3-0.1,0.5l3.3,0.3
					C13.1,9.7,12.8,10.5,12.3,11.2z M11.3,8l2-0.2c0,0.1,0,0.1,0,0.2c0,0.1,0,0.1,0,0.2L11.3,8z"/>
			</g>
			<g>
				<circle class="st0" cx="8" cy="8" r="1.5"/>
			</g>
		</g>
		<g>
			<path class="st0" d="M8,15c-3.9,0-7-3.1-7-7s3.1-7,7-7s7,3.1,7,7S11.9,15,8,15z M8,1.4c-3.6,0-6.6,3-6.6,6.6s3,6.6,6.6,6.6
				s6.6-3,6.6-6.6S11.6,1.4,8,1.4z"/>
		</g>
	</g>
</g>
</svg>
