<?xml version="1.0" encoding="utf-8"?>
<!-- Generator: Adobe Illustrator 21.1.0, SVG Export Plug-In . SVG Version: 6.00 Build 0)  -->
<svg version="1.1" id="Layer_1" xmlns="http://www.w3.org/2000/svg" xmlns:xlink="http://www.w3.org/1999/xlink" x="0px" y="0px"
	 viewBox="0 0 16 16" style="enable-background:new 0 0 16 16;" xml:space="preserve">
<style type="text/css">
	.st0{fill:#EB343C;}
</style>
<g id="Layer_21">
	<g>
		<g>
			<path class="st0" d="M14.9,3.4V1.1h-2.2V2H9.1V1.1H6.9V2H3.4V1.1H1.1v2.2H2v3.5H1.1V9H2v3.5H1.1v2.2h2.2V14h3.5v0.9H9V14h3.5v0.9
				h2.2v-2.2H14V9.1h0.9V6.9H14V3.4H14.9z M13.1,1.6h1.3v1.3h-1.3V1.6z M7.3,1.6h1.3v1.3H7.3V1.6z M1.6,1.6h1.3v1.3H1.6V1.6z
				 M1.6,7.3h1.3v1.3H1.6V7.3z M2.9,14.4H1.6v-1.3h1.3V14.4z M8.7,14.4H7.3v-1.3h1.3L8.7,14.4L8.7,14.4z M14.4,14.4h-1.3v-1.3h1.3
				V14.4z M14.4,8.7h-1.3V7.3h1.3V8.7z M13.5,6.9h-0.9v2.2h0.9v3.5h-0.9v0.9H9.1v-0.9H6.9v0.9H3.4v-0.9H2.5V9.1h0.9V6.9H2.5V3.4h0.9
				V2.5h3.5v0.9h2.2V2.5h3.5v0.9h0.9V6.9z"/>
			<path class="st0" d="M15,15h-2.5v-0.9H9.3V15H6.7v-0.9H3.5V15H1v-2.5h0.9V9.3H1V6.7h0.9V3.5H1V1h2.5v0.9h3.2V1h2.5v0.9h3.2V1H15
				v2.5h-0.9v3.2H15v2.5h-0.9v3.2H15V15z M12.8,14.7h1.9v-1.9h-0.9V9h0.9V7h-0.9V3.2h0.9V1.3h-1.9v0.9H9V1.3H7v0.9H3.2V1.3H1.3v1.9
				h0.9V7H1.3v2h0.9v3.8H1.3v1.9h1.9v-0.9H7v0.9h2v-0.9h3.8V14.7z M14.6,14.6H13V13h1.6V14.6z M13.2,14.3h1v-1h-1V14.3z M8.8,14.6
				H7.2V13h1.6V14.6z M7.5,14.3h1v-1h-1V14.3z M3.1,14.6H1.4V13H3L3.1,14.6L3.1,14.6z M1.7,14.3h1v-1h-1V14.3z M12.8,13.7H9v-0.9H7
				v0.9H3.2v-0.9H2.3V9h0.9V7H2.3V3.2h0.9V2.3H7v0.9h2V2.3h3.8v0.9h0.9V7h-0.9v2h0.9v3.8h-0.9V13.7z M9.3,13.4h3.2v-0.9h0.9V9.3
				h-0.9V6.7h0.9V3.5h-0.9V2.6H9.3v0.9H6.7V2.6H3.5v0.9H2.6v3.2h0.9v2.5H2.6v3.2h0.9v0.9h3.2v-0.9h2.5v1H9.3z M14.6,8.8H13V7.2h1.6
				V8.8z M13.2,8.5h1v-1h-1V8.5z M3.1,8.8H1.4V7.2H3L3.1,8.8L3.1,8.8z M1.7,8.5h1v-1h-1V8.5z M14.6,3.1H13V1.4h1.6V3.1z M13.2,2.8h1
				v-1h-1V2.8z M8.8,3.1H7.2V1.4h1.6V3.1z M7.5,2.8h1v-1h-1V2.8z M3.1,3.1H1.4V1.4H3L3.1,3.1L3.1,3.1z M1.7,2.8h1v-1h-1V2.8z"/>
		</g>
		<g>
			<path class="st0" d="M3.3,3.3l2.1,6l1.1-2.8l2.8-1.1L3.3,3.3z M6.2,6.2l-0.8,2L3.9,3.9l4.3,1.5L6.2,6.2z"/>
			<path class="st0" d="M5.5,9.7L3.1,3.1l6.6,2.4L6.6,6.6L5.5,9.7z M3.6,3.6l1.9,5.3l0.9-2.5l2.5-0.9L3.6,3.6z M5.5,8.6l-1.8-5
				l5,1.8L6.4,6.3L5.5,8.6z M4.2,4.2l1.3,3.6l0.6-1.7l1.7-0.6L4.2,4.2z"/>
		</g>
	</g>
</g>
</svg>
