<?xml version="1.0" encoding="utf-8"?>
<!-- Generator: Adobe Illustrator 21.1.0, SVG Export Plug-In . SVG Version: 6.00 Build 0)  -->
<svg version="1.1" id="Layer_1" xmlns="http://www.w3.org/2000/svg" xmlns:xlink="http://www.w3.org/1999/xlink" x="0px" y="0px"
	 viewBox="0 0 16 16" style="enable-background:new 0 0 16 16;" xml:space="preserve">
<style type="text/css">
	.st0{fill:#EB343C;}
</style>
<g id="Layer_56">
	<g>
		<g>
			<g>
				<rect x="8.1" y="1.2" class="st0" width="0.5" height="2.6"/>
			</g>
		</g>
		<g>
			<g>
				<path class="st0" d="M9.9,1.7L8.5,1C8.4,1,8.3,1,8.3,1C8.2,1,8.2,1.1,8.2,1.2v1.4c0,0.1,0,0.2,0.1,0.2h0.1h0.1l1.4-0.7
					C10,2.1,10,2,10,1.9S10,1.8,9.9,1.7z M8.6,2.3V1.6l0.6,0.3L8.6,2.3z"/>
			</g>
		</g>
		<g>
			<g>
				<path class="st0" d="M10.9,5.1C10.9,5,10.8,5,10.7,5s-0.2,0-0.2,0.1L10,5.9L8.6,3.7c0-0.1-0.1-0.1-0.2-0.1c-0.1,0-0.2,0-0.2,0.1
					L6.5,6l0.4,0.3l1.4-2l1.4,2.3c0,0.1,0.1,0.1,0.2,0.1c0.1,0,0.2,0,0.2-0.1l0.5-0.9l1.2,1.8l0.4-0.3L10.9,5.1z"/>
			</g>
		</g>
		<g>
			<g>
				<path class="st0" d="M6.2,5.1C6.2,5,6.1,5,6,5l0,0c0,0-0.1,0-0.1,0.1l-3,4l0.4,0.3L6,5.6l1.4,1.9l0.4-0.3L6.2,5.1z"/>
			</g>
		</g>
		<g>
			<g>
				<path class="st0" d="M10.4,14.6l-1.9-2.3c0-0.1-0.1-0.1-0.2-0.1c-0.1,0-0.1,0-0.2,0.1L7,13.4l0.3,0.3l1-1l1.4,1.8H1.8V9.2
					l0.5-0.6l1.9,2.3l0.4-0.3L2.5,8.1C2.4,8,2.4,8,2.3,8C2.2,8,2.2,8,2.1,8.1L1.4,9v0.1v5.6c0,0.1,0.1,0.2,0.2,0.2h8.6
					c0.1,0,0.2-0.1,0.2-0.1C10.5,14.8,10.5,14.7,10.4,14.6z"/>
			</g>
		</g>
		<g>
			<g>
				<path class="st0" d="M12.8,6.3c0-0.1-0.1-0.1-0.2-0.1c-0.1,0-0.2,0-0.2,0.1l-1.2,1.6l0.4,0.3l0.9-1.3l1.9,3.9l0.4-0.2L12.8,6.3z
					"/>
			</g>
		</g>
		<g>
			<g>
				<path class="st0" d="M5.4,9.9c0-0.1-0.1-0.1-0.2-0.1S5.1,9.8,5,9.9l-1.5,1.9l0.4,0.3l1.3-1.7l0.4,0.5L6,10.7L5.4,9.9z"/>
			</g>
		</g>
		<g>
			<g>
				<path class="st0" d="M15.2,9.9c-0.1,0-0.2,0-0.3,0.1l-1.3,1.3l-1-0.8c-0.1-0.1-0.2-0.1-0.3,0l-0.7,0.7l0.3,0.3l0.6-0.6l1,0.8
					c0.1,0.1,0.2,0.1,0.3,0l1-1v3.9h-4.7V15H15c0.1,0,0.2-0.1,0.2-0.2v-4.7C15.4,10,15.3,9.9,15.2,9.9z"/>
			</g>
		</g>
		<g>
			<g>
				<rect x="3" y="13.1" class="st0" width="0.5" height="0.7"/>
			</g>
		</g>
		<g>
			<g>
				<path class="st0" d="M4.2,12.8l-0.7-2.1c0-0.1-0.1-0.2-0.2-0.2c-0.1,0-0.2,0.1-0.2,0.2l-0.7,2.1c0,0.1,0,0.1,0,0.2
					c0,0.1,0.1,0.1,0.2,0.1H4c0.1,0,0.1,0,0.2-0.1C4.2,13,4.2,12.9,4.2,12.8z M2.9,12.7l0.4-1.1l0.4,1.1H2.9z"/>
			</g>
		</g>
		<g>
			<g>
				<rect x="6" y="11.7" class="st0" width="0.5" height="0.7"/>
			</g>
		</g>
		<g>
			<g>
				<path class="st0" d="M7.2,11.4L6.5,9.3c0-0.1-0.1-0.2-0.2-0.2S6.1,9.2,6.1,9.3l-0.7,2.1c0,0.1,0,0.1,0,0.2
					c0,0.1,0.1,0.1,0.2,0.1H7c0.1,0,0.1,0,0.2-0.1C7.2,11.6,7.2,11.5,7.2,11.4z M5.9,11.3l0.4-1.1l0.4,1.1H5.9z"/>
			</g>
		</g>
		<g>
			<g>
				
					<rect x="6.7" y="11.2" transform="matrix(0.7593 -0.6508 0.6508 0.7593 -6.3463 7.4852)" class="st0" width="0.5" height="2.2"/>
			</g>
		</g>
		<g>
			<g>
				<path class="st0" d="M5.8,14.7l-0.7-2.1c0-0.1-0.1-0.2-0.2-0.2s-0.2,0.1-0.2,0.2L4,14.7c0,0.1,0,0.1,0,0.2C4,15,4.1,15,4.2,15
					h1.4c0.1,0,0.1,0,0.2-0.1C5.8,14.8,5.8,14.8,5.8,14.7z M4.5,14.5l0.4-1.1l0.4,1.1H4.5L4.5,14.5z"/>
			</g>
		</g>
		<g>
			<g>
				<rect x="11.4" y="12.9" class="st0" width="0.5" height="0.7"/>
			</g>
		</g>
		<g>
			<g>
				<path class="st0" d="M12.6,12.6l-0.7-2.1c0-0.1-0.1-0.2-0.2-0.2s-0.2,0.1-0.2,0.2l-0.7,2.1c0,0.1,0,0.1,0,0.2
					c0,0.1,0.1,0.1,0.2,0.1h1.4c0.1,0,0.1,0,0.2-0.1C12.6,12.7,12.6,12.7,12.6,12.6z M11.3,12.4l0.4-1.1l0.4,1.1H11.3z"/>
			</g>
		</g>
		<g>
			<g>
				<rect x="8.7" y="12.3" transform="matrix(0.7353 -0.6777 0.6777 0.7353 -5.8088 10.2159)" class="st0" width="3" height="0.5"/>
			</g>
		</g>
		<g>
			<g>
				<rect x="13.5" y="13.8" class="st0" width="0.5" height="0.7"/>
			</g>
		</g>
		<g>
			<g>
				<path class="st0" d="M14.7,13.5L14,11.4c0-0.1-0.1-0.2-0.2-0.2c-0.1,0-0.2,0.1-0.2,0.2l-0.7,2.1c0,0.1,0,0.1,0,0.2
					c0,0.1,0.1,0.1,0.2,0.1h1.4c0.1,0,0.1,0,0.2-0.1C14.7,13.7,14.7,13.6,14.7,13.5z M13.4,13.4l0.4-1.1l0.4,1.1H13.4z"/>
			</g>
		</g>
		<g>
			<g>
				<path class="st0" d="M8.3,6.5C8.2,6.3,8,6.3,8,6.5L6.8,7.9l0.4,0.3l1-1.2l1,1.2l0.4-0.3L8.3,6.5z"/>
			</g>
		</g>
	</g>
</g>
</svg>
