<?xml version="1.0" encoding="utf-8"?>
<!-- Generator: Adobe Illustrator 21.1.0, SVG Export Plug-In . SVG Version: 6.00 Build 0)  -->
<svg version="1.1" id="Layer_1" xmlns="http://www.w3.org/2000/svg" xmlns:xlink="http://www.w3.org/1999/xlink" x="0px" y="0px"
	 viewBox="0 0 16 16" style="enable-background:new 0 0 16 16;" xml:space="preserve">
<style type="text/css">
	.st0{fill:#EB343C;}
</style>
<g id="Layer_25">
	<g>
		<g>
			<g>
				<path class="st0" d="M13.7,11.1C13.7,11,13.7,11,13.7,11.1C13.7,11,13.6,11,13.7,11.1C13.6,11,13.6,11,13.6,11l0,0l0,0
					c0,0,0,0-0.1,0h-0.1c0,0,0,0-0.1,0l0,0l0,0l0,0l0,0c0,0,0,0,0,0.1c0,0,0,0,0,0.1c0,0,0,0,0,0.1c0,0,0,0,0,0.1l0,0l0,0l0,0l0,0
					c0,0,0,0,0.1,0c0,0,0,0,0.1,0c0,0,0,0,0.1,0c0,0,0,0,0.1,0l0,0l0,0l0,0l0,0c0,0,0,0,0-0.1C13.7,11.1,13.7,11.1,13.7,11.1
					L13.7,11.1z"/>
			</g>
		</g>
		<g>
			<g>
				<path class="st0" d="M14,5.2l-1.8-1.9c-0.3-0.3-0.7-0.5-1.1-0.4c0-0.1-0.1-0.2-0.1-0.3C10.7,2,10.2,1.8,9.8,1.8h-3
					c-1.4,0-2.7,0.7-3.4,1.9L1.6,6.4C1,7.3,0.9,8.3,1.1,9.3l1.1,4.4c0,0.1,0.1,0.2,0.2,0.2c0,0,0,0,0.1,0s0.1,0,0.2-0.1l3-3h5.5
					l2.8,3c0.1,0.1,0.1,0.1,0.2,0.1h0.1c0.1,0,0.2-0.1,0.2-0.2L15,8C15.1,7,14.7,5.9,14,5.2z M6,9.7C6,9.7,5.9,9.7,6,9.7
					C5.9,9.8,5.8,9.8,5.8,9.9c0,0,0,0-0.1,0.1s-0.1,0.1-0.2,0.2l-0.2,0.2l-2.7,2.7L2.1,11l0.8-0.8c1.6-1.6,3-3.5,4.2-5.5
					c0.1-0.1,0-0.3-0.1-0.4s-0.3,0-0.4,0.1C5.5,6.3,4.1,8.1,2.5,9.7l-0.6,0.6L1.6,9.2C1.4,8.3,1.6,7.5,2,6.7l1.8-2.8
					c0.7-1,1.8-1.6,3-1.6h2.9c0.3,0,0.6,0.2,0.7,0.4s0.1,0.6,0,0.8L9.8,4.6c0,0.1-0.1,0.2-0.1,0.2s0,0,0,0.1C9.6,5,9.5,5,9.5,5.1
					c0,0,0,0,0,0.1S9.4,5.4,9.4,5.4l0,0l0,0L8.5,5c0,0-0.1,0-0.2,0L6.8,5.8C6.7,5.9,6.7,6,6.7,6.1v2.1c0,0.1,0.1,0.2,0.1,0.2L7,8.5
					C6.9,8.6,6.8,8.8,6.6,9l0,0C6.5,9.1,6.5,9.1,6.4,9.2c0,0,0,0-0.1,0.1c0,0.1-0.1,0.1-0.1,0.2c0,0,0,0.1-0.1,0.1
					C6.1,9.6,6,9.6,6,9.7z M9.6,6.2V8L9.2,8.2L8.4,8.7L7.6,8.2L7.2,8V6.2l1.2-0.7L9.2,6l0,0L9.6,6.2z M6.2,10.3L6.2,10.3l0.1-0.1
					l0,0C6.4,10,6.5,9.9,6.5,9.9s0-0.1,0.1-0.1l0.1-0.1l0.1-0.1l0.1-0.1c0,0,0.1-0.1,0.1-0.2l0.1-0.1l0.1-0.1c0,0,0-0.1,0.1-0.1
					l0.1-0.1l0,0l0.8,0.4h0.1h0.1l0.8-0.4l1.4,1.5L6.2,10.3L6.2,10.3z M14.4,8L14,13L9.8,8.5L10,8.4c0.1,0,0.1-0.1,0.1-0.2V8
					l2.3,2.5c0.1,0.1,0.1,0.1,0.2,0.1c0.1,0,0.1,0,0.2-0.1c0.1-0.1,0.1-0.3,0-0.4l-2.7-2.9V6.1C10.1,6,10,5.9,10,5.9L9.8,5.7
					l0.1-0.1L10,5.5c0,0,0-0.1,0.1-0.1c0-0.1,0.1-0.1,0.1-0.2c0,0,0-0.1,0.1-0.1c0-0.1,0.1-0.2,0.1-0.2L11,3.8l0,0c0,0,0,0,0-0.1
					l0,0c0,0,0,0,0-0.1l0,0c0,0,0,0,0-0.1l0,0l0,0c0-0.1,0-0.1,0-0.2l0,0c0.3,0,0.5,0.1,0.7,0.3l1.8,1.9C14.2,6.2,14.5,7.1,14.4,8z"
					/>
			</g>
		</g>
		<g>
			<g>
				<path class="st0" d="M7.8,3.5C7.8,3.4,7.7,3.4,7.8,3.5C7.7,3.4,7.7,3.4,7.8,3.5C7.7,3.3,7.7,3.3,7.7,3.3l0,0l0,0c0,0,0,0-0.1,0
					H7.5c0,0,0,0-0.1,0l0,0l0,0l0,0l0,0c0,0,0,0,0,0.1c0,0,0,0,0,0.1c0,0,0,0,0,0.1c0,0,0,0,0,0.1l0,0l0,0l0,0l0,0c0,0,0,0,0.1,0
					c0,0,0,0,0.1,0S7.7,3.7,7.8,3.5L7.8,3.5L7.8,3.5C7.8,3.6,7.8,3.6,7.8,3.5C7.8,3.6,7.8,3.5,7.8,3.5L7.8,3.5z"/>
			</g>
		</g>
	</g>
</g>
</svg>
