<?xml version="1.0" encoding="utf-8"?>
<!-- Generator: Adobe Illustrator 21.1.0, SVG Export Plug-In . SVG Version: 6.00 Build 0)  -->
<svg version="1.1" id="Layer_1" xmlns="http://www.w3.org/2000/svg" xmlns:xlink="http://www.w3.org/1999/xlink" x="0px" y="0px"
	 viewBox="0 0 16 16" style="enable-background:new 0 0 16 16;" xml:space="preserve">
<style type="text/css">
	.st0{fill:#EB343C;}
</style>
<g id="Layer_28">
	<g>
		<g>
			<g>
				<g>
					<g>
						<path class="st0" d="M14.2,2.1l-1.1,0.4h-1.3c-0.4,0-0.7,0.3-0.7,0.7v0.9c0,0.1,0,0.2,0,0.2c-0.2-0.3-0.4-0.5-0.7-0.6V3.5
							C10.4,2.1,9.3,1,8,1S5.5,2.1,5.5,3.5v0.3C5,3.9,4.6,4.4,4.6,5c0,0.4,0.2,0.7,0.4,1C4.9,6.1,4.8,6.4,4.8,6.6
							c0,0.3,0.1,0.6,0.3,0.9L4.8,7.6L4.7,6.1c0-0.4-0.3-0.7-0.7-0.8V1.4L3.5,1.6v3.6c-0.4,0.2-0.7,0.5-0.7,1V9
							c0,0.6,0.5,1.2,1.2,1.2c0.1,0,0.3,0,0.4-0.1l1.3-0.5v5.3h0.4v-2h3.6v2h0.4V9.6l1.3,0.5c0.1,0,0.3,0.1,0.4,0.1
							c0.6,0,1.2-0.5,1.2-1.2V6.2c0-0.2-0.1-0.4-0.2-0.6V4.8H13l1.1,0.4h0.7V2.1H14.2z M11.5,3.2c0-0.1,0.1-0.2,0.2-0.2h1.1v1.3
							h-1.1c-0.1,0-0.2-0.1-0.2-0.2V3.2L11.5,3.2z M11.3,5c0-0.2,0-0.4-0.1-0.5c0.1,0.1,0.2,0.2,0.3,0.3v0.8
							c-0.2,0.2-0.3,0.4-0.3,0.6l-0.1,1.5l-0.3-0.2C11,7.3,11.1,7,11.1,6.6c0-0.2-0.1-0.4-0.2-0.6C11.2,5.7,11.3,5.4,11.3,5z
							 M5.6,7.2C5.4,7,5.3,6.8,5.3,6.6c0-0.2,0.1-0.4,0.2-0.5l0.1-0.2L5.4,5.7C5.2,5.6,5.1,5.3,5.1,5c0-0.4,0.3-0.8,0.7-0.9H6V3.5
							c0-1.1,0.9-2,2-2s2,0.9,2,2v0.7h0.2c0.4,0.1,0.7,0.5,0.7,0.9c0,0.3-0.1,0.5-0.4,0.7l-0.2,0.1L10.5,6c0.1,0.2,0.2,0.3,0.2,0.5
							S10.6,7,10.5,7.1l0,0L9.1,6.7V6.2c0.4-0.3,0.7-0.8,0.7-1.4V3.5H9.3c-0.4,0-0.7-0.3-0.7-0.7H8.2c0,0.4-0.3,0.7-0.7,0.7H6.2v1.3
							c0,0.6,0.3,1.1,0.7,1.4v0.5L5.6,7.2L5.6,7.2z M8,6.1c-0.7,0-1.3-0.6-1.3-1.3V3.9h0.9c0.4,0,0.7-0.2,0.9-0.4
							C8.7,3.8,9,3.9,9.4,3.9v0.9C9.3,5.5,8.7,6.1,8,6.1z M7.3,6.4C7.5,6.5,7.7,6.6,8,6.6s0.5,0,0.7-0.1v0.4V7l0,0
							c0,0.4-0.3,0.7-0.7,0.7C7.6,7.7,7.3,7.4,7.3,7V6.9V6.8V6.4z M6.9,7.1c0.1,0.6,0.5,1,1.1,1s1-0.4,1.1-1l0.2,0.1L8.1,9.9H7.9
							L6.7,7.2L6.9,7.1z M11.9,9.7c-0.1,0-0.2,0-0.3,0L9.8,8.9v3.4H6.2V8.9L4.3,9.7c-0.1,0-0.2,0-0.3,0C3.6,9.7,3.3,9.4,3.3,9V6.2
							c0-0.2,0.1-0.3,0.2-0.4v0.4H4V5.7c0.2,0.1,0.3,0.2,0.3,0.4l0.2,2.1l1.8-0.8l1.4,2.9h0.7l1.4-2.9l1.8,0.8l0.2-1.9
							c0.1,0.2,0.3,0.3,0.5,0.3s0.3-0.1,0.4-0.2V9C12.7,9.4,12.3,9.7,11.9,9.7z M12.4,5.9c0,0.1-0.1,0.2-0.2,0.2S12,6,12,5.9V4.8
							h0.4V5.9L12.4,5.9z M14.4,4.8h-0.2l-0.9-0.4V2.9l0.9-0.4h0.2V4.8z"/>
					</g>
				</g>
				<g>
					<g>
						<rect x="7.7" y="13.9" class="st0" width="0.4" height="0.9"/>
					</g>
				</g>
				<g>
					<g>
						<path class="st0" d="M8.6,11.7H7.4c-0.2,0-0.4-0.2-0.4-0.4v-0.7c0-0.2,0.2-0.4,0.4-0.4h1.2c0.2,0,0.4,0.2,0.4,0.4v0.7
							c0,0.1,0,0.2-0.1,0.3C8.8,11.7,8.7,11.7,8.6,11.7z M7.4,10.4c-0.1,0-0.2,0.1-0.2,0.2v0.7c0,0.1,0.1,0.2,0.2,0.2h1.2
							c0,0,0.1,0,0.1-0.1l0.1-0.1v-0.7c0-0.1-0.1-0.2-0.2-0.2C8.6,10.4,7.4,10.4,7.4,10.4z"/>
						<path class="st0" d="M8.6,11.8H7.4c-0.3,0-0.5-0.2-0.5-0.5v-0.7c0-0.3,0.2-0.5,0.5-0.5h1.2c0.3,0,0.5,0.2,0.5,0.5v0.7
							c0,0.1,0,0.2-0.1,0.3C8.8,11.7,8.7,11.8,8.6,11.8z M7.4,10.2c-0.2,0-0.4,0.2-0.4,0.4v0.7c0,0.2,0.2,0.4,0.4,0.4h1.2
							c0.1,0,0.2,0,0.3-0.1S9,11.4,9,11.3v-0.7c0-0.2-0.2-0.4-0.4-0.4C8.6,10.2,7.4,10.2,7.4,10.2z M8.6,11.5H7.4
							c-0.1,0-0.2-0.1-0.2-0.2v-0.7c0-0.1,0.1-0.2,0.2-0.2h1.2c0.1,0,0.2,0.1,0.2,0.2v0.7C8.8,11.4,8.8,11.4,8.6,11.5L8.6,11.5z
							 M7.4,10.4c-0.1,0-0.1,0.1-0.1,0.1v0.7c0,0.1,0.1,0.1,0.1,0.1h1.2h0.1v-0.1v-0.7c0-0.1-0.1-0.1-0.1-0.1H7.4z"/>
					</g>
				</g>
			</g>
		</g>
		<g>
			<g>
				<path class="st0" d="M4,3.7L1.1,2.6L4,1.4V3.7z M2,2.6l1.6,0.7V1.9L2,2.6z"/>
			</g>
		</g>
	</g>
</g>
</svg>
