<?xml version="1.0" encoding="utf-8"?>
<!-- Generator: Adobe Illustrator 21.1.0, SVG Export Plug-In . SVG Version: 6.00 Build 0)  -->
<svg version="1.1" id="Layer_3" xmlns="http://www.w3.org/2000/svg" xmlns:xlink="http://www.w3.org/1999/xlink" x="0px" y="0px"
	 viewBox="0 0 16 16" style="enable-background:new 0 0 16 16;" xml:space="preserve">
<style type="text/css">
	.st0{fill:#EB343C;}
</style>
<g>
	<g>
		<path class="st0" d="M14.7,0.4h-1.7v0.5h1.1l-1.5,1.5C11,1,8.5,1.1,7,2.8C6.6,3.3,6.3,3.9,6.1,4.5C4,4,1.8,5.2,1.2,7.3
			s0.6,4.3,2.7,4.9c0.3,0.1,0.5,0.1,0.8,0.1v1.2H3.6V14h1.2v1.2h0.5V14h1.2v-0.5H5.3v-1.2c1.8-0.1,3.2-1.4,3.6-3.1
			c2.1,0.6,4.3-0.6,4.9-2.7c0.4-1.3,0.1-2.7-0.8-3.7l1.5-1.5v1.1h0.5V0.7C14.9,0.6,14.8,0.4,14.7,0.4z M5,11.8
			c-1.9,0-3.5-1.5-3.5-3.5c0-1.9,1.5-3.5,3.5-3.5c0.3,0,0.7,0.1,1,0.2c0,0.1,0,0.2,0,0.3C6,7,7,8.4,8.4,9C8.1,10.6,6.7,11.8,5,11.8z
			 M8.5,8.5c-1.2-0.6-2-1.8-2-3.1c0-0.1,0-0.1,0-0.2c1.2,0.6,2,1.8,2,3.1C8.5,8.4,8.5,8.4,8.5,8.5z M13.4,6.1
			C13,7.7,11.6,8.8,10,8.8c-0.3,0-0.7-0.1-1-0.2c0-0.1,0-0.2,0-0.3c0-1.6-0.9-3-2.4-3.6C7,2.8,8.8,1.6,10.6,2
			C12.5,2.4,13.7,4.2,13.4,6.1z"/>
	</g>
</g>
</svg>
