<?xml version="1.0" encoding="utf-8"?>
<!-- Generator: Adobe Illustrator 21.1.0, SVG Export Plug-In . SVG Version: 6.00 Build 0)  -->
<svg version="1.1" id="Layer_1" xmlns="http://www.w3.org/2000/svg" xmlns:xlink="http://www.w3.org/1999/xlink" x="0px" y="0px"
	 viewBox="0 0 16 16" style="enable-background:new 0 0 16 16;" xml:space="preserve">
<style type="text/css">
	.st0{fill:#EB343C;}
</style>
<g id="Layer_6">
	<g>
		<g>
			<g>
				<path class="st0" d="M14.6,7.5h-0.5v-1V6.1c0-0.7-0.9-1.2-1.2-1.4V4.3c0-0.1-0.1-0.3-0.3-0.3s-0.3,0.1-0.3,0.3v0.3
					c-0.4,0.2-1.2,0.7-1.2,1.4v0.4v1h-0.2V6.2v-1c0-0.7-0.5-1.4-1.5-2.1c-0.5-0.4-1-0.6-1.2-0.7V1.5c0-0.1-0.1-0.3-0.3-0.3
					c-0.1,0-0.3,0.1-0.3,0.3v0.9C7.4,2.5,6.9,2.8,6.4,3.2C5.4,3.9,5,4.6,5,5.3v1v1.2H4.7v-1V6.1C4.7,5.7,4.5,5.3,4,5
					C3.9,4.9,3.7,4.8,3.6,4.7l0,0V4.3C3.6,4.2,3.5,4,3.3,4C3.1,4.1,3,4.2,3,4.3v0.3C2.6,4.9,1.7,5.4,1.7,6.1v0.4v1H1.3
					C1.1,7.5,1,7.6,1,7.8v7C1,14.9,1.1,15,1.3,15h1.1h1.7h1.1l0,0h1.4h2.7h1.4l0,0h1.1h1.7h1.1c0.1,0,0.3-0.1,0.3-0.3v-7
					C14.8,7.6,14.7,7.5,14.6,7.5z M2.3,6.1c0-0.3,0.6-0.7,1-0.9c0.4,0.2,1,0.6,1,0.9v0.2h-2V6.1z M2.3,6.8h1.9v0.7H2.3V6.8z M1.5,8
					H2h2.5H5v0.5H1.5V8z M3.8,9.6v1.1H2.7V9.6C2.7,9.3,2.9,9,3.2,9C3.6,9,3.8,9.3,3.8,9.6z M3.8,14.5H2.7v-1.1
					c0-0.3,0.3-0.6,0.6-0.6s0.6,0.3,0.6,0.6v1.1H3.8z M4.9,14.5H4.4v-1.1c0-0.6-0.5-1.1-1.1-1.1s-1.1,0.5-1.1,1.1v1.1H1.5V9h0.7
					c0,0.2-0.1,0.4-0.1,0.6V11c0,0.1,0.1,0.3,0.3,0.3h1.7c0.1,0,0.3-0.1,0.3-0.3V9.6c0-0.2-0.1-0.4-0.2-0.6h0.7V14.5z M5.5,5.3
					c0-1,1.7-2,2.4-2.4c0.8,0.4,2.4,1.4,2.4,2.4V6H5.5V5.3z M5.5,6.5h4.9v1H5.5V6.5z M9,14.5H6.9v-2.1c0-0.4,0.7-0.8,1.1-1
					c0.1,0.1,0.3,0.2,0.5,0.3C8.8,11.9,9,12.1,9,12.3V14.5z M10.4,14.5H9.5v-2.1c0-0.4-0.2-0.7-0.7-1.1h1.5L10.4,14.5L10.4,14.5z
					 M10.4,10.7H7.1c-0.1,0-0.3,0.1-0.3,0.3c0,0.1,0.1,0.2,0.2,0.3c-0.3,0.3-0.7,0.6-0.7,1.1v2.1H5.5V9h3.2C8.8,9,9,8.9,9,8.8
					c0-0.1-0.1-0.3-0.3-0.3H5.5V8h4.9V10.7L10.4,10.7z M11.7,6.1c0-0.3,0.6-0.7,1-0.9c0.4,0.2,1,0.6,1,0.9v0.2h-1.9V6.1H11.7z
					 M11.7,6.8h1.9v0.7h-1.9V6.8z M13.2,14.5H12v-1.1c0-0.3,0.3-0.6,0.6-0.6s0.6,0.3,0.6,0.6L13.2,14.5L13.2,14.5z M14.3,14.5h-0.6
					v-1.1c0-0.6-0.5-1.1-1.1-1.1s-1.1,0.5-1.1,1.1v1.1h-0.6v-3.2h0.8h1.7h0.8v3.2H14.3z M13.2,10.7H12V9.6C12,9.3,12.3,9,12.6,9
					s0.6,0.3,0.6,0.6L13.2,10.7L13.2,10.7z M14.3,10.7h-0.6V9.6c0-0.6-0.5-1.1-1.1-1.1S11.5,9,11.5,9.6v1.1h-0.6V8h0.5h2.5h0.5
					L14.3,10.7L14.3,10.7z"/>
			</g>
		</g>
		<g>
			<g>
				<path class="st0" d="M9.9,8.7L9.9,8.7C9.9,8.7,9.9,8.6,9.9,8.7C9.8,8.6,9.8,8.6,9.9,8.7L9.9,8.7L9.9,8.7
					C9.8,8.6,9.8,8.6,9.7,8.6H9.6c0,0,0,0-0.1,0l0,0l0,0l0,0l0,0c0,0,0,0,0,0.1c0,0,0,0,0,0.1c0,0,0,0,0,0.1c0,0,0,0,0,0.1s0,0,0,0
					l0,0l0,0l0,0c0,0,0,0,0.1,0c0,0,0,0,0.1,0c0,0,0,0,0.1,0c0,0,0,0,0.1,0l0,0l0,0l0,0l0,0c0,0,0,0,0-0.1C9.9,8.8,9.9,8.8,9.9,8.7
					C9.9,8.8,9.9,8.7,9.9,8.7z"/>
			</g>
		</g>
		<g>
			<g>
				<path class="st0" d="M6.4,10.9L6.4,10.9C6.4,10.9,6.4,10.8,6.4,10.9c-0.1-0.1-0.1-0.1-0.1-0.1l0,0l0,0c0,0,0,0-0.1,0H6.1
					c0,0,0,0-0.1,0l0,0l0,0l0,0l0,0c0,0,0,0,0,0.1c0,0,0,0,0,0.1s0,0.1,0.1,0.2l0,0l0,0c0,0,0,0,0.1,0c0,0,0,0,0.1,0c0,0,0,0,0.1,0
					c0,0,0,0,0.1,0l0,0l0,0C6.4,11.1,6.4,11,6.4,10.9C6.4,11,6.4,10.9,6.4,10.9z"/>
			</g>
		</g>
	</g>
</g>
</svg>
