<?xml version="1.0" encoding="utf-8"?>
<!-- Generator: Adobe Illustrator 21.1.0, SVG Export Plug-In . SVG Version: 6.00 Build 0)  -->
<svg version="1.1" id="Layer_1" xmlns="http://www.w3.org/2000/svg" xmlns:xlink="http://www.w3.org/1999/xlink" x="0px" y="0px"
	 viewBox="0 0 16 16" style="enable-background:new 0 0 16 16;" xml:space="preserve">
<style type="text/css">
	.st0{fill:#EB343C;}
</style>
<g id="Layer_34">
	<g>
		<g>
			<g>
				<path class="st0" d="M9.2,11.6H6.8c-0.1,0-0.2,0.1-0.2,0.2v1.6c0,0.1,0.1,0.2,0.2,0.2h2.3c0.1,0,0.2-0.1,0.2-0.2v-1.6
					C9.4,11.7,9.3,11.6,9.2,11.6z M8.9,13.3H7.1v-1.2H9v1.2H8.9z"/>
			</g>
		</g>
		<g>
			<g>
				<rect x="7.8" y="11.9" class="st0" width="0.5" height="1.6"/>
			</g>
		</g>
		<g>
			<g>
				<path class="st0" d="M10.3,2.5H5.7c-0.1,0-0.2,0.1-0.2,0.2v10.7c0,0.1,0.1,0.2,0.2,0.2h4.7c0.1,0,0.2-0.1,0.2-0.2V2.8
					C10.6,2.6,10.5,2.5,10.3,2.5z M10.1,13.3H5.9V3h4.2V13.3z"/>
			</g>
		</g>
		<g>
			<g>
				<path class="st0" d="M5.7,3.5H3.8c-0.1,0-0.2,0.1-0.2,0.2v9.8c0,0.1,0.1,0.2,0.2,0.2h1.9c0.1,0,0.2-0.1,0.2-0.2V3.7
					C5.9,3.6,5.8,3.5,5.7,3.5z M5.4,13.3H4V3.9h1.4V13.3z"/>
			</g>
		</g>
		<g>
			<g>
				<rect x="3.1" y="3.5" class="st0" width="0.7" height="0.5"/>
			</g>
		</g>
		<g>
			<g>
				<rect x="6.4" y="10.5" class="st0" width="0.5" height="0.7"/>
			</g>
		</g>
		<g>
			<g>
				<rect x="7.3" y="10.5" class="st0" width="0.5" height="0.7"/>
			</g>
		</g>
		<g>
			<g>
				<rect x="8.2" y="10.5" class="st0" width="0.5" height="0.7"/>
			</g>
		</g>
		<g>
			<g>
				<rect x="9.2" y="10.5" class="st0" width="0.5" height="0.7"/>
			</g>
		</g>
		<g>
			<g>
				<rect x="6.4" y="9.3" class="st0" width="0.5" height="0.7"/>
			</g>
		</g>
		<g>
			<g>
				<rect x="7.3" y="9.3" class="st0" width="0.5" height="0.7"/>
			</g>
		</g>
		<g>
			<g>
				<rect x="8.2" y="9.3" class="st0" width="0.5" height="0.7"/>
			</g>
		</g>
		<g>
			<g>
				<rect x="9.2" y="9.3" class="st0" width="0.5" height="0.7"/>
			</g>
		</g>
		<g>
			<g>
				<rect x="6.4" y="8.1" class="st0" width="0.5" height="0.7"/>
			</g>
		</g>
		<g>
			<g>
				<rect x="7.3" y="8.1" class="st0" width="0.5" height="0.7"/>
			</g>
		</g>
		<g>
			<g>
				<rect x="8.2" y="8.1" class="st0" width="0.5" height="0.7"/>
			</g>
		</g>
		<g>
			<g>
				<rect x="9.2" y="8.1" class="st0" width="0.5" height="0.7"/>
			</g>
		</g>
		<g>
			<g>
				<rect x="6.4" y="7" class="st0" width="0.5" height="0.7"/>
			</g>
		</g>
		<g>
			<g>
				<rect x="7.3" y="7" class="st0" width="0.5" height="0.7"/>
			</g>
		</g>
		<g>
			<g>
				<rect x="8.2" y="7" class="st0" width="0.5" height="0.7"/>
			</g>
		</g>
		<g>
			<g>
				<rect x="9.2" y="7" class="st0" width="0.5" height="0.7"/>
			</g>
		</g>
		<g>
			<g>
				<rect x="6.4" y="5.8" class="st0" width="0.5" height="0.7"/>
			</g>
		</g>
		<g>
			<g>
				<rect x="7.3" y="5.8" class="st0" width="0.5" height="0.7"/>
			</g>
		</g>
		<g>
			<g>
				<rect x="8.2" y="5.8" class="st0" width="0.5" height="0.7"/>
			</g>
		</g>
		<g>
			<g>
				<rect x="9.2" y="5.8" class="st0" width="0.5" height="0.7"/>
			</g>
		</g>
		<g>
			<g>
				<rect x="6.4" y="4.6" class="st0" width="0.5" height="0.7"/>
			</g>
		</g>
		<g>
			<g>
				<rect x="7.3" y="4.6" class="st0" width="0.5" height="0.7"/>
			</g>
		</g>
		<g>
			<g>
				<rect x="8.2" y="4.6" class="st0" width="0.5" height="0.7"/>
			</g>
		</g>
		<g>
			<g>
				<rect x="9.2" y="4.6" class="st0" width="0.5" height="0.7"/>
			</g>
		</g>
		<g>
			<g>
				<rect x="6.4" y="3.5" class="st0" width="0.5" height="0.7"/>
			</g>
		</g>
		<g>
			<g>
				<rect x="7.3" y="3.5" class="st0" width="0.5" height="0.7"/>
			</g>
		</g>
		<g>
			<g>
				<rect x="8.2" y="3.5" class="st0" width="0.5" height="0.7"/>
			</g>
		</g>
		<g>
			<g>
				<rect x="9.2" y="3.5" class="st0" width="0.5" height="0.7"/>
			</g>
		</g>
		<g>
			<g>
				<rect x="4.5" y="11.6" class="st0" width="0.5" height="0.7"/>
			</g>
		</g>
		<g>
			<g>
				<rect x="4.5" y="10.5" class="st0" width="0.5" height="0.7"/>
			</g>
		</g>
		<g>
			<g>
				<rect x="4.5" y="9.3" class="st0" width="0.5" height="0.7"/>
			</g>
		</g>
		<g>
			<g>
				<rect x="4.5" y="8.1" class="st0" width="0.5" height="0.7"/>
			</g>
		</g>
		<g>
			<g>
				<rect x="4.5" y="7" class="st0" width="0.5" height="0.7"/>
			</g>
		</g>
		<g>
			<g>
				<rect x="4.5" y="5.8" class="st0" width="0.5" height="0.7"/>
			</g>
		</g>
		<g>
			<g>
				<rect x="4.5" y="4.6" class="st0" width="0.5" height="0.7"/>
			</g>
		</g>
		<g>
			<g>
				<path class="st0" d="M12.2,3.5h-1.9c-0.1,0-0.2,0.1-0.2,0.2v9.8c0,0.1,0.1,0.2,0.2,0.2h1.9c0.1,0,0.2-0.1,0.2-0.2V3.7
					C12.4,3.6,12.3,3.5,12.2,3.5z M12,13.3h-1.4V3.9H12V13.3z"/>
			</g>
		</g>
		<g>
			<g>
				<rect x="12.2" y="3.5" class="st0" width="0.7" height="0.5"/>
			</g>
		</g>
		<g>
			<g>
				<rect x="11" y="11.6" class="st0" width="0.5" height="0.7"/>
			</g>
		</g>
		<g>
			<g>
				<rect x="11" y="10.5" class="st0" width="0.5" height="0.7"/>
			</g>
		</g>
		<g>
			<g>
				<rect x="11" y="9.3" class="st0" width="0.5" height="0.7"/>
			</g>
		</g>
		<g>
			<g>
				<rect x="11" y="8.1" class="st0" width="0.5" height="0.7"/>
			</g>
		</g>
		<g>
			<g>
				<rect x="11" y="7" class="st0" width="0.5" height="0.7"/>
			</g>
		</g>
		<g>
			<g>
				<rect x="11" y="5.8" class="st0" width="0.5" height="0.7"/>
			</g>
		</g>
		<g>
			<g>
				<rect x="11" y="4.6" class="st0" width="0.5" height="0.7"/>
			</g>
		</g>
		<g>
			<g>
				<rect x="1" y="13.3" class="st0" width="2.8" height="0.5"/>
			</g>
		</g>
		<g>
			<g>
				<rect x="12.2" y="13.3" class="st0" width="2.8" height="0.5"/>
			</g>
		</g>
		<g>
			<g>
				<rect x="1.9" y="8.6" class="st0" width="0.5" height="4.9"/>
			</g>
		</g>
		<g>
			<g>
				<rect x="1.9" y="8.6" transform="matrix(0.6 -0.8 0.8 0.6 -6.959 5.6223)" class="st0" width="0.5" height="2.3"/>
			</g>
		</g>
		<g>
			<g>
				<rect x="1" y="9.5" transform="matrix(0.7999 -0.6002 0.6002 0.7999 -5.4309 3.2402)" class="st0" width="2.3" height="0.5"/>
			</g>
		</g>
		<g>
			<g>
				<rect x="13.6" y="8.6" class="st0" width="0.5" height="4.9"/>
			</g>
		</g>
		<g>
			<g>
				<rect x="13.6" y="8.6" transform="matrix(0.6 -0.8 0.8 0.6 -2.263 14.9609)" class="st0" width="0.5" height="2.3"/>
			</g>
		</g>
		<g>
			<g>
				
					<rect x="12.7" y="9.5" transform="matrix(0.8001 -0.5998 0.5998 0.8001 -3.0789 10.2457)" class="st0" width="2.3" height="0.5"/>
			</g>
		</g>
	</g>
</g>
</svg>
