<?xml version="1.0" encoding="utf-8"?>
<!-- Generator: Adobe Illustrator 21.1.0, SVG Export Plug-In . SVG Version: 6.00 Build 0)  -->
<svg version="1.1" id="Layer_1" xmlns="http://www.w3.org/2000/svg" xmlns:xlink="http://www.w3.org/1999/xlink" x="0px" y="0px"
	 viewBox="0 0 16 16" style="enable-background:new 0 0 16 16;" xml:space="preserve">
<style type="text/css">
	.st0{fill:#EB343C;}
</style>
<g id="Layer_37">
	<g>
		<g>
			<g>
				<path class="st0" d="M12.4,3.3c0-0.1-0.1-0.1-0.2-0.1H5.5c-0.1,0-0.1,0-0.2,0.1c0,0.1-0.1,0.1,0,0.2l0.5,1.6L5.5,8.2
					c0,0.1,0,0.2,0,0.3c0,1.8,1.5,3.3,3.4,3.3l0,0c0.1,0,0.2,0,0.3,0c1.8-0.1,3.2-1.8,3.1-3.6L12,5.1l0.5-1.6
					C12.4,3.4,12.4,3.3,12.4,3.3z M11.5,5.1l0.2,3.1c0.1,1.6-1.1,3-2.6,3.1c-0.1,0-0.2,0-0.2,0l0,0C7.2,11.3,6,10,6,8.4
					c0-0.1,0-0.2,0-0.2l0.2-3.1V5L5.8,3.6h6.1L11.5,5.1C11.5,5,11.5,5.1,11.5,5.1z"/>
			</g>
		</g>
		<g>
			<g>
				<rect x="8.1" y="11.5" class="st0" width="0.5" height="2.6"/>
			</g>
		</g>
		<g>
			<g>
				<path class="st0" d="M10.5,13.9H7.2c-0.7,0-1.2,0.5-1.2,1.2c0,0.1,0.1,0.2,0.2,0.2h5.3c0.1,0,0.2-0.1,0.2-0.2
					C11.7,14.5,11.2,13.9,10.5,13.9z M6.5,14.9c0.1-0.3,0.4-0.5,0.7-0.5h3.4c0.3,0,0.6,0.2,0.7,0.5H6.5z"/>
			</g>
		</g>
		<g>
			<g>
				<rect x="9.1" y="11.5" class="st0" width="0.5" height="2.6"/>
			</g>
		</g>
		<g>
			<g>
				<path class="st0" d="M7.7,1.1c0,0-0.1-0.1-0.2-0.1H3.8C3.7,1,3.6,1.1,3.6,1.2v3.6C3.6,4.9,3.7,5,3.7,5h0.1C3.9,5,3.9,5,4,4.9
					l3.7-3.6C7.8,1.3,7.8,1.2,7.7,1.1z M4,4.3V1.5h2.9L4,4.3z"/>
			</g>
		</g>
		<g>
			<g>
				<rect x="6.6" y="2.6" transform="matrix(0.7071 -0.7071 0.7071 0.7071 -0.9585 6.0878)" class="st0" width="0.5" height="3.2"/>
			</g>
		</g>
		<g>
			<g>
				<rect x="6" y="5.1" class="st0" width="5.8" height="0.5"/>
			</g>
		</g>
		<g>
			<g>
				<rect x="4.2" y="1.1" transform="matrix(0.9104 -0.4138 0.4138 0.9104 -0.6493 2.0652)" class="st0" width="0.5" height="2.9"/>
			</g>
		</g>
		<g>
			<g>
				<rect x="5" y="0.7" transform="matrix(0.3714 -0.9285 0.9285 0.3714 1.4948 6.1425)" class="st0" width="0.5" height="2.6"/>
			</g>
		</g>
		<g>
			<g>
				<path class="st0" d="M10.5,6.6c0,0-0.1-0.1-0.2-0.1c-0.1,0-0.1,0-0.2,0.1L7.2,9.5c0,0-0.1,0.1-0.1,0.2c0,0.1,0,0.1,0.1,0.2
					c0.5,0.4,1,0.6,1.6,0.6s1.1-0.2,1.6-0.6l0,0C11.3,8.9,11.3,7.5,10.5,6.6z M10.1,9.5C9.4,10,8.5,10.1,7.8,9.6l2.5-2.5
					C10.7,7.8,10.7,8.8,10.1,9.5z"/>
			</g>
		</g>
		<g>
			<g>
				<path class="st0" d="M10.8,8.4L8.9,8C8.8,7.9,8.7,8,8.7,8C8.6,8.1,8.6,8.2,8.6,8.3l0.5,1.9l0.5-0.1L9.2,8.5l1.5,0.4L10.8,8.4z"
					/>
			</g>
		</g>
		<g>
			<g>
				<rect x="6.7" y="7.7" class="st0" width="0.5" height="0.5"/>
			</g>
		</g>
		<g>
			<g>
				<rect x="7.4" y="6.8" class="st0" width="0.5" height="0.5"/>
			</g>
		</g>
	</g>
</g>
</svg>
