<?xml version="1.0" encoding="utf-8"?>
<!-- Generator: Adobe Illustrator 21.1.0, SVG Export Plug-In . SVG Version: 6.00 Build 0)  -->
<svg version="1.1" id="Layer_1" xmlns="http://www.w3.org/2000/svg" xmlns:xlink="http://www.w3.org/1999/xlink" x="0px" y="0px"
	 viewBox="0 0 16 16" style="enable-background:new 0 0 16 16;" xml:space="preserve">
<style type="text/css">
	.st0{fill:#EB343C;}
</style>
<g id="Layer_38">
	<g>
		<g>
			<path class="st0" d="M4.9,6.2C4.7,5.4,4.1,4.8,3.3,4.5S1.6,4.3,0.8,4.8C0.7,4.9,0.7,5,0.7,5.1s0.1,0.2,0.2,0.2l3.6,1.2h0.1
				c0.1,0,0.1,0,0.2-0.1C4.9,6.5,4.9,6.3,4.9,6.2z M1.8,5c0.4-0.1,0.9-0.1,1.3,0S3.8,5.4,4,5.7L1.8,5z"/>
		</g>
	</g>
	<g>
		<g>
			<path class="st0" d="M4.8,6.1C4,5.6,3.1,5.6,2.3,6.1C1.5,6.5,1,7.3,1,8.1c0,0.1,0,0.2,0.1,0.3c0,0,0.1,0,0.2,0h0.1l3.3-1.8
				c0.1-0.1,0.2-0.1,0.2-0.3C4.9,6.2,4.9,6.1,4.8,6.1z M1.7,7.5c0.2-0.4,0.5-0.7,0.9-0.9c0.3-0.2,0.7-0.3,1-0.3c0.1,0,0.2,0,0.3,0
				L1.7,7.5z"/>
		</g>
	</g>
	<g>
		<g>
			<path class="st0" d="M4.7,6.6L4.5,6C3.6,6.4,3,7,2.8,7.7C2.4,8.9,3.1,10,3.2,10.1c0.1,0.1,0.2,0.1,0.3,0.1l0,0
				c0.1,0,0.2-0.1,0.3-0.2l1-2.9L4.2,6.9C4.3,6.8,4.5,6.7,4.7,6.6z M3.4,9c-0.1-0.3-0.1-0.7,0-1.1S3.7,7.2,4.1,7L3.4,9z"/>
		</g>
	</g>
	<g>
		<g>
			<path class="st0" d="M6.4,2.5C6.3,2.4,6.2,2.4,6.1,2.4c0,0-1.2,0.3-1.8,1.3C3.9,4.4,3.9,5.3,4.4,6.4c0,0.1,0.2,0.2,0.3,0.2l0,0
				c0.1,0,0.2-0.1,0.3-0.2l1.5-3.6C6.4,2.7,6.4,2.6,6.4,2.5z M4.7,5.4C4.6,4.9,4.6,4.4,4.8,4C5,3.6,5.3,3.4,5.6,3.2L4.7,5.4z"/>
		</g>
	</g>
	<g>
		<g>
			<path class="st0" d="M8.1,4.5C7.3,4.1,6.4,4.1,5.6,4.4c-0.7,0.3-1.2,1-1.3,1.8c0,0.1,0,0.2,0.1,0.3c0.1,0,0.1,0.1,0.2,0.1h0.1
				L8,5.1c0.1,0,0.2-0.1,0.2-0.3C8.2,4.7,8.2,4.6,8.1,4.5z M5.1,5.7C5.3,5.4,5.6,5.1,5.9,5s0.5-0.2,0.8-0.2c0.1,0,0.3,0,0.4,0
				L5.1,5.7z"/>
		</g>
	</g>
	<g>
		<g>
			<path class="st0" d="M8.5,7.4C8.3,6.6,7.8,6,7,5.7C6.2,5.4,5.2,5.5,4.5,6l0.3,0.5c0.6-0.4,1.3-0.5,2-0.3C7.2,6.4,7.5,6.7,7.7,7
				L5.5,6.3L5.3,6.9l2.9,0.9h0.1c0.1,0,0.2,0,0.2-0.1C8.5,7.6,8.6,7.5,8.5,7.4z"/>
		</g>
	</g>
	<g>
		<g>
			<path class="st0" d="M4.6,6.4L4.1,6.8c0,0,1.7,2.7,1.5,6.8h0.6C6.4,9.3,4.6,6.5,4.6,6.4z"/>
		</g>
	</g>
	<g>
		<g>
			<path class="st0" d="M5.5,6.1L5,6.5c0,0,1.8,2.4,1.8,6.8h0.6C7.3,8.7,5.5,6.2,5.5,6.1z"/>
		</g>
	</g>
	<g>
		<g>
			<path class="st0" d="M14.4,2.4c-0.3-0.2-0.6-0.3-0.9-0.3c-1.4-0.2-2.8,0.8-3,2.2c0,0.1,0,0.2,0.1,0.3c0.1,0,0.1,0.1,0.2,0.1h0.1
				L14.3,3c0.1,0,0.2-0.2,0.2-0.3C14.6,2.6,14.5,2.5,14.4,2.4z M11.3,3.8c0.3-0.7,1-1.1,1.8-1.1c0.1,0,0.2,0,0.3,0c0,0,0,0,0.1,0
				L11.3,3.8z"/>
		</g>
	</g>
	<g>
		<g>
			<path class="st0" d="M14.6,5.7c-0.1-0.8-0.6-1.5-1.5-1.8c-0.8-0.3-1.8-0.2-2.5,0.3c-0.1,0.1-0.1,0.2-0.1,0.3
				c0,0.1,0.1,0.2,0.2,0.2L14.2,6h0.1c0.1,0,0.1,0,0.2-0.1C14.5,5.9,14.6,5.8,14.6,5.7z M11.5,4.3c0.4-0.1,0.9-0.1,1.3,0.1
				c0.4,0.2,0.7,0.5,0.9,0.8L11.5,4.3z"/>
		</g>
	</g>
	<g>
		<g>
			<path class="st0" d="M12.8,5.6c-0.3-0.7-0.9-1.2-1.9-1.5l-0.2,0.6c0.8,0.2,1.3,0.6,1.5,1.1c0.2,0.4,0.2,0.8,0.1,1.2l-1-2
				l-0.5,0.3l1.4,2.6c0.1,0.1,0.2,0.2,0.3,0.2l0,0c0.1,0,0.2-0.1,0.3-0.2C12.8,7.9,13.3,6.7,12.8,5.6z"/>
		</g>
	</g>
	<g>
		<g>
			<path class="st0" d="M10.8,1.7c-0.7-1-1.9-1.2-1.9-1.2c-0.1,0-0.2,0-0.3,0.1C8.5,0.8,8.5,0.9,8.6,1l1.9,3.5
				c0.1,0.1,0.2,0.2,0.3,0.2l0,0c0.1,0,0.2-0.1,0.3-0.2C11.4,3.3,11.3,2.4,10.8,1.7z M10.6,3.5L9.5,1.4c0.3,0.1,0.6,0.4,0.9,0.7
				C10.6,2.5,10.7,2.9,10.6,3.5z"/>
		</g>
	</g>
	<g>
		<g>
			<path class="st0" d="M11.1,4.3c-0.2-0.8-0.8-1.4-1.5-1.6C8.8,2.4,7.9,2.5,7.2,3C7.1,3.1,7,3.2,7,3.3s0.1,0.2,0.2,0.2l3.5,1.1h0.1
				c0.1,0,0.2,0,0.2-0.1C11.1,4.5,11.1,4.4,11.1,4.3z M8.1,3.2c0.4-0.1,0.8-0.1,1.2,0s0.7,0.4,0.9,0.7L8.1,3.2z"/>
		</g>
	</g>
	<g>
		<g>
			<path class="st0" d="M8.9,4.5c0.5-0.3,1.2-0.2,1.8,0.1L11,4.1C10.2,3.7,9.3,3.7,8.6,4C7.9,4.4,7.4,5.1,7.3,6c0,0.1,0,0.2,0.1,0.3
				c0.1,0,0.1,0.1,0.2,0.1h0.1l2.6-1.1l-0.2-0.6l-2,0.8C8.2,5.1,8.5,4.7,8.9,4.5z"/>
		</g>
	</g>
	<g>
		<g>
			<path class="st0" d="M11.6,4.8L11,4.6C10,6.9,9.6,9.5,9.7,12h0.6C10.2,9.5,10.6,7.1,11.6,4.8z"/>
		</g>
	</g>
	<g>
		<g>
			<path class="st0" d="M10.8,4.4l-0.5-0.3c-1.3,2.4-1.9,5.2-1.7,8h0.6C9,9.4,9.5,6.7,10.8,4.4z"/>
		</g>
	</g>
	<g>
		<g>
			<path class="st0" d="M8.5,11.7c-0.5,0-1,0-1.6,0.1L7,12.4c0.5-0.1,1-0.1,1.5-0.1c2.6,0,5,1,5.9,2.6l0.5-0.3
				C14,12.8,11.4,11.7,8.5,11.7z"/>
		</g>
	</g>
	<g>
		<g>
			<path class="st0" d="M5.7,12.1c-1.7,0.5-3,1.4-3.7,2.5l0.5,0.3c0.6-1,1.8-1.8,3.3-2.2L5.7,12.1z"/>
		</g>
	</g>
</g>
</svg>
