<?xml version="1.0" encoding="utf-8"?>
<!-- Generator: Adobe Illustrator 21.1.0, SVG Export Plug-In . SVG Version: 6.00 Build 0)  -->
<svg version="1.1" id="Layer_2" xmlns="http://www.w3.org/2000/svg" xmlns:xlink="http://www.w3.org/1999/xlink" x="0px" y="0px"
	 viewBox="0 0 16 16" style="enable-background:new 0 0 16 16;" xml:space="preserve">
<style type="text/css">
	.st0{fill:#EB343C;}
</style>
<path class="st0" d="M8.4,10.4L5.3,7.3C5.2,7.2,5.1,7.2,5,7.3C4.9,7.4,4.9,7.6,5,7.7l3.1,3.1c0.1,0.1,0.2,0.1,0.3,0
	S8.5,10.5,8.4,10.4z"/>
<path class="st0" d="M4.3,8.4C4.3,8.3,4.2,8.3,4.1,8.3C4,8.3,3.9,8.4,3.9,8.5c0,0.1,0,0.2,0.1,0.2L7,11.7c0.1,0.1,0.1,0.1,0.2,0.1
	c0.1,0,0.1-0.1,0.2-0.2s0-0.2-0.1-0.2L4.3,8.4z"/>
<path class="st0" d="M14.9,9.9c-0.1,0-0.3,0.1-0.3,0.2c-0.2,1.3-1.3,2.3-2.7,2.1c-0.8-0.1-1.5-0.6-1.8-1.2l3.2-3.2
	c0.1-0.1,0.2-0.3,0.2-0.5L13.5,5c1-0.2,1.7-1.2,1.7-2.2c-0.1-1-0.9-1.9-1.9-2s-2,0.5-2.3,1.5L8.4,2.2C8.2,2.2,8,2.2,7.9,2.4l-7,7
	c-0.3,0.3-0.3,0.7,0,1l4.4,4.4c0.3,0.3,0.7,0.3,1,0l3.4-3.4c0.6,1.1,1.9,1.6,3.1,1.3c1.2-0.3,2.1-1.3,2.2-2.5c0-0.1,0-0.1,0-0.2
	S15,10,14.9,9.9z M13,1.2c0.8,0,1.5,0.6,1.7,1.4c0.1,0.8-0.4,1.6-1.2,1.9L13.4,3c0-0.4-0.3-0.7-0.7-0.7l-1.3,0
	C11.7,1.6,12.3,1.2,13,1.2z M6,14.5c-0.1,0.1-0.2,0.1-0.3,0L1.3,10c0,0-0.1-0.1-0.1-0.2c0-0.1,0-0.1,0.1-0.2l7-7
	c0,0,0.1-0.1,0.2-0.1l2.4,0.1c0,0.1,0,0.1,0,0.2c0,0.2,0,0.4,0.1,0.6c0,0-0.1,0.1-0.1,0.1c-0.4,0.4-0.4,1,0,1.4c0.4,0.4,1,0.4,1.4,0
	c0.4-0.4,0.4-1,0-1.4c-0.2-0.2-0.5-0.3-0.8-0.3c0-0.1-0.1-0.3-0.1-0.4c0-0.1,0-0.1,0-0.2l1.4,0c0.1,0,0.2,0.1,0.2,0.2l0.1,4.3
	c0,0.1,0,0.1-0.1,0.2L6,14.5z M11.1,4c0.1,0.1,0.1,0.2,0.2,0.3c0.1,0.1,0.1,0.1,0.2,0.1c0.1,0,0.2-0.1,0.2-0.2c0-0.1,0-0.2,0-0.2
	c0,0-0.1-0.1-0.1-0.1c0.2,0,0.3,0.2,0.4,0.3c0.1,0.2,0,0.4-0.1,0.5c-0.2,0.2-0.5,0.2-0.7,0C10.9,4.4,10.9,4.2,11.1,4L11.1,4z"/>
</svg>
