<?xml version="1.0" encoding="utf-8"?>
<!-- Generator: Adobe Illustrator 21.1.0, SVG Export Plug-In . SVG Version: 6.00 Build 0)  -->
<svg version="1.1" id="Layer_1" xmlns="http://www.w3.org/2000/svg" xmlns:xlink="http://www.w3.org/1999/xlink" x="0px" y="0px"
	 viewBox="0 0 16 16" style="enable-background:new 0 0 16 16;" xml:space="preserve">
<style type="text/css">
	.st0{fill:#EB343C;}
</style>
<g id="Layer_48">
	<g>
		<g>
			<rect x="1.4" y="10.4" class="st0" width="11.7" height="0.5"/>
			<rect x="13.6" y="10.4" class="st0" width="0.5" height="0.5"/>
			<path class="st0" d="M14.7,9.5l-0.2-1.8h-0.4V7.2c0-0.4-0.3-0.7-0.7-0.7h-0.2V4.9c0-0.3-0.2-0.5-0.5-0.5h-1.2
				c-0.2,0-0.4,0.1-0.4,0.4l-0.4,1.7h-1V4.9c0-0.3-0.2-0.5-0.5-0.5H8c-0.2,0-0.4,0.1-0.4,0.4L7.2,6.5H5c-0.3,0-0.6,0.2-0.7,0.6
				L4.2,7.7H3.6L2.7,9.5h-2l2.1,5.3c0.1,0.3,0.4,0.4,0.6,0.4H15V9.5H14.7z M11.3,5.8h0.9V5.4h-0.8l0.1-0.5h1.2v1.6h-1.6L11.3,5.8z
				 M7.8,5.8h0.9V5.4H7.9L8,4.9h1.2v1.6H7.7L7.8,5.8z M4.8,7.2C4.8,7.1,4.9,7,5,7h8.4c0.1,0,0.2,0.1,0.2,0.2v0.5H4.7L4.8,7.2z
				 M3.9,8.1h10.2l0.2,1.4H3.2L3.9,8.1z M14.5,14.8H3.3c-0.1,0-0.2-0.1-0.2-0.1L1.3,10h13.2V14.8z"/>
			<rect x="4.2" y="8.6" class="st0" width="0.9" height="0.5"/>
			<rect x="5.6" y="8.6" class="st0" width="0.9" height="0.5"/>
			<rect x="6.9" y="8.6" class="st0" width="0.9" height="0.5"/>
			<rect x="8.3" y="8.6" class="st0" width="0.9" height="0.5"/>
			<rect x="9.7" y="8.6" class="st0" width="0.9" height="0.5"/>
			<rect x="11.1" y="8.6" class="st0" width="0.9" height="0.5"/>
			<rect x="12.4" y="8.6" class="st0" width="0.9" height="0.5"/>
			<path class="st0" d="M8.4,3.8h0.1v0.5H9V3.8h3v0.5h0.5V3.8h2.3V3.3H8.4C8.1,3.3,7.9,3,7.9,2.7s0.3-0.6,0.6-0.6H9V1.9
				c0-0.3,0.2-0.5,0.5-0.5h5.3V1H9.5C9,1,8.7,1.3,8.6,1.7H8.4c-0.6,0-1,0.5-1,1S7.9,3.8,8.4,3.8z"/>
		</g>
		<g>
			<rect x="14.3" y="1" class="st0" width="0.5" height="2.6"/>
		</g>
	</g>
</g>
</svg>
