<?xml version="1.0" encoding="utf-8"?>
<!-- Generator: Adobe Illustrator 21.1.0, SVG Export Plug-In . SVG Version: 6.00 Build 0)  -->
<svg version="1.1" id="Layer_1" xmlns="http://www.w3.org/2000/svg" xmlns:xlink="http://www.w3.org/1999/xlink" x="0px" y="0px"
	 viewBox="0 0 16 16" style="enable-background:new 0 0 16 16;" xml:space="preserve">
<style type="text/css">
	.st0{fill:#EB343C;}
</style>
<g id="Layer_50">
	<g>
		<g>
			<path class="st0" d="M14.8,1c-0.1,0-0.1-0.1-0.2,0l-2.4,0.7l0.1,0.4l2.1-0.6v11.8l-2.9,0.8l-3.3-0.9H8.1l-3.3,0.9l-2.9-0.8V1.5
				l2.9,0.8h0.1l3.3-0.9l2,0.5l0.1-0.4L8.2,1H8.1L4.7,1.9L1.6,1C1.5,1,1.5,1,1.4,1S1.3,1.1,1.3,1.2v12.2c0,0.1,0.1,0.2,0.2,0.2
				l3.2,0.9h0.1l3.3-0.9l3.3,0.9c0,0,0,0,0.1,0c0,0,0,0,0.1,0l3.2-0.9c0.1,0,0.2-0.1,0.2-0.2V1.2C14.9,1.2,14.9,1.1,14.8,1z"/>
		</g>
	</g>
	<g>
		<g>
			<path class="st0" d="M4.2,7.8C3.9,7.8,3.6,7.9,3.4,8C3.1,8.3,2.9,8.6,2.8,9c-0.1,0.3,0,0.7,0.2,1l1,1.5c0,0.1,0.1,0.1,0.2,0.1
				s0.1,0,0.2-0.1l1-1.5c0.2-0.2,0.2-0.5,0.2-0.8C5.6,8.4,5,7.8,4.2,7.8z M5,9.8L4.2,11L3.4,9.8C3.2,9.6,3.2,9.3,3.2,9
				c0.1-0.3,0.2-0.5,0.4-0.6C3.8,8.3,4,8.2,4.2,8.2c0.5,0,1,0.4,1,1C5.2,9.4,5.1,9.6,5,9.8z"/>
		</g>
	</g>
	<g>
		<g>
			<circle class="st0" cx="4.2" cy="9.2" r="0.5"/>
		</g>
	</g>
	<g>
		<g>
			<path class="st0" d="M11.3,1c-0.3,0-0.6,0.1-0.8,0.2c-0.7,0.4-0.8,1.3-0.4,2l1,1.5c0,0.1,0.1,0.1,0.2,0.1s0.1,0,0.2-0.1l1-1.5
				c0.2-0.2,0.2-0.5,0.2-0.8C12.7,1.6,12.1,1,11.3,1z M12.1,3l-0.8,1.2L10.5,3c-0.3-0.5-0.2-1.1,0.3-1.4c0.2-0.1,0.4-0.2,0.5-0.2
				c0.5,0,1,0.4,1,1C12.3,2.6,12.2,2.8,12.1,3z"/>
		</g>
	</g>
	<g>
		<g>
			<path class="st0" d="M12.9,6.7h-0.7c-0.4,0-0.7-0.3-0.7-0.7V5.3H11V6c0,0.6,0.5,1.1,1.1,1.1h0.7c0.4,0,0.7,0.3,0.7,0.7
				c0,0.4-0.3,0.7-0.7,0.7H8.1C7.5,8.5,7,9,7,9.6s0.5,1.1,1.1,1.1h2.3c0.4,0,0.7,0.3,0.7,0.7s-0.3,0.7-0.7,0.7H4.1v0.5h6.3
				c0.6,0,1.1-0.5,1.1-1.1s-0.5-1.1-1.1-1.1H8.1c-0.4,0-0.7-0.3-0.7-0.7S7.7,9,8.1,9h4.8C13.5,9,14,8.5,14,7.9
				C14,7.2,13.5,6.7,12.9,6.7z"/>
		</g>
	</g>
	<g>
		<g>
			<path class="st0" d="M13.5,4.9L13,4.4c-0.1-0.1-0.2-0.1-0.3,0l-0.5,0.5c0,0-0.1,0.1-0.1,0.2v0.7c0,0.1,0.1,0.2,0.2,0.2h0.9
				c0.1,0,0.2-0.1,0.2-0.2V5.1C13.6,5,13.5,5,13.5,4.9z M13.1,5.5h-0.5V5.2L12.8,5L13,5.2L13.1,5.5L13.1,5.5z"/>
		</g>
	</g>
	<g>
		<g>
			<path class="st0" d="M9.7,4.3L9.3,3c0-0.1-0.1-0.2-0.2-0.2C8.9,2.8,8.9,2.9,8.8,3L8.4,4.3c0,0.1,0,0.1,0,0.2s0.1,0.1,0.2,0.1h0.9
				c0.1,0,0.1,0,0.2-0.1S9.7,4.4,9.7,4.3z M8.9,4.2L9,3.8l0.1,0.4H8.9z"/>
		</g>
	</g>
	<g>
		<g>
			<rect x="8.8" y="4.4" class="st0" width="0.5" height="0.7"/>
		</g>
	</g>
	<g>
		<g>
			<path class="st0" d="M13.6,11.8l-0.5-1.4c0-0.1-0.1-0.2-0.2-0.2c-0.1,0-0.2,0.1-0.2,0.2l-0.5,1.4c0,0.1,0,0.1,0,0.2
				c0,0.1,0.1,0.1,0.2,0.1h0.9c0.1,0,0.1,0,0.2-0.1C13.6,11.9,13.6,11.9,13.6,11.8z M12.8,11.6l0.1-0.4l0.1,0.4H12.8z"/>
		</g>
	</g>
	<g>
		<g>
			<rect x="12.7" y="11.9" class="st0" width="0.5" height="0.7"/>
		</g>
	</g>
	<g>
		<g>
			<path class="st0" d="M5.1,4.9C5,4.8,4.8,4.8,4.7,4.9L4.1,5.8l0.4,0.3L5,5.5l0.5,0.7l0.4-0.3L5.1,4.9z"/>
		</g>
	</g>
	<g>
		<g>
			<path class="st0" d="M4,4.5c0-0.1-0.1-0.1-0.2-0.1c-0.1,0-0.1,0-0.2,0.1L2.7,5.9l0.4,0.3L3.8,5l0.5,0.6l0.4-0.3L4,4.5z"/>
		</g>
	</g>
	<g>
		<g>
			<path class="st0" d="M8.7,6.7L8.3,6.3C8.2,6.2,8.1,6.2,8,6.3L7.5,6.7c0,0-0.1,0.1-0.1,0.2v0.7c0,0.1,0.1,0.2,0.2,0.2h0.9
				c0.1,0,0.2-0.1,0.2-0.2V6.9C8.8,6.8,8.8,6.8,8.7,6.7z M8.4,7.3H7.9V7l0.2-0.2L8.4,7V7.3L8.4,7.3z"/>
		</g>
	</g>
	<g>
		<g>
			<path class="st0" d="M7.9,4.3L7.4,3c0-0.1-0.1-0.2-0.2-0.2S7,2.9,7,3L6.6,4.3c0,0.1,0,0.1,0,0.2s0.1,0.1,0.2,0.1h0.9
				c0.1,0,0.1,0,0.2-0.1S7.9,4.4,7.9,4.3z M7.1,4.2l0.1-0.4l0.1,0.4H7.1z"/>
		</g>
	</g>
	<g>
		<g>
			<rect x="7" y="4.4" class="st0" width="0.5" height="0.7"/>
		</g>
	</g>
</g>
</svg>
