<?xml version="1.0" encoding="utf-8"?>
<!-- Generator: Adobe Illustrator 21.1.0, SVG Export Plug-In . SVG Version: 6.00 Build 0)  -->
<svg version="1.1" id="Layer_3" xmlns="http://www.w3.org/2000/svg" xmlns:xlink="http://www.w3.org/1999/xlink" x="0px" y="0px"
	 viewBox="0 0 280 45" style="enable-background:new 0 0 280 45;" xml:space="preserve">
<style type="text/css">
	.st0{fill:#3D8AC9;}
	.st1{fill:#EE464C;}
	.st2{fill:#808285;}
</style>
<g>
	<g>
		<g>
			<g>
				<g>
					<g>
						<path class="st0" d="M24.8,42.8c-11.1,0-20.2-9.1-20.2-20.2c0-11.1,9.1-20.2,20.2-20.2c4.7,0,9.3,1.7,12.9,4.7
							c0.4,0.3,0.4,0.9,0.1,1.2c-0.3,0.4-0.9,0.4-1.2,0.1c-3.3-2.8-7.5-4.3-11.8-4.3c-10.2,0-18.5,8.3-18.5,18.5
							c0,10.2,8.3,18.5,18.5,18.5c4.3,0,8.5-1.5,11.8-4.3c0.4-0.3,0.9-0.3,1.2,0.1c0.3,0.4,0.3,0.9-0.1,1.2
							C34.1,41.2,29.5,42.8,24.8,42.8z"/>
					</g>
					<path class="st1" d="M32.1,35.1c0,0.4-0.3,0.7-0.7,0.7c-0.4,0-0.7-0.3-0.7-0.7c0-0.4,0.3-0.7,0.7-0.7
						C31.8,34.3,32.1,34.6,32.1,35.1z"/>
				</g>
				<g>
					<path class="st1" d="M24.8,7.3c-8.3,0-15,6.7-15,15c0,8.3,6.7,15,15,15c2.4,0,4.8-0.6,6.9-1.7L31,34.4
						c-0.4,0.2-0.9,0.4-1.3,0.6c-0.5-0.3-1.1-0.4-1.5-0.4c-0.3,0-0.5,0-0.5,0l-0.2,0l0-0.2c0,0,0.1-0.9-0.2-2c-0.5-1.6-1.8-3-1.8-3
						l0,0l0-1.8l0.2,0.1c0.7,0.4,1.3,0.6,1.8,0.7c0.3,0,0.5,0.1,0.7,0.1c0.6,0,0.8-0.2,0.8-0.3c0-0.1-0.2-0.3-0.7-0.4
						c-1.1-0.2-2.5-1.5-2.9-1.9l0,0c-0.2-0.3-0.6-0.7-1.5-0.7c0,0,0,0-0.1,0l-0.1,0l0,0c-0.1,0-0.1,0-0.2,0c-0.6,0-1.5,0.3-1.9,1.5
						c-0.5,0.8-0.8,1.8-0.9,3.1c-0.1,0.6,0.1,0.8,0.1,0.9c0.1,0.1,0.4,0.1,0.5-0.1c0.1-0.1,0.2-0.3,0.2-0.5c0-0.2,0-0.4,0.1-0.6
						l0-0.3l0.2,0.2c0.3,0.3,0.8,0.5,1.4,0.5l0.2,0l0,0.1c0,0.8-0.4,2.9-2.7,5c-4.3-1.4-7.6-5-8.8-9.4C11.6,25,12.3,25,12.3,25h4
						v-7.1l4.8-2.4l0,3.4l4.4,0v-2.5h4.8l0,4h3.4V25h4.7c0,0,1,0,1.2-1c0.1-0.5,0.1-1.1,0.1-1.7C39.8,14.1,33.1,7.3,24.8,7.3z
						 M22.1,35.1l-0.3-0.1l0.2-0.2c1.4-1,2.4-2.1,2.9-3l0.1-0.1l0.1,0.1c0.2,0.2,0.4,0.3,0.6,0.5c0.8,1,1.1,2.6,1.3,3.3
						c-0.7,0.1-1.4,0.2-2.2,0.2c-0.6,0-1.3,0-1.9-0.1C22.8,35.6,22.6,35.3,22.1,35.1z M38.3,23c0,0.5-0.3,0.7-0.5,0.7h-2.9v-4.2
						h-3.4v-4h-1.9v-0.8h-1.2v-1.3h-0.9v1.3h-1.2v0.8h-1.9v2h-2.2v-3.8l-7,3.7v6.3h-3.9c0-0.4-0.1-0.8-0.1-1.2
						c0-7.5,6.1-13.5,13.5-13.5c7.5,0,13.5,6.1,13.5,13.5C38.3,22.6,38.3,22.8,38.3,23z"/>
					<path class="st1" d="M24.3,22.4c-0.1,0-0.3,0-0.4,0.1c-0.7,0.2-1.1,0.9-0.9,1.6c0.2,0.5,0.7,0.9,1.2,0.9c0.1,0,0.3,0,0.4-0.1
						c0.7-0.2,1.1-0.9,0.9-1.6C25.4,22.7,24.9,22.4,24.3,22.4z"/>
				</g>
			</g>
		</g>
		<g>
			<path class="st0" d="M40.8,39c0.3,0.2,0.6,0.4,0.7,0.7c0.2,0.3,0.3,0.7,0.3,1s-0.1,0.7-0.3,1c-0.2,0.3-0.4,0.6-0.7,0.8
				c-0.3,0.2-0.7,0.3-1,0.3c-0.4,0-0.7-0.1-1-0.3s-0.6-0.4-0.7-0.7c-0.2-0.3-0.3-0.7-0.3-1s0.1-0.7,0.3-1c0.2-0.3,0.4-0.6,0.7-0.7
				c0.3-0.2,0.7-0.3,1.1-0.3C40.2,38.7,40.5,38.8,40.8,39z M40.7,42.3c0.3-0.2,0.5-0.4,0.6-0.7c0.2-0.3,0.2-0.6,0.2-0.9
				c0-0.3-0.1-0.6-0.2-0.9c-0.2-0.3-0.4-0.5-0.6-0.6c-0.3-0.2-0.6-0.2-0.9-0.2c-0.3,0-0.6,0.1-0.9,0.2c-0.3,0.2-0.5,0.4-0.6,0.7
				c-0.2,0.3-0.2,0.6-0.2,0.9c0,0.3,0.1,0.6,0.2,0.9c0.2,0.3,0.4,0.5,0.6,0.7c0.3,0.2,0.6,0.2,0.9,0.2
				C40.1,42.6,40.4,42.5,40.7,42.3z M40.7,40.9c-0.1,0.1-0.2,0.2-0.4,0.3l0.5,0.8h-0.4L40,41.2h-0.1h-0.5v0.7H39v-2.3h0.9
				c0.3,0,0.5,0.1,0.7,0.2c0.2,0.1,0.3,0.3,0.3,0.6C40.8,40.6,40.8,40.7,40.7,40.9z M40.3,40.8c0.1-0.1,0.2-0.2,0.2-0.3
				c0-0.1-0.1-0.3-0.2-0.3c-0.1-0.1-0.2-0.1-0.4-0.1h-0.5v0.9h0.5C40.1,40.9,40.2,40.8,40.3,40.8z"/>
		</g>
	</g>
</g>
<g>
	<g>
		<g>
			<g>
				<g>
					<g>
						<path class="st0" d="M61.6,26.8c-0.4,0-0.7,0.2-0.9,0.5c-0.5,0.7-1.3,1.4-2.2,1.8c-1,0.5-2.1,0.8-3.1,0.8
							c-3.8,0-6.8-3.2-6.8-7.2c0-3.7,2.1-6.2,5.6-6.7c0.5-0.1,1-0.1,1.4-0.1c2,0,3.6,0.6,4.9,2c0.2,0.2,0.5,0.4,0.8,0.4
							c0.5,0,1-0.3,1.2-0.8c0.2-0.4,0.1-0.8-0.2-1.2c-2.2-2.3-5-3.2-8.5-2.7c-4.5,0.7-7.8,4.5-7.8,9.1c0,5.4,4.1,9.7,9.3,9.7
							c1.3,0,2.8-0.4,4.3-1c1.3-0.6,2.4-1.5,3.1-2.6c0.3-0.4,0.3-0.8,0.1-1.2C62.6,27.1,62.1,26.8,61.6,26.8z"/>
						<path class="st0" d="M64.6,14.4V31c0,0.8,0.6,1.2,1.3,1.2c0.7,0,1.3-0.4,1.3-1.2V14.4C67.2,12.7,64.6,12.7,64.6,14.4z"/>
						<path class="st0" d="M84.2,13.7H69.8c-0.5,0-0.8,0.2-0.9,0.4c-0.2,0.2-0.3,0.5-0.3,0.8c0,0.6,0.4,1.2,1.2,1.2h5.9V31
							c0,0.8,0.6,1.3,1.3,1.3c0.6,0,1.3-0.5,1.3-1.3c0-2.5,0-5,0-7.6c0-2.4,0-4.9,0-7.3h6c0.8,0,1.3-0.6,1.3-1.2
							C85.4,14.3,85,13.7,84.2,13.7z"/>
						<path class="st0" d="M102.7,13.5c-0.4,0-0.8,0.2-1.1,0.6l-6.2,8.3l-6.1-8.3c-0.3-0.4-0.6-0.6-1.1-0.6c-0.5,0-1,0.3-1.2,0.7
							c-0.2,0.4-0.1,0.8,0.2,1.2l7,9.3v6.1c0,0.8,0.5,1.3,1.3,1.3c0.6,0,1.3-0.4,1.3-1.3v-6.1l6.9-9.3c0.3-0.4,0.3-0.8,0.1-1.2
							C103.6,13.7,103.2,13.5,102.7,13.5z"/>
						<path class="st1" d="M120.1,15.1c0.5,0,0.7-0.3,0.7-0.7c0-0.3-0.2-0.7-0.7-0.7h-12.5c-0.6,0-1,0.4-1,1V31c0,0.6,0.4,1,1,1
							h12.5c0.4,0,0.7-0.4,0.7-0.7c0-0.3-0.2-0.7-0.7-0.7h-12v-7h11.5c0.4,0,0.7-0.3,0.7-0.7c0-0.3-0.2-0.7-0.7-0.7h-11.5v-7.2
							H120.1z"/>
						<path class="st1" d="M131.9,22.7l7-8c0.2-0.2,0.2-0.5,0.1-0.8c-0.1-0.2-0.4-0.4-0.6-0.4c-0.2,0-0.4,0.1-0.6,0.3l-6.8,7.9
							l-6.8-7.9c-0.4-0.4-1-0.3-1.2,0.1c-0.1,0.3-0.1,0.6,0.2,0.8l6.9,8l-7.2,8.2c-0.2,0.3-0.3,0.6-0.2,0.8c0.2,0.4,0.9,0.5,1.2,0.1
							l7.1-8.2l7.1,8.2c0.2,0.2,0.4,0.3,0.6,0.3c0.3,0,0.5-0.1,0.6-0.4c0.1-0.3,0.1-0.6-0.1-0.9L131.9,22.7z"/>
						<path class="st1" d="M149.3,13.7H143c-0.4,0-0.7,0.3-0.7,0.7v16.9c0,0.2,0.1,0.4,0.2,0.5c0.1,0.1,0.3,0.2,0.5,0.2
							c0.3,0,0.7-0.3,0.7-0.7v-4.9h5.6c4.4,0,7.3-2.4,7.3-6.2C156.7,17,154.1,13.7,149.3,13.7z M149.3,25.1h-5.6v-10h5.6
							c3.8,0,5.8,2.7,5.9,5.2c0,1.2-0.4,2.3-1.2,3.2C153,24.5,151.3,25.1,149.3,25.1z"/>
						<path class="st1" d="M173,30.6h-11.4V14.4c0-1-1.5-1-1.5,0v16.8c0,0.5,0.3,0.8,0.8,0.8H173c0.5,0,0.7-0.4,0.7-0.7
							S173.5,30.6,173,30.6z"/>
						<path class="st1" d="M184.4,13.5c-1-0.1-2.1-0.1-3.1,0c-4.3,0.7-7.2,4.3-7.4,9.1c-0.1,2.7,0.9,5.1,2.7,7
							c1.7,1.8,4,2.7,6.4,2.7c2.4,0,4.7-1,6.4-2.8c1.8-1.9,2.7-4.3,2.7-7C192,18,188.7,14.2,184.4,13.5z M183,30.9
							c-2,0-3.9-0.8-5.3-2.3c-1.6-1.6-2.4-3.7-2.3-6c0.1-4.1,2.6-7.2,6.2-7.7c0.4-0.1,0.9-0.1,1.3-0.1c0.4,0,0.9,0,1.3,0.1
							c3.7,0.6,6.4,3.8,6.5,7.7c0.1,2.3-0.8,4.4-2.3,6C186.9,30.1,185,30.9,183,30.9z"/>
						<path class="st1" d="M210.8,19.8c0-3-2.3-6-7.3-6h-7c-0.4,0-0.7,0.3-0.7,0.7v16.9c0,0.2,0.1,0.4,0.2,0.5
							c0.4,0.3,1.2,0.2,1.2-0.5v-5.9h6.1l6.2,6.5c0.2,0.2,0.4,0.2,0.5,0.2c0.3,0,0.5-0.2,0.6-0.4c0.1-0.3,0.1-0.6-0.2-0.8l-5.4-5.5
							C208.7,25,210.8,22.9,210.8,19.8z M209.3,19.8c0,1.1-0.3,2.1-1,2.8c-1,1-2.7,1.6-4.8,1.6h-6.3v-9h6.3
							C206.9,15.1,209.3,17,209.3,19.8z"/>
						<path class="st1" d="M227.4,15.1c0.5,0,0.7-0.3,0.7-0.7c0-0.3-0.2-0.7-0.7-0.7H215c-0.6,0-1,0.4-1,1V31c0,0.6,0.4,1,1,1h12.5
							c0.4,0,0.7-0.4,0.7-0.7c0-0.3-0.2-0.7-0.7-0.7h-12v-7h11.5c0.4,0,0.7-0.3,0.7-0.7c0-0.3-0.2-0.7-0.7-0.7h-11.5v-7.2H227.4z"/>
						<path class="st1" d="M246.8,19.8c0-3-2.3-6-7.3-6h-7c-0.4,0-0.7,0.3-0.7,0.7v16.9c0,0.2,0.1,0.4,0.2,0.5
							c0.4,0.3,1.2,0.2,1.2-0.5v-5.9h6.1l6.2,6.5c0.2,0.2,0.4,0.2,0.5,0.2c0.3,0,0.5-0.2,0.6-0.4c0.1-0.3,0.1-0.6-0.2-0.8l-5.4-5.5
							C244.7,25,246.8,22.9,246.8,19.8z M245.4,19.8c0,1.1-0.3,2.1-1,2.8c-1,1-2.7,1.6-4.8,1.6h-6.3v-9h6.3
							C242.9,15.1,245.3,17,245.4,19.8z"/>
						<path class="st1" d="M258.1,22.1c-3.5-0.3-6.7-0.6-6.7-3.4c0-0.3,0.1-0.6,0.2-0.9c0.7-1.9,3.3-2.7,5.4-2.9c0.1,0,0.2,0,0.3,0
							c0.1,0,0.2,0,0.3,0c3.7,0,5.8,0.9,6.5,2.8c0.1,0.3,0.4,0.5,0.7,0.5c0.2,0,0.4-0.1,0.5-0.3c0.1-0.1,0.2-0.3,0-0.7
							c-1.2-3.2-5.4-3.7-7.8-3.7c-0.8,0-1.6,0.1-2.4,0.2c-3.3,0.7-5.2,2.5-5.2,4.9c0,4.1,4.3,4.5,8,4.8c3.4,0.3,6.7,0.5,6.7,3.4
							c0,4-6.1,4.1-6.8,4.1c-0.4,0-0.9,0-1.3-0.1c-2.4-0.2-5.1-1.2-5.7-3.2c-0.1-0.3-0.3-0.5-0.7-0.5c-0.2,0-0.4,0.1-0.6,0.3
							c-0.1,0.2-0.2,0.4-0.1,0.6c1.1,3.9,6.6,4.2,8.3,4.2c4,0,8.2-1.4,8.2-5.5C266,22.8,261.8,22.4,258.1,22.1z"/>
					</g>
					<g>
						<path class="st2" d="M268.8,13.5v3.8h-0.5v-3.8H267V13h3.3v0.5H268.8z"/>
						<path class="st2" d="M274.8,17.2l0-3.5l-1.5,3h-0.3l-1.5-3v3.5h-0.5V13h0.6l1.6,3.1l1.5-3.1h0.6v4.2H274.8z"/>
					</g>
				</g>
			</g>
		</g>
	</g>
</g>
</svg>
