<?xml version="1.0" encoding="utf-8"?>
<!-- Generator: Adobe Illustrator 22.1.0, SVG Export Plug-In . SVG Version: 6.00 Build 0)  -->
<svg version="1.1" id="Layer_1" xmlns="http://www.w3.org/2000/svg" xmlns:xlink="http://www.w3.org/1999/xlink" x="0px" y="0px"
	 viewBox="0 0 30 40" style="enable-background:new 0 0 30 40;" xml:space="preserve">
<style type="text/css">
	.st0{fill:#FFFFFF;}
</style>
<g>
	<path class="st0" d="M20.6,15.2c1.2-1.8,1.8-4.1,1.8-6.2c0-4.7-3.2-8-7.7-8S7,4.2,7,9c0,2.2,0.6,4.4,1.8,6.2
		C2,19.9-0.6,32,0.9,35.8c0.7,1.8,2.6,2.9,4.6,2.9c4.3,0,8.2-6.7,8.4-6.9s0.5-0.5,0.9-0.5s0.6,0.2,0.9,0.5c0.2,0.3,4.1,6.9,8.4,6.9
		c2,0,3.9-1.1,4.6-2.9C30,32,27.3,19.9,20.6,15.2z M14.7,4.8c1.9,0,4,1.1,4,4.2c0,3.1-2,6.1-4,6.1s-4-3.1-4-6.1
		C10.7,5.9,12.8,4.8,14.7,4.8z M23.7,33.2c-0.8-0.3-2.3-0.9-3.7-2.3c-1.4-1.4-1.9-3.2-2.4-5c-0.5-1.8-2-4.3-2.8-4.3S12.5,24,12,25.8
		c-0.5,1.9-1,3.7-2.4,5s-2.9,2-3.7,2.3c-0.4,0.1-0.8-0.2-0.7-0.5c-0.1-1.4,0.5-4.7,2.4-8.4c1-1.9,3.7-5.4,7.1-5.4
		c3.5,0,6.1,3.5,7.1,5.4c2,3.7,2.4,6.9,2.6,8.4C24.4,33,24.1,33.3,23.7,33.2z"/>
</g>
</svg>
