<?xml version="1.0" encoding="utf-8"?>
<!-- Generator: Adobe Illustrator 21.1.0, SVG Export Plug-In . SVG Version: 6.00 Build 0)  -->
<svg version="1.1" id="Layer_1" xmlns="http://www.w3.org/2000/svg" xmlns:xlink="http://www.w3.org/1999/xlink" x="0px" y="0px"
	 viewBox="0 0 16 16" style="enable-background:new 0 0 16 16;" xml:space="preserve">
<style type="text/css">
	.st0{fill:#EB343C;}
</style>
<g id="Layer_12">
	<g>
		<path class="st0" d="M8.1,9.3c-0.8,0-1.4-0.6-1.4-1.4s0.6-1.4,1.4-1.4s1.4,0.6,1.4,1.4S8.8,9.3,8.1,9.3z M8.1,7.1
			c-0.5,0-0.8,0.4-0.8,0.8c0,0.5,0.4,0.8,0.8,0.8c0.5,0,0.8-0.4,0.8-0.8C8.9,7.5,8.5,7.1,8.1,7.1z"/>
		<path class="st0" d="M9.5,14.8H6.7v-1C6,13.6,5.4,13.4,4.9,13l-0.7,0.7l-2-2L2.9,11c-0.4-0.4-0.6-1-0.8-1.7h-1V6.5h1
			c0.2-0.7,0.4-1.3,0.8-1.8L2.2,4l2-2l0.7,0.7C5.4,2.4,6,2.1,6.7,2V1h2.8v1c0.7,0.2,1.3,0.4,1.8,0.8L12,2l2,2l-0.7,0.7
			c0.4,0.6,0.6,1.2,0.8,1.8h1v2.8h-1c0,0.2-0.1,0.4-0.2,0.6l-0.5-0.2c0.1-0.2,0.2-0.5,0.2-0.8V8.7h0.9V7.1h-0.9V6.9
			c-0.1-0.7-0.4-1.4-0.8-2l-0.1-0.2L13.2,4L12,2.8l-0.6,0.6l-0.2-0.1c-0.6-0.4-1.3-0.7-2-0.8H9V1.6H7.2v0.9H7C6.3,2.6,5.6,2.9,5,3.3
			L4.8,3.5L4.2,2.8L3,4l0.6,0.6L3.5,4.8c-0.4,0.6-0.7,1.3-0.8,2V7h-1v1.7h0.9v0.2c0.1,0.7,0.4,1.4,0.8,2l0.1,0.2L3,11.8L4.2,13
			l0.6-0.6L5,12.5c0.6,0.4,1.3,0.7,2,0.8h0.2v0.9h1.7v-0.9h0.2c0.7-0.1,1.4-0.4,2-0.8l0.2-0.1L12,13l1.2-1.2l-0.6-0.6l0.1-0.2
			c0.2-0.2,0.3-0.5,0.4-0.8l0.5,0.2c-0.1,0.2-0.2,0.4-0.4,0.7l0.7,0.7l-2,2l-0.7-0.7c-0.6,0.4-1.2,0.6-1.8,0.8L9.5,14.8L9.5,14.8z"
			/>
		<path class="st0" d="M8.1,6.1L7.9,5.9C7,4.9,7,3.8,7.9,2.8l0.2-0.3l0.2,0.3c0.8,1,0.8,2.1,0,3.1L8.1,6.1z M8.1,3.4
			C7.7,4,7.7,4.6,8.1,5.2C8.4,4.6,8.4,4,8.1,3.4z"/>
		<path class="st0" d="M6.8,6.7H6.5c-1.3-0.2-2.1-1-2.2-2.3V4.1h0.3C5.9,4.2,6.7,5,6.8,6.3V6.7z M4.9,4.7C5,5.4,5.5,5.9,6.2,6
			C6,5.3,5.6,4.9,4.9,4.7z"/>
		<path class="st0" d="M4.5,8.8C4,8.8,3.4,8.6,2.9,8.2L2.7,7.9L3,7.7c1-0.8,2.1-0.8,3.1,0l0.3,0.2L6,8.1C5.5,8.5,5,8.8,4.5,8.8z
			 M3.6,7.9c0.6,0.4,1.2,0.4,1.8,0C4.8,7.6,4.2,7.6,3.6,7.9z"/>
		<path class="st0" d="M4.2,11.8v-0.3c0.1-1.3,0.9-2.1,2.2-2.2h0.3v0.3c-0.1,1.3-0.9,2.1-2.2,2.2H4.2z M6.2,9.8
			C5.5,10,5,10.4,4.9,11.1C5.6,11,6,10.5,6.2,9.8z"/>
		<path class="st0" d="M8.1,13.3L7.9,13c-0.9-0.9-0.9-2,0-3l0.2-0.3L8.3,10c0.8,1,0.8,2.1,0,3.1L8.1,13.3z M8.1,10.6
			c-0.4,0.6-0.4,1.2,0,1.8C8.4,11.8,8.4,11.2,8.1,10.6z"/>
		<path class="st0" d="M11.9,11.8h-0.3c-1.3-0.1-2.1-0.9-2.2-2.2V9.3h0.3c1.3,0.1,2.1,0.9,2.2,2.2V11.8z M10,9.8
			c0.2,0.7,0.6,1.1,1.3,1.3C11.1,10.4,10.7,10,10,9.8z"/>
		<path class="st0" d="M11.7,8.8c-0.5,0-1.1-0.2-1.6-0.6L9.9,7.9l0.3-0.2c1-0.8,2.1-0.8,3.1,0l0.3,0.2l-0.3,0.2
			C12.7,8.5,12.2,8.8,11.7,8.8z M10.8,7.9c0.6,0.4,1.2,0.4,1.8,0C12,7.6,11.4,7.6,10.8,7.9z"/>
		<path class="st0" d="M9.3,6.7V6.4c0.1-1.3,0.9-2.1,2.2-2.2h0.3v0.3c0,1.2-0.8,2-2.1,2.1L9.3,6.7z M11.3,4.7
			C10.6,4.9,10.1,5.3,10,6C10.7,5.9,11.1,5.4,11.3,4.7z"/>
	</g>
</g>
</svg>
