<?xml version="1.0" encoding="utf-8"?>
<!-- Generator: Adobe Illustrator 21.1.0, SVG Export Plug-In . SVG Version: 6.00 Build 0)  -->
<svg version="1.1" id="Layer_1" xmlns="http://www.w3.org/2000/svg" xmlns:xlink="http://www.w3.org/1999/xlink" x="0px" y="0px"
	 viewBox="0 0 16 16" style="enable-background:new 0 0 16 16;" xml:space="preserve">
<style type="text/css">
	.st0{fill:#EB343C;}
</style>
<g id="Layer_18">
	<g>
		<g>
			<rect x="5.3" y="9.8" class="st0" width="0.5" height="5.2"/>
		</g>
	</g>
	<g>
		<g>
			<rect x="6.5" y="9.8" class="st0" width="0.5" height="5.2"/>
		</g>
	</g>
	<g>
		<g>
			<rect x="7.8" y="9.8" class="st0" width="0.5" height="5.2"/>
		</g>
	</g>
	<g>
		<g>
			<polyline class="st0" points="9.5,15 9,15 9,9.8 9.5,9.8 			"/>
		</g>
	</g>
	<g>
		<g>
			<polyline class="st0" points="10.7,15 10.2,15 10.2,9.8 10.7,9.8 			"/>
		</g>
	</g>
	<g>
		<g>
			<polygon class="st0" points="11,2.9 10.8,2.9 10.8,1.3 5.2,1.3 5.2,2.7 5,2.7 5,1.1 11,1.1 			"/>
			<path class="st0" d="M11.1,3h-0.5V1.5H5.3v1.4H4.9V1h6.2V3z M10.9,2.8L10.9,2.8V1.2H5.1v1.4V1.2h5.8V2.8z"/>
		</g>
	</g>
	<g>
		<g>
			<polygon class="st0" points="11,10 5,10 5,8.3 5.2,8.3 5.2,9.8 10.8,9.8 10.8,8.3 11,8.3 			"/>
			<path class="st0" d="M11.1,10.1H4.9V8.2h0.5v1.4h5.3V8.2h0.5v1.9H11.1z M5.1,9.9h5.8V8.5v1.4H5.1V8.5V9.9z"/>
		</g>
	</g>
	<g>
		<g>
			<path class="st0" d="M5.1,8.5l-3-3l3-3l3,3L5.1,8.5z M2.5,5.5l2.6,2.6l2.6-2.6L5.1,2.9L2.5,5.5z"/>
			<path class="st0" d="M5.1,8.7L2,5.5l3.1-3.1l3.1,3.1L5.1,8.7z M2.3,5.5l2.8,2.8l2.8-2.8L5.1,2.7L2.3,5.5z M5.1,8.3L2.3,5.5
				l2.8-2.8l2.8,2.8L5.1,8.3z M2.6,5.5L5.1,8l2.5-2.5L5.1,3.1L2.6,5.5z"/>
		</g>
	</g>
	<g>
		<g>
			<path class="st0" d="M10.9,8.5l-3-3l3-3l3,3L10.9,8.5z M8.2,5.5l2.6,2.6l2.6-2.6l-2.6-2.6L8.2,5.5z"/>
			<path class="st0" d="M10.9,8.7L7.8,5.5l3.1-3.1L14,5.5L10.9,8.7z M8.1,5.5l2.8,2.8l2.8-2.8l-2.8-2.8L8.1,5.5z M10.9,8.3L8.1,5.5
				l2.8-2.8l2.8,2.8L10.9,8.3z M8.4,5.5L10.9,8l2.5-2.5L10.9,3L8.4,5.5z"/>
		</g>
	</g>
	<g>
		<g>
			<rect x="5.1" y="2" class="st0" width="5.8" height="0.2"/>
			<path class="st0" d="M11,2.4H5V1.9h6V2.4z M5.2,2.1h5.5H5.2z"/>
		</g>
	</g>
	<g>
		<g>
			<rect x="5.1" y="8.8" class="st0" width="5.8" height="0.2"/>
			<path class="st0" d="M11,9.2H5V8.7h6V9.2z M5.2,9h5.5H5.2z"/>
		</g>
	</g>
</g>
</svg>
