<?xml version="1.0" encoding="utf-8"?>
<!-- Generator: Adobe Illustrator 21.1.0, SVG Export Plug-In . SVG Version: 6.00 Build 0)  -->
<svg version="1.1" id="Layer_3" xmlns="http://www.w3.org/2000/svg" xmlns:xlink="http://www.w3.org/1999/xlink" x="0px" y="0px"
	 viewBox="0 0 16 16" style="enable-background:new 0 0 16 16;" xml:space="preserve">
<style type="text/css">
	.st0{fill:#EB343C;}
</style>
<g>
	<circle class="st0" cx="7.9" cy="7" r="0.2"/>
	<circle class="st0" cx="8.6" cy="6.5" r="0.2"/>
	<circle class="st0" cx="7.2" cy="6.5" r="0.2"/>
	<circle class="st0" cx="6.5" cy="6.1" r="0.2"/>
	<circle class="st0" cx="9.3" cy="6.1" r="0.2"/>
	<circle class="st0" cx="9.9" cy="5.6" r="0.2"/>
	<circle class="st0" cx="5.8" cy="5.6" r="0.2"/>
	<circle class="st0" cx="7.9" cy="6.1" r="0.2"/>
	<circle class="st0" cx="7.9" cy="8.8" r="0.2"/>
	<circle class="st0" cx="7.9" cy="9.5" r="0.2"/>
	<circle class="st0" cx="7.9" cy="10.2" r="0.2"/>
	<circle class="st0" cx="7.9" cy="10.9" r="0.2"/>
	<circle class="st0" cx="7.9" cy="11.6" r="0.2"/>
	<circle class="st0" cx="7.9" cy="12.3" r="0.2"/>
	<path class="st0" d="M13.4,14.4h-0.7v-0.9h-1.2v-2.4c0-0.6-0.3-1.2-0.8-1.5L8.3,7.9l2.4-1.6c0.5-0.3,0.8-0.9,0.8-1.5V2.4h1.2V1.5
		h0.7c0.1,0,0.2-0.1,0.2-0.2S13.5,1,13.4,1h-0.7h-0.2H3.3H3H2.3C2.2,1,2.1,1.1,2.1,1.2s0.1,0.2,0.2,0.2H3v0.9h1.2v2.4
		c0,0.6,0.3,1.2,0.8,1.5l2.4,1.6L5,9.5c-0.5,0.3-0.8,0.9-0.8,1.5v2.4H3v0.9H2.3c-0.1,0-0.2,0.1-0.2,0.2c0,0.1,0.1,0.2,0.2,0.2H3h0.2
		h9.2h0.2h0.7c0.1,0,0.2-0.1,0.2-0.2C13.6,14.5,13.5,14.4,13.4,14.4z M3.5,1.9V1.5h8.8v0.5h-0.7H4.2H3.5z M5.3,5.9
		C4.9,5.6,4.7,5.2,4.7,4.7V2.4h6.5v2.4c0,0.5-0.2,0.9-0.6,1.2L7.9,7.6L5.3,5.9z M4.7,11.1c0-0.5,0.2-0.9,0.6-1.2l2.6-1.7l2.6,1.7
		c0.4,0.3,0.6,0.7,0.6,1.2v2.4H4.7V11.1z M3.5,13.9h0.7h7.4h0.7v0.5H3.5V13.9z"/>
</g>
</svg>
