<?xml version="1.0" encoding="utf-8"?>
<!-- Generator: Adobe Illustrator 21.1.0, SVG Export Plug-In . SVG Version: 6.00 Build 0)  -->
<svg version="1.1" id="Layer_1" xmlns="http://www.w3.org/2000/svg" xmlns:xlink="http://www.w3.org/1999/xlink" x="0px" y="0px"
	 viewBox="0 0 16 16" style="enable-background:new 0 0 16 16;" xml:space="preserve">
<style type="text/css">
	.st0{fill:#EB343C;}
</style>
<g id="Layer_49">
	<g>
		<g>
			<circle class="st0" cx="7.3" cy="11.8" r="0.3"/>
		</g>
		<g>
			<circle class="st0" cx="8.4" cy="11.8" r="0.3"/>
		</g>
		<g>
			<circle class="st0" cx="9.5" cy="11.8" r="0.3"/>
		</g>
		<g>
			<circle class="st0" cx="10.5" cy="11.8" r="0.3"/>
		</g>
		<g>
			<path class="st0" d="M12,11.5c0.2-0.1,0.4-0.3,0.4-0.5V5.4c0-0.4-0.3-0.7-0.7-0.7H9.3c0.1-0.9,0.2-2.3-0.2-3.6C9.1,1.1,9,1,8.9,1
				H5.1C5,1,4.9,1.1,4.9,1.2L3.7,5.1C3.6,5.4,3.5,5.7,3.6,6c0.2,1.7,1.6,3.7,1.9,4.1V11c0,0.2,0.1,0.4,0.4,0.5
				c0.1,0,0.2,0.1,0.2,0.3C6,11.9,5.9,12,5.8,12c-0.2,0.1-0.4,0.3-0.4,0.5v1.8c0,0.4,0.3,0.7,0.7,0.7h5.6c0.4,0,0.7-0.3,0.7-0.7
				v-1.8c0-0.2-0.1-0.4-0.4-0.5c-0.1,0-0.2-0.1-0.2-0.3C11.9,11.7,11.9,11.6,12,11.5z M5.4,5.8v3.4C5,8.4,4.3,7.1,4.1,6
				c0-0.2,0-0.5,0.1-0.7l1.1-3.7h3.4c0.5,1.7,0,3.9,0,3.9s0,0,0,0.1v2.9C8.6,8.8,8.4,9,8.1,9C7.8,9,7.6,8.8,7.6,8.5V5.8
				c0-0.6-0.5-1.1-1.1-1.1C5.9,4.7,5.4,5.2,5.4,5.8z M11.3,11.8c0,0.3,0.2,0.6,0.5,0.8v1.8c0,0.1-0.1,0.1-0.1,0.1H6.1H6v-0.1v-1.8
				c0.3-0.1,0.5-0.4,0.5-0.8c0-0.3-0.2-0.6-0.5-0.8V5.8c0-0.3,0.2-0.5,0.5-0.5S7,5.5,7,5.8v2.7c0,0.6,0.5,1.1,1.1,1.1
				s1.1-0.5,1.1-1.1V5.6c0-0.1,0-0.2,0.1-0.3h2.5c0.1,0,0.1,0.1,0.1,0.1V11C11.5,11.1,11.3,11.5,11.3,11.8z"/>
		</g>
		<g>
			<path class="st0" d="M8.1,12.8h0.2L7.9,14H7.7l-0.4-1.2h0.2l0.3,0.8v0.1c0,0.1,0,0.1,0,0.1v-0.1c0-0.1,0-0.1,0-0.1L8.1,12.8z"/>
			<path class="st0" d="M8.9,14.1v-1.2h0.2v1.2H8.9z"/>
			<path class="st0" d="M10.8,13.2c0,0.1,0,0.2-0.1,0.3s-0.2,0.1-0.4,0.1h-0.1v0.5H10v-1.2h0.4c0.2,0,0.3,0,0.3,0.1
				C10.7,13,10.8,13.1,10.8,13.2z M10.2,13.4h0.1c0.1,0,0.2,0,0.2-0.1c0,0,0.1-0.1,0.1-0.2c0-0.1,0-0.1-0.1-0.2c0,0-0.1-0.1-0.2-0.1
				h-0.1V13.4z"/>
		</g>
	</g>
</g>
</svg>
