<?xml version="1.0" encoding="utf-8"?>
<!-- Generator: Adobe Illustrator 21.1.0, SVG Export Plug-In . SVG Version: 6.00 Build 0)  -->
<svg version="1.1" id="Layer_1" xmlns="http://www.w3.org/2000/svg" xmlns:xlink="http://www.w3.org/1999/xlink" x="0px" y="0px"
	 viewBox="0 0 16 16" style="enable-background:new 0 0 16 16;" xml:space="preserve">
<style type="text/css">
	.st0{fill:#EB343C;}
</style>
<g id="Layer_24">
	<g>
		<g>
			<g>
				<path class="st0" d="M12.1,11.5h-0.2h-0.1c-0.3-0.2-0.6-0.4-1-0.4l-1.3-0.2c-0.1,0-0.2-0.1-0.2-0.2v-0.5c0-0.1,0-0.1,0.1-0.2
					c0.9-0.5,1.4-1.4,1.4-2.4c0-0.1,0.1-0.2,0.2-0.2c0.1,0,0.2,0.1,0.2,0.2v0.2c0.3-0.1,0.5-0.3,0.5-0.6c0-0.4-0.3-0.7-0.7-0.7
					c-0.1,0-0.2-0.1-0.2-0.2V6h-0.7c-0.9,0-1.6-0.5-2-1.3C7.8,5.5,7,6,6.2,6H5.5v0.2c0,0.1-0.1,0.2-0.2,0.2c-0.4,0-0.7,0.3-0.7,0.7
					c0,0.3,0.2,0.6,0.5,0.6V7.6c0-0.1,0.1-0.2,0.2-0.2s0.2,0.1,0.2,0.2c0,1,0.5,1.9,1.4,2.4C7,10,7,10.1,7,10.1v0.5
					c0,0.1-0.1,0.2-0.2,0.2L5.5,11c-0.4,0.1-0.7,0.2-1,0.4H4.4H4.2c-0.1,0-0.2-0.1-0.2-0.2V5.3c0-1.1,0.4-2.1,1.2-2.9
					C5.9,1.5,6.9,1,8,1s2.2,0.4,3.1,1.2c0.8,0.8,1.3,1.9,1.3,3v6.2C12.3,11.5,12.2,11.5,12.1,11.5z M9.7,10.5l1.1,0.2
					c0.4,0.1,0.7,0.2,1.1,0.4V7.8c-0.2,0.2-0.4,0.4-0.8,0.5c-0.2,0.8-0.7,1.6-1.5,2L9.7,10.5L9.7,10.5z M4.4,7.8v3.3
					c0.3-0.2,0.7-0.4,1.1-0.4l1.1-0.2v-0.2c-0.8-0.4-1.3-1.2-1.5-2C4.8,8.2,4.6,8,4.4,7.8z M11.2,6.1c0.3,0.1,0.5,0.2,0.7,0.5V5.2
					c0-1-0.4-2-1.2-2.7C10,1.7,9,1.4,8,1.4V1.2v0.2C6,1.5,4.4,3.2,4.4,5.3v1.3c0.2-0.2,0.4-0.4,0.7-0.5V5.8c0-0.1,0.1-0.2,0.2-0.2
					h0.9C7.1,5.6,7.9,4.9,8,4c0-0.1,0-0.1,0.2-0.1c0.1,0,0.2,0.1,0.2,0.2C8.5,5,9.3,5.7,10.2,5.7H11c0.1,0,0.2,0.1,0.2,0.2V6.1z"/>
			</g>
			<g>
				<path class="st0" d="M8.9,14.9H5.1c-0.1,0-0.2-0.1-0.2-0.1c0-0.1,0-0.2,0.1-0.2l4.9-3.8c0,0,0.1,0,0.2,0l0.5,0.1l0,0
					c0.7,0.1,1.4,0.5,1.8,1.2c0.1,0.1,0,0.2,0,0.3l-3.3,2.7C9,14.8,9,14.9,8.9,14.9z M5.8,14.4h3.1l3.1-2.5
					c-0.4-0.4-0.9-0.7-1.4-0.8L10.2,11L5.8,14.4z"/>
			</g>
		</g>
		<g>
			<g>
				<path class="st0" d="M13,12.5c-0.3-1-1.2-1.7-2.2-1.9l-1.1-0.2v-0.2c0.7-0.4,1.3-1.2,1.5-2c0.5-0.1,1-0.5,1-1.1
					c0-0.5-0.4-1-0.9-1.1V4.7h-0.4v0.9h-0.7c-1,0-1.8-0.8-1.8-1.8H7.9c0,1-0.8,1.8-1.8,1.8H5.5V4.7H5V6C4.5,6.2,4.2,6.6,4.2,7.2
					s0.4,1,1,1.1c0.2,0.9,0.7,1.6,1.5,2v0.2l-1.1,0.2c-1,0.2-1.9,0.9-2.2,1.9l-0.7,2.3h11.2L13,12.5z M7,10.5
					c0.3,0.1,0.7,0.2,1.1,0.2c0.4,0,0.8-0.1,1.1-0.2v0.2c0,0.1-0.3,0.7-1.1,0.7S7,10.8,7,10.7C7,10.7,7,10.5,7,10.5z M11.6,7.2
					c0,0.3-0.2,0.5-0.4,0.6c0-0.1,0-0.1,0-0.2V6.5C11.5,6.6,11.6,6.9,11.6,7.2z M4.6,7.2c0-0.3,0.2-0.5,0.4-0.6v1.1
					c0,0.1,0,0.1,0,0.2C4.8,7.7,4.6,7.4,4.6,7.2z M5.5,7.6V6.1h0.7c0.9,0,1.6-0.5,2-1.2c0.4,0.7,1.1,1.2,2,1.2h0.7v1.5
					c0,1.5-1.2,2.6-2.6,2.6S5.5,9.1,5.5,7.6z M6.4,12.7c0.1,0,0.2,0.1,0.2,0.2c0,0.1-0.1,0.2-0.2,0.2S6.2,13,6.2,12.9
					C6.1,12.8,6.2,12.7,6.4,12.7z M5.7,11.8c0,0.1-0.1,0.2-0.2,0.2s-0.2-0.1-0.2-0.2s0.1-0.2,0.2-0.2S5.7,11.7,5.7,11.8z M5.5,11.1
					L5.5,11.1L5.5,11.1L5.5,11.1C5.4,11.1,5.4,11.1,5.5,11.1L5.5,11.1z M5.3,11.2c-0.3,0.1-0.5,0.3-0.5,0.6c0,0.4,0.3,0.7,0.7,0.7
					c0.2,0,0.4-0.1,0.5-0.3l0.1,0.1c-0.2,0.1-0.4,0.3-0.4,0.6c0,0.4,0.3,0.7,0.7,0.7c0.4,0,0.6-0.3,0.7-0.6c0,0,0.2,0,0.3,0l0.5-0.4
					c-1.5-0.1-1.9-1.2-2-1.6l0.7-0.1c0.2,0.4,0.6,0.9,1.5,0.9s1.3-0.5,1.5-0.9l1.1,0.2c0.9,0.1,1.6,0.7,1.8,1.6l0.3,0.9h-1.5
					L11.2,13l-0.4,0.3l0.1,1.1H5.3l0.2-1.5l-0.5,0l-0.1,0.7H3.4l0.3-0.9C3.9,11.9,4.5,11.3,5.3,11.2z M11.3,14h0.3v0.4h-0.2L11.3,14
					z M12.1,14h0.2v0.4h-0.2V14z M4.2,14v0.4H3.9V14H4.2z M4.6,14h0.3l-0.1,0.4H4.6V14z M3.3,14h0.2v0.4H3.1L3.3,14z M12.7,14.4V14
					H13l0.1,0.4H12.7z"/>
			</g>
			<g>
				<path class="st0" d="M7.2,6.8c0-0.3-0.2-0.6-0.6-0.6C6.3,6.2,6,6.4,6,6.8s0.2,0.6,0.6,0.6S7.2,7.1,7.2,6.8z M6.6,6.8
					C6.6,6.7,6.6,6.7,6.6,6.8c0.2-0.1,0.2-0.1,0.2,0S6.8,6.9,6.6,6.8C6.6,6.9,6.6,6.9,6.6,6.8z"/>
			</g>
			<g>
				<path class="st0" d="M9.5,7.4c0.3,0,0.6-0.2,0.6-0.6S9.9,6.3,9.5,6.3C9.2,6.3,9,6.5,9,6.8S9.2,7.4,9.5,7.4z M9.5,6.7
					c0.1,0,0.1,0,0.1,0.1s0,0.1-0.1,0.1s-0.1,0-0.1-0.1S9.5,6.7,9.5,6.7z"/>
			</g>
			<g>
				<path class="st0" d="M9.9,7.8H9.4c0,0.7-0.6,1.3-1.3,1.3S6.8,8.5,6.8,7.8H6.4c0,1,0.8,1.8,1.8,1.8S9.9,8.8,9.9,7.8z"/>
			</g>
			<g>
				<rect x="7.9" y="5.6" class="st0" width="0.4" height="0.4"/>
			</g>
			<g>
				<path class="st0" d="M5.8,3.8L5.5,3.6C5.4,3.7,5.3,3.8,5.3,4l0.4,0.2C5.7,4,5.8,3.9,5.8,3.8z"/>
			</g>
			<g>
				<path class="st0" d="M7.3,2.7L7.2,2.2c-0.6,0.2-1.1,0.5-1.5,1L6,3.5C6.4,3.1,6.8,2.8,7.3,2.7z"/>
			</g>
		</g>
	</g>
</g>
</svg>
