<?xml version="1.0" encoding="utf-8"?>
<!-- Generator: Adobe Illustrator 21.1.0, SVG Export Plug-In . SVG Version: 6.00 Build 0)  -->
<svg version="1.1" id="Layer_1" xmlns="http://www.w3.org/2000/svg" xmlns:xlink="http://www.w3.org/1999/xlink" x="0px" y="0px"
	 viewBox="0 0 16 16" style="enable-background:new 0 0 16 16;" xml:space="preserve">
<style type="text/css">
	.st0{fill:#EB343C;}
</style>
<g id="Layer_29">
	<g>
		<g>
			<g>
				<path class="st0" d="M9.3,1.3c0-0.1-0.1-0.2-0.2-0.2l0,0l0,0H9c0,0,0,0-0.1,0H8.8C8.6,1,8.4,1,8.2,1C7.9,1,7.7,1,7.4,1.1
					C6.9,1.2,6.5,1.4,6.2,1.7c-1,1-0.6,2.8-0.6,2.9c0,0.1,0.1,0.2,0.2,0.2c0,0,0.4,0.1,0.9,0.1c0.6,0,1.4-0.1,2-0.7
					C9,3.9,9.2,3.5,9.3,3C9.4,2.1,9.3,1.3,9.3,1.3z M8.3,3.8L8.3,3.8C7.7,4.4,6.5,4.3,6.1,4.3C6,3.8,5.9,2.6,6.5,2
					c0.1-0.1,0.3-0.3,0.6-0.3c0,0.7,0.1,1.2,0.1,1.3s0.1,0.2,0.2,0.2c0,0,0.4,0.1,0.9,0.1c0.1,0,0.3,0,0.4,0
					C8.6,3.5,8.5,3.6,8.3,3.8z M8.8,2.7L8.8,2.7c-0.5,0.1-0.9,0-1.1,0c0-0.2-0.1-0.7,0-1.1l0,0c0,0,0,0,0.1,0l0,0c0,0,0,0,0.1,0l0,0
					H8l0,0h0.1l0,0c0,0,0,0,0.1,0l0,0c0,0,0,0,0.1,0l0,0h0.1l0,0c0,0,0,0,0.1,0l0,0c0,0,0,0,0.1,0l0,0c0,0,0,0,0.1,0l0,0
					c0,0,0,0,0.1,0l0,0c0,0,0,0,0.1,0l0,0l0,0l0,0l0,0l0,0l0,0l0,0C8.8,1.8,8.8,2.2,8.8,2.7z"/>
			</g>
		</g>
		<g>
			<g>
				<path class="st0" d="M11.7,10.1c0,0,0-0.1,0.1-0.1c0,0,0,0,0-0.1V9.8V9.7c0,0,0,0,0-0.1V9.5l0,0V9.4l0,0V9.3l0,0V9.2
					c0.2,0.1,0.4,0.1,0.6,0.1c0.9,0,1.6-0.7,1.6-1.6s-0.7-1.6-1.6-1.6c-0.1,0-0.3,0-0.4,0.1V5.6c0-0.1-0.1-0.3-0.3-0.3H2.8
					c-0.1,0-0.3,0.1-0.3,0.3v2v0.1v0.1l0,0v0.1l0,0V8l0,0v0.1l0,0c0,0.2,0,0.3,0.1,0.5c0,0.1,0.1,0.3,0.1,0.4l0,0v0.1l0,0v0.1l0,0
					v0.1c0,0,0,0,0,0.1v0.1v0.1c0,0,0,0,0,0.1c0,0,0,0.1,0.1,0.1C3.6,10.9,4.3,11.6,5,12H2.1c-0.1,0-0.2,0-0.2,0.1s-0.1,0.2,0,0.2
					c0.2,0.6,0.5,1.1,1,1.4c0.5,0.4,1,0.5,1.6,0.5h5.8c0.6,0,1.2-0.2,1.6-0.5s0.8-0.9,1-1.4c0-0.1,0-0.2,0-0.2
					c0-0.1-0.1-0.1-0.2-0.1H9.8C10.6,11.6,11.2,10.9,11.7,10.1z M12.2,8.4L12.2,8.4c0-0.1,0-0.1,0-0.1l0,0V8.2l0,0V8.1l0,0V8V7.6v-1
					c0.1-0.1,0.3-0.1,0.4-0.1c0.6,0,1.1,0.5,1.1,1.1s-0.5,1.1-1.1,1.1c-0.2,0-0.3,0-0.5-0.1C12.2,8.6,12.2,8.5,12.2,8.4z M3.1,5.9
					h8.7v1.5H3.1V5.9z M3.2,8.5L3.2,8.5C3.1,8.4,3.1,8.4,3.2,8.5c0-0.1,0-0.2,0-0.2l0,0V8.2c0,0,0,0,0-0.1c0,0,0,0,0-0.1V7.9l0,0
					h8.7l0,0V8c0,0,0,0,0,0.1c0,0,0,0,0,0.1v0.1l0,0v0.1l0,0c0,0,0,0,0,0.1C11.9,8.5,3.2,8.5,3.2,8.5z M3.5,9.6L3.5,9.6
					C3.4,9.4,3.3,9.2,3.3,9h8.3c-0.1,0.2-0.1,0.4-0.2,0.5l0,0v0.1H3.5C3.5,9.7,3.5,9.6,3.5,9.6z M12.3,12.5c-0.4,0.8-1.1,1.3-2,1.3
					H4.5c-0.4,0-0.9-0.1-1.2-0.4h6.3c0.1,0,0.3-0.1,0.3-0.3s-0.1-0.3-0.3-0.3H2.8c-0.1-0.1-0.2-0.2-0.2-0.4h3.9h1.9L12.3,12.5
					L12.3,12.5z M8.4,12H6.5c-1.1-0.2-2-0.9-2.6-1.8H11C10.4,11.1,9.4,11.8,8.4,12z"/>
			</g>
		</g>
		<g>
			<g>
				<path class="st0" d="M10.8,13.1C10.8,13.1,10.7,13.1,10.8,13.1C10.7,13,10.7,13,10.8,13.1c0-0.1-0.1-0.1-0.1-0.1l0,0l0,0l0,0
					h-0.1l0,0l0,0l0,0c0,0-0.1,0.1-0.1,0.2c0,0.1,0,0.1,0.1,0.2l0,0l0,0l0,0c0,0,0,0,0.1,0s0,0,0.1,0l0,0l0,0l0,0l0,0l0,0l0,0
					C10.8,13.2,10.8,13.2,10.8,13.1L10.8,13.1z"/>
			</g>
		</g>
	</g>
</g>
</svg>
