<?xml version="1.0" encoding="utf-8"?>
<!-- Generator: Adobe Illustrator 21.1.0, SVG Export Plug-In . SVG Version: 6.00 Build 0)  -->
<svg version="1.1" id="Layer_1" xmlns="http://www.w3.org/2000/svg" xmlns:xlink="http://www.w3.org/1999/xlink" x="0px" y="0px"
	 viewBox="0 0 16 16" style="enable-background:new 0 0 16 16;" xml:space="preserve">
<style type="text/css">
	.st0{fill:#EB343C;}
</style>
<g id="Layer_31">
	<g>
		<g>
			<g>
				<path class="st0" d="M12.1,3.7L12.1,3.7L12.1,3.7L12.1,3.7L12.1,3.7L12.1,3.7c0-0.7-0.3-1.4-0.9-1.9C10.7,1.3,10,1,9.3,1
					C8.2,1,7.4,1.8,7,2.3C6.6,1.8,5.7,1,4.6,1C3.9,1,3.2,1.3,2.7,1.8S1.9,3,1.8,3.7l0,0l0,0c0,0.7,0.1,1.3,0.6,2
					c0.1,0.2,0.4,0.5,0.7,0.9l0,0c0.6,0.6,1.3,1.3,2.1,1.8c1.3,1,1.6,1,1.7,1s0.5,0,1.7-1c0.7-0.6,1.5-1.2,2.1-1.8
					C11,6.3,11.3,6,11.4,5.7C11.8,5.3,12.1,4.6,12.1,3.7z M4.6,1.5c1.2,0,2.1,1.3,2.1,1.3C6.8,3,6.9,3,7,3l0,0c0,0,0.1,0,0.2-0.1
					c0,0,1-1.3,2.1-1.3s2,0.8,2.2,1.9H2.4C2.6,2.4,3.5,1.5,4.6,1.5z M8.4,8C7.5,8.6,7.1,8.8,7,8.8S6.5,8.6,5.6,7.9
					C5,7.6,4.5,7.1,4,6.7h5.8C9.4,7.1,8.9,7.6,8.4,8z M11,5.4c-0.1,0.2-0.3,0.4-0.6,0.7h-7C3.2,5.8,3,5.6,2.9,5.4c0,0,0-0.1-0.1-0.1
					h6.5c0.2,0,0.3-0.1,0.3-0.3S9.4,4.8,9.3,4.8H2.6l0,0C2.4,4.5,2.4,4.3,2.4,4h9.1C11.5,4.5,11.4,4.9,11,5.4z"/>
			</g>
		</g>
		<g>
			<g>
				<path class="st0" d="M10.5,4.9C10.5,4.8,10.5,4.8,10.5,4.9C10.4,4.8,10.4,4.8,10.5,4.9c-0.1-0.1-0.1-0.1-0.1-0.1h-0.1
					c0,0,0,0-0.1,0l0,0l0,0l0,0l0,0c0,0,0,0,0,0.1c0,0,0,0,0,0.1c0,0,0,0,0,0.1c0,0,0,0,0,0.1l0,0l0,0l0,0l0,0c0,0,0,0,0.1,0
					c0,0,0,0,0.1,0c0,0,0,0,0.1,0c0,0,0,0,0.1,0l0,0l0,0c0.1-0.1,0.1-0.1,0.1-0.2C10.6,5,10.5,4.9,10.5,4.9z"/>
			</g>
		</g>
		<g>
			<g>
				<path class="st0" d="M14.2,10.6H12l-0.4-0.2C10.9,10,9.9,10,9.9,10l0,0l-3.5,0.4c-0.2,0-0.5,0.2-0.6,0.3
					c-0.2,0.2-0.2,0.4-0.2,0.7c0,0.1,0.1,0.3,0.1,0.4l-2.3-0.5c-0.3-0.1-0.6,0-0.8,0.2c-0.2,0.2-0.3,0.5-0.2,0.8s0.3,0.6,0.7,0.7
					l3.5,1c0.1,0,0.1,0,0.2,0s0.1,0,0.2,0l3-0.7l1.3,0.6l-0.1,0.8c0,0.1,0,0.2,0.1,0.2c0.1,0.1,0.1,0.1,0.2,0.1h2.9
					c0.2,0,0.3-0.1,0.3-0.3v-3.8C14.5,10.8,14.4,10.6,14.2,10.6z M11.5,12.3l-0.2,1l-1.2-0.6c-0.1,0-0.1,0-0.2,0l-3.1,0.7
					c-0.1,0-0.1,0-0.2,0L3,12.5c-0.1,0-0.2-0.1-0.3-0.3c0-0.1,0-0.2,0.1-0.3s0.1-0.1,0.2-0.1c0,0,0,0,0.1,0l3.5,0.7
					c0.1,0,0.2,0,0.3-0.1l0.2-0.3L8.6,12c0.1,0,0.3-0.2,0.2-0.3c0-0.1-0.2-0.3-0.3-0.2l-2,0.3c-0.1,0-0.2,0-0.3-0.1
					c-0.1-0.1-0.1-0.1-0.1-0.2c0-0.1,0-0.2,0.1-0.3C6.2,11,6.3,11,6.4,11l3.5-0.4c0.1,0,0.9,0,1.5,0.3l0.3,0.2L11.5,12.3z M14,14.5
					h-2.3l0.5-3.1v-0.2H14V14.5z"/>
			</g>
		</g>
	</g>
</g>
</svg>
