<?xml version="1.0" encoding="utf-8"?>
<!-- Generator: Adobe Illustrator 21.1.0, SVG Export Plug-In . SVG Version: 6.00 Build 0)  -->
<svg version="1.1" id="Layer_1" xmlns="http://www.w3.org/2000/svg" xmlns:xlink="http://www.w3.org/1999/xlink" x="0px" y="0px"
	 viewBox="0 0 16 16" style="enable-background:new 0 0 16 16;" xml:space="preserve">
<style type="text/css">
	.st0{fill:#EB343C;}
</style>
<g id="Layer_51">
	<g>
		<g>
			<g>
				<g>
					<path class="st0" d="M14.5,11.6V3.4c0-0.4-0.3-0.7-0.7-0.7h-2.1c-0.1,0-0.2,0.1-0.2,0.2s0.1,0.2,0.2,0.2h2.1
						c0.1,0,0.2,0.1,0.2,0.2v8.2h-0.5V4.1c0-0.3-0.2-0.5-0.5-0.5h-1c-0.1,0-0.2,0.1-0.2,0.2C11.8,3.9,11.9,4,12,4h1.2v7.5H2.9V4.1H4
						c0.1,0,0.2-0.1,0.2-0.2s0-0.3-0.2-0.3H2.9c-0.3,0-0.5,0.2-0.5,0.5v7.5H1.9V3.4c0-0.1,0.1-0.2,0.2-0.2h2.1
						c0.1,0,0.2-0.1,0.2-0.2c0-0.1-0.1-0.2-0.2-0.2h-2C1.8,2.7,1.5,3,1.5,3.4v8.2C1.2,11.6,1,11.8,1,12v1c0,0.6,0.5,1.2,1.2,1.2
						h11.7c0.6,0,1.2-0.5,1.2-1.2v-1C15,11.8,14.8,11.6,14.5,11.6z M10,12l-0.2,0.3c0,0.1-0.1,0.1-0.2,0.1H6.4c-0.1,0-0.2,0-0.2-0.1
						L6,12H10z M14.5,12.5H12c-0.1,0-0.2,0.1-0.2,0.2c0,0.1,0.1,0.2,0.2,0.2h2.6c0,0.4-0.3,0.7-0.7,0.7H2.2c-0.4,0-0.7-0.3-0.7-0.7
						H4c0.1,0,0.2-0.1,0.2-0.2c0-0.1-0.1-0.2-0.2-0.2H1.5V12h4.1l0.3,0.5c0,0.3,0.3,0.5,0.5,0.5h3.2c0.3,0,0.5-0.1,0.6-0.4l0.3-0.5
						h4.1L14.5,12.5L14.5,12.5z"/>
				</g>
				<g>
					<path class="st0" d="M5.2,12.5H5c-0.1,0-0.2,0.1-0.2,0.2C4.7,12.8,4.8,13,5,13h0.2c0.1,0,0.2-0.1,0.2-0.2
						C5.4,12.6,5.3,12.5,5.2,12.5z"/>
				</g>
				<g>
					<path class="st0" d="M10.8,13H11c0.1,0,0.2-0.1,0.2-0.2c0-0.1-0.1-0.2-0.2-0.2h-0.2c-0.1,0-0.2,0.1-0.2,0.2
						C10.6,12.8,10.7,13,10.8,13z"/>
				</g>
			</g>
		</g>
	</g>
	<g>
		<g>
			<g>
				<path class="st0" d="M8,2C5.9,2,4.1,3.8,4.1,5.9S5.9,9.8,8,9.8s3.9-1.7,3.9-3.9S10.2,2,8,2L8,2z M5.1,3.9c0.4-0.6,1-1,1.6-1.2
					l0,0c0,0.1-0.2,0.3-0.3,0.5S6.2,3.6,6.1,3.9c0,0-0.1,0.1-0.2,0C5.7,3.9,5.4,3.9,5.1,3.9C5.1,3.9,5.1,4,5.1,3.9L5.1,3.9L5.1,3.9z
					 M4.5,5.6c0-0.4,0.1-0.7,0.3-1.1c0.1-0.3,0.1-0.3,0.4-0.3c0.2,0,0.5,0,0.7,0C6,4.2,6,4.2,6,4.3C5.8,4.8,5.8,5.2,5.7,5.6
					c0,0.2,0,0.2-0.2,0.2h-1C4.5,5.8,4.4,5.8,4.5,5.6L4.5,5.6z M4.8,7.5C4.6,7.1,4.5,6.7,4.5,6.2c0-0.1,0-0.1,0.1-0.1
					c0.2,0,0.3,0,0.5,0s0.3,0,0.5,0c0.1,0,0.1,0,0.1,0.1c0,0.2,0,0.3,0,0.5s0.1,0.5,0.1,0.7c0,0.1,0,0.1-0.1,0.1
					C5.4,7.5,5.1,7.5,4.8,7.5C4.9,7.6,4.8,7.6,4.8,7.5z M6.3,9.1c-0.5-0.2-0.9-0.6-1.2-1L5,8c0,0,0.1,0,0.2,0c0.2,0,0.5,0,0.7,0
					C6,7.9,6.1,8,6.1,8c0.1,0.4,0.3,0.8,0.6,1.1c0,0.1,0.1,0.1,0.1,0.1C6.6,9.2,6.5,9.2,6.3,9.1L6.3,9.1z M6.2,6.1c0.5,0,1,0,1.5,0
					c0.1,0,0.1,0,0.1,0.1v1.2c0,0.1,0,0.1-0.1,0.1c-0.2,0-0.4,0-0.6,0s-0.4,0-0.7,0c-0.1,0-0.1,0-0.1-0.1C6.2,7.1,6.1,6.7,6.2,6.1
					C6.1,6.1,6.1,6.1,6.2,6.1L6.2,6.1z M7.8,8.7c0,0.2,0,0.4,0,0.7c0,0.1,0,0.1-0.1,0.1C7.4,9.4,7.1,9.1,6.9,8.9
					C6.7,8.6,6.5,8.3,6.4,8c0-0.1,0-0.1,0.1-0.1c0.4,0,0.8,0,1.3,0c0.1,0,0.1,0,0.1,0.1C7.8,8.2,7.8,8.5,7.8,8.7L7.8,8.7z M7.8,5.7
					C7.8,5.8,7.8,5.8,7.8,5.7C7.4,5.8,7.2,5.8,6.9,5.8s-0.5,0-0.8,0C6,5.8,6,5.8,6,5.7c0-0.4,0.1-0.9,0.2-1.3l0.1-0.1
					c0.5,0,0.9,0,1.4,0c0.1,0,0.1,0,0.1,0.1C7.8,4.8,7.8,5.2,7.8,5.7L7.8,5.7z M7.7,3.9c-0.4,0-0.8,0-1.2,0c-0.1,0-0.1,0-0.1-0.1
					C6.6,3.4,6.8,3,7.2,2.7c0.1-0.1,0.3-0.2,0.5-0.3c0.1,0,0.1,0,0.1,0.1c0,0.2,0,0.4,0,0.7C7.8,3.4,7.8,3.6,7.7,3.9
					C7.8,3.9,7.8,3.9,7.7,3.9z M11.2,4.4c0.2,0.4,0.3,0.9,0.4,1.3c0,0.1,0,0.1-0.1,0.1c-0.2,0-0.4,0-0.5,0c-0.2,0-0.3,0-0.5,0
					c-0.1,0-0.1,0-0.1-0.1c0-0.4-0.1-0.8-0.2-1.2c0-0.1,0-0.2,0.1-0.2c0.3,0,0.6,0,0.8,0C11.1,4.3,11.2,4.3,11.2,4.4L11.2,4.4z
					 M9.7,2.8c0.4,0.2,0.7,0.5,1,0.8c0.1,0.1,0.2,0.2,0.2,0.3V4c-0.3,0-0.6,0-0.8,0C10,4,10,4,10,3.9C9.8,3.5,9.7,3.2,9.5,3
					C9.4,2.8,9.3,2.7,9.2,2.6C9.4,2.7,9.6,2.7,9.7,2.8L9.7,2.8z M8.2,6.2c0-0.1,0-0.1,0.1-0.1c0.3,0,0.5,0,0.8,0s0.5,0,0.8,0
					c0.1,0,0.1,0,0.1,0.1c0,0.3-0.1,0.7-0.1,1c0,0.1,0,0.2-0.1,0.3c0,0.1-0.1,0.1-0.1,0.1l0,0c-0.5,0-0.9,0-1.4,0
					c-0.1,0-0.1,0-0.1-0.1C8.2,7.1,8.2,6.6,8.2,6.2L8.2,6.2z M8.2,5.7V4.4c0-0.1,0-0.1,0.1-0.1c0.4,0,0.9,0,1.3,0
					c0.1,0,0.1,0,0.1,0.1l0,0c0.1,0.4,0.2,0.8,0.2,1.2c0,0.2,0,0.2-0.2,0.2H8.3C8.2,5.8,8.2,5.8,8.2,5.7L8.2,5.7z M8.2,3.2
					c0-0.2,0-0.4,0-0.7c0-0.1,0-0.1,0.1-0.1C8.6,2.5,8.8,2.7,9,2.9c0.2,0.3,0.4,0.6,0.6,1C9.6,4,9.6,4,9.5,4C9.1,4,8.7,4,8.3,4
					C8.2,4,8.2,4,8.2,3.9C8.2,3.6,8.2,3.4,8.2,3.2L8.2,3.2z M8.8,9.1C8.7,9.3,8.5,9.4,8.3,9.5c-0.1,0-0.1,0-0.1-0.1
					c0-0.2,0-0.4,0-0.7s0-0.4,0-0.7c0-0.1,0-0.1,0.1-0.1c0.4,0,0.8,0,1.2,0c0.1,0,0.1,0,0.1,0.1C9.4,8.4,9.2,8.8,8.8,9.1L8.8,9.1z
					 M10.9,8c-0.3,0.4-0.7,0.8-1.2,1.1C9.5,9.2,9.3,9.2,9.2,9.3c0.2-0.2,0.3-0.4,0.5-0.7C9.8,8.4,9.8,8.2,9.9,8
					c0-0.1,0.1-0.1,0.1-0.1C10.3,7.9,10.6,7.9,10.9,8C10.9,7.9,10.9,7.9,10.9,8L10.9,8L10.9,8z M11.5,6.2c0,0.4-0.2,0.9-0.3,1.3
					c0,0.1-0.1,0.1-0.2,0.1c-0.1,0-0.3,0-0.4,0c-0.1,0-0.3,0-0.4,0c-0.1,0-0.1,0-0.1-0.1c0.1-0.3,0.1-0.6,0.1-0.9c0-0.1,0-0.3,0-0.4
					s0-0.1,0.1-0.1C10.7,6.1,11,6.1,11.5,6.2C11.5,6.1,11.6,6.1,11.5,6.2L11.5,6.2z"/>
				<path class="st0" d="M8,9.9c-1,0-2-0.4-2.7-1.1C4.5,8,4.1,7,4.1,5.9c0-1,0.4-2,1.2-2.8S7,2,8,2l0,0c1,0,2,0.4,2.8,1.1
					c0.7,0.7,1.1,1.7,1.1,2.8C11.9,8.1,10.2,9.9,8,9.9L8,9.9z M8,2.1C5.9,2.1,4.1,3.8,4.1,6c0,1,0.4,2,1.1,2.7C6,9.4,7,9.8,8,9.8
					l0,0c2.1,0,3.9-1.7,3.9-3.9c0-1-0.4-2-1.1-2.7C10,2.5,9,2.1,8,2.1L8,2.1z M8.2,9.5L8.2,9.5c-0.1,0-0.1-0.1-0.1-0.1
					c0-0.2,0-0.3,0-0.5c0-0.1,0-0.1,0-0.2c0-0.1,0-0.1,0-0.2c0-0.2,0-0.3,0-0.5c0-0.1,0-0.1,0-0.1h0.1c0.3,0,0.5,0,0.8,0
					c0.2,0,0.3,0,0.5,0c0.1,0,0.1,0,0.1,0V8C9.4,8.5,9.2,8.9,8.9,9.2l0,0C8.7,9.3,8.5,9.4,8.2,9.5C8.3,9.5,8.2,9.5,8.2,9.5z
					 M8.3,7.9C8.2,7.9,8.2,8,8.3,7.9C8.2,8,8.2,8,8.3,7.9C8.2,8.2,8.2,8.4,8.2,8.5s0,0.1,0,0.2c0,0.1,0,0.1,0,0.2c0,0.2,0,0.3,0,0.5
					v0.1c0,0,0,0,0.1,0c0.2-0.1,0.4-0.2,0.6-0.3C9.1,8.8,9.4,8.4,9.5,8V7.9c0,0,0,0-0.1,0c-0.2,0-0.3,0-0.5,0
					C8.8,7.9,8.5,7.9,8.3,7.9L8.3,7.9z M7.8,9.5C7.8,9.5,7.7,9.5,7.8,9.5C7.4,9.4,7.1,9.2,6.9,8.9C6.7,8.6,6.5,8.3,6.4,8V7.9h0.1
					c0.4,0,0.8,0,1.3,0L7.9,8c0,0.2,0,0.3,0,0.5v0.2c0,0.1,0,0.1,0,0.2c0,0.1,0,0.3,0,0.4C7.9,9.4,7.9,9.5,7.8,9.5L7.8,9.5z
					 M6.5,7.9C6.5,7.9,6.4,8,6.5,7.9C6.4,8,6.4,8,6.5,7.9c0.1,0.4,0.2,0.6,0.4,0.9c0.2,0.3,0.5,0.5,0.8,0.6h0.1c0,0,0,0,0-0.1
					s0-0.3,0-0.4c0-0.1,0-0.1,0-0.2V8.5c0-0.2,0-0.3,0-0.5c0-0.1,0-0.1-0.1-0.1C7.3,7.9,6.9,7.9,6.5,7.9z M9.1,9.3L9.1,9.3
					C9.3,9,9.5,8.8,9.6,8.6C9.7,8.4,9.8,8.2,9.9,8c0-0.1,0.1-0.1,0.2-0.1c0.2,0,0.3,0,0.5,0c0.1,0,0.2,0,0.3,0l0,0H11V8l0,0l0,0
					c-0.3,0.4-0.7,0.8-1.2,1.1C9.5,9.2,9.4,9.3,9.1,9.3L9.1,9.3z M10,7.9C10,7.9,10,8,10,7.9L10,7.9C9.9,8.2,9.8,8.4,9.7,8.6
					C9.6,8.8,9.4,9,9.3,9.2c0.1,0,0.3-0.1,0.4-0.2c0.5-0.3,0.9-0.6,1.2-1.1l0,0l0,0l0,0l0,0c-0.1,0-0.2,0-0.3,0
					C10.4,7.9,10.2,7.9,10,7.9C10.1,7.9,10,7.9,10,7.9z M6.9,9.3L6.9,9.3c-0.2,0-0.4-0.1-0.6-0.2c-0.5-0.2-0.9-0.6-1.2-1l0,0
					c0,0-0.1-0.1,0-0.1h0.1l0,0c0.1,0,0.2,0,0.3,0c0.1,0,0.3,0,0.4,0s0.2,0,0.2,0.1c0.1,0.4,0.3,0.8,0.6,1.1L6.9,9.3
					C6.8,9.2,6.8,9.2,6.9,9.3L6.9,9.3z M5.2,7.9C5.1,7.9,5.1,7.9,5.2,7.9C5.1,8,5.1,8,5.2,7.9C5.2,8,5.2,8,5.2,7.9
					C5.5,8.4,5.9,8.8,6.4,9l0,0c0.1,0.1,0.2,0.1,0.4,0.2L6.7,9.1C6.4,8.8,6.2,8.4,6.1,8l0,0C6,8,6,7.9,5.9,7.9l0,0
					c-0.1,0-0.3,0-0.4,0S5.3,7.9,5.2,7.9L5.2,7.9L5.2,7.9z M11.1,7.6C11,7.6,11,7.6,11.1,7.6c-0.1,0-0.2,0-0.3,0h-0.1h-0.1
					c-0.1,0-0.2,0-0.3,0h-0.1V7.5c0.1-0.3,0.1-0.6,0.1-0.9c0-0.1,0-0.3,0-0.4s0-0.1,0.1-0.1l0,0c0.4,0,0.7,0,1.1,0h0.1v0.1l0,0
					c0,0.5-0.2,0.9-0.3,1.3C11.2,7.6,11.1,7.6,11.1,7.6z M10.9,7.6c0.1,0,0.1,0,0.2,0c0.1,0,0.1,0,0.1-0.1l0,0
					c0.2-0.4,0.3-0.8,0.3-1.3l0,0V6.1c0,0,0,0-0.1,0c-0.4,0-0.7,0-1.1,0c-0.1,0-0.1,0-0.1,0.1s0,0.3,0,0.4c0,0.3-0.1,0.6-0.1,0.9
					c0,0,0,0,0,0.1c0,0,0,0,0.1,0s0.2,0,0.3,0h0.1h0.1C10.8,7.6,10.8,7.6,10.9,7.6z M4.9,7.6c-0.1,0-0.1,0-0.2-0.1
					C4.6,7.1,4.5,6.7,4.4,6.2c0-0.1,0-0.1,0-0.1h0.1c0.1,0,0.2,0,0.3,0c0.1,0,0.2,0,0.3,0c0.1,0,0.2,0,0.3,0c0.1,0,0.2,0,0.2,0.2
					s0,0.3,0,0.5s0.1,0.5,0.1,0.7c0,0.1,0,0.1,0,0.1H5.6c-0.1,0-0.2,0-0.3,0C5.3,7.6,5.1,7.6,4.9,7.6C5,7.6,4.9,7.6,4.9,7.6z
					 M4.8,6.1c-0.1,0-0.1,0-0.2,0H4.5v0.1c0,0.4,0.2,0.9,0.3,1.3l0,0c0,0.1,0.1,0.1,0.1,0.1c0.2,0,0.4,0,0.5,0s0.2,0,0.3,0h0.1V7.5
					c0-0.3,0-0.5,0-0.8c0-0.2,0-0.3,0-0.5c0-0.1,0-0.1-0.1-0.1s-0.2,0-0.3,0c-0.1,0-0.2,0-0.3,0C4.9,6.1,4.8,6.1,4.8,6.1z M6.4,7.6
					c-0.1,0-0.1,0-0.2-0.1C6.1,7.1,6.1,6.7,6,6.2c0-0.1,0-0.1,0-0.1h0.1c0.2,0,0.3,0,0.5,0c0.3,0,0.7,0,1,0c0.1,0,0.2,0,0.2,0.2v1.2
					c0,0.1,0,0.2-0.2,0.2c-0.1,0-0.3,0-0.4,0s-0.3,0-0.4,0C6.7,7.6,6.6,7.6,6.4,7.6L6.4,7.6z M7.2,6.1c-0.2,0-0.3,0-0.5,0
					s-0.3,0-0.5,0c-0.1,0-0.1,0-0.1,0v0.1c0,0.4,0.1,0.8,0.2,1.2c0,0.1,0,0.1,0.1,0.1c0.2,0,0.3,0,0.5,0c0.1,0,0.3,0,0.4,0
					s0.3,0,0.4,0h0.1c0,0,0,0,0-0.1V6.2V6.1H7.7C7.5,6.1,7.4,6.1,7.2,6.1z M9.6,7.6L9.6,7.6L9.6,7.6c-0.5,0-0.9,0-1.4,0H8.1V7.5
					c0-0.4,0-0.8,0-1.3l0,0V6.1h0.1c0.2,0,0.4,0,0.6,0c0.1,0,0.1,0,0.2,0h0.2c0.2,0,0.4,0,0.6,0h0.1v0.1c0,0.3-0.1,0.7-0.1,1v0.1
					v0.1C9.8,7.5,9.7,7.6,9.6,7.6C9.7,7.6,9.7,7.6,9.6,7.6z M8.9,7.6c0.2,0,0.5,0,0.7,0l0,0c0,0,0,0,0.1,0l0,0l0,0V7.5V7.4
					c0.1-0.3,0.1-0.7,0.1-1c0,0,0,0,0-0.1c0,0,0,0-0.1,0c-0.2,0-0.4,0-0.6,0H8.9c-0.1,0-0.1,0-0.2,0c-0.2,0-0.4,0-0.6,0H8
					c0,0,0,0,0,0.1l0,0c0,0.5,0,0.9,0,1.3v0.1c0,0,0,0,0.1,0C8.5,7.6,8.7,7.6,8.9,7.6z M6.2,5.8L6.2,5.8L6.2,5.8
					c-0.1-0.5,0-1,0.1-1.4c0-0.1,0.1-0.1,0.1-0.1c0.5,0,0.9,0,1.4,0h0.1v0.1c0,0.4,0,0.9,0,1.3l0,0c0,0.1-0.1,0.1-0.1,0.1
					c-0.2,0-0.4,0-0.6,0c-0.1,0-0.3,0-0.4,0C6.6,5.8,6.4,5.8,6.2,5.8L6.2,5.8z M6.4,4.3C6.3,4.3,6.3,4.3,6.4,4.3
					C6.2,4.8,6.1,5.2,6.1,5.7v0.1c0,0,0,0,0.1,0c0.2,0,0.4,0,0.5,0s0.3,0,0.4,0c0.2,0,0.4,0,0.6,0c0.1,0,0.1,0,0.1-0.1
					c0-0.4,0-0.9,0-1.3c0,0,0,0,0-0.1c0,0,0,0-0.1,0C7.3,4.3,6.8,4.3,6.4,4.3L6.4,4.3L6.4,4.3z M10.4,5.8c-0.1,0-0.1,0-0.1-0.1
					c0-0.4-0.1-0.8-0.2-1.2c0-0.1,0-0.1,0-0.2c0,0,0.1,0,0.2,0c0.1,0,0.2,0,0.2,0c0.2,0,0.4,0,0.6,0c0.1,0,0.1,0,0.2,0.1
					c0.2,0.4,0.3,0.9,0.4,1.3v0.1h-0.1c-0.2,0-0.5,0-0.7,0C10.6,5.8,10.5,5.8,10.4,5.8L10.4,5.8z M10.2,4.3h-0.1v0.1
					c0.1,0.4,0.2,0.8,0.2,1.2c0,0.1,0,0.1,0.1,0.1s0.2,0,0.4,0s0.5,0,0.7,0h0.1l0,0c0-0.5-0.2-0.9-0.4-1.3l0,0l-0.1-0.1
					c-0.2,0-0.4,0-0.6,0C10.4,4.3,10.3,4.3,10.2,4.3z M9.7,5.8H8.3c-0.1,0-0.2,0-0.2-0.2V4.4c0-0.1,0-0.2,0.2-0.2l0,0
					c0.1,0,0.2,0,0.4,0c0.3,0,0.6,0,0.9,0h0.1l0.1,0.1l0,0C9.9,4.7,10,5.1,10,5.5l0,0c0,0.1,0,0.2,0,0.2C9.9,5.8,9.8,5.8,9.7,5.8z
					 M8.2,5.7c0,0.1,0,0.1,0.1,0.1h1.4c0.1,0,0.2,0,0.2,0s0-0.1,0-0.2l0,0c0-0.4-0.1-0.8-0.2-1.2l0,0l0,0c0,0,0,0,0-0.1
					c0,0,0,0-0.1,0l0,0c-0.3,0-0.6,0-0.9,0c-0.1,0-0.2,0-0.4,0c-0.1,0-0.1,0-0.1,0.1V5.7z M5.6,5.8h-1c-0.1,0-0.1,0-0.1,0V5.7
					c0-0.4,0.1-0.7,0.3-1.1V4.5c0-0.3,0-0.3,0.2-0.3h0.1c0.2,0,0.4,0,0.5,0h0.1c0.1,0,0.1,0,0.1,0v0.1c0,0.5,0,0.9,0,1.3
					C5.8,5.8,5.7,5.8,5.6,5.8z M5,4.3C4.9,4.3,4.9,4.3,5,4.3c-0.1,0-0.1,0.1-0.2,0.2v0.1c-0.2,0.3-0.3,0.7-0.3,1l0,0
					c0,0.1,0,0.1,0,0.1h0.1h1c0.1,0,0.1,0,0.1-0.1c0-0.4,0.1-0.8,0.2-1.2V4.3H5.8H5.7c-0.2,0-0.4,0-0.5,0C5.1,4.3,5,4.3,5,4.3L5,4.3
					z M6,4L6,4C5.8,4,5.6,4,5.4,4c0,0-0.1,0-0.2,0l0,0H5.1V3.9l0,0l0,0c0.4-0.6,1-1,1.6-1.3l0,0l0,0h0.1l0,0C6.7,2.8,6.5,3,6.4,3.2
					S6.2,3.6,6,4L6,4z M5.6,3.9c0.1,0,0.2,0,0.3,0l0,0c0,0,0.1,0,0.1-0.1c0.1-0.2,0.2-0.5,0.3-0.7C6.5,3,6.6,2.8,6.7,2.7
					C6.1,2.9,5.5,3.3,5.1,3.9l0,0l0,0l0,0l0,0c0.1,0,0.2,0,0.3,0C5.5,3.9,5.6,3.9,5.6,3.9z M8.3,4C8.2,4,8.2,4,8.2,4V3.9
					c0-0.2,0-0.3,0-0.5c0-0.1,0-0.1,0-0.2c0-0.1,0-0.1,0-0.2c0-0.1,0-0.3,0-0.4c0-0.1,0-0.1,0-0.1h0.1c0.3,0,0.5,0.1,0.7,0.4
					s0.4,0.6,0.6,1V4H9.5C9.1,4,8.7,4,8.3,4L8.3,4z M8.2,2.4L8.2,2.4C8.2,2.4,8.2,2.5,8.2,2.4c0,0.2,0,0.4,0,0.5s0,0.1,0,0.2
					c0,0.1,0,0.1,0,0.2c0,0.2,0,0.3,0,0.5v0.1c0,0,0,0,0.1,0c0.4,0,0.8,0,1.2,0c0,0,0,0,0.1,0l0,0l0,0C9.4,3.5,9.2,3.2,9,2.9
					C8.8,2.7,8.6,2.5,8.2,2.4C8.3,2.4,8.2,2.4,8.2,2.4z M7.7,4L7.7,4C7.3,4,6.9,4,6.5,4H6.4V3.9C6.6,3.3,6.9,3,7.2,2.7
					c0.1-0.1,0.3-0.2,0.5-0.3c0.1,0,0.1,0,0.1,0v0.1c0,0.1,0,0.3,0,0.4c0,0.1,0,0.1,0,0.2c0,0.1,0,0.1,0,0.2c0,0.2,0,0.3,0,0.5
					L7.7,4C7.8,4,7.8,4,7.7,4z M7.1,3.9c0.2,0,0.4,0,0.6,0l0,0h0.1c0,0,0,0,0-0.1c0-0.2,0-0.3,0-0.5c0-0.1,0-0.1,0-0.2
					c0-0.1,0-0.1,0-0.2c0-0.1,0-0.3,0-0.4V2.4H7.7C7.5,2.5,7.3,2.6,7.2,2.7C6.9,3,6.7,3.4,6.5,3.9V4c0,0,0,0,0.1,0
					C6.7,3.9,6.9,3.9,7.1,3.9z M10,4C9.9,4,9.9,3.9,9.9,3.9C9.8,3.5,9.6,3.2,9.4,3c0-0.1-0.1-0.2-0.1-0.3c0,0,0-0.1-0.1-0.1V2.5h0.1
					c0.2,0,0.3,0.1,0.5,0.2c0.4,0.2,0.7,0.5,1,0.8C10.9,3.6,11,3.7,11,3.8c0,0,0,0,0,0.1h-0.1h-0.2C10.5,4,10.2,4,10,4z M9.3,2.7
					L9.3,2.7C9.4,2.8,9.5,2.9,9.5,3C9.7,3.3,9.8,3.6,10,3.9C10,4,10,4,10.1,4c0.2,0,0.4,0,0.6,0h0.2l0,0l0,0
					c-0.1-0.1-0.2-0.2-0.2-0.3C10.4,3.3,10,3,9.7,2.8l0,0C9.6,2.8,9.4,2.7,9.3,2.7z"/>
			</g>
		</g>
	</g>
</g>
</svg>
