<?xml version="1.0" encoding="utf-8"?>
<!-- Generator: Adobe Illustrator 21.1.0, SVG Export Plug-In . SVG Version: 6.00 Build 0)  -->
<svg version="1.1" id="Layer_3" xmlns="http://www.w3.org/2000/svg" xmlns:xlink="http://www.w3.org/1999/xlink" x="0px" y="0px"
	 viewBox="0 0 16 16" style="enable-background:new 0 0 16 16;" xml:space="preserve">
<style type="text/css">
	.st0{fill:#EB343C;}
</style>
<g>
	<g>
		<g>
			<path class="st0" d="M7,6.5H5.4c-0.1,0-0.3,0.1-0.3,0.3C5.1,6.9,5.2,7,5.4,7h1.4C6.6,7.7,6.1,8.2,5.4,8.2c-0.8,0-1.4-0.6-1.4-1.4
				s0.6-1.4,1.4-1.4c0.4,0,0.7,0.1,1,0.4c0.1,0.1,0.3,0.1,0.4,0c0.1-0.1,0.1-0.3,0-0.4C6.4,5,5.9,4.8,5.4,4.8
				c-1.1,0-1.9,0.9-1.9,1.9s0.9,1.9,1.9,1.9s1.9-0.9,1.9-1.9C7.3,6.6,7.2,6.5,7,6.5z"/>
		</g>
	</g>
	<g>
		<g>
			<path class="st0" d="M13.6,3.7H8.4L7.7,1.5c0-0.1-0.1-0.2-0.2-0.2h-5c-0.6,0-1.1,0.5-1.1,1.1v8.6c0,0.6,0.5,1.1,1.1,1.1h5.3
				l0.7,2.1c0,0.1,0.1,0.2,0.2,0.2h4.9c0.6,0,1.1-0.5,1.1-1.1V4.7C14.7,4.1,14.2,3.7,13.6,3.7z M2.5,11.6c-0.3,0-0.6-0.3-0.6-0.6
				V2.5c0-0.3,0.3-0.6,0.6-0.6h4.8l1.8,5.5c0,0,0,0,0,0l1.4,4.2H2.5z M10.1,8.6c0,0,0.3,0.4,0.7,0.9c-0.1,0.1-0.2,0.3-0.4,0.4
				L9.7,7.6H12c-0.2,0.3-0.4,0.9-0.8,1.4c-0.4-0.4-0.6-0.7-0.6-0.7c-0.1-0.1-0.2-0.1-0.4-0.1C10.1,8.3,10.1,8.5,10.1,8.6z M8.3,12.2
				h2l-1.4,1.5L8.3,12.2z M14.1,13.4c0,0.3-0.3,0.6-0.6,0.6H9.3l1.7-1.9l0,0c0,0,0,0,0,0c0-0.1,0.1-0.2,0-0.2l-0.4-1.3
				c0.2-0.2,0.4-0.4,0.5-0.6c0.3,0.4,0.8,0.9,1.2,1.3c0.1,0.1,0.1,0.1,0.2,0.1s0.1,0,0.2-0.1c0.1-0.1,0.1-0.3,0-0.4
				c-0.5-0.5-0.9-0.9-1.2-1.4c0.6-0.8,0.9-1.5,1.1-1.9h0.6c0.1,0,0.3-0.1,0.3-0.3c0-0.1-0.1-0.3-0.3-0.3h-0.7c0,0,0,0,0,0h-1V6.6
				c0-0.1-0.1-0.3-0.3-0.3s-0.3,0.1-0.3,0.3v0.5H9.5l-1-2.9h5c0.3,0,0.6,0.3,0.6,0.6L14.1,13.4L14.1,13.4z"/>
		</g>
	</g>
</g>
</svg>
