<?xml version="1.0" encoding="utf-8"?>
<!-- Generator: Adobe Illustrator 21.1.0, SVG Export Plug-In . SVG Version: 6.00 Build 0)  -->
<svg version="1.1" id="Layer_1" xmlns="http://www.w3.org/2000/svg" xmlns:xlink="http://www.w3.org/1999/xlink" x="0px" y="0px"
	 viewBox="0 0 16 16" style="enable-background:new 0 0 16 16;" xml:space="preserve">
<style type="text/css">
	.st0{fill:#EB343C;}
</style>
<g id="Layer_33">
	<g>
		<g>
			<g>
				<path class="st0" d="M14.8,10.8H1.5c-0.1,0-0.2,0.1-0.2,0.2v1c0,0.1,0.1,0.2,0.2,0.2h13.3c0.1,0,0.2-0.1,0.2-0.2v-0.9
					C15,10.9,14.9,10.8,14.8,10.8z M14.5,11.7H1.7v-0.5h12.9L14.5,11.7L14.5,11.7z"/>
			</g>
		</g>
		<g>
			<g>
				<path class="st0" d="M2.4,11.7H1.5c-0.1,0-0.2,0.1-0.2,0.2v2.3c0,0.1,0.1,0.2,0.2,0.2h0.9c0.1,0,0.2-0.1,0.2-0.2V12
					C2.6,11.8,2.5,11.7,2.4,11.7z M2.1,14H1.7v-1.8h0.5L2.1,14L2.1,14z"/>
			</g>
		</g>
		<g>
			<g>
				<path class="st0" d="M14.8,11.7h-0.9c-0.1,0-0.2,0.1-0.2,0.2v2.3c0,0.1,0.1,0.2,0.2,0.2h0.9c0.1,0,0.2-0.1,0.2-0.2V12
					C15,11.8,14.9,11.7,14.8,11.7z M14.5,14H14v-1.8h0.5V14z"/>
			</g>
		</g>
		<g>
			<g>
				<path class="st0" d="M14,8.1l-0.7-0.7c-0.1-0.1-0.2-0.1-0.3,0l-3.7,3.4c-0.1,0.1-0.1,0.2-0.1,0.3s0.1,0.1,0.2,0.1h1.4
					c0.1,0,0.1,0,0.2-0.1l3-2.8C14,8.3,14.1,8.2,14,8.1C14.1,8.2,14.1,8.2,14,8.1z M10.8,10.8h-0.7l3.1-2.9l0.4,0.4L10.8,10.8z"/>
			</g>
		</g>
		<g>
			<g>
				
					<rect x="13.4" y="8.9" transform="matrix(0.9138 -0.4061 0.4061 0.9138 -2.8988 6.4118)" class="st0" width="0.5" height="2.3"/>
			</g>
		</g>
		<g>
			<g>
				<path class="st0" d="M5.1,0.7C3,0.7,1.2,2.5,1.2,4.6v0.5c0,0.1,0.1,0.2,0.1,0.2c0.1,0,0.2,0,0.2,0c0.4-0.4,1.1-0.4,1.5,0
					c0.1,0.1,0.2,0.1,0.3,0c0.4-0.4,1.1-0.4,1.5,0c0.1,0.1,0.2,0.1,0.3,0c0.4-0.4,1.1-0.4,1.5,0c0.1,0.1,0.2,0.1,0.3,0
					c0.4-0.4,1.1-0.4,1.5,0c0,0,0.1,0.1,0.2,0.1h0.1C9,5.3,9,5.2,9,5.1V4.6C9,2.5,7.3,0.7,5.1,0.7z M8.6,4.6C8.1,4.4,7.4,4.4,7,4.8
					C6.7,4.6,6.4,4.5,6.1,4.5s-0.7,0.1-1,0.3c-0.5-0.4-1.3-0.4-1.8,0C2.8,4.4,2.2,4.4,1.7,4.6l0,0c0-1.9,1.5-3.4,3.4-3.4
					S8.6,2.7,8.6,4.6L8.6,4.6L8.6,4.6z"/>
			</g>
		</g>
		<g>
			<g>
				<path class="st0" d="M12.5,1.9c-0.8,0-1.4,0.6-1.4,1.4s0.6,1.4,1.4,1.4s1.4-0.6,1.4-1.4S13.2,1.9,12.5,1.9z M12.5,4.2
					c-0.5,0-0.9-0.4-0.9-0.9s0.4-0.9,0.9-0.9s0.9,0.4,0.9,0.9S13,4.2,12.5,4.2z"/>
			</g>
		</g>
		<g>
			<g>
				<rect x="12.2" y="0.7" class="st0" width="0.5" height="0.7"/>
			</g>
		</g>
		<g>
			<g>
				<rect x="14.3" y="3" class="st0" width="0.7" height="0.5"/>
			</g>
		</g>
		<g>
			<g>
				<rect x="10" y="3" class="st0" width="0.7" height="0.5"/>
			</g>
		</g>
		<g>
			<g>
				
					<rect x="13.7" y="1.5" transform="matrix(0.7071 -0.7071 0.7071 0.7071 2.9074 10.4503)" class="st0" width="0.7" height="0.5"/>
			</g>
		</g>
		<g>
			<g>
				
					<rect x="10.6" y="4.6" transform="matrix(0.7071 -0.7071 0.7071 0.7071 -0.1928 9.1793)" class="st0" width="0.7" height="0.5"/>
			</g>
		</g>
		<g>
			<g>
				<rect x="13.8" y="4.5" transform="matrix(0.707 -0.7072 0.7072 0.707 0.7233 11.3669)" class="st0" width="0.5" height="0.7"/>
			</g>
		</g>
		<g>
			<g>
				<rect x="10.7" y="1.4" transform="matrix(0.707 -0.7072 0.7072 0.707 1.9944 8.2666)" class="st0" width="0.5" height="0.7"/>
			</g>
		</g>
		<g>
			<g>
				<rect x="12.2" y="5.1" class="st0" width="0.5" height="0.7"/>
			</g>
		</g>
		<g>
			<g>
				<rect x="4.9" y="5.1" class="st0" width="0.5" height="6"/>
			</g>
		</g>
		<g>
			<g>
				<rect x="4.9" y="12" class="st0" width="0.5" height="2.5"/>
			</g>
		</g>
	</g>
</g>
</svg>
