<?xml version="1.0" encoding="utf-8"?>
<!-- Generator: Adobe Illustrator 21.1.0, SVG Export Plug-In . SVG Version: 6.00 Build 0)  -->
<svg version="1.1" id="Layer_1" xmlns="http://www.w3.org/2000/svg" xmlns:xlink="http://www.w3.org/1999/xlink" x="0px" y="0px"
	 viewBox="0 0 16 16" style="enable-background:new 0 0 16 16;" xml:space="preserve">
<style type="text/css">
	.st0{fill:#EB343C;}
	.st1{fill:none;}
</style>
<g id="Layer_3">
	<g>
		<g>
			<g>
				<g>
					<g>
						<path class="st0" d="M12.8,9.3c-0.3-0.2-0.6-0.2-0.9,0l-0.4,0.2c-0.1,0.1-0.3,0.1-0.4,0l-0.4-0.2c-0.3-0.2-0.6-0.2-0.9,0
							L9.3,9.5C9.1,9.6,9,9.6,8.8,9.5L8.6,9.4l1.1-1.7c0.3-0.5,0.9-0.8,1.5-0.8s1.2,0.3,1.5,0.8L13,8.1l0.4-0.2l-0.3-0.4
							c-0.4-0.6-1.1-1-1.9-1s-1.4,0.4-1.9,1l-0.6,1L6.8,5.7c-0.4-0.6-1.1-1-1.9-1S3.5,5.1,3,5.7l-3,4.7l0.4,0.2l1.8-2.8l0.1,0.1
							c0.3,0.2,0.6,0.2,0.9,0l0.4-0.2c0.1-0.1,0.3-0.1,0.4,0l0.4,0.2C4.6,8,4.8,8,4.9,8s0.3,0,0.4-0.1l0.4-0.2
							c0.1-0.1,0.3-0.1,0.4,0l0.4,0.2c0.3,0.2,0.6,0.2,0.9,0l0.1-0.1l0.7,1.1l-2,3l-0.7-1c-0.4-0.6-1.1-1-1.9-1h0.2
							c-0.8,0-1.4,0.4-1.9,1l-1.9,3l0.4,0.2L1.1,13l0.2,0.1c0.3,0.2,0.6,0.2,0.9,0l0.4-0.2c0.1-0.1,0.3-0.1,0.4,0l0.4,0.2
							c0.3,0.2,0.6,0.2,0.9,0l0.4-0.2c0.1-0.1,0.3-0.1,0.4,0l0.4,0.2c0.1,0.1,0.3,0.1,0.4,0.1s0.3,0,0.4-0.1L6.6,13l0.7,1.1l0.4-0.2
							l-1-1.6l1.7-2.6l0.2,0.1c0.3,0.2,0.6,0.2,0.9,0l0.4-0.2c0.1-0.1,0.3-0.1,0.4,0l0.4,0.2c0.1,0.1,0.3,0.1,0.4,0.1s0.3,0,0.4-0.1
							l0.4-0.2c0.1-0.1,0.3-0.1,0.4,0l0.4,0.2c0.1,0,0.1,0.1,0.2,0.1L13,9.5c0,0,0,0-0.1,0L12.8,9.3z M7.3,7.6c-0.1,0-0.3,0-0.4,0
							L6.5,7.3c-0.3-0.2-0.6-0.2-0.9,0L5.2,7.6c-0.2,0-0.3,0-0.5,0L4.3,7.3C4,7.1,3.7,7.1,3.4,7.3L3,7.6c-0.1,0.1-0.3,0.1-0.4,0
							L2.4,7.5l1-1.5c0.3-0.5,0.9-0.8,1.5-0.8S6.1,5.5,6.4,6L7.3,7.6L7.3,7.6z M6.3,12.7c-0.1,0.1-0.3,0.1-0.4,0l-0.4-0.2
							c-0.3-0.2-0.6-0.2-0.9,0l-0.4,0.2c-0.1,0.1-0.3,0.1-0.4,0l-0.4-0.2c-0.3-0.2-0.6-0.2-0.9,0l-0.4,0.2c-0.1,0.1-0.3,0.1-0.4,0
							l-0.2-0.1l1-1.5c0.3-0.5,0.9-0.8,1.5-0.8h0.1c0.6,0,1.2,0.3,1.5,0.8l1,1.5L6.3,12.7z"/>
					</g>
				</g>
			</g>
		</g>
		<g>
			<line class="st1" x1="13" y1="7.6" x2="15.8" y2="12.2"/>
			<rect x="14.2" y="7.2" transform="matrix(0.8499 -0.5269 0.5269 0.8499 -3.0523 9.0694)" class="st0" width="0.4" height="5.4"/>
		</g>
		<g>
			<path class="st0" d="M13.5,10c-0.3,0-0.6-0.2-0.7-0.2L13,9.4c0.1,0.1,0.4,0.2,0.6,0.1c0.1,0,0.2-0.1,0.2-0.3l0.4,0.2
				c-0.1,0.3-0.4,0.5-0.5,0.5C13.7,10,13.6,10,13.5,10z"/>
		</g>
		<g>
			<g>
				<path class="st0" d="M12.7,4.7c-0.8,0-1.5-0.7-1.5-1.5s0.7-1.5,1.5-1.5s1.5,0.7,1.5,1.5S13.5,4.7,12.7,4.7z M12.7,2.1
					c-0.6,0-1,0.5-1,1s0.5,1,1,1s1-0.5,1-1S13.3,2.1,12.7,2.1z"/>
			</g>
		</g>
		<g>
			<g>
				<g>
					<rect x="12.5" y="4.8" class="st0" width="0.3" height="0.5"/>
				</g>
			</g>
			<g>
				<g>
					<rect x="10.5" y="3.1" class="st0" width="0.5" height="0.3"/>
				</g>
			</g>
			<g>
				<g>
					<rect x="10.6" y="4.1" transform="matrix(0.866 -0.5 0.5 0.866 -0.6748 6.0053)" class="st0" width="0.5" height="0.3"/>
				</g>
			</g>
			<g>
				<g>
					
						<rect x="11.3" y="4.8" transform="matrix(0.4999 -0.8661 0.8661 0.4999 1.4718 12.495)" class="st0" width="0.5" height="0.3"/>
				</g>
			</g>
			<g>
				<g>
					<rect x="11.5" y="1.1" transform="matrix(0.866 -0.5 0.5 0.866 0.8835 5.9911)" class="st0" width="0.3" height="0.5"/>
				</g>
			</g>
			<g>
				<g>
					
						<rect x="10.7" y="1.8" transform="matrix(0.4999 -0.8661 0.8661 0.4999 3.6916 10.4386)" class="st0" width="0.3" height="0.5"/>
				</g>
			</g>
			<g>
				<g>
					<rect x="12.5" y="4.8" class="st0" width="0.3" height="0.5"/>
				</g>
			</g>
			<g>
				<g>
					<rect x="14.3" y="3.1" class="st0" width="0.5" height="0.3"/>
				</g>
			</g>
			<g>
				<g>
					<rect x="14.3" y="4" transform="matrix(0.5 -0.866 0.866 0.5 3.5565 14.6748)" class="st0" width="0.3" height="0.5"/>
				</g>
			</g>
			<g>
				<g>
					
						<rect x="13.6" y="4.7" transform="matrix(0.8661 -0.4999 0.4999 0.8661 -0.6418 7.5393)" class="st0" width="0.3" height="0.5"/>
				</g>
			</g>
			<g>
				<g>
					<rect x="12.5" y="1" class="st0" width="0.3" height="0.5"/>
				</g>
			</g>
			<g>
				<g>
					<rect x="13.5" y="1.3" transform="matrix(0.5 -0.866 0.866 0.5 5.6723 12.6363)" class="st0" width="0.5" height="0.3"/>
				</g>
			</g>
			<g>
				<g>
					<rect x="14.2" y="2" transform="matrix(0.8661 -0.4999 0.4999 0.8661 0.865 7.5263)" class="st0" width="0.5" height="0.3"/>
				</g>
			</g>
		</g>
	</g>
</g>
</svg>
