<?xml version="1.0" encoding="utf-8"?>
<!-- Generator: Adobe Illustrator 21.1.0, SVG Export Plug-In . SVG Version: 6.00 Build 0)  -->
<svg version="1.1" id="Layer_2" xmlns="http://www.w3.org/2000/svg" xmlns:xlink="http://www.w3.org/1999/xlink" x="0px" y="0px"
	 viewBox="0 0 16 16" style="enable-background:new 0 0 16 16;" xml:space="preserve">
<style type="text/css">
	.st0{fill:#EB343C;}
</style>
<g>
	<g>
		<g>
			<path class="st0" d="M13,1.8H5.7V1.6c0-0.4-0.3-0.7-0.7-0.7H4.2c-0.4,0-0.7,0.3-0.7,0.7v0.2H3c-0.4,0-0.7,0.3-0.7,0.7v7.7
				c0,0.4,0.3,0.7,0.7,0.7h0.9v-0.5H3c-0.1,0-0.2-0.1-0.2-0.2V8.6h10.4v1.6c0,0.1-0.1,0.2-0.2,0.2h-0.9v0.5H13
				c0.4,0,0.7-0.3,0.7-0.7V2.5C13.7,2.1,13.4,1.8,13,1.8z M3.9,1.6c0-0.1,0.1-0.2,0.2-0.2h0.9c0.1,0,0.2,0.1,0.2,0.2v0.2H3.9V1.6z
				 M2.8,8.1V2.5c0-0.1,0.1-0.2,0.2-0.2h10c0.1,0,0.2,0.1,0.2,0.2v5.7H2.8z"/>
		</g>
		<g>
			<path class="st0" d="M12.5,15.1h-9V9.3h9V15.1z M3.9,14.7h8.2v-5H3.9V14.7z"/>
		</g>
		<g>
			<path class="st0" d="M12.8,9.7V9.3H3.2v0.5h1.4v3.2h6.8V9.7H12.8L12.8,9.7z M5.1,12.4v-1l1.4-0.6l1.9,0.9l0.2-0.4l-0.5-0.2
				l1.3-0.5l1.6,0.8v1L5.1,12.4L5.1,12.4z M10.9,10.9l-1.6-0.8l-1.9,0.7l-1.1-0.5l-1.4,0.6V9.7h5.9L10.9,10.9L10.9,10.9z"/>
		</g>
		<g>
			<path class="st0" d="M8,2.7c-1.4,0-2.5,1.1-2.5,2.5S6.6,7.7,8,7.7s2.5-1.1,2.5-2.5S9.4,2.7,8,2.7z M8,7.2c-1.1,0-2-0.9-2-2
				s0.9-2,2-2s2,0.9,2,2S9.1,7.2,8,7.2z"/>
		</g>
		<g>
			<path class="st0" d="M10.9,4.5h1.8V2.7h-1.8V4.5z M11.4,3.1h0.9V4h-0.9V3.1z"/>
		</g>
		<g>
			<rect x="3.2" y="7" class="st0" width="1.6" height="0.5"/>
		</g>
		<g>
			<rect x="5.3" y="7" class="st0" width="0.5" height="0.5"/>
		</g>
		<g>
			<path class="st0" d="M8,3.6c-0.9,0-1.6,0.7-1.6,1.6S7.1,6.8,8,6.8s1.6-0.7,1.6-1.6S8.9,3.6,8,3.6z M8,6.3c-0.6,0-1.1-0.5-1.1-1.1
				S7.4,4,8,4s1.1,0.5,1.1,1.1S8.6,6.3,8,6.3z"/>
		</g>
	</g>
</g>
</svg>
