<?xml version="1.0" encoding="utf-8"?>
<!-- Generator: Adobe Illustrator 21.1.0, SVG Export Plug-In . SVG Version: 6.00 Build 0)  -->
<svg version="1.1" id="Layer_1" xmlns="http://www.w3.org/2000/svg" xmlns:xlink="http://www.w3.org/1999/xlink" x="0px" y="0px"
	 viewBox="0 0 16 16" style="enable-background:new 0 0 16 16;" xml:space="preserve">
<style type="text/css">
	.st0{fill:#EB343C;}
</style>
<g id="Layer_42">
	<g>
		<path class="st0" d="M14.7,12.6H5.9c-0.1,0-0.2-0.1-0.3-0.1c-0.1-0.1-0.1-0.2,0-0.3L6.4,10L3.7,1.6H1c-0.2,0-0.3-0.2-0.3-0.3
			S0.8,0.9,1,0.9h2.9C4,0.9,4.2,1,4.2,1.1L7,9.8C7,9.9,7,10,7,10l-0.7,1.8h8.2c0.2,0,0.3,0.2,0.3,0.3C15,12.4,14.8,12.6,14.7,12.6z"
			/>
	</g>
	<g>
		<path class="st0" d="M13.2,10.3H6.8c-0.2,0-0.3-0.2-0.3-0.3c0-0.2,0.2-0.3,0.3-0.3H13l1-3.8H5.3C5.1,5.9,5,5.7,5,5.6
			s0.2-0.3,0.3-0.3h9.1c0.1,0,0.2,0,0.3,0.1s0.1,0.2,0.1,0.3L13.5,10C13.5,10.2,13.4,10.3,13.2,10.3z"/>
	</g>
	<g>
		<path class="st0" d="M13.9,7.2H8.1C8,7.2,7.8,7.1,7.8,6.9S8,6.5,8.1,6.5h5.7c0.2,0,0.3,0.2,0.3,0.3S14.1,7.2,13.9,7.2z"/>
	</g>
	<g>
		<path class="st0" d="M13.6,8.6H7.9c-0.2,0-0.3-0.2-0.3-0.3S7.8,8,7.9,8h5.7c0.2,0,0.3,0.2,0.3,0.3S13.8,8.6,13.6,8.6z"/>
	</g>
	<g>
		<path class="st0" d="M8.3,15c-0.6,0-1.1-0.5-1.1-1.1s0.5-1.1,1.1-1.1s1.1,0.5,1.1,1.1C9.5,14.5,8.9,15,8.3,15z M8.3,13.5
			c-0.2,0-0.4,0.2-0.4,0.4s0.2,0.4,0.4,0.4s0.4-0.2,0.4-0.4S8.6,13.5,8.3,13.5z"/>
	</g>
	<g>
		<path class="st0" d="M11.5,15c-0.6,0-1.1-0.5-1.1-1.1s0.5-1.1,1.1-1.1s1.1,0.5,1.1,1.1C12.7,14.5,12.2,15,11.5,15z M11.5,13.5
			c-0.2,0-0.4,0.2-0.4,0.4s0.2,0.4,0.4,0.4s0.4-0.2,0.4-0.4S11.8,13.5,11.5,13.5z"/>
	</g>
</g>
</svg>
