<?xml version="1.0" encoding="utf-8"?>
<!-- Generator: Adobe Illustrator 21.1.0, SVG Export Plug-In . SVG Version: 6.00 Build 0)  -->
<svg version="1.1" id="Layer_2" xmlns="http://www.w3.org/2000/svg" xmlns:xlink="http://www.w3.org/1999/xlink" x="0px" y="0px"
	 viewBox="0 0 16 16" style="enable-background:new 0 0 16 16;" xml:space="preserve">
<style type="text/css">
	.st0{fill:#EB343C;}
</style>
<g>
	<g>
		<g>
			<path class="st0" d="M14.9,11.7l-0.3-1.3c-0.1-0.5-0.4-1-0.8-1.4l-0.5-0.5V6.9c0.3-0.1,0.5-0.4,0.5-0.7c0-0.1,0-0.2,0-0.3
				c0.3-0.1,0.6-0.4,0.6-0.7c0-0.1,0-0.2,0-0.3c0.3-0.1,0.5-0.4,0.5-0.7c0-0.3-0.2-0.6-0.5-0.7c0-0.1,0-0.2,0-0.3
				c0-0.4-0.3-0.8-0.8-0.8h-1.6c0.1-0.2,0.2-0.4,0.2-0.6c0-0.2-0.2-0.4-0.3-0.5c-0.2-0.1-0.4-0.2-0.6-0.1L10,1.4
				C9.5,1.5,9,1.7,8.6,2.1L8.1,2.6H6.6C6.5,2.3,6.2,2.1,5.8,2.1c-0.1,0-0.2,0-0.3,0C5.5,1.8,5.2,1.6,4.8,1.6c-0.1,0-0.2,0-0.3,0
				C4.5,1.3,4.2,1.1,3.8,1.1c-0.3,0-0.6,0.2-0.7,0.5c-0.1,0-0.2,0-0.3,0c-0.4,0-0.8,0.3-0.8,0.8v1.6C1.9,3.8,1.6,3.7,1.4,3.7
				C1.2,3.8,1,3.9,0.9,4.1C0.8,4.2,0.7,4.5,0.8,4.7L1,6c0.1,0.5,0.4,1,0.8,1.4l0.5,0.5v1.6C2,9.6,1.8,9.8,1.8,10.2
				c0,0.1,0,0.2,0,0.3c-0.3,0.1-0.6,0.4-0.6,0.7c0,0.1,0,0.2,0,0.3c-0.3,0.1-0.5,0.4-0.5,0.7c0,0.3,0.2,0.6,0.5,0.7
				c0,0.1,0,0.2,0,0.3C1.2,13.6,1.6,14,2,14h1.6c-0.1,0.2-0.2,0.4-0.2,0.6c0,0.2,0.2,0.4,0.3,0.5c0.1,0.1,0.3,0.1,0.4,0.1
				c0.1,0,0.1,0,0.2,0L5.7,15c0.5-0.1,1-0.4,1.4-0.8l0.5-0.5h1.6c0.1,0.3,0.4,0.5,0.7,0.5c0.1,0,0.2,0,0.3,0
				c0.1,0.3,0.4,0.6,0.7,0.6c0.1,0,0.2,0,0.3,0c0.1,0.3,0.4,0.5,0.7,0.5c0.3,0,0.6-0.2,0.7-0.5c0.1,0,0.2,0,0.3,0
				c0.4,0,0.8-0.3,0.8-0.8v-1.6c0.2,0.1,0.4,0.2,0.6,0.2c0.2,0,0.4-0.2,0.5-0.3S14.9,11.9,14.9,11.7z M6.6,4.7V4V3.1h1.6
				c0.1,0,0.1,0,0.2-0.1L9,2.5C9.3,2.2,9.7,2,10.1,1.9l1.3-0.3c0.1,0,0.1,0,0.2,0c0.1,0,0.1,0.1,0.1,0.2c0,0.1-0.1,0.2-0.2,0.3
				L11,2.2c-0.2,0-0.3,0.2-0.3,0.4c0,0.2,0.2,0.3,0.3,0.3h2.6c0.1,0,0.2,0.1,0.2,0.2c0,0.1-0.1,0.2-0.2,0.2l-1.5,0
				c-0.2,0-0.3,0.1-0.3,0.3s0.1,0.3,0.3,0.3l2,0c0.1,0,0.2,0.1,0.2,0.2c0,0.1-0.1,0.2-0.2,0.2h-2c-0.2,0-0.3,0.1-0.3,0.3
				s0.1,0.3,0.3,0.3h1.5c0.1,0,0.2,0.1,0.2,0.2c0,0.1-0.1,0.2-0.2,0.2h-1.5c-0.2,0-0.3,0.1-0.3,0.3C11.9,5.8,12,6,12.2,6h1
				c0.1,0,0.2,0.1,0.2,0.2c0,0.1-0.1,0.2-0.2,0.2h-2.8c-0.6,0-1.1-0.2-1.5-0.6L8.4,5.4C8.4,5.4,8.3,5.3,8.3,5.3H6.6L6.6,4.7L6.6,4.7
				z M2.2,7C1.9,6.7,1.7,6.3,1.6,5.9L1.3,4.6c0-0.1,0-0.1,0-0.2c0-0.1,0.1-0.1,0.2-0.1c0.1,0,0.2,0.1,0.3,0.2L1.9,5
				c0,0.2,0.2,0.3,0.4,0.3c0.2,0,0.3-0.2,0.3-0.3V2.3c0-0.1,0.1-0.2,0.2-0.2c0.1,0,0.2,0.1,0.2,0.2l0,1.5c0,0.2,0.1,0.3,0.3,0.3
				S3.6,4,3.6,3.8V2.3c0,0,0,0,0-0.1V1.9c0-0.1,0.1-0.2,0.2-0.2s0.2,0.1,0.2,0.2v0.4c0,0,0,0,0,0.1l0,1.5c0,0.2,0.1,0.3,0.3,0.3
				c0.2,0,0.3-0.1,0.3-0.3V2.3c0-0.1,0.1-0.2,0.2-0.2c0.1,0,0.2,0.1,0.2,0.2c0,0,0,1.3,0,1.4v0.1c0,0.2,0.1,0.3,0.3,0.3
				S5.6,4,5.6,3.8v-1c0-0.1,0.1-0.2,0.2-0.2c0.1,0,0.2,0.1,0.2,0.2v2.8c0,0.6-0.2,1.1-0.6,1.5L5.1,7.6C5,7.6,5,7.7,5,7.8v1.6H4.4
				V8.7c0-0.2-0.1-0.3-0.3-0.3C4,8.4,3.9,8.5,3.9,8.7v0.7H2.8V7.8c0-0.1,0-0.1-0.1-0.2L2.2,7z M9.1,13.2H7.4v0c-0.1,0-0.1,0-0.2,0.1
				l-0.5,0.5c-0.3,0.3-0.7,0.5-1.1,0.6l-1.3,0.3c-0.1,0-0.1,0-0.2,0c-0.1,0-0.1-0.1-0.1-0.2c0-0.1,0.1-0.2,0.2-0.3l0.6-0.1
				c0.2,0,0.3-0.2,0.3-0.4c0-0.2-0.2-0.3-0.3-0.3H2c-0.1,0-0.2-0.1-0.2-0.2C1.8,13.1,1.9,13,2,13l1.5,0c0.2,0,0.3-0.1,0.3-0.3
				c0-0.2-0.1-0.3-0.3-0.3l-2,0c-0.1,0-0.2-0.1-0.2-0.2c0-0.1,0.1-0.2,0.2-0.2h2c0.2,0,0.3-0.1,0.3-0.3c0-0.2-0.1-0.3-0.3-0.3H2
				c-0.1,0-0.2-0.1-0.2-0.2c0-0.1,0.1-0.2,0.2-0.2h1.5c0.2,0,0.3-0.1,0.3-0.3c0-0.2-0.1-0.3-0.3-0.3h-1c-0.1,0-0.2-0.1-0.2-0.2
				c0-0.1,0.1-0.2,0.2-0.2h2.8c0.6,0,1.1,0.2,1.5,0.6l0.4,0.4C7.3,11,7.3,11,7.4,11h1.6V13.2z M9.1,10.5H7.5l-0.3-0.3
				C6.8,9.7,6.2,9.4,5.5,9.4V7.9l0.3-0.3c0.5-0.5,0.7-1.1,0.8-1.7h1.5l0.3,0.3c0.5,0.5,1.1,0.7,1.7,0.8v1.5L9.9,8.7
				C9.4,9.2,9.1,9.8,9.1,10.5z M14.3,12c0,0.1-0.1,0.1-0.2,0.1c-0.1,0-0.2-0.1-0.3-0.2l-0.1-0.6c0-0.2-0.2-0.3-0.4-0.3
				c-0.2,0-0.3,0.2-0.3,0.3V14c0,0.1-0.1,0.2-0.2,0.2c-0.1,0-0.2-0.1-0.2-0.2l0-1.5c0-0.2-0.1-0.3-0.3-0.3c-0.2,0-0.3,0.1-0.3,0.3
				l0,2c0,0.1-0.1,0.2-0.2,0.2c-0.1,0-0.2-0.1-0.2-0.2v-2c0-0.2-0.1-0.3-0.3-0.3c-0.2,0-0.3,0.1-0.3,0.3V14c0,0.1-0.1,0.2-0.2,0.2
				c-0.1,0-0.2-0.1-0.2-0.2v-1.5c0-0.2-0.1-0.3-0.3-0.3c-0.2,0-0.3,0.1-0.3,0.3v1c0,0.1-0.1,0.2-0.2,0.2c-0.1,0-0.2-0.1-0.2-0.2
				v-1.1v-0.8v-0.9c0-0.6,0.2-1.1,0.6-1.5l0.4-0.4c0.1-0.1,0.1-0.1,0.1-0.2V7h0.6h0.5v0.8c0,0.2,0.1,0.3,0.3,0.3
				c0.2,0,0.3-0.1,0.3-0.3V7h0.6v1.6c0,0.1,0,0.1,0.1,0.2l0.5,0.5c0.3,0.3,0.5,0.7,0.6,1.1l0.3,1.3C14.4,11.8,14.4,11.9,14.3,12z"/>
		</g>
	</g>
	<g>
		<g>
			<path class="st0" d="M12.2,8.6c-0.1-0.1-0.1-0.1-0.2-0.1c-0.1,0-0.1,0-0.2,0.1c-0.1,0.1-0.1,0.1-0.1,0.2c0,0.1,0,0.1,0.1,0.2
				C11.9,9.1,12,9.1,12,9.1c0.1,0,0.1,0,0.2-0.1c0.1-0.1,0.1-0.1,0.1-0.2C12.3,8.8,12.3,8.7,12.2,8.6z"/>
		</g>
	</g>
	<g>
		<g>
			<path class="st0" d="M4.4,7.4C4.3,7.4,4.2,7.3,4.2,7.3C4.1,7.3,4,7.4,4,7.4C3.9,7.5,3.9,7.5,3.9,7.6c0,0.1,0,0.1,0.1,0.2
				s0.1,0.1,0.2,0.1c0.1,0,0.1,0,0.2-0.1c0.1-0.1,0.1-0.1,0.1-0.2C4.4,7.5,4.4,7.5,4.4,7.4z"/>
		</g>
	</g>
</g>
</svg>
