<?xml version="1.0" encoding="utf-8"?>
<!-- Generator: Adobe Illustrator 21.1.0, SVG Export Plug-In . SVG Version: 6.00 Build 0)  -->
<svg version="1.1" id="Layer_1" xmlns="http://www.w3.org/2000/svg" xmlns:xlink="http://www.w3.org/1999/xlink" x="0px" y="0px"
	 viewBox="0 0 16 16" style="enable-background:new 0 0 16 16;" xml:space="preserve">
<style type="text/css">
	.st0{fill:#EB343C;}
</style>
<g id="Layer_7">
	<g>
		<path class="st0" d="M12.5,13.4c-0.3-1-1.2-1.7-2.2-1.9l-1.1-0.2v-0.2c0.5-0.3,1-0.6,1.3-1.1v0.2c0,0.4,0.3,0.7,0.7,0.7
			s0.7-0.3,0.7-0.7V8.8c0.2,0,0.3-0.1,0.4-0.2c0.2-0.2,0.3-0.4,0.2-0.7c0-0.4-0.3-0.7-0.7-0.8V6.2c0-1.9-1.2-3.4-2.9-4
			c-0.1-0.6-0.6-1-1.3-1s-1.2,0.4-1.3,1c-1.7,0.5-2.9,2.1-2.9,4v0.9C3.1,7.3,2.8,7.6,2.8,7.9c0,0.2,0.1,0.5,0.2,0.7
			c0.1,0.1,0.3,0.2,0.4,0.2v1.4c0,0.4,0.3,0.7,0.7,0.7s0.7-0.3,0.7-0.7V10c0.3,0.5,0.8,0.9,1.3,1.1v0.2L5,11.5c-0.1,0-0.2,0-0.3,0.1
			l0,0l0,0c-0.9,0.2-1.6,0.9-1.9,1.8l-0.5,1.5H13L12.5,13.4z M12,8c0,0.1,0,0.2-0.1,0.3s-0.2,0.1-0.3,0.1h-0.2v1.8
			c0,0.1-0.1,0.2-0.2,0.2c-0.1,0-0.2-0.1-0.2-0.2v-1c0.1-0.4,0.2-0.8,0.2-1.2V7.5h0.4C11.8,7.5,12,7.7,12,8z M7.6,1.6
			c0.4,0,0.7,0.2,0.8,0.5C8.2,2.1,7.9,2,7.6,2S7.1,2,6.8,2.1C7,1.8,7.3,1.6,7.6,1.6z M7.6,2.5c2.1,0,3.7,1.7,3.7,3.7v0.9h-0.2V6.4
			c0-0.9-0.8-1.7-1.7-1.7C9,4.7,8.6,4.8,8.3,5.1C8.1,5.3,7.9,5.3,7.7,5.3H7.6c-0.2,0-0.5-0.1-0.7-0.2C6.6,4.8,6.2,4.7,5.8,4.7
			c-0.9,0-1.7,0.8-1.7,1.7v0.7H3.9V6.2C3.9,4.2,5.5,2.5,7.6,2.5z M4.3,10.2c0,0.1-0.1,0.2-0.2,0.2s-0.2-0.1-0.2-0.2V8.4H3.6
			c-0.1,0-0.2,0-0.3-0.1C3.2,8.2,3.2,8.1,3.2,8c0-0.2,0.2-0.4,0.5-0.4h0.4V8c0,0.4,0.1,0.8,0.2,1.2C4.3,9.2,4.3,10.2,4.3,10.2z
			 M4.5,8V6.4c0-0.7,0.6-1.3,1.3-1.3c0.3,0,0.6,0.1,0.8,0.3c0.3,0.2,0.6,0.4,0.9,0.4h0.1c0.3,0,0.7-0.1,0.9-0.4
			C8.7,5.2,9,5.1,9.3,5.1c0.7,0,1.3,0.6,1.3,1.3V8c0,1.7-1.4,3.1-3.1,3.1S4.5,9.7,4.5,8z M7.6,11.5c0.4,0,0.8-0.1,1.1-0.2v0.1
			l-1,0.7c-0.5-0.4-1-0.6-1.2-0.7l0,0C6.9,11.5,7.2,11.5,7.6,11.5z M3.2,13.5c0.2-0.7,0.7-1.2,1.4-1.5l1.8,1.4L6.6,13l-1.5-1.1
			l1.1-0.2c0.3,0.2,2.1,1.2,3.3,2.6H5.9l-1.5-1.1l-0.3,0.4l1,0.7H2.9L3.2,13.5z M10.1,14.4c-0.6-0.8-1.4-1.5-2-2L9,11.7l1.2,0.2
			c0.6,0.1,1.2,0.5,1.6,1l-0.7,0.4l0.2,0.4l0.7-0.4c0,0.1,0.1,0.1,0.1,0.2l0.3,0.9C12.4,14.4,10.1,14.4,10.1,14.4z"/>
		<path class="st0" d="M7,7.5H6.5C6.5,7.8,6.3,8,6.1,8C5.8,8,5.6,7.8,5.6,7.5H5.2c0,0.5,0.4,0.9,0.9,0.9S7,8,7,7.5z"/>
		<path class="st0" d="M9.2,8.4C9.6,8.4,10,8,10,7.5H9.6C9.6,7.8,9.4,8,9.2,8S8.7,7.8,8.7,7.5H8.3C8.3,8,8.7,8.4,9.2,8.4z"/>
		<rect x="7.4" y="6.4" class="st0" width="0.4" height="0.4"/>
		<path class="st0" d="M8.9,9.6L8.5,9.5c0,0-0.2,0.5-0.9,0.5S6.7,9.5,6.7,9.5L6.3,9.6c0,0,0.3,0.8,1.3,0.8S8.9,9.6,8.9,9.6z"/>
		<rect x="6.8" y="13.4" transform="matrix(0.5998 -0.8001 0.8001 0.5998 -8.0848 11.0499)" class="st0" width="0.4" height="0.4"/>
		<rect x="10.5" y="13.6" transform="matrix(0.8682 -0.4961 0.4961 0.8682 -5.4352 7.1155)" class="st0" width="0.4" height="0.4"/>
	</g>
</g>
</svg>
