<?xml version="1.0" encoding="utf-8"?>
<!-- Generator: Adobe Illustrator 21.1.0, SVG Export Plug-In . SVG Version: 6.00 Build 0)  -->
<svg version="1.1" id="Layer_1" xmlns="http://www.w3.org/2000/svg" xmlns:xlink="http://www.w3.org/1999/xlink" x="0px" y="0px"
	 viewBox="0 0 16 16" style="enable-background:new 0 0 16 16;" xml:space="preserve">
<style type="text/css">
	.st0{fill:#EB343C;}
</style>
<g id="Layer_46">
	<g>
		<g>
			<g>
				<path class="st0" d="M13.8,6.2H2.1C2,6.2,1.9,6.3,1.9,6.4v8c0,0.1,0.1,0.2,0.2,0.2h11.7c0.1,0,0.2-0.1,0.2-0.2v-8
					C14.1,6.3,14,6.2,13.8,6.2z M13.6,14.2H2.3V6.7h11.3V14.2z"/>
			</g>
		</g>
		<g>
			<g>
				<path class="st0" d="M15,9.6l-2.3-7.5c0-0.1-0.2-0.2-0.3-0.2L1.1,5.5C1,5.5,0.9,5.7,0.9,5.8l0.9,3.3L2.3,9L1.4,5.9l10.8-3.4
					l2.2,7l-0.7,0.2l0.1,0.5l0.9-0.2c0.1,0,0.1-0.1,0.1-0.1C15,9.8,15,9.7,15,9.6z"/>
			</g>
		</g>
		<g>
			<g>
				<path class="st0" d="M11.9,10c0,0-0.1-0.1-0.2-0.1c-0.1,0-0.1,0-0.2,0.1l-2.1,2L6.3,8.2c0-0.1-0.1-0.1-0.2-0.1
					c-0.1,0-0.1,0-0.2,0l-3.1,3.1l0.3,0.3L6,8.6l3.1,3.8c0,0,0.1,0.1,0.2,0.1l0,0c0.1,0,0.1,0,0.2-0.1l2.2-1.9l1,1.2l0.4-0.3
					L11.9,10z"/>
			</g>
		</g>
		<g>
			<g>
				<path class="st0" d="M9.4,8.1c-0.6,0-1.2,0.5-1.2,1.2c0,0.6,0.5,1.2,1.2,1.2c0.6,0,1.2-0.5,1.2-1.2S10,8.1,9.4,8.1z M9.4,9.9
					C9,9.9,8.7,9.6,8.7,9.2S9,8.5,9.4,8.5s0.7,0.3,0.7,0.7S9.8,9.9,9.4,9.9z"/>
			</g>
		</g>
		<g>
			<g>
				<path class="st0" d="M12.9,7.1H3c-0.1,0-0.2,0.1-0.2,0.2v6.1c0,0.1,0.1,0.2,0.2,0.2h9.9c0.1,0,0.2-0.1,0.2-0.2v-6
					C13.1,7.2,13,7.1,12.9,7.1z M12.7,13.2H3.3V7.6h9.4V13.2z"/>
			</g>
		</g>
		<g>
			<g>
				<path class="st0" d="M11.9,3.5c0-0.1-0.2-0.2-0.3-0.1L2.5,6.2l0.1,0.4l8.9-2.7l0.9,2.6l0.4-0.1L11.9,3.5z"/>
			</g>
		</g>
		<g>
			<g>
				<path class="st0" d="M11.4,5.4c-0.2-0.1-0.4-0.2-0.6-0.2C10.6,4.8,10,4.7,9.6,4.9C9.3,5,9.1,5.1,9,5.3c-0.3-0.1-0.7,0-1,0.2
					c-0.2,0.3-0.3,0.6-0.2,1l0.4-0.2c0-0.1,0-0.3,0.1-0.4c0.2-0.2,0.5-0.2,0.7,0C9.1,6,9.2,6,9.2,6c0.1,0,0.1-0.1,0.2-0.2
					c0-0.2,0.2-0.4,0.3-0.4c0.1-0.1,0.3-0.1,0.4,0c0.1,0.1,0.3,0.2,0.3,0.3c0,0.1,0.2,0.2,0.3,0.1c0.1,0,0.2,0,0.3,0.1
					c0.2,0.1,0.2,0.3,0.1,0.5l0.4,0.3C11.8,6.2,11.7,5.7,11.4,5.4z"/>
			</g>
		</g>
	</g>
</g>
</svg>
