<?xml version="1.0" encoding="utf-8"?>
<!-- Generator: Adobe Illustrator 21.1.0, SVG Export Plug-In . SVG Version: 6.00 Build 0)  -->
<svg version="1.1" id="Layer_1" xmlns="http://www.w3.org/2000/svg" xmlns:xlink="http://www.w3.org/1999/xlink" x="0px" y="0px"
	 viewBox="0 0 16 16" style="enable-background:new 0 0 16 16;" xml:space="preserve">
<style type="text/css">
	.st0{fill:#EB343C;}
</style>
<g id="Layer_8">
	<g>
		<g>
			<path class="st0" d="M11.7,9.7H6.3V7.8L6.6,8C6.8,8.2,7,8.3,7.3,8.3C8,8.3,8.6,7.7,8.6,7l0,0c0-0.4,0.2-0.8,0.5-1.2
				c0.2-0.2,0.4-0.5,0.4-0.9V3.2h0.2c0.7,0,1.4,0.2,2,0.5l0.1,0.1v5.9H11.7z M6.6,9.3h4.6V4c-0.5-0.2-1-0.3-1.5-0.4v1.3
				c0,0.4-0.2,0.8-0.5,1.2C9.1,6.3,9,6.6,9,7l0,0c0,0.9-0.7,1.7-1.7,1.7c-0.2,0-0.4,0-0.6-0.1v0.7H6.6z"/>
		</g>
		<g>
			<g>
				<path class="st0" d="M14,8c0-2.7-1.8-4.7-4.2-4.8V3c0-1.1-0.9-1.9-1.9-1.9c-0.7,0-1.4,0.4-1.7,1l-0.5,1C5.2,2.8,4.5,2.8,4.4,2.8
					C2.5,2.8,1,4.3,1,6.2c0,1,0,1.9,0.2,3L1.7,12c0,0.3,0.2,0.5,0.5,0.7c0.1,0.1,0.3,0.1,0.4,0.1c0.1,0,0.3,0,0.4-0.1
					c0.3-0.2,0.5-0.5,0.5-0.8v-2c0.1,0,0.1,0,0.2,0c0.4,0,0.7-0.1,1.1-0.2c0,0.1,0,0.2,0,0.3v3.7c0,0.3,0.3,0.6,0.6,0.6h1.7
					c0.3,0,0.6-0.3,0.6-0.6v-0.8v-0.4c0-0.6,0.5-1,1-1c0.6,0,1,0.5,1,1v0.4v0.8c0,0.3,0.3,0.6,0.6,0.6H12c0.3,0,0.6-0.3,0.6-0.6
					v-0.8l0.4-1C13.7,10.6,14,9.3,14,8z M10.6,3.8v4.9H7.3C8.2,8.7,9,7.9,9,7l0,0c0-0.3,0.1-0.6,0.4-0.9c0.3-0.3,0.5-0.7,0.5-1.2
					V3.7C10.1,3.7,10.4,3.7,10.6,3.8z M4.4,3.2c0.2,0,0.8,0,1.1,0.2l0,0C5.2,4,4.7,4.3,4.2,4.3H2.1C2.6,3.6,3.5,3.2,4.4,3.2z
					 M12.7,11.7V8.9h-0.4v4.6c0,0.1-0.1,0.2-0.2,0.2h-1.7c-0.1,0-0.2-0.1-0.2-0.2v-0.8v-0.4c0-0.8-0.7-1.5-1.5-1.5s-1.5,0.7-1.5,1.5
					v0.4v0.8c0,0.1-0.1,0.2-0.2,0.2H5.4c-0.1,0-0.2-0.1-0.2-0.2V9.8c0-0.2,0-0.3-0.1-0.5c0,0,0.1,0,0.1-0.1L6,8.6L5.7,8.3L4.9,8.9
					C4.6,9.2,4.1,9.3,3.7,9.3c0.4-0.1,0.7-0.3,1-0.5L5.5,8L5.3,7.7L4.4,8.5C3.9,8.9,3.3,9.1,2.7,9.1H1.8l0.8,0.4
					c0.2,0.1,0.3,0.1,0.5,0.2l0,0v2c0,0.2-0.1,0.4-0.3,0.5c-0.1,0.1-0.3,0.1-0.5,0C2.2,12.1,2.1,12,2,11.8L1.6,9.1
					C1.4,8,1.4,7.1,1.4,6.2c0-0.5,0.1-1,0.4-1.5h2.4c0.7,0,1.3-0.4,1.7-1l0.7-1.4c0.3-0.5,0.8-0.8,1.3-0.8c0.8,0,1.5,0.7,1.5,1.5
					v0.2v0.4v1.3c0,0.3-0.1,0.6-0.4,0.9C8.7,6.1,8.5,6.5,8.5,7l0,0c0,0.7-0.6,1.3-1.3,1.3S6,7.7,6,7V5.7H5.6V7
					c0,0.8,0.5,1.4,1.3,1.6v0.5h4.2V3.9c1.5,0.6,2.5,2.2,2.5,4.1c0,1.2-0.3,2.4-0.8,3.5L12.7,11.7z"/>
			</g>
			<g>
				<rect x="4.6" y="3.4" class="st0" width="0.4" height="0.4"/>
			</g>
			<g>
				<rect x="3.7" y="3.4" class="st0" width="0.4" height="0.4"/>
			</g>
			<g>
				<path class="st0" d="M4.4,5.1C4,5.1,3.7,5.4,3.7,5.7C3.7,6,4,6.3,4.3,6.3C4.7,6.4,5,6.1,5,5.7C5,5.4,4.7,5.1,4.4,5.1z M4.4,5.9
					c-0.1,0-0.2-0.1-0.2-0.2s0.1-0.2,0.2-0.2s0.2,0.1,0.2,0.2S4.5,5.9,4.4,5.9z"/>
			</g>
		</g>
	</g>
</g>
</svg>
