<?xml version="1.0" encoding="utf-8"?>
<!-- Generator: Adobe Illustrator 21.1.0, SVG Export Plug-In . SVG Version: 6.00 Build 0)  -->
<svg version="1.1" id="Layer_1" xmlns="http://www.w3.org/2000/svg" xmlns:xlink="http://www.w3.org/1999/xlink" x="0px" y="0px"
	 viewBox="0 0 36 40" style="enable-background:new 0 0 36 40;" xml:space="preserve">
<style type="text/css">
	.st0{fill:#EE464C;}
</style>
<g>
	<g>
		<path class="st0" d="M20.1,15.8c2.9,0,5.7,0,8.6,0c1.4,0,3-0.2,4.1,0.7c1.2,1,0.7,1.7,0.5,2.9c-0.8,3.3-1.5,6.7-2.3,10
			c-0.5,2.2-0.6,6.5-3.2,7.4c-0.9,0.3-2,0.2-3,0.2c-1.6,0-3.2,0-4.8,0c-3.3,0-6.5,0-9.8,0c-1.4,0-2.9-0.1-3.4-1.6
			c-0.3-0.8-0.4-1.7-0.6-2.5C5.6,29.4,4.8,26,4,22.5c-0.3-1.4-0.8-2.8-0.9-4.2c-0.2-1.8,1.7-2.4,3.3-2.5c3.1-0.1,6.3,0,9.4,0
			c1.2,0,1.2-1.8,0-1.8c-3.2,0-6.3-0.1-9.5,0c-2,0-4.1,0.7-4.9,2.7c-0.4,1.1-0.1,1.9,0.1,2.9C2.3,23.4,3.2,27.2,4,31
			c0.6,2.8,0.7,6.8,4,7.7c1,0.3,2.2,0.2,3.3,0.2c1.9,0,3.8,0,5.7,0c3.1,0,6.3,0.1,9.4,0c2.2-0.1,4.4-1.1,5-3.4
			c0.3-0.9,0.4-1.9,0.6-2.8c0.9-3.9,1.8-7.8,2.6-11.6c0.2-1,0.7-2.2,0.7-3.3c-0.1-2.5-2.8-3.7-4.9-3.8c-3.4-0.1-6.9,0-10.4,0
			C19,14,19,15.8,20.1,15.8L20.1,15.8z"/>
	</g>
	<g>
		<path class="st0" d="M18.3,18.2c-1.6,0-0.9-6.4-0.9-7.3c0-1.6,0-3.1,0-4.7c0-0.5,0-1,0-1.5c0-0.7-0.1-1.2,0.9-1.2s0.8,0.4,0.9,1.1
			c0,0.5,0,1,0,1.5c0,1.5,0,3.1,0,4.6s0,3.1,0,4.6c0,1.1,0.4,2.7-1.1,2.9c-1.2,0.2-0.7,1.9,0.5,1.8c3.2-0.4,2.5-4.4,2.5-6.7
			c0-3,0.1-6.1,0-9.1c-0.2-3.6-5.2-3.8-5.4-0.1c-0.2,2.8,0,5.7,0,8.5c0,2.3-0.9,7.4,2.7,7.4C19.5,20.1,19.5,18.2,18.3,18.2z"/>
	</g>
	<g>
		<path class="st0" d="M2.6,21.2c9.1,0,18.3,0,27.4,0c1.3,0,2.7,0,4,0c1.2,0,1.2-1.8,0-1.8c-9.1,0-18.3,0-27.4,0c-1.3,0-2.7,0-4,0
			C1.5,19.4,1.5,21.2,2.6,21.2L2.6,21.2z"/>
	</g>
	<g>
		<path class="st0" d="M3.7,26.2c9.5,0,18.9,0,28.4,0c1.2,0,1.2-1.8,0-1.8c-9.5,0-18.9,0-28.4,0C2.6,24.4,2.6,26.2,3.7,26.2
			L3.7,26.2z"/>
	</g>
	<g>
		<path class="st0" d="M4.9,31.2c9,0,17.9,0,26.9,0c1.2,0,1.2-1.8,0-1.8c-9,0-17.9,0-26.9,0C3.7,29.3,3.7,31.2,4.9,31.2L4.9,31.2z"
			/>
	</g>
	<g>
		<path class="st0" d="M5.8,35.8c8.3,0,16.5,0,24.8,0c1.2,0,1.2-1.8,0-1.8c-8.3,0-16.5,0-24.8,0C4.7,34,4.7,35.8,5.8,35.8L5.8,35.8z
			"/>
	</g>
	<circle class="st0" cx="18.3" cy="19.2" r="3.5"/>
	<g>
		<path class="st0" d="M6.1,14.6c-0.3-1.9,0.3-3.9,2.1-4.7c0.3-0.1,0.5-0.5,0.5-0.8c0-1.5,0-3,0-4.5c-0.4,0.3-0.7,0.6-1,1
			c1.4,0,2.7,0,4.1,0c-0.3-0.3-0.6-0.6-0.9-0.9c0,1.6,0,3.1,0,4.7c0,0.5,0.4,0.9,0.9,0.9c1.7,0.1,1.8,3.2,1.6,4.6
			c-0.1,1.2,1.7,1.2,1.8,0c0.3-2.5-0.2-6.3-3.4-6.5c0.3,0.3,0.6,0.6,0.9,0.9c0-1.6,0-3.1,0-4.7c0-0.5-0.4-0.9-0.9-0.9
			c-1.4,0-2.7,0-4.1,0c-0.5,0-0.9,0.4-0.9,0.9c0,1.5,0,3,0,4.5C7,8.8,7.1,8.6,7.3,8.3c-2.6,1.2-3.4,4.1-2.9,6.8
			C4.5,16.3,6.3,15.8,6.1,14.6L6.1,14.6z"/>
	</g>
	<g>
		<path class="st0" d="M11.8,3.7c-0.9,0-1.9,0-2.8,0c-0.3,0-1.2,0.2-1.5,0c-0.1,0-0.3-0.6-0.1-0.8c0.1-0.1,0.7,0,0.9,0
			c0.6,0,1.3,0,1.9,0c0.3,0,1.2-0.2,1.5,0C11.8,3,12,3.7,11.6,3.8c-1.2,0.2-0.7,1.9,0.5,1.8c2.3-0.4,2.1-4.3-0.2-4.5
			c-1.4-0.1-3.1-0.2-4.6,0C5,1.4,5,5.3,7.3,5.6c1.5,0.2,3.1,0,4.6,0C13,5.6,13,3.7,11.8,3.7z"/>
	</g>
	<g>
		<path class="st0" d="M7.7,8.2c1.4,0,2.7,0,4.1,0c1.2,0,1.2-1.8,0-1.8c-1.4,0-2.7,0-4.1,0C6.5,6.4,6.5,8.2,7.7,8.2L7.7,8.2z"/>
	</g>
	<g>
		<path class="st0" d="M23.1,14.6c-0.3-1.9,0.3-3.9,2.1-4.7c0.3-0.1,0.5-0.5,0.5-0.8c0-1.5,0-3,0-4.5c-0.3,0.3-0.6,0.6-0.9,0.9
			c1.4,0,2.7,0,4.1,0c-0.3-0.3-0.6-0.6-0.9-0.9c0,1.6,0,3.1,0,4.7c0,0.5,0.4,0.9,0.9,0.9c1.7,0.1,1.8,3.2,1.6,4.6
			c-0.1,1.2,1.7,1.2,1.8,0c0.3-2.5-0.2-6.3-3.4-6.5c0.3,0.3,0.6,0.6,0.9,0.9c0-1.6,0-3.1,0-4.7c0-0.5-0.4-0.9-0.9-0.9
			c-1.4,0-2.7,0-4.1,0c-0.5,0-0.9,0.4-0.9,0.9c0,1.5,0,3,0,4.5c0.2-0.3,0.3-0.5,0.5-0.8c-2.6,1.2-3.4,4.1-2.9,6.8
			C21.6,16.3,23.3,15.8,23.1,14.6L23.1,14.6z"/>
	</g>
	<g>
		<path class="st0" d="M28.9,3.7c-0.9,0-1.9,0-2.8,0c-0.3,0-1.2,0.2-1.5,0c-0.1-0.1-0.3-0.7-0.1-0.9c0.1-0.1,0.7,0,0.9,0
			c0.6,0,1.3,0,1.9,0c0.3,0,1.2-0.2,1.5,0c0.1,0.2,0.2,0.9-0.2,1c-1.2,0.2-0.7,1.9,0.5,1.8c2.3-0.4,2.1-4.3-0.2-4.5
			c-1.4-0.1-3.1-0.2-4.6,0c-2.3,0.3-2.3,4.2,0,4.5c1.5,0.2,3.1,0,4.6,0C30.1,5.6,30.1,3.7,28.9,3.7z"/>
	</g>
	<g>
		<path class="st0" d="M24.7,8.2c1.4,0,2.7,0,4.1,0c1.2,0,1.2-1.8,0-1.8c-1.4,0-2.7,0-4.1,0C23.6,6.4,23.6,8.2,24.7,8.2L24.7,8.2z"
			/>
	</g>
</g>
</svg>
