<?xml version="1.0" encoding="utf-8"?>
<!-- Generator: Adobe Illustrator 21.1.0, SVG Export Plug-In . SVG Version: 6.00 Build 0)  -->
<svg version="1.1" id="Layer_1" xmlns="http://www.w3.org/2000/svg" xmlns:xlink="http://www.w3.org/1999/xlink" x="0px" y="0px"
	 viewBox="0 0 36 40" style="enable-background:new 0 0 36 40;" xml:space="preserve">
<style type="text/css">
	.st0{fill:#4288D5;}
</style>
<path class="st0" d="M35.3,17.8c-0.1-1.8-1.4-2.9-3-3.4c0.2-2.2-0.3-5.2-2.5-5.9c0-1.1,0-2.1,0-3.2c1.5-1,1.1-4-0.9-4.2
	c-1.4-0.1-3.1-0.2-4.6,0c-2.2,0.3-2.3,3.7-0.4,4.4c0,0.5,0,1.1,0,1.6c0,0.1,0,0.2,0,0.3c0,0.3,0,0.7,0,1c-1.9,1.2-2.7,3.3-2.5,5.5
	c-0.1,0-0.2,0-0.3,0c0-0.2,0-0.5,0-0.7c0-3,0.1-6.1,0-9.1c-0.2-3.6-5.2-3.8-5.4-0.1c-0.2,2.8,0,5.7,0,8.5c0,0.4,0,0.9-0.1,1.4
	c-0.1,0-0.3,0-0.4,0c0.1-2.1-0.5-4.7-2.6-5.4c0-1.1,0-2.1,0-3.2c1.6-0.9,1.3-4.1-0.8-4.3c-1.4-0.1-3.1-0.2-4.6,0
	C5.2,1.4,5,4.7,6.8,5.5c0,1,0,2.1,0,3.1C4.9,9.8,4.1,12,4.3,14.3c-1.3,0.4-2.4,1.1-2.9,2.4c-0.4,1.1-0.1,1.9,0.1,2.9
	C2.3,23.4,3.2,27.2,4,31c0.6,2.8,0.7,6.8,4,7.7c1,0.3,2.2,0.2,3.3,0.2c1.9,0,3.8,0,5.7,0c3.1,0,6.3,0.1,9.4,0c2.2-0.1,4.4-1.1,5-3.4
	c0.3-0.9,0.4-1.9,0.6-2.8c0.1-0.6,0.3-1.1,0.4-1.7c0.3-0.3,0.4-0.7,0.2-1c0.7-3,1.4-5.9,2-8.8c0,0,0-0.1,0-0.2
	c0.2-0.2,0.3-0.6,0.2-0.9C35.1,19.3,35.3,18.5,35.3,17.8z M33.3,19.4c-3.8,0-7.7,0-11.5,0c0-0.1,0-0.1,0-0.2c0-0.8-0.3-1.5-0.7-2.1
	c0.1-0.4,0.1-0.9,0.1-1.3c2.5,0,5,0,7.5,0c1.4,0,3-0.2,4.1,0.7C34,17.5,33.5,18.2,33.3,19.4z M32.1,24.4L32.1,24.4
	c-9.3,0-18.5,0-27.7,0c-0.1-0.6-0.3-1.3-0.4-1.9c-0.1-0.4-0.2-0.9-0.3-1.3c3.9,0,7.8,0,11.8,0c0.6,0.9,1.7,1.5,2.9,1.5
	c1.2,0,2.2-0.6,2.9-1.5c2.9,0,5.9,0,8.8,0c0.9,0,1.9,0,2.9,0C32.6,22.3,32.4,23.3,32.1,24.4z M31,29.4c-8.5,0-17,0-25.5,0
	c-0.2-1.1-0.5-2.1-0.7-3.2c9,0,17.9,0,26.9,0C31.5,27.3,31.3,28.3,31,29.4z M30.1,34c-7.9,0-15.7,0-23.6,0c-0.1-0.4-0.1-0.7-0.2-1.1
	c-0.1-0.6-0.2-1.1-0.3-1.7c8.3,0,16.5,0,24.8,0C30.5,32.1,30.4,33.1,30.1,34z M25.7,5.7c0.8,0,1.5,0,2.3-0.1c0,0.3,0,0.5,0,0.8
	c-0.8,0-1.5,0-2.3,0C25.7,6.2,25.7,5.9,25.7,5.7z M24.5,2.8c0.1-0.1,0.7,0,0.9,0c0.6,0,1.3,0,1.9,0c0.3,0,1.2-0.2,1.5,0
	c0.1,0.1,0.1,0.5,0,0.8c-1.4,0-2.6,0-4,0c-0.1,0-0.2,0-0.2,0C24.5,3.5,24.3,3,24.5,2.8z M25.2,9.9c0.3-0.1,0.5-0.5,0.5-0.8
	c0-0.3,0-0.6,0-0.9c0.8,0,1.5,0,2.3,0c0,0.4,0,0.7,0,1.1c0,0.5,0.4,0.9,0.9,0.9c1.4,0.1,1.7,2.3,1.7,3.8c-0.1,0-0.1,0-0.2,0
	c-2.4-0.1-4.9,0-7.4,0C22.9,12.3,23.6,10.6,25.2,9.9z M18.3,3.5c1,0,0.8,0.4,0.9,1.1c0,0.5,0,1,0,1.5c0,1.5,0,3.1,0,4.6s0,3.1,0,4.6
	c0,0.2,0,0.4,0,0.5c-0.3-0.1-0.6-0.1-0.9-0.1c-0.4,0-0.7,0.1-1,0.2c-0.1-1.9,0.1-4.4,0.1-5c0-1.6,0-3.1,0-4.7c0-0.5,0-1,0-1.5
	C17.4,4,17.3,3.5,18.3,3.5z M8.7,5.7c0.7,0,1.5,0,2.2-0.1c0,0.3,0,0.5,0,0.8c-0.7,0-1.5,0-2.2,0C8.7,6.2,8.7,5.9,8.7,5.7z M7.4,2.9
	c0.1-0.1,0.7,0,0.9,0c0.6,0,1.3,0,1.9,0c0.3,0,1.2-0.2,1.5,0c0.1,0.1,0.2,0.6,0,0.8c-0.9,0-1.8,0-2.7,0c-0.4,0-0.9,0-1.3,0H7.6H7.5
	C7.4,3.7,7.2,3.1,7.4,2.9z M8.2,9.9c0.3-0.1,0.5-0.5,0.5-0.8c0-0.3,0-0.6,0-0.9c0.7,0,1.5,0,2.2,0c0,0.4,0,0.8,0,1.2
	c0,0.5,0.4,0.9,0.9,0.9c1.4,0.1,1.7,2.2,1.7,3.7c-2.4,0-4.8-0.1-7.2,0c-0.1,0-0.2,0-0.3,0C5.9,12.3,6.6,10.6,8.2,9.9z M6.4,15.8
	c2.6-0.1,5.2,0,7.8,0h0.1c0.4,0,0.9,0,1.3,0c0,0.4,0,0.7,0.1,1.1c-0.5,0.6-0.9,1.4-0.9,2.3c0,0.1,0,0.1,0,0.2c-2.7,0-5.5,0-8.2,0
	c-1.1,0-2.2,0-3.3,0c-0.1-0.4-0.1-0.7-0.2-1.1C2.9,16.5,4.8,15.9,6.4,15.8z M27.8,36.8c-0.9,0.3-2,0.2-3,0.2c-1.6,0-3.2,0-4.8,0
	c-3.3,0-6.5,0-9.8,0c-1.3,0-2.6-0.1-3.2-1.2c7.4,0,14.8,0,22.2,0C28.8,36.3,28.4,36.6,27.8,36.8z"/>
</svg>
