<?xml version="1.0" encoding="utf-8"?>
<!-- Generator: Adobe Illustrator 21.1.0, SVG Export Plug-In . SVG Version: 6.00 Build 0)  -->
<svg version="1.1" id="Layer_1" xmlns="http://www.w3.org/2000/svg" xmlns:xlink="http://www.w3.org/1999/xlink" x="0px" y="0px"
	 viewBox="0 0 16 16" style="enable-background:new 0 0 16 16;" xml:space="preserve">
<style type="text/css">
	.st0{fill:#EB343C;}
</style>
<g id="Layer_9">
	<g>
		<g>
			<g>
				<path class="st0" d="M6.3,7.9v0.5c0,0.3-0.2,0.5-0.5,0.5H5.1c-0.3,0-0.5-0.2-0.5-0.5V4.8c0-0.3,0.2-0.5,0.5-0.5h0.7
					c0.2,0,0.4,0.1,0.4,0.3v0.2l0.5-0.1V4.5l0,0C6.6,4.1,6.2,3.9,5.8,3.9l0,0H5.1c-0.5,0-1,0.4-1,1v3.6c0,0.5,0.4,1,1,1h0.7
					c0.5,0,1-0.4,1-1V7.9H6.3z"/>
			</g>
		</g>
		<g>
			<g>
				<path class="st0" d="M5.5,1.7C4.7,1.7,4.1,2.3,4.1,3s0.6,1.3,1.3,1.3S6.8,3.7,6.8,3S6.2,1.7,5.5,1.7z M5.5,3.9
					C5,3.9,4.6,3.5,4.6,3S5,2.2,5.4,2.2c0.5,0,0.8,0.4,0.8,0.8S5.9,3.9,5.5,3.9z"/>
			</g>
		</g>
		<g>
			<g>
				<path class="st0" d="M4.4,6H3.9C3.5,6,3.2,6.3,3.2,6.7v1c0,0.4,0.3,0.7,0.7,0.7h0.5c0.1,0,0.2-0.1,0.2-0.2v-2
					C4.6,6.1,4.5,6,4.4,6z M4.1,7.9H3.9c-0.1,0-0.2-0.1-0.2-0.2v-1c0-0.1,0.1-0.2,0.2-0.2h0.3v1.4H4.1z"/>
			</g>
		</g>
		<g>
			<g>
				<path class="st0" d="M8.4,3.9h-1v0.5h1c0.4,0,0.7,0.3,0.7,0.7v4H6.8V7.4H6.3v1.9c0,0.1,0.1,0.2,0.2,0.2h2.9
					c0.1,0,0.2-0.1,0.2-0.2V5C9.6,4.4,9.1,3.9,8.4,3.9z"/>
			</g>
		</g>
		<g>
			<g>
				<path class="st0" d="M9.3,1.9L8.9,2c0,0.1,0,0.1,0,0.2v1c0,0.4-0.3,0.7-0.7,0.7S7.5,3.5,7.5,3.1v-1c0-0.1,0-0.1,0-0.2L7,1.9
					C7,2,7,2.1,7,2.2v1c0,0.7,0.5,1.2,1.2,1.2s1.2-0.5,1.2-1.2v-1C9.4,2.1,9.4,2,9.3,1.9z"/>
			</g>
		</g>
		<g>
			<g>
				<path class="st0" d="M9.6,1H7.9C7.4,1,7,1.4,7,2v1l0.1,0.1h0.1c0.1,0,0.1,0,0.2-0.1l0.9-0.9h0.6c0.5,0,1-0.4,1-1
					C9.9,1.1,9.7,1,9.6,1z M8.9,1.7H8.2c-0.1,0-0.1,0-0.2,0.1L7.5,2.3V2c0-0.3,0.2-0.5,0.5-0.5h1.4C9.2,1.6,9.1,1.7,8.9,1.7z"/>
			</g>
		</g>
		<g>
			<g>
				<path class="st0" d="M11.7,13.5L9.6,9.2L9.2,9.4l2,4.1l-0.5,0.3l-1.9-3.4C8.6,10.2,8.4,10,8.2,10c-0.4,0-0.7,0.3-0.7,0.7v1.1
					c0,0.3-0.2,0.5-0.4,0.7L5,13.3l-0.3-0.5l1.9-0.9c0.1,0,0.1-0.1,0.1-0.2V9.3H6.3v2.2l-2,0.9c-0.1,0-0.1,0.1-0.1,0.1
					c0,0.1,0,0.1,0,0.2l0.5,1c0.1,0.1,0.2,0.2,0.3,0.1l2.3-1C7.7,12.6,8,12.2,8,11.7v-1.1c0-0.1,0.1-0.2,0.2-0.2
					c0.1,0,0.1,0,0.2,0.1l2,3.6c0,0.1,0.1,0.1,0.2,0.1h0.1l1-0.5C11.7,13.8,11.8,13.6,11.7,13.5z"/>
			</g>
		</g>
		<g>
			<g>
				<path class="st0" d="M5.4,14.2l-0.8-1.7c0-0.1-0.1-0.1-0.1-0.1c-0.1,0-0.1,0-0.2,0l-1,0.5c-0.1,0-0.1,0.1-0.1,0.1
					c0,0.1,0,0.1,0,0.2L4,14.9c0.1,0.2,0.4,0.4,0.6,0.4h0.1c0.3,0,0.5-0.2,0.6-0.4C5.5,14.7,5.5,14.4,5.4,14.2z M5,14.7
					c0,0.1-0.1,0.1-0.2,0.1H4.7c-0.1,0-0.2-0.1-0.2-0.1l0,0l-0.7-1.4L4.3,13L5,14.5C5,14.5,5,14.6,5,14.7z"/>
			</g>
		</g>
		<g>
			<g>
				<path class="st0" d="M12.9,13.5c-0.2-0.4-0.7-0.5-1-0.3l-1.4,0.7c-0.1,0.1-0.2,0.2-0.1,0.3l0.5,1c0,0.1,0.1,0.1,0.2,0.1h0.1
					l1.4-0.7l0,0C13,14.3,13.1,13.9,12.9,13.5z M12.4,14.1l-1.2,0.6l-0.3-0.5l1.2-0.6c0.1-0.1,0.3,0,0.4,0.1
					C12.6,13.9,12.5,14,12.4,14.1z"/>
			</g>
		</g>
		<g>
			<g>
				<path class="st0" d="M5.5,2.7C5.3,2.7,5.1,2.8,5.1,3s0.2,0.4,0.4,0.4c0.2,0,0.4-0.2,0.4-0.4C5.8,2.8,5.6,2.7,5.5,2.7z M5.5,3.1
					c-0.1,0-0.2,0-0.2-0.1s0.1-0.1,0.1-0.1C5.5,2.9,5.6,3,5.5,3.1C5.6,3.1,5.5,3.1,5.5,3.1z"/>
			</g>
		</g>
		<g>
			<g>
				<path class="st0" d="M12.8,5.4L12.8,5.4c-0.2-0.2-0.4-0.3-0.7-0.3l0,0c-0.2,0-0.4,0.1-0.6,0.2l-1,1l-1-1.2L9.2,5.4l1.2,1.4
					c0,0.1,0.1,0.1,0.2,0.1c0.1,0,0.1,0,0.2-0.1L12,5.6c0.1-0.1,0.2-0.1,0.2-0.1l0,0c0.1,0,0.2,0,0.2,0.1l0,0c0.1,0.1,0.1,0.3,0,0.5
					l-1.2,1.2c-0.2,0.2-0.4,0.3-0.7,0.3l0,0c-0.3,0-0.7-0.2-0.8-0.5l-0.1,0L9.2,7.3l0.1,0.2c0.3,0.4,0.7,0.7,1.2,0.7l0,0
					c0.4,0,0.8-0.2,1.1-0.4l1.2-1.2C13,6.2,13.1,5.8,12.8,5.4z"/>
			</g>
		</g>
		<g>
			<g>
				<path class="st0" d="M8.9,7.5c0-0.2-0.2-0.4-0.3-0.5L7.2,6l1.1-0.7l0,0l0,0C8.5,5.2,8.6,5,8.6,4.8s0-0.4-0.2-0.6
					C8.2,3.8,7.7,3.8,7.3,4L5.6,5.1C5.3,5.3,5.1,5.6,5.1,6s0.2,0.7,0.5,0.9l2,1.4C7.7,8.5,7.9,8.5,8,8.5c0.3,0,0.5-0.1,0.7-0.3l0,0
					C8.9,8,8.9,7.7,8.9,7.5z M8.3,7.9C8.2,8,8,8.1,7.9,8l-2-1.4C5.7,6.4,5.6,6.2,5.6,6s0.1-0.4,0.3-0.5l1.8-1.1
					c0.1,0,0.1-0.1,0.2-0.1s0.2,0.1,0.3,0.1c0.1,0.1,0.1,0.2,0.1,0.3C8.1,4.8,8.1,4.9,8,5L6.6,5.8c0,0.1-0.1,0.1-0.1,0.2
					s0,0.2,0.1,0.2l1.6,1.2c0.1,0.1,0.1,0.1,0.2,0.2C8.4,7.7,8.4,7.8,8.3,7.9z"/>
			</g>
		</g>
		<g>
			<g>
				<rect x="7.1" y="5.6" transform="matrix(0.4834 -0.8754 0.8754 0.4834 -1.0244 9.9051)" class="st0" width="1.5" height="0.5"/>
			</g>
		</g>
		<g>
			<g>
				
					<rect x="6.2" y="7.9" transform="matrix(0.4472 -0.8944 0.8944 0.4472 -3.5513 10.5574)" class="st0" width="1.1" height="0.5"/>
			</g>
		</g>
		<g>
			<g>
				<rect x="4.4" y="7.9" class="st0" width="2.1" height="0.5"/>
			</g>
		</g>
		<g>
			<g>
				<rect x="5.3" y="3.9" class="st0" width="2.6" height="0.5"/>
			</g>
		</g>
	</g>
</g>
</svg>
