<?xml version="1.0" encoding="utf-8"?>
<!-- Generator: Adobe Illustrator 21.1.0, SVG Export Plug-In . SVG Version: 6.00 Build 0)  -->
<svg version="1.1" id="Layer_1" xmlns="http://www.w3.org/2000/svg" xmlns:xlink="http://www.w3.org/1999/xlink" x="0px" y="0px"
	 viewBox="0 0 16 16" style="enable-background:new 0 0 16 16;" xml:space="preserve">
<style type="text/css">
	.st0{fill:#EB343C;}
</style>
<g id="Layer_11">
	<g>
		<g>
			<g>
				<path class="st0" d="M11.4,6.6c-0.5,0-1,0.4-1,1s0.4,1,1,1c0.5,0,1-0.4,1-1S11.9,6.6,11.4,6.6z M11.4,8C11.2,8,11,7.8,11,7.6
					c0-0.2,0.2-0.4,0.4-0.4s0.4,0.2,0.4,0.4S11.6,8,11.4,8z"/>
			</g>
		</g>
		<g>
			<g>
				<path class="st0" d="M4.9,6.6c-0.5,0-1,0.4-1,1s0.4,1,1,1s1-0.4,1-1S5.5,6.6,4.9,6.6z M4.9,8C4.7,8,4.5,7.8,4.5,7.6
					c0-0.2,0.2-0.4,0.4-0.4c0.2,0,0.4,0.2,0.4,0.4C5.4,7.8,5.2,8,4.9,8z"/>
			</g>
		</g>
		<g>
			<g>
				<path class="st0" d="M13.7,6h-0.6V4.3C13.1,4.2,13,4,12.8,4h-0.6V2.4c0-0.1-0.1-0.3-0.3-0.3h-0.4L11,1.2c0-0.1-0.1-0.1-0.2-0.1
					H5.5c-0.1,0-0.2,0-0.2,0.1l-0.7,1H4.2C4.1,2.2,4,2.3,4,2.4v1.7H3.4c-0.1,0-0.3,0.1-0.3,0.3V6H2.6C2.4,6,2.3,6.1,2.3,6.2
					s0.1,0.3,0.3,0.3H3v2.2C2.8,8.7,2.7,8.8,2.7,9S2.8,9.2,3,9.2v0.5c-0.1,0-0.2,0.1-0.2,0.3s0.1,0.3,0.2,0.3v4
					c0,0.1,0.1,0.3,0.3,0.3h0.9h1.5h0.9c0.1,0,0.3-0.1,0.3-0.3v-4c0.1,0,0.3-0.1,0.3-0.3c0-0.1-0.1-0.3-0.3-0.3V9.2
					C7,9.2,7.2,9.1,7.2,9S7.1,8.7,6.9,8.7V8.6c0-0.7,0.6-1.3,1.3-1.3s1.3,0.6,1.3,1.3v0.1C9.3,8.7,9.2,8.8,9.2,9
					c0,0.1,0.1,0.3,0.3,0.3v0.5c-0.1,0-0.3,0.1-0.3,0.3c0,0.1,0.1,0.3,0.3,0.3v4c0,0.1,0.1,0.3,0.3,0.3h0.9h1.5h0.9
					c0.1,0,0.3-0.1,0.3-0.3v-4c0.1,0,0.2-0.1,0.2-0.3s-0.1-0.3-0.2-0.3V9.2c0.1,0,0.2-0.1,0.2-0.3c0-0.1-0.1-0.3-0.2-0.3V6.5h0.4
					c0.1,0,0.3-0.1,0.3-0.3C14,6.1,13.9,6,13.7,6z M5.7,1.7h5L11,2.2H5.3L5.7,1.7z M4.5,3.6H10c0.1,0,0.3-0.1,0.3-0.3S10.2,3,10,3
					H4.5V2.7h0.3h6.8h0.3v1.4H4.5V3.6z M3.7,4.6h0.6h7.8h0.6V5H5.2C5.1,5,5,5.1,5,5.3s0.1,0.3,0.3,0.3h7.4V6h-9
					C3.7,6,3.7,4.6,3.7,4.6z M3.9,14H3.5v-3.7h0.4V14z M5.4,14h-1v-3.7h1V14z M6.4,14H6v-3.7h0.4V14z M6.4,9.8H5.7H4.2H3.5V9.2h2.9
					V9.8L6.4,9.8z M10.3,14H9.9v-3.7h0.4C10.3,10.3,10.3,14,10.3,14z M11.9,14h-1v-3.7h1V14z M12.8,14h-0.4v-3.7h0.4V14z M12.8,9.8
					h-0.7h-1.5H9.9V9.2h2.9L12.8,9.8L12.8,9.8z M12.8,8.7H9.9V8.6c0-1-0.8-1.8-1.8-1.8S6.4,7.6,6.4,8.6v0.1H3.5V6.5h9.3V8.7
					L12.8,8.7z"/>
			</g>
		</g>
		<g>
			<g>
				<path class="st0" d="M4.6,5.2L4.6,5.2C4.6,5.2,4.6,5.1,4.6,5.2C4.6,5.1,4.5,5.1,4.6,5.2L4.6,5.2L4.6,5.2L4.6,5.2L4.4,5.1l0,0
					l0,0l0,0l0,0l0,0l0,0c0,0,0,0,0,0.1s0,0.1,0.1,0.2l0,0l0,0l0,0c0,0,0,0,0.1,0s0,0,0.1,0l0,0l0,0l0,0C4.6,5.4,4.6,5.3,4.6,5.2
					C4.6,5.3,4.6,5.2,4.6,5.2z"/>
			</g>
		</g>
		<g>
			<g>
				<path class="st0" d="M11.2,3.3L11.2,3.3L11.2,3.3c0-0.1-0.1-0.1-0.1-0.1l0,0l0,0l0,0H11l0,0l0,0l0,0l0,0l0,0l0,0c0,0,0,0,0,0.1
					c0,0,0,0,0,0.1l0,0l0,0l0,0l0,0l0,0l0,0c0,0,0,0,0.1,0C11.1,3.4,11.1,3.4,11.2,3.3L11.2,3.3L11.2,3.3L11.2,3.3L11.2,3.3
					L11.2,3.3L11.2,3.3C11.2,3.4,11.2,3.4,11.2,3.3C11.2,3.4,11.2,3.3,11.2,3.3z"/>
			</g>
		</g>
	</g>
</g>
</svg>
