<?xml version="1.0" encoding="utf-8"?>
<!-- Generator: Adobe Illustrator 21.1.0, SVG Export Plug-In . SVG Version: 6.00 Build 0)  -->
<svg version="1.1" id="Layer_1" xmlns="http://www.w3.org/2000/svg" xmlns:xlink="http://www.w3.org/1999/xlink" x="0px" y="0px"
	 viewBox="0 0 16 16" style="enable-background:new 0 0 16 16;" xml:space="preserve">
<style type="text/css">
	.st0{fill:#EB343C;}
</style>
<g id="Layer_10">
	<g>
		<path class="st0" d="M12.1,5.9c0.2-0.2,0.4-0.5,0.4-0.8c0-0.5-0.3-0.9-0.8-1c0-0.1,0.1-0.2,0.1-0.3c0-0.4-0.3-0.7-0.7-0.7H9.6
			c-0.1-0.7-0.4-1.4-0.8-2L8.7,1C8.6,0.8,8.4,0.7,8.1,0.7C7.9,0.7,7.7,0.8,7.5,1v0.1C7,1.7,6.7,2.4,6.7,3.2H5.2
			c-0.4,0-0.7,0.3-0.7,0.7c0,0.1,0,0.2,0.1,0.3c-0.4,0.1-0.8,0.5-0.8,1c0,0.3,0.1,0.5,0.3,0.7L3.9,6.1C3.3,7,3,8.1,3,9.1
			c0,2.1,1.2,4.1,3.1,5.1l3.4,1.5L9.8,15c0.3-0.8,0.8-1.4,1.4-2c1.2-1,1.8-2.5,1.8-4.1C13,7.8,12.7,6.8,12.1,5.9z M5.2,5.1l0.4,0.5
			H4.9L5.2,5.1z M5.5,4.6h0.9L5.9,5.2L5.5,4.6z M6.7,5l0.4,0.6H6.2L6.7,5z M7,4.6h0.9L7.4,5.2L7,4.6z M8.1,5l0.4,0.6H7.7L8.1,5z
			 M8.4,4.6h0.9L8.9,5.2L8.4,4.6z M9.6,5L10,5.6H9.2L9.6,5z M9.9,4.6h0.9l-0.4,0.6L9.9,4.6z M11,5l0.4,0.6h-0.9L11,5z M12,5.1
			c0,0.1,0,0.2-0.1,0.3l-0.6-0.8h0.2C11.8,4.6,12,4.8,12,5.1z M7.9,1.4L7.9,1.4C8,1.2,8.2,1.2,8.3,1.3l0.1,0.1
			C8.8,1.9,9,2.5,9.1,3.2H7.2C7.2,2.5,7.4,1.9,7.9,1.4z M5.2,3.7h1.5h2.9H11c0.1,0,0.2,0.1,0.2,0.2c0,0.1,0,0.2-0.2,0.2H5.2
			C5.1,4.1,5,4,5,3.9S5.1,3.7,5.2,3.7z M4.7,4.6h0.2L4.4,5.5C4.3,5.4,4.2,5.3,4.2,5.1C4.2,4.8,4.4,4.6,4.7,4.6z M10.8,12.6
			c-0.6,0.6-1.2,1.3-1.5,2.2l0,0c-0.2-0.5-0.5-1.3-0.5-1.8c0-0.6,0.2-1,0.5-1.4l-0.4-0.3c-0.3,0.4-0.6,0.9-0.6,1.6
			c0,0.6,0.3,1.4,0.5,2l-2.6-1.1c-1.7-0.9-2.8-2.7-2.8-4.6c0-1,0.3-1.9,0.8-2.8l0.2-0.3c0.1,0,0.2,0,0.2,0h3.8
			c0.3,0.2,1.5,1.1,1.5,2.7c0,0.9-0.4,1.5-0.8,2.1l0,0l0.4,0.3l0,0c0.4-0.6,0.9-1.3,0.9-2.4c0-1.3-0.7-2.2-1.2-2.7h2.2h0.1v0.1
			C12,7,12.3,8,12.3,8.9C12.5,10.3,11.9,11.6,10.8,12.6z"/>
		<path class="st0" d="M4.7,11.7C4.8,11.8,4.9,12,5,12.1l0.4-0.3c-0.1-0.1-0.2-0.2-0.3-0.3L4.7,11.7z"/>
		<path class="st0" d="M4.5,9.1c0-0.8,0.2-1.6,0.6-2.2L4.7,6.6C4.2,7.4,4,8.2,4,9.1c0,0.8,0.2,1.5,0.5,2.2L5,11.1
			C4.6,10.5,4.5,9.8,4.5,9.1z"/>
	</g>
</g>
</svg>
