<?xml version="1.0" encoding="utf-8"?>
<!-- Generator: Adobe Illustrator 21.1.0, SVG Export Plug-In . SVG Version: 6.00 Build 0)  -->
<svg version="1.1" id="Layer_1" xmlns="http://www.w3.org/2000/svg" xmlns:xlink="http://www.w3.org/1999/xlink" x="0px" y="0px"
	 viewBox="0 0 16 16" style="enable-background:new 0 0 16 16;" xml:space="preserve">
<style type="text/css">
	.st0{fill:#EB343C;}
</style>
<g id="Layer_16">
	<g>
		<g>
			<g>
				<polygon class="st0" points="1.1,15.4 4.1,15.4 4.1,15 1.5,15 1.5,8.3 4.1,8.3 4.1,7.9 1.1,7.9 				"/>
			</g>
			<g>
				<polygon class="st0" points="11.5,6.8 11.5,7.3 14.5,7.3 14.5,14.9 11.5,14.9 11.5,15.4 15,15.4 15,6.8 				"/>
			</g>
			<g>
				<path class="st0" d="M3.3,8.9H2.1v1.2h1.2V8.9z M2.9,9.7H2.5V9.3h0.4V9.7z"/>
			</g>
			<g>
				<path class="st0" d="M3.3,10.7H2.1V12h1.2V10.7z M2.9,11.6H2.5v-0.4h0.4V11.6z"/>
			</g>
			<g>
				<path class="st0" d="M2.1,13.8h1.2v-1.2H2.1V13.8z M2.5,13h0.4v0.4H2.5V13z"/>
			</g>
			<g>
				<path class="st0" d="M13.8,8h-1.4v1.4h1.4V8z M13.4,8.9h-0.5V8.4h0.5V8.9z"/>
			</g>
			<g>
				<path class="st0" d="M12.5,11.5h1.4v-1.4h-1.4V11.5L12.5,11.5z M12.9,10.5h0.5V11h-0.5V10.5z"/>
			</g>
			<g>
				<path class="st0" d="M12.5,13.5h1.4v-1.4h-1.4V13.5L12.5,13.5z M12.9,12.6h0.5v0.5h-0.5V12.6z"/>
			</g>
			<g>
				<path class="st0" d="M12,15.4H3.6V2.6H12V15.4z M4.1,14.9h7.4V3.1H4.1V14.9z"/>
			</g>
			<g>
				<polygon class="st0" points="11.5,1.5 11.5,1 11.1,1 10.8,1 4.8,1 4.6,1 4.1,1 4.1,1.5 4.6,1.5 4.6,3.1 5,3.1 5,1.5 10.6,1.5 
					10.6,3.1 11.1,3.1 11.1,1.5 				"/>
			</g>
			<g>
				<path class="st0" d="M6.4,4H5v1.4h1.4V4L6.4,4z M6,5H5.5V4.5H6V5z"/>
			</g>
			<g>
				<path class="st0" d="M8.5,4H7.1v1.4h1.4V4z M8,5H7.6V4.5H8V5z"/>
			</g>
			<g>
				<path class="st0" d="M10.6,4H9.2v1.4h1.4L10.6,4L10.6,4z M10.1,5H9.7V4.5h0.5L10.1,5L10.1,5z"/>
			</g>
			<g>
				<path class="st0" d="M10.1,11.2H5.5H5.3H4.8v0.5h0.5v3.7h5.1v-3.7h0.5v-0.5h-0.5H10.1z M5.7,11.7h1.9v0.9H7.4
					c-0.4,0-0.7,0.3-0.7,0.7C6.7,13.7,7,14,7.4,14h0.2v0.9H5.7V11.7z M7.6,13.5H7.4c-0.1,0-0.2-0.1-0.2-0.2s0.1-0.2,0.2-0.2h0.2
					V13.5z M8,13.1h0.2c0.1,0,0.2,0.1,0.2,0.2s-0.1,0.2-0.2,0.2H8V13.1z M9.9,14.9H8V14h0.2C8.7,14,9,13.7,9,13.3s-0.3-0.7-0.7-0.7
					H8v-0.9h1.9V14.9z"/>
			</g>
			<g>
				<path class="st0" d="M5,7.5h1.4V6.1H5V7.5z M5.5,6.6H6v0.5H5.5V6.6z"/>
			</g>
			<g>
				<path class="st0" d="M7.1,7.5h1.4V6.1H7.1V7.5z M7.6,6.6H8v0.5H7.6V6.6z"/>
			</g>
			<g>
				<path class="st0" d="M9.2,7.5h1.4V6.1H9.2V7.5z M9.7,6.6h0.5v0.5H9.7V6.6z"/>
			</g>
			<g>
				<path class="st0" d="M5,9.6h1.4V8.2H5V9.6z M5.5,8.7H6v0.5H5.5V8.7z"/>
			</g>
			<g>
				<path class="st0" d="M7.1,9.6h1.4V8.2H7.1V9.6z M7.6,8.7H8v0.5H7.6V8.7z"/>
			</g>
			<g>
				<path class="st0" d="M9.2,9.6h1.4V8.2H9.2V9.6z M9.7,8.7h0.5v0.5H9.7V8.7z"/>
			</g>
			<g>
				<rect x="4.8" y="10.3" class="st0" width="5.1" height="0.5"/>
			</g>
			<g>
				<rect x="10.4" y="10.3" class="st0" width="0.5" height="0.5"/>
			</g>
		</g>
	</g>
</g>
</svg>
