<?xml version="1.0" encoding="utf-8"?>
<!-- Generator: Adobe Illustrator 21.1.0, SVG Export Plug-In . SVG Version: 6.00 Build 0)  -->
<svg version="1.1" id="Layer_1" xmlns="http://www.w3.org/2000/svg" xmlns:xlink="http://www.w3.org/1999/xlink" x="0px" y="0px"
	 viewBox="0 0 16 16" style="enable-background:new 0 0 16 16;" xml:space="preserve">
<style type="text/css">
	.st0{fill:#EB343C;}
</style>
<g id="Layer_19">
	<g>
		<g>
			<g>
				<path class="st0" d="M14.5,0.8c0-0.2-0.2-0.2-0.3-0.2l0,0l0,0c-0.3,0.1-0.6,0.1-0.9,0.2l0,0l0,0c-0.9,0.2-1.8,0.3-2.7,0.4l0,0
					c-0.3,0-0.6,0.1-0.9,0.1l0,0c-0.5,0-1,0-1.5,0l0,0l0,0c-0.3,0-0.6,0-0.9,0c-0.2,0-0.4,0-0.6,0H6.6l0,0l0,0l0,0
					c-0.3,0-0.5,0-0.8-0.1l0,0c-1-0.1-2-0.2-2.9-0.4l0,0c-0.4-0.1-0.7-0.2-1-0.3l0,0l0,0c-0.2,0-0.3,0.1-0.3,0.2
					C1.6,0.9,1.7,1,1.8,1l0,0C2,1,2.2,1.1,2.4,1.1L2.1,3.8c0,0.1,0,0.2,0.1,0.2c0.1,0.1,0.2,0.1,0.3,0.1l1.4-0.4l1.3,0.7h0.1h0.1
					c0.1,0,0.1-0.1,0.1-0.2l0.3-2.4c0.1,0,0.2,0,0.3,0v2.8c0,0.1,0.1,0.2,0.1,0.2c0.1,0,0.2,0,0.3,0L8,3.9l1.4,0.9c0,0,0.1,0,0.2,0
					h0.1c0.1,0,0.1-0.1,0.1-0.2V1.8c0.1,0,0.3,0,0.4,0l0.3,2.4c0,0.1,0.1,0.2,0.1,0.2h0.1h0.1l1.3-0.7l1.4,0.4c0.1,0,0.2,0,0.3-0.1
					s0.1-0.2,0.1-0.2l-0.3-2.5c0.2,0,0.4-0.1,0.5-0.1l0,0C14.5,1.1,14.6,0.9,14.5,0.8z M5.1,3.7L4,3.1H3.9c0,0,0,0-0.1,0L2.7,3.4
					l0.2-2.1l0,0H3c0.1,0,0.1,0,0.2,0h0.1c0.1,0,0.1,0,0.2,0h0.1c0.1,0,0.2,0,0.3,0c0,0,0,0,0.1,0c0.1,0,0.2,0,0.3,0h0.1
					c0.1,0,0.1,0,0.2,0h0.1c0.1,0,0.1,0,0.2,0H5l0,0L5.1,3.7z M9.3,4.1L9.3,4.1L8.2,3.4c0,0-0.1,0-0.2,0s-0.1,0-0.2,0l-1,0.7V1.8
					h0.1H7c0.1,0,0.1,0,0.2,0h0.1c0.1,0,0.2,0,0.2,0h0.1c0.1,0,0.2,0,0.3,0l0,0l0,0c0.1,0,0.2,0,0.3,0h0.1c0.1,0,0.2,0,0.2,0h0.1
					c0.1,0,0.2,0,0.2,0h0.1c0,0,0,0,0.1,0L9.3,4.1L9.3,4.1z M12.3,3.1c-0.1,0-0.1,0-0.2,0L11,3.6l-0.2-2l0,0h0.1c0.1,0,0.1,0,0.2,0
					h0.1c0.1,0,0.1,0,0.2,0h0.1c0.1,0,0.1,0,0.2,0h0.1c0.1,0,0.1,0,0.2,0h0.1c0.1,0,0.2,0,0.3-0.1h0.1c0.1,0,0.2,0,0.2,0h0.1h0.1
					l0.3,2.1L12.3,3.1z"/>
			</g>
		</g>
		<g>
			<g>
				<path class="st0" d="M14.5,10.9c0-0.2-0.2-0.2-0.3-0.2l0,0l0,0c-0.3,0.1-0.6,0.1-0.9,0.2l0,0l0,0c-0.9,0.2-1.8,0.3-2.7,0.4l0,0
					c-0.3,0-0.6,0.1-0.9,0.1l0,0l0,0l0,0c-1,0.1-2,0.1-2.9,0H6.7c-0.3,0-0.5,0-0.8-0.1l0,0c-1-0.1-2-0.2-2.9-0.4l0,0
					c-0.3-0.1-0.6-0.1-0.9-0.2l0,0l0,0c-0.2,0-0.3,0.1-0.3,0.2c0,0.2,0.1,0.3,0.2,0.3l0,0c0.2,0,0.4,0.1,0.6,0.1l-0.3,2.5
					c0,0.1,0,0.2,0.1,0.2c0.1,0.1,0.2,0.1,0.3,0.1l1.4-0.4l1.3,0.7h0.1h0.1c0.1,0,0.1-0.1,0.1-0.2L6,11.8c0.1,0,0.2,0,0.3,0v2.8
					c0,0.1,0.1,0.2,0.1,0.2c0.1,0,0.2,0,0.3,0L8,14l1.4,1c0,0,0.1,0,0.2,0h0.1c0.1,0,0.1-0.1,0.1-0.2V12c0.1,0,0.3,0,0.4,0l0.3,2.4
					c0,0.1,0.1,0.2,0.1,0.2h0.1h0.1l1.3-0.7l1.4,0.4c0.1,0,0.2,0,0.3-0.1s0.1-0.2,0.1-0.2l-0.3-2.5c0.2,0,0.4-0.1,0.5-0.1l0,0
					C14.5,11.2,14.6,11,14.5,10.9z M5.1,13.8L4,13.2H3.9c0,0,0,0-0.1,0l-1.1,0.3l0.2-2.1l0,0H3c0.1,0,0.1,0,0.2,0h0.1
					c0.1,0,0.1,0,0.2,0h0.1c0.1,0,0.2,0,0.3,0c0,0,0,0,0.1,0s0.2,0,0.3,0h0.1c0.1,0,0.1,0,0.2,0h0.1c0.1,0,0.1,0,0.2,0H5l0,0
					L5.1,13.8z M9.3,14.2l-1.1-0.7c0,0-0.1,0-0.2,0s-0.1,0-0.2,0l-1.1,0.7v-2.3h0.1h0.1c0.1,0,0.2,0,0.2,0h0.1c0.1,0,0.2,0,0.2,0
					h0.1c0.1,0,0.2,0,0.3,0l0,0l0,0c0.1,0,0.2,0,0.3,0h0.1c0.1,0,0.2,0,0.2,0h0.1c0.1,0,0.2,0,0.2,0h0.1c0,0,0,0,0.1,0v2.3H9.3z
					 M12.3,13.2c-0.1,0-0.1,0-0.2,0L11,13.7l-0.2-2l0,0h0.1c0.1,0,0.1,0,0.2,0h0.1c0.1,0,0.1,0,0.2,0h0.1c0.1,0,0.1,0,0.2,0h0.1
					c0.1,0,0.1,0,0.2,0h0.1c0.1,0,0.2,0,0.3-0.1h0.1c0.1,0,0.2,0,0.2,0h0.1h0.1l0.3,2.1L12.3,13.2z"/>
			</g>
		</g>
		<g>
			<g>
				<path class="st0" d="M15,5.1c0-0.2-0.2-0.2-0.3-0.2l0,0l0,0c-0.2,0-0.3,0.1-0.5,0.1s-0.4,0.1-0.6,0.1l0,0
					c-1,0.2-1.9,0.3-2.9,0.4c-0.3,0-0.7,0.1-1,0.1l0,0l0,0c-1,0.1-2.1,0.1-3.2,0H6.4c-0.3,0-0.6,0-0.9-0.1C4.5,5.4,3.4,5.3,2.4,5
					C2.2,5.1,2.1,5,1.9,5C1.8,5,1.6,4.9,1.5,4.9l0,0l0,0C1.3,4.9,1.2,5,1.2,5.1c0,0.2,0.1,0.3,0.2,0.3l0,0c0.1,0,0.2,0,0.3,0.1v4.3
					c0,0.2,0.1,0.3,0.3,0.3h12.3c0.2,0,0.3-0.1,0.3-0.3V5.5c0.1,0,0.2,0,0.3-0.1l0,0C14.9,5.4,15,5.2,15,5.1z M13.9,9.5L13.9,9.5
					H2.1V5.6h0.1c1,0.2,2.1,0.4,3.2,0.5c0.1,0,0.3,0,0.4,0c0.2,0,0.3,0,0.5,0h0.1c0.1,0,0.3,0,0.4,0l0,0c0.1,0,0.2,0,0.4,0h0.1
					c0.1,0,0.2,0,0.3,0h0.1c0.1,0,0.2,0,0.3,0l0,0c0.1,0,0.1,0,0.2,0c0.1,0,0.1,0,0.2,0c0.1,0,0.1,0,0.2,0c0.1,0,0.1,0,0.2,0
					c0.1,0,0.2,0,0.2,0c0.1,0,0.1,0,0.2,0c0.1,0,0.3,0,0.4,0c0,0,0,0,0.1,0l0,0c0.2,0,0.5,0,0.8-0.1c0.1,0,0.2,0,0.3,0
					c0.9-0.1,1.9-0.2,2.8-0.4c0.1,0,0.1,0,0.2,0l0,0h0.1l0,0l0,0V9.5z"/>
			</g>
		</g>
		<g>
			<g>
				<path class="st0" d="M13.1,8.8L13.1,8.8c0-0.1,0-0.1,0-0.1l0,0l0,0l0,0c0,0,0,0-0.1,0h-0.1c0,0,0,0-0.1,0l0,0l0,0l0,0l0,0
					c0,0,0,0,0,0.1c0,0,0,0,0,0.1c0,0,0,0,0,0.1c0,0,0,0,0,0.1l0,0l0,0l0,0l0,0c0,0,0,0,0.1,0c0,0,0,0,0.1,0c0,0,0,0,0.1,0
					c0,0,0,0,0.1,0l0,0l0,0C13.1,9,13.1,9,13.1,8.8C13.1,8.9,13.1,8.8,13.1,8.8z"/>
			</g>
		</g>
		<g>
			<g>
				<path class="st0" d="M11.9,8.6H3.2C3,8.6,2.9,8.7,2.9,8.9S3,9.2,3.2,9.2h8.7c0.2,0,0.3-0.1,0.3-0.3S12.1,8.6,11.9,8.6z"/>
			</g>
		</g>
		<g>
			<g>
				<path class="st0" d="M5.5,6.6c-0.1,0-0.2,0.1-0.2,0.1v1.5c0,0.1,0.1,0.1,0.2,0.1s0.2,0,0.2-0.1V6.7C5.7,6.7,5.6,6.6,5.5,6.6z"/>
			</g>
		</g>
		<g>
			<g>
				<path class="st0" d="M7,6.6c-0.1,0-0.2,0.1-0.2,0.1v0.7L6.5,6.8C6.4,6.6,6.3,6.6,6.2,6.6C6.1,6.6,6,6.7,6,6.7v1.5
					c0,0.1,0.1,0.1,0.2,0.1s0.2,0,0.2-0.1V7.5l0.4,0.7c0,0.1,0.1,0.1,0.2,0.1s0.2,0,0.2-0.1V6.7C7.2,6.7,7.1,6.6,7,6.6z"/>
			</g>
		</g>
		<g>
			<g>
				<path class="st0" d="M8.1,6.6H7.7c-0.1,0-0.2,0.1-0.2,0.1v1.5c0,0.1,0.1,0.1,0.2,0.1h0.4c0.4,0,0.6-0.2,0.6-0.6V7.2
					C8.7,6.8,8.5,6.6,8.1,6.6z M8.3,7.8C8.3,7.9,8.2,8,8.1,8H7.9V7h0.2c0.1,0,0.2,0,0.2,0.2V7.8z"/>
			</g>
		</g>
		<g>
			<g>
				<path class="st0" d="M9.2,6.6C9.1,6.6,9,6.7,9,6.7v1.5c0,0.1,0.1,0.1,0.2,0.1c0.1,0,0.2,0,0.2-0.1V6.7C9.4,6.7,9.3,6.6,9.2,6.6z
					"/>
			</g>
		</g>
		<g>
			<g>
				<path class="st0" d="M11,8.1l-0.4-1.4c0-0.1-0.1-0.1-0.3-0.1S10.1,6.7,10,6.7L9.6,8.1l0,0c0,0.1,0.1,0.2,0.3,0.2
					c0.1,0,0.1,0,0.1-0.1L10.1,8h0.5l0.1,0.3c0,0.1,0.1,0.1,0.1,0.1C10.9,8.3,11,8.3,11,8.1C11,8.2,11,8.2,11,8.1z M10.2,7.7
					l0.1-0.5l0.1,0.5H10.2z"/>
			</g>
		</g>
	</g>
</g>
</svg>
