<?xml version="1.0" encoding="utf-8"?>
<!-- Generator: Adobe Illustrator 21.1.0, SVG Export Plug-In . SVG Version: 6.00 Build 0)  -->
<svg version="1.1" id="Layer_1" xmlns="http://www.w3.org/2000/svg" xmlns:xlink="http://www.w3.org/1999/xlink" x="0px" y="0px"
	 viewBox="0 0 16 16" style="enable-background:new 0 0 16 16;" xml:space="preserve">
<style type="text/css">
	.st0{fill:#EB343C;}
</style>
<g id="Layer_23">
	<g>
		<g>
			<path class="st0" d="M2.8,6.6c0-2,0.5-3.4,1.6-5.6V0.9h7V1c2,4.4,2,6.4,0,14v0.1h-7V15C3.3,10.9,2.8,8.5,2.8,6.6z M4.6,1.2
				c-1.9,4.2-2.1,5.5,0,13.6h6.6c2-7.4,2-9.3,0-13.6C11.2,1.2,4.6,1.2,4.6,1.2z"/>
		</g>
		<g>
			<g>
				<polygon class="st0" points="8.7,1.1 9,1 10.1,7.4 11.2,1 11.5,1.1 10.1,9.3 				"/>
			</g>
			<g>
				<path class="st0" d="M9.9,8C9.6,8.1,9.4,8.4,9.4,8.7c0,0.4,0.3,0.7,0.6,0.7v5.3h0.3V9.4c0.3-0.1,0.5-0.4,0.5-0.7
					S10.6,8.1,10.3,8l1.2-7h-0.3l-1.1,6.4L9.2,2l0.2-0.9L9,1l0,0l0,0L8.7,1.1L8.8,2L7.9,7.4L7,2l0.2-0.9L6.8,1l0,0l0,0L6.5,1.1
					L6.6,2L5.7,7.4L4.6,1L4.3,1.1l1.2,7C5.2,8.1,5,8.4,5,8.7s0.2,0.6,0.5,0.7v5.3h0.3V9.5c0.4,0,0.6-0.4,0.6-0.7S6.2,8.2,5.9,8.1
					l0.9-5L7.7,8C7.4,8.1,7.2,8.4,7.2,8.7s0.2,0.6,0.6,0.7v5.3h0.3V9.4C8.4,9.3,8.7,9,8.7,8.7S8.5,8.1,8.2,8L9,3L9.9,8z"/>
			</g>
		</g>
		<g>
			<path class="st0" d="M7.2,8.7c0,0.3,0.2,0.6,0.6,0.7v5.3h0.1V7.2L7,2l0.2-0.9L6.8,1l0,0l0,0L6.5,1.1L6.6,2L5.7,7.4L4.6,1L4.3,1.1
				l1.2,7C5.2,8.1,5,8.4,5,8.7s0.2,0.6,0.5,0.7v5.3h0.3V9.5c0.4,0,0.6-0.4,0.6-0.7S6.2,8.2,5.9,8.1l0.9-5L7.7,8
				C7.4,8.1,7.2,8.4,7.2,8.7z"/>
		</g>
		<g>
			<g>
				<path class="st0" d="M3.7,1.2L3.7,1.2c0-0.3,0.2-0.4,0.4-0.4h7.6c0.2,0,0.4,0.2,0.4,0.4l0,0c0,0.2-0.2,0.4-0.4,0.4H4.1
					C3.9,1.6,3.7,1.5,3.7,1.2z"/>
			</g>
			<g>
				<path class="st0" d="M3.7,14.8L3.7,14.8c0-0.3,0.2-0.4,0.4-0.4h7.6c0.2,0,0.4,0.2,0.4,0.4l0,0c0,0.2-0.2,0.4-0.4,0.4H4.1
					C3.9,15.2,3.7,15,3.7,14.8z"/>
			</g>
		</g>
		<g>
			<g>
				<path class="st0" d="M7.9,0.8H4.3C4.1,0.8,4,1,4,1.2l0,0c0,0.2,0.2,0.4,0.4,0.4h3.5V0.8z"/>
			</g>
			<g>
				<path class="st0" d="M7.9,14.4H4.3c-0.2,0-0.4,0.2-0.4,0.4l0,0c0,0.2,0.2,0.4,0.4,0.4h3.5L7.9,14.4L7.9,14.4z"/>
			</g>
		</g>
	</g>
</g>
</svg>
