<?xml version="1.0" encoding="utf-8"?>
<!-- Generator: Adobe Illustrator 21.1.0, SVG Export Plug-In . SVG Version: 6.00 Build 0)  -->
<svg version="1.1" id="Layer_1" xmlns="http://www.w3.org/2000/svg" xmlns:xlink="http://www.w3.org/1999/xlink" x="0px" y="0px"
	 viewBox="0 0 16 16" style="enable-background:new 0 0 16 16;" xml:space="preserve">
<style type="text/css">
	.st0{fill:#EB343C;}
</style>
<g id="Layer_27">
	<g>
		<g>
			<path class="st0" d="M12.7,9.6c-0.1,0-0.1,0-0.2,0C12.6,9.5,12.6,9.5,12.7,9.6l-0.5-0.4c-0.3,0.4-0.7,0.6-1.1,0.6
				c-0.7,0-1.3-0.6-1.3-1.3s0.6-1.3,1.3-1.3s1.3,0.6,1.3,1.3c0,0.1,0,0.3-0.1,0.4L12.9,9C13,8.8,13,8.6,13,8.5c0-1-0.8-1.8-1.8-1.8
				c-0.1,0-0.1,0-0.2,0c0.3-0.3,0.4-0.7,0.4-1.1c0-1-0.8-1.8-1.8-1.8c-0.1,0-0.1,0-0.2,0C9.6,3.4,9.8,3,9.8,2.6c0-1-0.8-1.8-1.8-1.8
				S6.2,1.6,6.2,2.6c0,0.4,0.2,0.8,0.4,1.1c-0.1,0-0.1,0-0.2,0c-1,0-1.8,0.8-1.8,1.8c0,0.4,0.2,0.8,0.4,1.1c-0.1,0-0.1,0-0.2,0
				C3.8,6.6,3,7.4,3,8.4c0,0.4,0.2,0.8,0.4,1.1c-0.1,0-0.1,0-0.2,0c-1,0-1.8,0.8-1.8,1.8s0.8,1.8,1.8,1.8c0.7,0,1.3-0.4,1.6-0.9
				c0.3,0.6,0.9,0.9,1.6,0.9s1.3-0.4,1.6-0.9c0.3,0.6,0.9,0.9,1.6,0.9s1.3-0.4,1.6-0.9c0.3,0.6,0.9,0.9,1.6,0.9c1,0,1.8-0.8,1.8-1.8
				S13.7,9.6,12.7,9.6z M11.3,10.2c-0.1,0.1-0.1,0.2-0.2,0.3c-0.1-0.1-0.1-0.2-0.2-0.3c0.1,0,0.1,0,0.2,0S11.3,10.2,11.3,10.2z
				 M9.7,9.6c-0.1,0-0.1,0-0.2,0s-0.1,0-0.2,0c0.1-0.1,0.1-0.2,0.2-0.3C9.6,9.4,9.7,9.5,9.7,9.6z M6.4,7.6c0-0.1-0.1-0.2-0.1-0.3
				c0.1,0,0.1,0,0.2,0s0.1,0,0.2,0C6.5,7.4,6.5,7.5,6.4,7.6z M8,7.1c0.7,0,1.3,0.6,1.3,1.3S8.7,9.7,8,9.7S6.7,9.2,6.7,8.4
				S7.3,7.1,8,7.1z M6.6,9.6c-0.1,0-0.1,0-0.2,0s-0.1,0-0.2,0c0.1-0.1,0.1-0.2,0.2-0.3C6.5,9.4,6.5,9.5,6.6,9.6z M8,10.2
				c0.1,0,0.1,0,0.2,0c-0.1,0.1-0.1,0.2-0.2,0.3c-0.1-0.1-0.1-0.2-0.2-0.3C7.9,10.2,7.9,10.2,8,10.2z M9.4,7.3c0.1,0,0.1,0,0.2,0
				s0.1,0,0.2,0C9.7,7.4,9.6,7.5,9.6,7.6C9.5,7.5,9.5,7.4,9.4,7.3z M10.9,5.5c0,0.7-0.6,1.3-1.3,1.3S8.3,6.2,8.3,5.5
				s0.6-1.3,1.3-1.3C10.3,4.2,10.9,4.8,10.9,5.5z M8,4.6C7.9,4.5,7.9,4.5,7.8,4.4c0.1,0,0.1,0,0.2,0c0.1,0,0.1,0,0.2,0
				C8.1,4.5,8.1,4.5,8,4.6z M8,1.2c0.7,0,1.3,0.6,1.3,1.3S8.7,3.9,8,3.9S6.7,3.3,6.7,2.6S7.3,1.2,8,1.2z M6.4,4.2
				c0.7,0,1.3,0.6,1.3,1.3c0,0.2-0.1,0.4-0.2,0.6L8,6.3c0,0.1,0.1,0.2,0.2,0.3c-0.1,0-0.1,0-0.2,0c-0.1,0-0.3,0-0.4,0L7.4,6.5
				c-0.3,0.3-0.6,0.4-1,0.4c-0.7,0-1.3-0.6-1.3-1.3S5.7,4.2,6.4,4.2z M4.9,7.1c0.7,0,1.3,0.6,1.3,1.3S5.6,9.7,4.9,9.7
				S3.5,9.2,3.5,8.4S4.1,7.1,4.9,7.1z M5,10.2c-0.1,0.1-0.1,0.2-0.2,0.3c-0.1-0.1-0.1-0.2-0.2-0.3c0.1,0,0.1,0,0.2,0S5,10.2,5,10.2z
				 M3.3,12.7c-0.7,0-1.3-0.6-1.3-1.3s0.6-1.3,1.3-1.3s1.3,0.6,1.3,1.3C4.6,12.1,4,12.7,3.3,12.7z M6.4,12.7c-0.7,0-1.3-0.6-1.3-1.3
				s0.6-1.3,1.3-1.3s1.3,0.6,1.3,1.3C7.8,12.1,7.2,12.7,6.4,12.7z M9.6,12.7c-0.7,0-1.3-0.6-1.3-1.3s0.6-1.3,1.3-1.3
				s1.3,0.6,1.3,1.3C10.9,12.1,10.3,12.7,9.6,12.7z M12.7,12.7c-0.7,0-1.3-0.6-1.3-1.3s0.6-1.3,1.3-1.3s1.3,0.6,1.3,1.3
				C14.1,12.1,13.5,12.7,12.7,12.7z"/>
		</g>
		<g>
			<path class="st0" d="M13.6,14.8H2.4c-0.7,0-1.4-0.5-1.4-1.2v-1h14v1C15,14.3,14.4,14.8,13.6,14.8z M1.5,13.1v0.5
				c0,0.4,0.4,0.7,0.8,0.7h11.3c0.5,0,0.8-0.3,0.8-0.7v-0.5H1.5z"/>
		</g>
	</g>
</g>
</svg>
