<?xml version="1.0" encoding="utf-8"?>
<!-- Generator: Adobe Illustrator 21.1.0, SVG Export Plug-In . SVG Version: 6.00 Build 0)  -->
<svg version="1.1" id="Layer_1" xmlns="http://www.w3.org/2000/svg" xmlns:xlink="http://www.w3.org/1999/xlink" x="0px" y="0px"
	 viewBox="0 0 16 16" style="enable-background:new 0 0 16 16;" xml:space="preserve">
<style type="text/css">
	.st0{fill:#EB343C;}
</style>
<g id="Layer_5">
	<g>
		<path class="st0" d="M14.5,12.2l-0.2-1.8h-0.2l-0.2-1.8h-0.2v-1h-0.5V6.9l-0.7-0.7l-0.7,0.7v0.8h-0.5v0.9h-0.2L11,10.4h-0.2
			l-0.2,1.8l0,0V9h-0.2V5.2c0-0.2-0.1-0.4-0.2-0.5V3.6H9.4V2.7H8.7V1.9L8,1.2L7.3,1.9v0.8H6.6v0.9H6v1.1C5.8,4.8,5.7,5,5.7,5.2V9
			H5.5v3.2l0,0l-0.2-1.8H5L4.8,8.6H4.6v-1H4.2V6.9L3.5,6.2L2.8,6.9v0.8H2.4v0.9H2.2L2,10.4H1.7l-0.2,1.8H1v3.2h4.5H6h4h0.5H15v-3.2
			C15,12.2,14.5,12.2,14.5,12.2z M14.5,13.5h-1.8v-0.9h1.8V13.5z M13.6,14v0.9h-2.3V14H13.6z M12.3,7.1l0.2-0.2l0.2,0.2v0.6h-0.5
			V7.1H12.3z M11.8,8.1h1.4v0.5h-1.4V8.1z M11.6,9h1.9l0.2,1.4h-2.2L11.6,9z M11.1,10.8h2.8l0.2,1.4H11L11.1,10.8z M12.3,12.6v0.9
			h-1.8v-0.9H12.3z M6.4,4.9h3.2c0.1,0,0.2,0.1,0.2,0.2v1.1H9C8.9,6.1,8.6,5.6,8,5.6S7.1,6.1,7,6.3H6.2V5.2C6.2,5,6.3,4.9,6.4,4.9z
			 M7.3,6.7l0.1-0.2c0,0,0.2-0.5,0.7-0.5s0.7,0.5,0.7,0.5l0.1,0.2H10v0.5H9C8.9,7,8.6,6.5,8,6.5S7.1,7,7,7.2H6.2V6.7H7.3z M7.8,2.1
			L8,1.9l0.2,0.2v0.6H7.8V2.1z M7.1,3.1h1.8v0.5H7.1V3.1z M9.6,4v0.5H6.4V4H9.6z M6.2,9.5h0.9V9H6.2V8.6h0.9V8.1H6.2V7.6h1.1
			l0.1-0.2C7.3,7.5,7.5,7,8,7s0.7,0.5,0.7,0.5l0.1,0.2h1.1v0.5h-1v0.5h0.9V9H8.9v0.5h0.9H10v2.3H6V9.5H6.2z M5.5,13.5H3.7v-0.9h1.8
			V13.5z M4.6,14v0.9H2.4V14H4.6z M3.3,7.1l0.2-0.2l0.2,0.2v0.6H3.3V7.1z M2.8,8.1h1.4v0.5H2.8V8.1z M2.6,9h1.9l0.2,1.4H2.4L2.6,9z
			 M2.1,10.8h2.8L5,12.2H1.9L2.1,10.8z M3.3,12.6v0.9H1.5v-0.9H3.3z M1.5,14H2v0.9H1.5V14z M5.1,14.9V14h0.5v0.9H5.1z M10,14.9H6
			v-2.7h4V14.9z M10.5,14H11v0.9h-0.5V14z M14.1,14.9V14h0.5v0.9H14.1z"/>
		<g>
			<g>
				<polygon class="st0" points="6.9,13.1 6.9,14.9 7.3,14.9 8.7,14.9 9.1,14.9 9.1,13.1 				"/>
			</g>
			<g>
				<path class="st0" d="M9.2,12.1H6.8V8.9c0-0.7,0.6-1.3,1.2-1.3c0.7,0,1.2,0.5,1.2,1.2V12.1z M7.2,11.7h1.6V8.9
					c0-0.4-0.4-0.8-0.8-0.8C7.6,8.1,7.2,8.5,7.2,9V11.7z"/>
			</g>
		</g>
	</g>
</g>
</svg>
