<?xml version="1.0" encoding="utf-8"?>
<!-- Generator: Adobe Illustrator 21.1.0, SVG Export Plug-In . SVG Version: 6.00 Build 0)  -->
<svg version="1.1" id="Layer_1" xmlns="http://www.w3.org/2000/svg" xmlns:xlink="http://www.w3.org/1999/xlink" x="0px" y="0px"
	 viewBox="0 0 16 16" style="enable-background:new 0 0 16 16;" xml:space="preserve">
<style type="text/css">
	.st0{fill:#EB343C;}
</style>
<g id="Layer_32">
	<g>
		<g>
			<g>
				<path class="st0" d="M13.5,3c-0.8-0.5-1.7-0.6-2.6-0.3C10.2,1.7,9.1,1,7.8,1c-1.2,0-2.4,0.7-3,1.6C3.9,2.4,2.9,2.5,2.2,3
					c-1.5,0.9-1.9,2.9-1,4.3c0.6,0.9,1.6,1.5,2.9,1.8c0.4,0.1,0.8,0.1,1.2,0.2v1c0,0.1,0.1,0.2,0.1,0.2h0.1c0.1,0,0.1,0,0.1,0
					l0.6-0.4l1.2,2.6v1.6c0,0.2,0.1,0.3,0.3,0.3c0.2,0,0.3-0.1,0.3-0.3v-1.6l1.2-2.6l0.6,0.4h0.1H10c0.1,0,0.1-0.1,0.1-0.2v-1
					c0.3,0,0.7-0.1,1.2-0.2C13,8.8,14,8.2,14.5,7.3C15.4,5.8,15,3.9,13.5,3z M1.6,7C0.9,5.8,1.2,4.2,2.4,3.4C2.8,3.1,3.3,3,3.8,3
					C4,3,4.3,3,4.5,3.1C4.4,3.3,4.4,3.4,4.3,3.6l0,0l0,0c0,0,0,0,0,0.1l0,0v0.1l0,0v0.1l0,0V4l0,0v0.1l0,0v0.1l0,0v0.1l0,0v0.1l0,0
					v0.1l0,0v0.1l0,0v0.1l0,0v0.1c0,0,0,0,0,0.1c0,0,0,0,0,0.1c0,0,0,0,0,0.1c0,0,0,0,0,0.1v0.1l0,0c0,0.5,0.2,1.2,0.5,1.7
					C5,7.4,5.3,7.7,5.6,8.1l0,0c0,0,0,0,0.1,0.1l0,0c0,0,0,0,0.1,0.1l0.1,0.1l0,0c0,0.1-0.1,0.3-0.2,0.4C5.1,8.7,2.6,8.6,1.6,7z
					 M5.8,9.8V9.3l0,0c0.1,0,0.1,0,0.1,0l0,0l0,0l0,0l0,0l0,0l0,0C6,9.3,6,9.2,6,9.2s0,0,0-0.1l0,0l0,0l0,0l0,0l0,0l0,0l0,0l0.4,0.2
					L5.8,9.8z M7.6,11.4L6.8,9.8l0.5-0.3c0.1,0.1,0.2,0.1,0.2,0.1L7.6,11.4L7.6,11.4z M7.8,9.2C7.6,9,7,8.6,6.4,8.1L6.3,8l0,0
					c0,0,0,0-0.1-0.1l0,0c0,0,0,0-0.1-0.1l0,0c0,0,0,0-0.1-0.1l0,0c0,0,0,0-0.1-0.1l0,0c0,0,0,0,0-0.1l0,0l0,0l0,0l0,0
					c0,0,0,0,0-0.1l0,0C5.4,6.8,5,6.3,4.8,5.7l0,0V5.6l0,0V5.5l0,0V5.4l0,0V5.3l0,0V5.2c0,0,0,0,0-0.1c0,0,0,0,0-0.1c0,0,0,0,0-0.1
					c0,0,0,0,0-0.1V4.7l0,0V4.6l0,0c0,0,0,0,0-0.1l0,0V4.4l0,0c0-0.1,0-0.1,0-0.2l0,0c0-0.1,0-0.2,0.1-0.3l0,0c0,0,0,0,0-0.1l0,0
					c0,0,0,0,0-0.1V3.6l0,0c0.4-1.2,1.6-2.1,2.9-2.1s2.5,0.9,2.9,2.1l0,0v0.1c0,0,0,0,0,0.1l0,0c0,0,0,0,0,0.1l0,0
					c0,0.1,0,0.2,0.1,0.3l0,0c0,0.1,0,0.1,0,0.2l0,0v0.1l0,0c0,0,0,0,0,0.1l0,0v0.1l0,0v0.1c0,0,0,0,0,0.1c0,0,0,0,0,0.1
					c0,0,0,0,0,0.1c0,0,0,0,0,0.1v0.1l0,0v0.1l0,0v0.1l0,0v0.1l0,0v0.1l0,0v0.1l0,0c-0.2,0.5-0.5,1-0.8,1.4l0,0l0,0c0,0,0,0,0,0.1
					l0,0c0,0,0,0-0.1,0.1l0,0c0,0,0,0.1-0.1,0.1l0,0C9.6,7.7,9.4,7.9,9.2,8.1l0,0C8.6,8.6,8.1,9,7.8,9.2z M8.1,11.4V9.6
					c0.1,0,0.1-0.1,0.2-0.1l0.5,0.3L8.1,11.4z M9.9,9.8L9,9.3L9.4,9c0,0.1,0.1,0.1,0.1,0.1l0.1,0.1l0,0l0,0c0,0,0,0,0.1,0l0,0l0,0
					l0,0c0,0,0,0,0.1,0l0,0L9.9,9.8z M14.1,7c-1,1.6-3.5,1.7-4.1,1.8c0,0,0-0.1-0.1-0.1l0,0l0,0l0,0c0-0.1-0.1-0.1-0.1-0.2
					c0.5-0.5,0.8-0.9,1.1-1.4s0.5-1.1,0.6-1.8l0,0V5.2c0,0,0,0,0-0.1c0,0,0,0,0-0.1c0,0,0,0,0-0.1c0,0,0,0,0-0.1V4.7l0,0V4.6l0,0
					V4.5l0,0V4.4l0,0V4.3l0,0V4.2l0,0V4.1l0,0V4l0,0V3.9l0,0V3.8l0,0V3.7l0,0c0,0,0,0,0-0.1l0,0l0,0c0-0.1-0.1-0.3-0.2-0.4
					c0.7-0.2,1.4-0.1,2,0.3C14.4,4.2,14.8,5.8,14.1,7z"/>
			</g>
		</g>
		<g>
			<g>
				<path class="st0" d="M7.8,2.1c-1.4,0-2.6,1.2-2.6,2.6c0,1.2,1,2.4,1.5,3c0.1,0,0.2,0,0.3,0s0.1,0,0.2-0.1s0.1-0.3,0-0.4
					C6.7,6.8,5.8,5.8,5.8,4.7s0.9-2.1,2.1-2.1c0.2,0,0.3-0.1,0.3-0.3C8.1,2.2,8,2.1,7.8,2.1z"/>
			</g>
		</g>
		<g>
			<g>
				<path class="st0" d="M8,8.1C8,8.1,8,8,8,8.1C8,8,8,8,8,8l0,0l0,0l0,0c0,0,0,0-0.1,0H7.8c0,0,0,0-0.1,0l0,0l0,0l0,0l0,0
					c0,0,0,0,0,0.1c0,0,0,0,0,0.1s0,0.1,0.1,0.2l0,0l0,0c0,0,0,0,0.1,0c0,0,0,0,0.1,0c0.1,0,0,0,0.1,0c0,0,0,0,0.1,0l0,0l0,0l0,0
					l0,0c0,0,0,0,0-0.1C8,8.2,8.1,8.2,8,8.1C8.1,8.1,8,8.1,8,8.1z"/>
			</g>
		</g>
	</g>
</g>
</svg>
