<?xml version="1.0" encoding="utf-8"?>
<!-- Generator: Adobe Illustrator 21.1.0, SVG Export Plug-In . SVG Version: 6.00 Build 0)  -->
<svg version="1.1" id="Layer_1" xmlns="http://www.w3.org/2000/svg" xmlns:xlink="http://www.w3.org/1999/xlink" x="0px" y="0px"
	 viewBox="0 0 16 16" style="enable-background:new 0 0 16 16;" xml:space="preserve">
<style type="text/css">
	.st0{fill:#EB343C;}
</style>
<g id="Layer_35">
	<g>
		<g>
			<g>
				<g>
					<path class="st0" d="M14.5,14.6L14.5,14.6v-0.3c0-0.3-0.2-0.6-0.6-0.6v-3.3h0.4c0.1,0,0.2-0.1,0.2-0.2c0-0.1-0.1-0.2-0.2-0.2
						h-0.2c0.1-0.1,0.1-0.2,0.1-0.4c0-0.4-0.3-0.8-0.8-0.8c-0.4,0-0.8,0.3-0.8,0.8c0,0.1,0,0.3,0.1,0.4h-0.2c-0.1,0-0.2,0.1-0.2,0.2
						c0,0.1,0.1,0.2,0.2,0.2h0.4v1.3c-0.4,0.6-1.2,0.9-2,0.9s-1.6-0.4-2-0.9v-1.3h0.4c0.1,0,0.2-0.1,0.2-0.2c0-0.1-0.1-0.2-0.2-0.2
						H9c0.1-0.1,0.1-0.2,0.1-0.4c0-0.4-0.3-0.8-0.8-0.8c-0.4,0-0.8,0.3-0.8,0.8c0,0.1,0,0.3,0.1,0.4H7.4c-0.1,0-0.2,0.1-0.2,0.2
						c0,0.1,0.1,0.2,0.2,0.2h0.4v1.3c-0.4,0.6-1.2,0.9-2,0.9s-1.6-0.4-2-0.9v-1.3h0.4c0.1,0,0.2-0.1,0.2-0.2c0-0.1-0.1-0.2-0.2-0.2
						H4c0.1-0.1,0.1-0.2,0.1-0.4c0-0.4-0.3-0.8-0.8-0.8S2.6,9.2,2.6,9.7c0,0.1,0,0.3,0.1,0.4H2.4c-0.1,0-0.2,0.1-0.2,0.2
						c0,0.1,0.1,0.2,0.2,0.2h0.4v3.3c-0.3,0-0.6,0.3-0.6,0.6l0,0v0.3l0,0c-0.1,0-0.2,0.1-0.2,0.2c0,0,0.1,0.1,0.2,0.1h0.2h1.8h0.2
						c0.1,0,0.2-0.1,0.2-0.2c0-0.1-0.1-0.2-0.2-0.2l0,0v-0.3c0-0.3-0.2-0.6-0.6-0.6v-1.4C4.3,12.8,5,13,5.8,13s1.5-0.3,2-0.7v1.4
						c-0.3,0-0.6,0.3-0.6,0.6l0,0v0.3l0,0c-0.1,0-0.2,0.1-0.2,0.2S7.1,15,7.2,15h0.2h1.8h0.2c0.1,0,0.2-0.1,0.2-0.2
						c0-0.1-0.1-0.2-0.2-0.2l0,0v-0.3c0-0.3-0.2-0.6-0.6-0.6v-1.4c0.5,0.5,1.2,0.7,2,0.7s1.5-0.3,2-0.7v1.4c-0.3,0-0.6,0.3-0.6,0.6
						l0,0v0.3l0,0c-0.1,0-0.2,0.1-0.2,0.2s0.1,0.2,0.2,0.2h0.2h1.8h0.2c0.1,0,0.2-0.1,0.2-0.2C14.7,14.7,14.6,14.6,14.5,14.6z
						 M3.3,9.3c0.2,0,0.4,0.2,0.4,0.4s-0.2,0.4-0.4,0.4l0,0C3.1,10,3,9.9,3,9.7S3.1,9.3,3.3,9.3z M3.5,11.8v1.9H3.2v-3.3h0.3V11.8
						L3.5,11.8L3.5,11.8z M4.1,14.3v0.3H2.6v-0.3c0-0.1,0.1-0.3,0.3-0.3H3h0.7h0.1C3.9,14.1,4.1,14.2,4.1,14.3z M8.4,9.3
						c0.2,0,0.4,0.2,0.4,0.4s-0.2,0.4-0.4,0.4l0,0C8.2,10,8,9.9,8,9.7S8.2,9.3,8.4,9.3z M8.2,11.7v-1.3h0.3v1.4l0,0v1.9H8.2V11.7
						C8.2,11.8,8.2,11.8,8.2,11.7z M9.1,14.3v0.3H7.6v-0.3c0-0.1,0.1-0.3,0.3-0.3H8h0.7h0.1C9,14.1,9.1,14.2,9.1,14.3z M13.4,9.3
						c0.2,0,0.4,0.2,0.4,0.4s-0.2,0.4-0.4,0.4l0,0C13.2,10,13,9.9,13,9.7S13.2,9.3,13.4,9.3z M13.5,10.4v3.3h-0.3v-1.9l0,0v-1.4
						L13.5,10.4L13.5,10.4z M14.1,14.6h-1.4v-0.3c0-0.1,0.1-0.3,0.3-0.3h0h0.7h0.1c0.1,0,0.3,0.1,0.3,0.3V14.6z"/>
				</g>
			</g>
		</g>
		<g>
			<g>
				<g>
					<path class="st0" d="M13.1,3.4L13.1,3.4L13.1,3.4V2c0-0.1-0.1-0.2-0.2-0.2H3.8C3.7,1.8,3.6,1.9,3.6,2v1.4l0,0l0,0V7l0,0l0,0
						v1.4c0,0.1,0.1,0.2,0.2,0.2h1.4l0,0l0,0h6.4l0,0l0,0H13c0.1,0,0.2-0.1,0.2-0.2V7l0,0l0,0L13.1,3.4L13.1,3.4z M5.4,2.2h6v0.3h-6
						C5.4,2.5,5.4,2.2,5.4,2.2z M4,2.2h1v0.3H4.5c-0.1,0-0.2,0.1-0.2,0.2v0.5H4V2.2z M4,3.6h0.3v3.3H4V3.6z M5,8.2H4v-1h0.3v0.5
						c0,0.1,0.1,0.2,0.2,0.2H5V8.2L5,8.2z M10.2,7.5c-0.1,0-0.2,0.1-0.2,0.2s0.1,0.2,0.2,0.2h1.2v0.3h-6V7.9h3.9
						c0.1,0,0.2-0.1,0.2-0.2S9.4,7.5,9.3,7.5H4.7V3H12v4.6L10.2,7.5L10.2,7.5z M12.7,8.2h-1V7.9h0.5c0.1,0,0.2-0.1,0.2-0.2V7.2h0.3
						V8.2L12.7,8.2z M12.7,6.8h-0.3V3.6h0.3V6.8z M12.7,3.2L12.7,3.2h-0.3V2.7c0-0.1-0.1-0.2-0.2-0.2h-0.5V2.2h1V3.2L12.7,3.2z"/>
				</g>
			</g>
		</g>
		<g>
			<path class="st0" d="M12,2.6H4.7c-0.2,0-0.4,0.1-0.4,0.3v4.7c0,0.2,0.2,0.3,0.4,0.3H9V7.5H4.7V7.1H12v0.4h-1.5v0.4H12
				c0.2,0,0.4-0.1,0.4-0.3V2.9C12.4,2.7,12.3,2.6,12,2.6z M4.7,3.5h1.1c0.1,0,0.1,0,0.1,0.1l0,0c0,0,0,0-0.1,0H5.7
				C5.4,3.6,5.1,3.8,5.1,4c0,0.2,0.3,0.4,0.6,0.4h0.8c0.1,0,0.1,0,0.1,0.1l0,0c0,0,0,0-0.1,0H4.7V3.5z M7.7,6.8l0.5-0.5l0.5,0.5H7.7
				z M9.3,6.8l-0.9-1l0,0l0,0l0,0l0,0l0,0l0,0l0,0l0,0l0,0c0,0,0,0-0.1,0l0,0l0,0l0,0l0,0l0,0l0,0l0,0l0,0l-0.9,1H6.5L8,5.1v0.3
				c0,0.1,0,0.1,0,0.2c0,0,0.1,0.1,0.2,0.1c0.1,0,0.2-0.1,0.2-0.2V5.1l1.5,1.6H9.3V6.8z M12,4.6h-1.1c-0.1,0-0.1,0-0.1-0.1l0,0
				c0,0,0,0,0.1,0l0,0h0.3c0.3,0,0.6-0.2,0.6-0.4s-0.3-0.4-0.6-0.4h-1c-0.1,0-0.1,0-0.1-0.1l0,0c0,0,0,0,0.1,0H12V4.6z M12,3.1h-1.8
				c-0.3,0-0.6,0.2-0.6,0.4C9.6,3.8,9.9,4,10.2,4h1c0.1,0,0.1,0,0.1,0.1c0,0,0,0.1-0.1,0.1h-0.3c-0.3,0-0.6,0.2-0.6,0.4
				c0,0.2,0.3,0.4,0.6,0.4H12v1.8h-1.5L8.4,4.4l0,0c0,0-0.1-0.1-0.2-0.1c-0.1,0-0.1,0-0.2,0.1l0,0L5.9,6.8H4.7V5h1.8
				c0.3,0,0.6-0.2,0.6-0.4c0-0.2-0.3-0.4-0.6-0.4H5.7c-0.1,0-0.1,0-0.1-0.1c0,0,0-0.1,0.1-0.1h0.2c0.3,0,0.6-0.2,0.6-0.4
				S6.2,3.2,5.9,3.2H4.7V2.9H12V3.1z"/>
		</g>
	</g>
</g>
</svg>
