<?xml version="1.0" encoding="utf-8"?>
<!-- Generator: Adobe Illustrator 21.1.0, SVG Export Plug-In . SVG Version: 6.00 Build 0)  -->
<svg version="1.1" id="Layer_1" xmlns="http://www.w3.org/2000/svg" xmlns:xlink="http://www.w3.org/1999/xlink" x="0px" y="0px"
	 viewBox="0 0 16 16" style="enable-background:new 0 0 16 16;" xml:space="preserve">
<style type="text/css">
	.st0{fill:#EB343C;}
</style>
<g id="Layer_39">
	<g>
		<g>
			<g>
				<path class="st0" d="M12.7,5L12.7,5h-0.5v0.1c0,0.1,0,0.1,0,0.2c0,0.8-0.3,1.6-0.8,2.3l-0.8,1.1c-0.5,0.7-0.8,1.5-0.9,2.4H9.2
					V9.7c0-0.5,0.2-0.9,0.6-1.4c0.5-0.8,1.1-1.7,1.1-3.4h-0.5c0,1.6-0.5,2.4-1,3.2c-0.3,0.6-0.6,1-0.6,1.6v1.2H7.4V9.7
					c0-0.6-0.3-1.1-0.6-1.6c-0.5-0.8-1-1.6-1-3.2c0-2.3,1.9-3.3,2.3-3.4c0.3,0.1,1.5,0.7,2,2l0.4-0.2c-0.4-0.9-1-1.5-1.5-1.8
					c0.7,0.1,1.4,0.4,2,1l0.3-0.3C10.6,1.4,9.6,1,8.5,1H7.6C5.3,1,3.5,2.9,3.5,5.2c0,0.9,0.3,1.8,0.9,2.6l0.8,1.1
					C5.7,9.5,6,10.3,6,11.1v0.2v0.9H5.5v0.5H6l-0.3,0.4c-0.1,0.1-0.1,0.3-0.1,0.4c0,0.3,0.2,0.6,0.5,0.7c0.1,0.6,0.6,1,1.1,1H9
					c0.6,0,1-0.4,1.1-1c0.3-0.1,0.5-0.4,0.5-0.7c0-0.2,0-0.3-0.1-0.4l-0.3-0.4h0.4v-0.5h-0.5v-0.9v-0.2c0-0.8,0.3-1.7,0.8-2.3
					l0.8-1.1c0.6-0.7,0.9-1.6,0.9-2.6C12.7,5.1,12.7,5,12.7,5z M5.6,8.5L4.7,7.4C4.2,6.8,3.9,6,3.9,5.2c0-1.9,1.4-3.4,3.2-3.7
					C6.3,2.1,5.3,3.1,5.3,4.9c0,1.7,0.6,2.7,1.1,3.4C6.7,8.8,7,9.2,7,9.7v1.2H6.5C6.4,10,6.1,9.2,5.6,8.5z M6.4,13.9L6.4,13.9
					c-0.3,0-0.4-0.1-0.4-0.3c0-0.1,0-0.1,0.1-0.2L6.3,13l0.3,0.4c0,0,0.1,0.1,0.1,0.2C6.7,13.7,6.6,13.9,6.4,13.9z M9.8,13.9
					L9.8,13.9c-0.3,0-0.4-0.1-0.4-0.3c0-0.1,0-0.1,0.1-0.2L9.8,13l0.3,0.4c0,0,0.1,0.1,0.1,0.2C10.1,13.7,10,13.9,9.8,13.9z
					 M9.6,14.3c-0.1,0.3-0.3,0.5-0.7,0.5H7.2c-0.3,0-0.6-0.2-0.7-0.5c0.4-0.1,0.7-0.4,0.7-0.7c0-0.2,0-0.3-0.1-0.4l-0.3-0.4h2.7
					l-0.3,0.4C9,13.3,9,13.4,9,13.6C9,14,9.3,14.3,9.6,14.3z M9.7,12.3H6.5v-0.9h3.2V12.3z"/>
			</g>
			<g>
				<path class="st0" d="M13.8,5.3h-2.6c-0.7,0-1.3-0.6-1.3-1.3c0-0.5,0.3-1,0.7-1.2c0.2-0.8,1-1.5,1.9-1.5c0.7,0,1.3,0.3,1.7,0.9
					c0.7,0.2,1.2,0.8,1.2,1.5C15.3,4.6,14.6,5.3,13.8,5.3z M12.4,1.8c-0.7,0-1.3,0.5-1.5,1.2v0.1h-0.1c-0.3,0.1-0.5,0.4-0.5,0.8
					c0,0.5,0.4,0.8,0.8,0.8h2.6c0.6,0,1.1-0.5,1.1-1.1c0-0.5-0.4-1-0.9-1h-0.1l-0.1-0.1C13.5,2.1,13,1.8,12.4,1.8z"/>
			</g>
			<g>
				<path class="st0" d="M4.9,12.3H2.1c-0.8,0-1.4-0.6-1.4-1.4c0-0.5,0.3-1,0.8-1.2c0.2-0.9,1.1-1.5,2-1.5c0.7,0,1.4,0.4,1.8,1
					C6,9.3,6.5,9.9,6.5,10.7C6.5,11.6,5.7,12.3,4.9,12.3z M3.5,8.6c-0.8,0-1.4,0.5-1.6,1.3V10H1.8c-0.4,0.1-0.6,0.5-0.6,0.8
					c0,0.5,0.4,0.9,0.9,0.9h2.8c0.6,0,1.1-0.5,1.1-1.1c0-0.5-0.4-1-1-1.1H4.9l0-0.1C4.6,8.9,4,8.6,3.5,8.6z"/>
			</g>
		</g>
	</g>
</g>
</svg>
