<?xml version="1.0" encoding="utf-8"?>
<!-- Generator: Adobe Illustrator 21.1.0, SVG Export Plug-In . SVG Version: 6.00 Build 0)  -->
<svg version="1.1" id="Layer_1" xmlns="http://www.w3.org/2000/svg" xmlns:xlink="http://www.w3.org/1999/xlink" x="0px" y="0px"
	 viewBox="0 0 16 16" style="enable-background:new 0 0 16 16;" xml:space="preserve">
<style type="text/css">
	.st0{fill:#EB343C;}
</style>
<g id="Layer_45">
	<g>
		<g id="SVGCleanerId_0">
			<g>
				<path class="st0" d="M14.7,6.2h-1.1c-0.1,0-0.2,0.1-0.2,0.2v1.4c0,0.1,0.1,0.2,0.2,0.2h1.1c0.1,0,0.2-0.1,0.2-0.2V6.4
					C14.9,6.3,14.8,6.2,14.7,6.2z M14.5,7.6h-0.7V6.7h0.7V7.6z"/>
			</g>
		</g>
		<g>
			<g>
				<path class="st0" d="M13.1,1c-0.1,0-0.2,0.1-0.2,0.2V3c0,0.1,0,0.1,0.1,0.2l0.4,0.4v8.7c0,0.4-0.3,0.7-0.7,0.7H8.8
					c-0.1,0-0.2,0.1-0.2,0.2v1.1c0,0.1,0.1,0.2,0.2,0.2h4.1c1.1,0,2-0.9,2-2V2.8C14.9,1.8,14.1,1,13.1,1z M14.5,12.6
					c0,0.9-0.7,1.6-1.6,1.6H9v-0.7h3.6c0.6,0,1.1-0.5,1.1-1.1V3.5c0-0.1,0-0.1-0.1-0.2l-0.4-0.4V1.5c0.6,0.1,1.1,0.7,1.1,1.3
					L14.5,12.6L14.5,12.6z"/>
			</g>
		</g>
		<g>
			<g>
				<path class="st0" d="M8.6,12.8v1.4H8.1c-0.2,0-0.5-0.2-0.5-0.5v-0.9H7.2v0.9c0,0.5,0.4,0.9,0.9,0.9h0.7c0.1,0,0.2-0.1,0.2-0.2
					v-1.6L8.6,12.8L8.6,12.8z"/>
			</g>
		</g>
		<g>
			<g>
				<path class="st0" d="M9.5,11H8.6c-0.1,0-0.1,0-0.2,0.1c0,0.1-0.1,0.1,0,0.2l0.2,0.9c0,0.1,0.1,0.2,0.2,0.2H9
					c-0.2,0.3-0.5,0.5-0.9,0.5c-0.4,0-0.7-0.2-0.9-0.5h0.2c0.1,0,0.2-0.1,0.2-0.2l0.2-0.9c0-0.1,0-0.1,0-0.2C7.8,11,7.7,11,7.7,11
					H6.8c-0.1,0-0.2,0.1-0.2,0.2v0.5c0,0.9,0.7,1.6,1.6,1.6c0.9,0,1.6-0.7,1.6-1.6v-0.5C9.7,11.1,9.6,11,9.5,11z M7,11.6v-0.2h0.4
					l-0.1,0.5H7C7,11.8,7,11.7,7,11.6z M9.2,11.6c0,0.1,0,0.2,0,0.2H9l-0.1-0.5h0.4L9.2,11.6L9.2,11.6z"/>
			</g>
		</g>
		<g>
			<g>
				<path class="st0" d="M14.7,6.2h-1.1c-0.1,0-0.2,0.1-0.2,0.2v1.4c0,0.1,0.1,0.2,0.2,0.2h1.1c0.1,0,0.2-0.1,0.2-0.2V6.4
					C14.9,6.3,14.8,6.2,14.7,6.2z M14.5,7.6h-0.7V6.7h0.7V7.6z"/>
			</g>
		</g>
		<g>
			<g>
				
					<rect x="13.6" y="12.8" transform="matrix(0.7071 -0.7071 0.7071 0.7071 -5.4284 13.6992)" class="st0" width="0.5" height="1.3"/>
			</g>
		</g>
		<g>
			<g>
				<rect x="12.6" y="13.2" class="st0" width="0.5" height="1.1"/>
			</g>
		</g>
		<g>
			<g>
				<path class="st0" d="M10.8,4.2H5.4c-1.6,0-2.9,1.3-2.9,2.9v0.5c0,1.6,1.3,2.9,2.9,2.9c0.9,0,1.7-0.5,2.1-1.4l0.2-0.4
					c0.1-0.2,0.2-0.3,0.4-0.3l0,0l0,0c0.2,0,0.4,0.1,0.4,0.3l0.2,0.4c0.4,0.8,1.2,1.4,2.1,1.4c1.6,0,2.9-1.3,2.9-2.9V7.1
					C13.8,5.5,12.5,4.2,10.8,4.2z M13.3,7.6c0,1.4-1.1,2.5-2.5,2.5c-0.7,0-1.4-0.4-1.7-1.1L9,8.6C8.8,8.2,8.5,8,8.1,8l0,0
					C7.8,8,7.4,8.2,7.3,8.6L7.1,9c-0.3,0.7-1,1.1-1.7,1.1C4,10.1,2.9,9,2.9,7.6V7.1c0-1.4,1.1-2.5,2.5-2.5h5.4
					c1.4,0,2.5,1.1,2.5,2.5L13.3,7.6L13.3,7.6z"/>
			</g>
		</g>
		<g>
			<g>
				<path class="st0" d="M10.8,5.1H5.4c-1.1,0-2,0.9-2,2v0.5c0,1.1,0.9,2,2,2c0.6,0,1.1-0.3,1.3-0.8l0.2-0.4C7,8.1,7.2,7.8,7.6,7.7
					c0.7-0.3,1.5,0,1.8,0.7l0.2,0.4c0.2,0.5,0.7,0.8,1.3,0.8c1.1,0,2-0.9,2-2V7.1C12.9,6,12,5.1,10.8,5.1z M12.4,7.6
					c0,0.9-0.7,1.6-1.6,1.6c-0.4,0-0.7-0.2-0.9-0.6L9.8,8.2c-0.2-0.4-0.6-0.8-1-1c-0.2,0-0.5-0.1-0.7-0.1c-0.3,0-0.5,0.1-0.7,0.2
					C7,7.5,6.6,7.8,6.4,8.2L6.3,8.6C6.1,8.9,5.8,9.2,5.4,9.2c-0.9,0-1.6-0.7-1.6-1.6V7.1c0-0.9,0.7-1.6,1.6-1.6h5.4
					c0.9,0,1.6,0.7,1.6,1.6L12.4,7.6L12.4,7.6z"/>
			</g>
		</g>
		<g>
			<g>
				<path class="st0" d="M2.7,6.2H1.5c-0.1,0-0.2,0.1-0.2,0.2v1.4C1.3,7.9,1.4,8,1.5,8h1.1c0.1,0,0.2-0.1,0.2-0.2V6.4
					C2.9,6.3,2.8,6.2,2.7,6.2z M2.5,7.6H1.8V6.7h0.7V7.6z"/>
			</g>
		</g>
		<g>
			<g>
				<rect x="13.6" y="12.3" class="st0" width="1.1" height="0.5"/>
			</g>
		</g>
		<g>
			<g>
				<rect x="11.5" y="13.2" class="st0" width="0.5" height="1.1"/>
			</g>
		</g>
		<g>
			<g>
				<rect x="13.6" y="11.2" class="st0" width="1.1" height="0.5"/>
			</g>
		</g>
	</g>
</g>
</svg>
