<?xml version="1.0" encoding="utf-8"?>
<!-- Generator: Adobe Illustrator 21.1.0, SVG Export Plug-In . SVG Version: 6.00 Build 0)  -->
<svg version="1.1" id="Layer_1" xmlns="http://www.w3.org/2000/svg" xmlns:xlink="http://www.w3.org/1999/xlink" x="0px" y="0px"
	 viewBox="0 0 16 16" style="enable-background:new 0 0 16 16;" xml:space="preserve">
<style type="text/css">
	.st0{fill:#EB343C;}
</style>
<g id="Layer_53">
	<g>
		<g>
			<path class="st0" d="M5.1,8.8c-1,0-1.7-0.8-1.7-1.7s0.8-1.7,1.7-1.7s1.7,0.8,1.7,1.7S6,8.8,5.1,8.8z M5.1,5.9
				c-0.7,0-1.2,0.5-1.2,1.2s0.5,1.2,1.2,1.2s1.2-0.5,1.2-1.2S5.7,5.9,5.1,5.9z"/>
		</g>
		<g>
			<path class="st0" d="M3.2,14.3c-0.8,0-1.5-0.6-1.5-1.2V13l1-2.7l0,0C3,9.5,3.5,9.1,4.2,9.1h1.9c0.7,0,1.2,0.4,1.5,1.2l0.3,0.9
				l2.1-2c0.1-0.1,0.3-0.1,0.4,0c0.1,0.1,0.1,0.3,0,0.4L8,11.7c-0.1,0.1-0.2,0.1-0.2,0.1c-0.1,0-0.1-0.1-0.2-0.2l-0.4-1.2
				C7,9.9,6.7,9.6,6.2,9.6h-2c-0.5,0-0.8,0.3-1,0.8l-1,2.7c0,0.4,0.5,0.7,1,0.7c0.1,0,0.3,0.1,0.3,0.3C3.5,14.2,3.4,14.3,3.2,14.3z"
				/>
		</g>
		<g>
			<path class="st0" d="M5.1,13.5L5.1,13.5c-0.1,0-0.1,0-0.2-0.1l-0.8-0.6C4,12.7,4,12.6,4,12.6l0.4-2.2L4.1,9.5c0-0.1,0-0.2,0-0.2
				c0-0.1,0.1-0.1,0.2-0.1h1.6c0.1,0,0.2,0,0.2,0.1s0.1,0.2,0,0.2l-0.4,0.9l0.4,2.2c0,0.1,0,0.2-0.1,0.2l-0.8,0.6
				C5.2,13.5,5.2,13.5,5.1,13.5z M4.6,12.5l0.5,0.4l0.5-0.4l-0.4-2.1v-0.1l0.3-0.6H4.7L5,10.3v0.1L4.6,12.5z"/>
		</g>
		<g>
			<path class="st0" d="M14.7,13.2H9.9c-0.2,0-0.3-0.1-0.3-0.3s0.1-0.3,0.3-0.3h4.5V3.5H1.9v6.6c0,0.2-0.1,0.3-0.3,0.3
				s-0.3-0.1-0.3-0.3v-7c0-0.2,0.1-0.3,0.3-0.3h13.1C14.9,2.9,15,3,15,3.2v9.7C15,13.1,14.9,13.2,14.7,13.2z"/>
		</g>
		<g>
			<path class="st0" d="M13,6.8h-1.6c-0.2,0-0.3-0.1-0.3-0.3c0-0.2,0.1-0.3,0.3-0.3H13c0.2,0,0.3,0.1,0.3,0.3
				C13.3,6.6,13.1,6.8,13,6.8z"/>
		</g>
		<g>
			<path class="st0" d="M9.9,6.8H9.3C9.1,6.8,9,6.6,9,6.4s0.1-0.3,0.3-0.3h0.6c0.2,0,0.3,0.1,0.3,0.3C10.2,6.6,10.1,6.8,9.9,6.8z"/>
		</g>
		<g>
			<path class="st0" d="M13,5.4H9.7c-0.2,0-0.3-0.1-0.3-0.3c0-0.2,0.1-0.3,0.3-0.3H13c0.2,0,0.3,0.1,0.3,0.3S13.1,5.4,13,5.4z"/>
		</g>
		<g>
			<path class="st0" d="M13,9.2h-1.6c-0.2,0-0.3-0.1-0.3-0.3s0.1-0.3,0.3-0.3H13c0.2,0,0.3,0.1,0.3,0.3S13.1,9.2,13,9.2z"/>
		</g>
		<g>
			<path class="st0" d="M13,7.9H9.7c-0.2,0-0.3-0.1-0.3-0.3s0.1-0.3,0.3-0.3H13c0.2,0,0.3,0.1,0.3,0.3S13.1,7.9,13,7.9z"/>
		</g>
		<g>
			<path class="st0" d="M9.7,2.1H6.5C6.3,2.1,6.2,2,6.2,1.8s0.1-0.3,0.3-0.3h3.2c0.2,0,0.3,0.1,0.3,0.3S9.9,2.1,9.7,2.1z"/>
		</g>
		<g>
			<path class="st0" d="M5.5,10.7H4.7c-0.1,0-0.3-0.1-0.3-0.3c0-0.1,0.1-0.3,0.3-0.3h0.8c0.1,0,0.3,0.1,0.3,0.3
				C5.7,10.5,5.6,10.7,5.5,10.7z"/>
		</g>
	</g>
</g>
</svg>
