<?xml version="1.0" encoding="utf-8"?>
<!-- Generator: Adobe Illustrator 22.1.0, SVG Export Plug-In . SVG Version: 6.00 Build 0)  -->
<svg version="1.1" id="Layer_1" xmlns="http://www.w3.org/2000/svg" xmlns:xlink="http://www.w3.org/1999/xlink" x="0px" y="0px"
	 viewBox="0 0 33.5 33" style="enable-background:new 0 0 33.5 33;" xml:space="preserve">
<style type="text/css">
	.st0{fill:#FFFFFF;}
</style>
<g>
	<g>
		<path class="st0" d="M30.4,16.5c-0.1,5.7-3.6,10.9-9.1,12.9c-5.3,1.9-11.3,0.2-14.9-4C2.5,21,2,14.5,5,9.5
			C7.8,4.7,13.6,2,19.2,3.1C25.7,4.3,30.2,10,30.4,16.5c0,1.3,2,1.3,2,0C32.3,10,28.3,4.1,22.1,1.8C15.9-0.5,8.7,1.5,4.6,6.6
			c-4.2,5.1-4.7,12.5-1.2,18.1c3.4,5.5,10,8.4,16.4,7.2c7.4-1.4,12.5-8,12.7-15.4C32.4,15.2,30.4,15.2,30.4,16.5z"/>
	</g>
	<g>
		<path class="st0" d="M27.1,25.9c-6.9,0-13.9,0-20.8,0c0.3,0.3,0.7,0.7,1,1c0-6.9,0-13.9,0-20.8c-0.3,0.3-0.7,0.7-1,1
			c6.9,0,13.9,0,20.8,0c-0.3-0.3-0.7-0.7-1-1c0,6.9,0,13.9,0,20.8c0,1.3,2,1.3,2,0c0-6.9,0-13.9,0-20.8c0-0.5-0.5-1-1-1
			c-6.9,0-13.9,0-20.8,0c-0.5,0-1,0.5-1,1c0,6.9,0,13.9,0,20.8c0,0.5,0.5,1,1,1c6.9,0,13.9,0,20.8,0C28.4,27.9,28.4,25.9,27.1,25.9z
			"/>
	</g>
	<g>
		<path class="st0" d="M15.7,5.6c-3.4,6.9-6.8,13.9-10.3,20.8c-0.3,0.7,0.1,1.5,0.9,1.5c6.9,0,13.9,0,20.8,0c0.8,0,1.2-0.8,0.9-1.5
			c-3.5-6.9-7-13.9-10.5-20.8c-0.6-1.2-2.3-0.1-1.7,1c3.5,6.9,7,13.9,10.5,20.8c0.3-0.5,0.6-1,0.9-1.5c-6.9,0-13.9,0-20.8,0
			c0.3,0.5,0.6,1,0.9,1.5c3.4-6.9,6.8-13.9,10.3-20.8C18,5.5,16.3,4.4,15.7,5.6z"/>
	</g>
</g>
</svg>
