<?xml version="1.0" encoding="utf-8"?>
<!-- Generator: Adobe Illustrator 21.1.0, SVG Export Plug-In . SVG Version: 6.00 Build 0)  -->
<svg version="1.1" id="Layer_1" xmlns="http://www.w3.org/2000/svg" xmlns:xlink="http://www.w3.org/1999/xlink" x="0px" y="0px"
	 viewBox="0 0 35 40" style="enable-background:new 0 0 35 40;" xml:space="preserve">
<style type="text/css">
	.st0{fill:#EB343C;}
</style>
<path class="st0" d="M1.3,7.1c0,9.7,0,19.3,0,29c0,0.1,0,0.2,0.1,0.2c0.2,1.3,0.9,2.1,2.1,2.5C3.7,38.9,4,38.9,4.2,39
	c7.1,0,14.2,0,21.3,0c0.3-0.1,0.7-0.2,1-0.3c1.2-0.5,1.8-1.5,1.8-2.8c0-0.6,0-1.2,0-1.9c3.3-0.4,5.2-2.9,5.5-5.5
	c0.1-1.4-0.2-2.7-0.9-3.9c-1.1-1.6-2.6-2.5-4.5-2.8c0-0.2,0-0.3,0-0.4c0-4.8,0-9.5,0-14.3c0-1.6-1.1-2.9-2.6-3c-1-0.1-2.1,0-3.1-0.1
	c-0.1,0-0.2,0-0.4,0c0-0.4,0-0.8,0-1.3c0-0.8-0.6-1.5-1.3-1.7c-0.1,0-0.2-0.1-0.3-0.1c-3.8,0-7.6,0-11.4,0c0,0,0,0,0,0
	c-1.1,0.3-1.6,0.9-1.6,2c0,0.3,0,0.7,0,1c-0.2,0-0.3,0-0.4,0c-0.9,0-1.7,0-2.6,0c-1.6,0-2.8,1-3.1,2.4C1.4,6.7,1.4,6.9,1.3,7.1z
	 M7.5,5.3c0,0.4,0,0.7,0,1c0,1.3,0.7,2,2,2c3.6,0,7.1,0,10.7,0c1.2,0,2-0.8,2-2c0-0.3,0-0.7,0-1c0.1,0,0.1,0,0.1,0
	c0.9,0,1.9,0,2.8,0c1.2,0,2,0.8,2,2c0,4.7,0,9.5,0,14.2c0,0.1,0,0.2,0,0.3c-3.5,0.4-5.5,3.4-5.5,6c0,1.4,0.3,2.6,1.1,3.7
	c1.1,1.5,2.5,2.3,4.4,2.6c0,0.6,0,1.1,0,1.7c0,1.2-0.8,2-2,2c-6.8,0-13.7,0-20.5,0c-0.2,0-0.4,0-0.6-0.1c-0.9-0.2-1.3-0.9-1.3-1.9
	c0-9.5,0-19,0-28.4c0-0.1,0-0.2,0-0.4c0.1-0.8,0.7-1.6,1.5-1.6C5.2,5.3,6.3,5.3,7.5,5.3z M22.8,28c0-2.7,2.2-4.9,4.9-4.9
	c2.7,0,4.9,2.2,4.9,4.9c0,2.7-2.2,4.9-4.9,4.9C25,32.9,22.8,30.7,22.8,28z M14.8,7.1c-1.8,0-3.6,0-5.4,0c-0.5,0-0.7-0.2-0.7-0.8
	c0-1.1,0-2.3,0-3.4c0-0.6,0.2-0.8,0.8-0.8c3.6,0,7.1,0,10.7,0C20.7,2.3,21,2.5,21,3c0,1.1,0,2.2,0,3.3c0,0.6-0.2,0.8-0.8,0.8
	C18.4,7.1,16.6,7.1,14.8,7.1z"/>
<path class="st0" d="M24.6,20.6c0-0.4,0-0.8,0-1.2c-6.5,0-13,0-19.6,0c0,0.4,0,0.8,0,1.2C11.6,20.6,18.1,20.6,24.6,20.6z"/>
<path class="st0" d="M5,13.3c0,0.4,0,0.8,0,1.2c6.5,0,13,0,19.6,0c0-0.4,0-0.8,0-1.2C18.1,13.3,11.6,13.3,5,13.3z"/>
<path class="st0" d="M5,32.8c5.5,0,11,0,16.5,0c0-0.4,0-0.8,0-1.2c-5.5,0-11,0-16.5,0C5,32,5,32.4,5,32.8z"/>
<path class="st0" d="M5,25.5c0,0.4,0,0.8,0,1.2c5.1,0,10.2,0,15.3,0c0-0.4,0-0.8,0-1.2C15.2,25.5,10.1,25.5,5,25.5z"/>
<path class="st0" d="M30.4,25.6c-1.4,1.1-2.7,2.2-4.1,3.3c-0.4-0.5-0.8-0.9-1.2-1.4c-0.3,0.3-0.6,0.5-0.9,0.8
	c0.6,0.8,1.3,1.5,1.9,2.3c1.7-1.4,3.4-2.7,5.1-4C30.9,26.3,30.6,26,30.4,25.6z"/>
<path class="st0" d="M11.8,4.1c0,0.4,0,0.8,0,1.2c0.4,0,0.8,0,1.2,0c0-0.4,0-0.8,0-1.2C12.6,4.1,12.2,4.1,11.8,4.1z"/>
<path class="st0" d="M15.4,5.3c0-0.4,0-0.8,0-1.2c-0.4,0-0.8,0-1.2,0c0,0.4,0,0.8,0,1.2C14.6,5.3,15,5.3,15.4,5.3z"/>
<path class="st0" d="M17.9,5.3c0-0.4,0-0.8,0-1.2c-0.4,0-0.8,0-1.2,0c0,0.4,0,0.8,0,1.2C17.1,5.3,17.5,5.3,17.9,5.3z"/>
</svg>
