<?xml version="1.0" encoding="utf-8"?>
<!-- Generator: Adobe Illustrator 21.1.0, SVG Export Plug-In . SVG Version: 6.00 Build 0)  -->
<svg version="1.1" id="Layer_1" xmlns="http://www.w3.org/2000/svg" xmlns:xlink="http://www.w3.org/1999/xlink" x="0px" y="0px"
	 viewBox="0 0 32 40" style="enable-background:new 0 0 32 40;" xml:space="preserve">
<style type="text/css">
	.st0{fill:#999999;}
</style>
<g>
	<g>
		<g>
			<path class="st0" d="M1.5,6.9c0,7.8,0,15.6,0,23.5c0,3.4,0.3,7.7,4.7,8c3.8,0.2,7.7,0,11.5,0c2.1,0,4.2,0,6.3,0
				c1.6,0,3-0.1,4.2-1.2c2.6-2.4,1.7-7.5,1.7-10.6c0-4.5,0-9,0-13.5c0-1.8-0.2-3.4-1.4-4.9C27.3,6.5,26,5,24.7,3.4
				C23.4,1.8,22.1,1,20,1c-2.4,0-4.8,0.1-7.2,0.2c-2.1,0.1-4.3,0.1-6.5,0.2C3.3,1.6,1.7,4,1.5,6.9c-0.1,1.3,2,1.3,2.1,0
				c0.1-2.8,1.8-3.4,4.1-3.4c2-0.1,4.1-0.1,6.1-0.2c1.9-0.1,3.9-0.1,5.8-0.2c0.4,0,0.7-0.1,1.1,0c1.2,0.1,1.7,0.8,2.4,1.6
				c1.3,1.5,2.5,3,3.7,4.5c0.9,1.2,1,2.5,1,3.9c0,3.9,0,7.8,0,11.7c0,2,0,3.9,0,5.9c0,1.1,0.1,2.3-0.2,3.3c-0.6,2.1-2.1,2.2-3.9,2.2
				c-1.8,0-3.6,0-5.4,0c-3.8,0-7.7,0.2-11.5,0c-3.5-0.1-3.2-3.5-3.2-6.1c0-7.7,0-15.5,0-23.2C3.6,5.5,1.5,5.5,1.5,6.9z"/>
		</g>
		<g>
			<path class="st0" d="M19.6,2c0,3.4,0,6.8,0,10.2c0,0.6,0.5,1,1,1c2.7,0,5.4,0,8.2,0c1.3,0,1.3-2.1,0-2.1c-2.7,0-5.4,0-8.2,0
				c0.3,0.3,0.7,0.7,1,1c0-3.4,0-6.8,0-10.2C21.7,0.7,19.6,0.7,19.6,2L19.6,2z"/>
		</g>
	</g>
	<g>
		<path class="st0" d="M21.2,20.2c-1-0.9-2-1.9-2.9-2.8c-0.6-0.6-1.7-2.1-2.6-2.1c-0.9,0-2,1.5-2.6,2.1c-1,0.9-2,1.9-2.9,2.8
			c-1,0.9,0.5,2.4,1.5,1.5c0.8-0.8,1.6-1.5,2.4-2.3c0.5-0.5,1-1,1.5-1.5c0.5-0.5,1.3-0.8,0.2-0.8c-1.1,0-0.4,0.3,0.2,0.8
			c0.5,0.5,1,1,1.5,1.5c0.8,0.8,1.6,1.5,2.4,2.3C20.7,22.6,22.2,21.1,21.2,20.2L21.2,20.2z"/>
	</g>
	<g>
		<path class="st0" d="M16.8,27.5c0-3.7,0-7.5-0.1-11.2c0-1.3-2.1-1.3-2.1,0c0,3.7,0,7.5,0.1,11.2C14.8,28.9,16.8,28.9,16.8,27.5
			L16.8,27.5z"/>
	</g>
</g>
</svg>
