<?xml version="1.0" encoding="utf-8"?>
<!-- Generator: Adobe Illustrator 21.1.0, SVG Export Plug-In . SVG Version: 6.00 Build 0)  -->
<svg version="1.1" id="Layer_1" xmlns="http://www.w3.org/2000/svg" xmlns:xlink="http://www.w3.org/1999/xlink" x="0px" y="0px"
	 viewBox="0 0 19.2 19" style="enable-background:new 0 0 19.2 19;" xml:space="preserve">
<g id="Layer_3">
	<g>
		<path d="M11.7,0.3c0,1.6,0,3.3,0,4.9c0,0,0,0,0,0.1c-0.1,0-0.1,0-0.2,0c-3.6,0-7.3,0-10.8,0c-0.1,0-0.1,0-0.2,0c0-1.7,0-3.5,0-5.1
			C4.2,0.3,8,0.3,11.7,0.3z"/>
		<path d="M0.5,13.6c0.1,0,0.1,0,0.2,0c3.6,0,7.3,0,10.8,0c0.1,0,0.1,0,0.2,0c0,1.7,0,3.5,0,5.1c-3.7,0-7.5,0-11.2,0
			C0.5,17,0.5,15.3,0.5,13.6z"/>
		<path d="M0.5,7h0.1c3.7,0,7.3,0,11,0h0.1c0,1.7,0,3.3,0,5.1c-0.1,0-0.1,0-0.1,0c-3.6,0-7.3,0-10.8,0H0.6C0.5,10.4,0.5,8.6,0.5,7z"
			/>
		<path d="M18.8,5.4h-0.1c-1.2,0-2.5,0-3.7,0c0,0-0.1,0-0.2,0c0-1.7,0-3.5,0-5.1c1.4,0,2.7,0,4.1,0C18.8,2,18.8,3.7,18.8,5.4z"/>
		<path d="M14.8,18.7c0-1.7,0-3.3,0-5.1c0.1,0,0.1,0,0.1,0c1.2,0,2.5,0,3.7,0h0.1c0,1.7,0,3.5,0,5.1C17.5,18.7,16.1,18.7,14.8,18.7z
			"/>
		<path d="M18.8,12.1C18.8,12.1,18.7,12.1,18.8,12.1c-1.4,0-2.7,0-3.9,0h-0.1c0-1.7,0-3.3,0-5.1c1.4,0,2.7,0,4.1,0
			C18.8,8.6,18.8,10.4,18.8,12.1z"/>
	</g>
</g>
</svg>
