<?xml version="1.0" encoding="utf-8"?>
<!-- Generator: Adobe Illustrator 22.1.0, SVG Export Plug-In . SVG Version: 6.00 Build 0)  -->
<svg version="1.1" id="Layer_1" xmlns="http://www.w3.org/2000/svg" xmlns:xlink="http://www.w3.org/1999/xlink" x="0px" y="0px"
	 viewBox="0 0 28.7 20.1" style="enable-background:new 0 0 28.7 20.1;" xml:space="preserve">
<style type="text/css">
	.st0{fill:#FFFFFF;}
</style>
<g>
	<g>
		<path class="st0" d="M24.7,18.1c-5.1,0-10.2,0-15.3,0c-1.8,0-3.6,0.2-5.4,0c-1.9-0.2-2.1-1.6-2.1-3.1c0-1.4,0-2.9,0-4.3
			c0-1.6,0-3.2,0-4.8c0-0.9-0.2-2.1,0.2-2.9C3,1.3,6.6,1.9,8.2,1.9c5.4,0,10.9-0.3,16.4,0c1.7,0.1,2.3,1.3,2.3,2.8c0,1.5,0,3,0,4.5
			c0,1.7,0,3.5,0,5.2C26.8,16,26.9,18,24.7,18.1c-0.9,0.1-0.9,1.4,0,1.4c2-0.1,3.4-1.6,3.5-3.6c0-1.2,0-2.3,0-3.5
			c0-2.8,0.1-5.6,0-8.3c-0.1-2-1.6-3.4-3.6-3.5c-0.8,0-1.5,0-2.3,0c-3.5,0-6.9,0-10.4,0c-2.6,0-5.2-0.1-7.8,0C2.5,0.6,1,1.5,0.6,3.2
			c-0.3,1-0.1,2.1-0.1,3.1c0,3.2-0.1,6.4,0,9.6c0,1.7,1,3.2,2.6,3.6c0.7,0.2,1.5,0.1,2.3,0.1c6.4,0,12.9,0,19.3,0
			C25.5,19.5,25.5,18.1,24.7,18.1z"/>
	</g>
	<g>
		<path class="st0" d="M1.2,7.7c7.7,0,15.4,0,23,0c1.1,0,2.2,0,3.3,0c0.9,0,0.9-1.4,0-1.4c-7.7,0-15.4,0-23,0c-1.1,0-2.2,0-3.3,0
			C0.3,6.4,0.3,7.7,1.2,7.7L1.2,7.7z"/>
	</g>
	<g>
		<path class="st0" d="M1.5,2.9c0.9,1.5,1.8,3,2.6,4.5c0.4,0.8,1.6,0.1,1.2-0.7c-0.9-1.5-1.8-3-2.6-4.5C2.2,1.4,1,2.1,1.5,2.9
			L1.5,2.9z"/>
	</g>
	<g>
		<path class="st0" d="M4.8,2.2c1,1.7,2,3.5,3,5.2C8.3,8.1,9.5,7.4,9,6.7C8,5,7,3.2,6,1.5C5.5,0.8,4.3,1.4,4.8,2.2L4.8,2.2z"/>
	</g>
	<g>
		<path class="st0" d="M8.7,1.9c1,1.7,2,3.5,3,5.2c0.4,0.8,1.6,0.1,1.2-0.7c-1-1.7-2-3.5-3-5.2C9.4,0.5,8.3,1.2,8.7,1.9L8.7,1.9z"/>
	</g>
	<g>
		<path class="st0" d="M12.4,1.9c1,1.7,2,3.5,3,5.2c0.4,0.8,1.6,0.1,1.2-0.7c-1-1.7-2-3.5-3-5.2C13.1,0.5,12,1.2,12.4,1.9L12.4,1.9z
			"/>
	</g>
	<g>
		<path class="st0" d="M16,1.9c1,1.7,2,3.5,3,5.2c0.4,0.8,1.6,0.1,1.2-0.7c-1-1.7-2-3.5-3-5.2C16.8,0.5,15.6,1.2,16,1.9L16,1.9z"/>
	</g>
	<g>
		<path class="st0" d="M19.8,1.9c1,1.7,2,3.5,3,5.2c0.4,0.8,1.6,0.1,1.2-0.7c-1-1.7-2-3.5-3-5.2C20.5,0.5,19.3,1.2,19.8,1.9
			L19.8,1.9z"/>
	</g>
	<g>
		<path class="st0" d="M23.3,1.9c1,1.7,2,3.5,3,5.2c0.4,0.8,1.6,0.1,1.2-0.7c-1-1.7-2-3.5-3-5.2C24.1,0.5,22.9,1.2,23.3,1.9
			L23.3,1.9z"/>
	</g>
</g>
</svg>
