<?xml version="1.0" encoding="utf-8"?>
<!-- Generator: Adobe Illustrator 21.1.0, SVG Export Plug-In . SVG Version: 6.00 Build 0)  -->
<svg version="1.1" id="Layer_1" xmlns="http://www.w3.org/2000/svg" xmlns:xlink="http://www.w3.org/1999/xlink" x="0px" y="0px"
	 viewBox="0 0 19.2 19" style="enable-background:new 0 0 19.2 19;" xml:space="preserve">
<g id="Layer_9">
	<g>
		<path d="M17.4,18.7c-0.1,0-0.1,0-0.2,0c-0.4-0.1-0.6-0.3-0.9-0.6c-1-1-2-2-3.1-3.1c0,0-0.1-0.1-0.1-0.2c-0.1,0.1-0.1,0.1-0.2,0.1
			c-1.7,1-3.6,1.3-5.5,0.9c-1.8-0.3-3.4-1.2-4.5-2.8c-0.9-0.9-1.5-2.2-1.7-3.7C1.1,9.2,1,9,1,8.7c0-0.3,0-0.5,0-0.8V7.8
			c0.1-0.4,0.1-0.9,0.2-1.3c1-4.3,5.5-6.9,9.8-5.6c3.2,0.9,5.5,3.8,5.6,7.2c0.1,2-0.5,3.9-1.8,5.4c0,0-0.1,0.1-0.1,0.2
			c0.1,0.1,0.2,0.2,0.3,0.3c1,1,1.9,1.9,3,3c0.6,0.6,0.3,1.6-0.5,1.8C17.5,18.7,17.5,18.7,17.4,18.7z M3.3,8.3
			c0,3.2,2.6,5.6,5.6,5.6s5.6-2.6,5.6-5.6c0-3.2-2.6-5.6-5.6-5.6S3.3,5.2,3.3,8.3z"/>
	</g>
</g>
</svg>
