<?xml version="1.0" encoding="utf-8"?>
<!-- Generator: Adobe Illustrator 21.1.0, SVG Export Plug-In . SVG Version: 6.00 Build 0)  -->
<svg version="1.1" id="Layer_1" xmlns="http://www.w3.org/2000/svg" xmlns:xlink="http://www.w3.org/1999/xlink" x="0px" y="0px"
	 viewBox="0 0 16 16" style="enable-background:new 0 0 16 16;" xml:space="preserve">
<style type="text/css">
	.st0{display:none;}
	.st1{fill:#FDAA00;}
</style>
<g id="Layer_2">
</g>
<g id="Layer_19" class="st0">
</g>
<g>
	<g>
		<path class="st1" d="M4.8,4.8c0.8,0,1.4-0.9,1.4-1.6c0-0.8-0.6-1.4-1.4-1.4S3.4,2.4,3.4,3.2C3.4,4,4,4.8,4.8,4.8z"/>
	</g>
	<g>
		<path class="st1" d="M9.9,5.1c0,0-0.4,0.1-4.1,0.1c-0.1,0-0.2,0-0.2,0.1C5.5,5.6,5.3,6,5,6.3C5,6.3,4.9,6.4,4.8,6.4l0,0
			c-0.1,0-0.2,0-0.2-0.1C4.3,6,4.1,5.6,4,5.3c0-0.1-0.1-0.1-0.2-0.1H2.8C2.1,5.2,2,5.7,2,6.4l0,3.3c0,0.4,0.2,0.7,0.6,0.7h0.4V15
			c0,0.1,0.1,0.2,0.2,0.2h1.1c0.1,0,0.2-0.1,0.2-0.2l0.2-3.9H5L5.2,15c0,0.1,0.1,0.2,0.2,0.2h1.1c0.1,0,0.2-0.1,0.2-0.2l0-7.3
			c0-0.2,0.1-0.3,0.2-0.4C7.5,6.7,9.2,6.8,10,6.6c0.5-0.2,0.7-0.6,0.7-0.8C10.6,5.3,10.2,5,9.9,5.1z"/>
	</g>
	<g>
		<path class="st1" d="M14.6,1.4h-4.3V1.2C10.3,1.1,10.2,1,10,1C9.9,1,9.8,1.1,9.8,1.2c0,1.7,0,4,0,4.5c0,0,0.1-0.1,0.2-0.1
			c0.1,0,0.2,0.6,0.3,0.6V4.3h4.1c0.1,0-1.3-1.3-1.3-1.4C13.1,2.8,14.6,1.4,14.6,1.4z"/>
	</g>
	<g>
		<path class="st1" d="M9.8,6.2V15c0,0.1,0.1,0.2,0.2,0.2c0.1,0,0.2-0.1,0.2-0.2v-9c0,0-0.2,0.2-0.2,0.2C10,6.2,9.9,6.2,9.8,6.2z"/>
	</g>
</g>
</svg>
