<?xml version="1.0" encoding="utf-8"?>
<!-- Generator: Adobe Illustrator 22.1.0, SVG Export Plug-In . SVG Version: 6.00 Build 0)  -->
<svg version="1.1" id="Layer_1" xmlns="http://www.w3.org/2000/svg" xmlns:xlink="http://www.w3.org/1999/xlink" x="0px" y="0px"
	 viewBox="0 0 16 16" style="enable-background:new 0 0 16 16;" xml:space="preserve">
<style type="text/css">
	.st0{fill:#EB343C;}
</style>
<g id="Layer_15">
	<g>
		<path id="Vimeo" class="st0" d="M13.1,2c-2-0.1-3.3,1-4,3.3c0.4-0.1,0.7-0.2,1.1-0.2c0.7,0,1,0.4,1,1.2c0,0.5-0.4,1.2-1,2.1
			s-1,1.4-1.3,1.4c-0.4,0-0.7-0.7-1.1-2.2C7.7,7.3,7.5,6.2,7.2,4.4C7,2.8,6.3,2.1,5.2,2.2C4.7,2.2,4,2.6,3.1,3.4
			C2.4,4.1,1.7,4.7,1,5.3l0.7,0.9c0.6-0.4,1-0.7,1.1-0.7c0.5,0,0.9,0.8,1.4,2.3C4.6,9.2,5,10.6,5.3,12c0.6,1.5,1.3,2.3,2.1,2.3
			c1.3,0,3-1.3,4.9-3.8c1.9-2.4,2.8-4.3,2.9-5.7C15.3,3,14.6,2,13.1,2z"/>
	</g>
</g>
</svg>
