<?xml version="1.0" encoding="utf-8"?>
<!-- Generator: Adobe Illustrator 22.1.0, SVG Export Plug-In . SVG Version: 6.00 Build 0)  -->
<svg version="1.1" id="Layer_1" xmlns="http://www.w3.org/2000/svg" xmlns:xlink="http://www.w3.org/1999/xlink" x="0px" y="0px"
	 viewBox="0 0 16 16" style="enable-background:new 0 0 16 16;" xml:space="preserve">
<style type="text/css">
	.st0{fill:#FCFCFC;}
</style>
<g>
	<g>
		<path class="st0" d="M4.1,3c0.8-0.1,2.1,0,2.3,0.9C6.6,4.8,6,5.6,5.9,6.4C5.8,7.1,6,7.7,6.1,8.3C6.2,8.6,6.2,8.9,6,9.2
			C5.7,9.4,5.2,9.4,4.9,9.4C4.1,9.2,4.1,8.5,4.1,7.9C4,7,3.5,6.2,3.2,5.4C3,4.4,3,3.3,4.1,3C4.4,2.9,4.3,2.4,4,2.5
			C2.1,2.9,2.5,5,3.1,6.4c0.2,0.5,0.4,1,0.5,1.6c0,0.4,0,0.8,0.2,1.1c0.2,0.4,0.6,0.7,1,0.8c0.8,0.2,1.8-0.1,2-1
			c0-0.3,0-0.5-0.1-0.8C6.5,7.6,6.4,7.2,6.4,6.8c0-0.6,0.3-1.1,0.4-1.7C7.1,4.4,7,3.5,6.4,3C5.8,2.4,4.8,2.4,4,2.5
			C3.6,2.5,3.8,3.1,4.1,3z"/>
		<path class="st0" d="M3,2c0,0.1,0,0.2-0.1,0.3c-0.1,0-0.2,0-0.2-0.1C2.6,1.9,2.9,1.8,3,2c0.1,0.1,0.2,0.2,0.3,0.2S3.5,2,3.5,1.9
			C3.4,1.5,3,1.3,2.6,1.4C2.3,1.5,2.1,1.9,2.2,2.3c0.1,0.4,0.5,0.6,0.9,0.5c0.4-0.1,0.6-0.6,0.5-0.9C3.4,1.6,2.9,1.7,3,2z"/>
		<path class="st0" d="M4.5,1.4c0,0.2,0,0.4-0.2,0.4C4.1,1.9,4,1.7,4,1.5c0-0.1,0-0.3,0.2-0.3C4.4,1.1,4.5,1.3,4.5,1.4
			c0.1,0.4,0.6,0.3,0.5,0c0-0.5-0.4-0.8-0.9-0.8c-0.4,0.1-0.7,0.5-0.7,1C3.5,2,3.9,2.4,4.3,2.4c0.5,0,0.8-0.5,0.7-0.9
			C5,1.1,4.5,1.1,4.5,1.4z"/>
		<path class="st0" d="M6.1,1.5c0,0.2,0,0.4-0.2,0.4S5.6,1.8,5.6,1.6s0.1-0.3,0.2-0.4C6,1.2,6.1,1.4,6.1,1.5
			c0.1,0.4,0.6,0.3,0.5-0.1c0-0.4-0.4-0.8-0.9-0.7C5.3,0.8,5,1.2,5.1,1.7C5.2,2.1,5.5,2.5,6,2.5S6.8,2,6.7,1.6
			C6.6,1.2,6.1,1.2,6.1,1.5z"/>
		<path class="st0" d="M7.7,2.5C7.6,2.6,7.4,2.8,7.2,2.8C7,2.7,7.1,2.4,7.1,2.3C7.2,2.2,7.3,1.9,7.5,2C7.8,1.9,7.7,2.3,7.7,2.5
			C7.5,2.8,8,3,8.1,2.7c0.2-0.4,0.2-1.1-0.3-1.3C7.4,1.2,6.9,1.6,6.7,2C6.5,2.4,6.5,3,6.9,3.3c0.5,0.3,1-0.1,1.2-0.5
			C8.3,2.4,7.8,2.1,7.7,2.5z"/>
		<path class="st0" d="M2.1,3.1c0,0.1,0.1,0.2,0,0.3c0,0.1-0.1,0-0.2-0.1c0-0.1-0.1-0.2,0-0.2C2,3,2.1,3.1,2.1,3.1
			c0.2,0.4,0.6,0.1,0.5-0.2S2.1,2.4,1.7,2.6C1.4,2.7,1.3,3.2,1.4,3.5C1.6,3.8,2,4,2.3,3.9C2.7,3.8,2.8,3.3,2.7,3
			C2.6,2.9,2.5,2.8,2.3,2.8C2.2,2.8,2.1,3,2.1,3.1z"/>
	</g>
	<g>
		<path class="st0" d="M12.8,8.1c0.2-0.7,0.4-1.5,0-2.2C12.4,5.3,11.7,5,11,5S9.4,5.1,9,5.7C8.5,6.3,8.6,7.2,8.8,7.9
			c0.1,0.3,0.6,0.2,0.5-0.1C9.1,7.3,9,6.6,9.4,6.1s1.1-0.6,1.7-0.5c0.6,0,1.1,0.2,1.3,0.7c0.3,0.5,0.1,1.2-0.1,1.7
			C12.2,8.3,12.7,8.4,12.8,8.1L12.8,8.1z"/>
		<path class="st0" d="M12.2,4.5c-0.1,0.4,0,0.8,0.4,0.9s0.8-0.1,0.9-0.4c0.1-0.3,0-0.8-0.3-0.9C12.8,3.9,12.4,4.1,12.2,4.5
			c-0.1,0.2,0.3,0.5,0.5,0.2c0-0.1,0.1-0.2,0.2-0.2C13,4.6,13,4.7,13,4.8c0,0.1-0.1,0.2-0.2,0.1c-0.1,0-0.1-0.2-0.1-0.3
			C12.8,4.3,12.3,4.2,12.2,4.5z"/>
		<path class="st0" d="M10.7,4c-0.1,0.4,0.2,0.9,0.7,1c0.5,0,0.8-0.3,0.9-0.7c0.1-0.4-0.2-0.9-0.6-1C11.2,3.1,10.8,3.5,10.7,4
			c-0.1,0.3,0.5,0.4,0.5,0.1c0-0.2,0.1-0.3,0.3-0.3s0.3,0.2,0.2,0.4c0,0.2-0.2,0.3-0.3,0.3c-0.2,0-0.2-0.3-0.2-0.4
			C11.2,3.6,10.7,3.7,10.7,4z"/>
		<path class="st0" d="M9.1,4C9,4.4,9.3,4.9,9.8,4.9c0.4,0,0.8-0.3,0.9-0.7c0.1-0.4-0.2-0.9-0.6-1C9.6,3.1,9.2,3.5,9.1,4
			C9,4.2,9.5,4.4,9.6,4c0-0.2,0.1-0.3,0.3-0.3s0.3,0.2,0.2,0.4c0,0.2-0.2,0.3-0.3,0.3C9.6,4.4,9.6,4.1,9.6,4C9.6,3.6,9.1,3.6,9.1,4z
			"/>
		<path class="st0" d="M7.5,5.1c0.2,0.4,0.6,0.8,1.1,0.6C9.2,5.6,9.2,4.9,9,4.5C8.9,4.1,8.4,3.7,7.9,3.8C7.4,4,7.4,4.6,7.5,5.1
			C7.6,5.4,8.2,5.2,8,4.9c0-0.1-0.1-0.5,0.1-0.6c0.2-0.1,0.4,0.2,0.4,0.3c0.1,0.1,0.1,0.5-0.1,0.6C8.2,5.3,8.1,5,8,4.9
			C7.9,4.5,7.4,4.8,7.5,5.1z"/>
		<path class="st0" d="M13,5.6c-0.2,0.3-0.1,0.8,0.2,1s0.7,0,0.9-0.3s0.1-0.8-0.2-1C13.6,5.1,13.2,5.3,13,5.6
			c-0.2,0.3,0.3,0.6,0.5,0.3c0-0.1,0.1-0.2,0.2-0.1c0.1,0,0.1,0.2,0,0.2c0,0.1-0.1,0.2-0.2,0.1c-0.1,0-0.1-0.2,0-0.2
			c0.1-0.1,0-0.3-0.1-0.4C13.3,5.4,13.1,5.5,13,5.6z"/>
	</g>
	<path class="st0" d="M14,11.9c0,1.6-1.3,2.9-2.9,2.9s-2.9-1.3-2.9-2.9S9.5,9,11.1,9S14,10.3,14,11.9c0,0.3,0.5,0.3,0.5,0
		c0-1.4-0.9-2.8-2.3-3.3S9.3,8.5,8.3,9.7c-0.9,1.1-1,2.7-0.3,3.9c0.7,1.3,2.2,1.9,3.6,1.7c1.6-0.3,2.8-1.8,2.8-3.4
		C14.5,11.6,14,11.6,14,11.9z"/>
</g>
<path class="st0" d="M9.4,10.6c1,1,1.9,1.9,2.9,2.9c0.2,0.2,0.6-0.1,0.4-0.4c-1-1-1.9-1.9-2.9-2.9C9.6,10,9.2,10.4,9.4,10.6
	L9.4,10.6z"/>
<path class="st0" d="M9.8,13.6c1-1,1.9-1.9,2.9-2.9c0.2-0.2-0.1-0.6-0.4-0.4c-1,1-1.9,1.9-2.9,2.9C9.2,13.4,9.6,13.8,9.8,13.6
	L9.8,13.6z"/>
</svg>
