<?xml version="1.0" encoding="utf-8"?>
<!-- Generator: Adobe Illustrator 22.1.0, SVG Export Plug-In . SVG Version: 6.00 Build 0)  -->
<svg version="1.1" id="Layer_1" xmlns="http://www.w3.org/2000/svg" xmlns:xlink="http://www.w3.org/1999/xlink" x="0px" y="0px"
	 viewBox="0 0 16 16" style="enable-background:new 0 0 16 16;" xml:space="preserve">
<style type="text/css">
	.st0{fill:#EE464C;}
</style>
<g id="walk_x5F_done">
	<g>
		<g>
			<g>
				<path class="st0" d="M4.5,3.2c0.8-0.1,1.9,0,2.2,0.9c0.2,0.8-0.4,1.5-0.5,2.3C6.1,7,6.2,7.6,6.4,8.2C6.5,8.5,6.5,8.8,6.2,9
					C6,9.2,5.5,9.2,5.2,9.2C4.5,9.1,4.5,8.4,4.5,7.8C4.4,6.9,3.9,6.3,3.7,5.5C3.4,4.6,3.4,3.5,4.5,3.2c0.3-0.1,0.2-0.6-0.1-0.5
					C2.6,3.2,3,5.1,3.5,6.4c0.2,0.5,0.4,1,0.4,1.5c0,0.4,0,0.7,0.2,1.1s0.5,0.7,1,0.7c0.7,0.1,1.7-0.1,1.9-1c0-0.3,0-0.5-0.1-0.8
					C6.8,7.6,6.7,7.2,6.7,6.8c0-0.6,0.2-1,0.4-1.6c0.2-0.7,0.2-1.5-0.4-2S5.1,2.6,4.4,2.8C4.1,2.8,4.2,3.3,4.5,3.2z"/>
			</g>
			<g>
				<path class="st0" d="M3.5,2.3c0,0.1,0,0.2-0.1,0.3c-0.1,0-0.2,0-0.2-0.1C3.1,2.2,3.4,2.1,3.5,2.3c0.1,0.1,0.2,0.2,0.3,0.2
					C3.9,2.5,4,2.3,4,2.2C3.8,1.8,3.5,1.6,3.1,1.7C2.8,1.8,2.6,2.2,2.7,2.6c0.1,0.3,0.5,0.6,0.8,0.5C3.9,2.9,4.1,2.5,4,2.2
					S3.4,2,3.5,2.3z"/>
			</g>
			<g>
				<path class="st0" d="M4.9,1.8c0,0.1,0,0.3-0.2,0.4C4.5,2.2,4.4,2,4.4,1.8c0-0.1,0.1-0.3,0.2-0.3C4.8,1.5,4.9,1.7,4.9,1.8
					C5,2.1,5.4,2,5.4,1.7C5.3,1.3,4.9,0.9,4.5,1S3.8,1.5,3.9,1.9c0,0.4,0.4,0.8,0.8,0.7c0.4,0,0.7-0.5,0.7-0.9
					C5.4,1.4,4.9,1.4,4.9,1.8z"/>
			</g>
			<g>
				<path class="st0" d="M6.4,1.8c0,0.1,0,0.3-0.2,0.4C6,2.2,5.9,2.1,5.9,1.9c0-0.1,0.1-0.3,0.2-0.3C6.3,1.6,6.4,1.7,6.4,1.8
					c0.1,0.4,0.6,0.3,0.5,0C6.8,1.3,6.5,1,6,1.1C5.6,1.2,5.3,1.6,5.4,2c0,0.4,0.4,0.7,0.8,0.7s0.7-0.4,0.7-0.9
					C6.9,1.5,6.4,1.5,6.4,1.8z"/>
			</g>
			<g>
				<path class="st0" d="M7.8,2.7c0,0.1-0.2,0.4-0.4,0.3c-0.2,0-0.1-0.3,0-0.5c0.1-0.1,0.2-0.3,0.4-0.3C8,2.2,7.9,2.6,7.8,2.7
					C7.7,3,8.1,3.3,8.3,3C8.5,2.6,8.5,2,8,1.8C7.6,1.6,7.1,1.9,6.9,2.3s-0.2,1,0.2,1.2c0.5,0.2,1-0.2,1.2-0.5C8.4,2.7,8,2.4,7.8,2.7
					z"/>
			</g>
			<g>
				<path class="st0" d="M2.7,3.4c0,0.1,0.1,0.2,0,0.3s-0.2,0-0.2-0.1s-0.1-0.2,0-0.2C2.6,3.2,2.7,3.4,2.7,3.4
					c0.2,0.3,0.6,0.1,0.5-0.2C3,2.9,2.6,2.7,2.3,2.8C1.9,3,1.9,3.4,2,3.7C2.1,4,2.5,4.2,2.8,4.1C3.2,4,3.3,3.5,3.1,3.2
					C3.1,3.1,3,3,2.8,3.1C2.7,3.1,2.6,3.2,2.7,3.4z"/>
			</g>
		</g>
		<g>
			<g>
				<path class="st0" d="M12.7,8c0.2-0.7,0.4-1.4,0-2s-1-0.9-1.7-0.9S9.5,5.2,9.1,5.8C8.6,6.4,8.7,7.2,8.9,7.9C9,8.2,9.5,8,9.4,7.7
					c-0.2-0.5-0.3-1.1,0-1.6s1-0.5,1.6-0.5c0.5,0,1,0.2,1.3,0.7c0.2,0.5,0.1,1.1-0.1,1.6C12.1,8.2,12.6,8.3,12.7,8L12.7,8z"/>
			</g>
			<g>
				<path class="st0" d="M12.1,4.6c-0.1,0.3,0,0.8,0.4,0.9c0.3,0.1,0.7-0.1,0.8-0.4s0-0.7-0.3-0.9C12.6,4.1,12.2,4.3,12.1,4.6
					c-0.1,0.2,0.3,0.5,0.5,0.2c0-0.1,0.1-0.2,0.2-0.2c0.1,0,0.1,0.2,0.1,0.2c0,0.1-0.1,0.2-0.2,0.1c-0.1,0-0.1-0.2-0.1-0.3
					C12.7,4.5,12.2,4.3,12.1,4.6z"/>
			</g>
			<g>
				<path class="st0" d="M10.7,4.2c0,0.4,0.2,0.8,0.7,0.9c0.4,0,0.8-0.3,0.8-0.7c0-0.4-0.2-0.9-0.6-1C11.1,3.3,10.8,3.7,10.7,4.2
					c-0.1,0.2,0.4,0.4,0.5,0.1c0-0.1,0.1-0.3,0.3-0.3s0.3,0.2,0.2,0.4c0,0.1-0.2,0.3-0.3,0.3c-0.2,0-0.2-0.2-0.2-0.4
					C11.2,3.8,10.7,3.8,10.7,4.2z"/>
			</g>
			<g>
				<path class="st0" d="M9.1,4.1C9.1,4.6,9.4,5,9.8,5c0.4,0,0.8-0.3,0.8-0.7c0.1-0.4-0.2-0.8-0.6-0.9C9.6,3.3,9.2,3.7,9.1,4.1
					c0,0.3,0.5,0.4,0.5,0.1c0-0.1,0.1-0.3,0.3-0.3s0.2,0.2,0.2,0.4c0,0.1-0.2,0.3-0.3,0.3c-0.2,0-0.2-0.2-0.2-0.4
					C9.7,3.8,9.2,3.8,9.1,4.1z"/>
			</g>
			<g>
				<path class="st0" d="M7.7,5.2c0.2,0.4,0.6,0.7,1,0.6C9.2,5.6,9.3,5,9.1,4.6C9,4.2,8.6,3.9,8.1,4S7.6,4.8,7.7,5.2
					C7.8,5.5,8.3,5.3,8.2,5c-0.1-0.1-0.1-0.4,0-0.5c0.2-0.1,0.4,0.2,0.4,0.3c0.1,0.1,0.1,0.5-0.1,0.5C8.4,5.4,8.2,5.1,8.2,5
					C8,4.7,7.6,4.9,7.7,5.2z"/>
			</g>
			<g>
				<path class="st0" d="M12.9,5.7c-0.1,0.3-0.1,0.7,0.2,0.9c0.3,0.2,0.7,0,0.9-0.3s0.1-0.7-0.2-0.9C13.4,5.2,13,5.4,12.9,5.7
					C12.7,6,13.2,6.2,13.3,6c0-0.1,0.1-0.2,0.2-0.1c0.1,0,0.1,0.2,0,0.2c0,0.1-0.1,0.1-0.2,0.1c-0.1,0-0.1-0.2,0-0.2
					c0.1-0.1,0-0.3-0.1-0.3C13.1,5.5,12.9,5.6,12.9,5.7z"/>
			</g>
		</g>
		<g>
			<path class="st0" d="M13.8,11.6c0,1.5-1.2,2.7-2.7,2.7s-2.7-1.2-2.7-2.7s1.2-2.7,2.7-2.7C12.6,8.8,13.8,10.1,13.8,11.6
				c0,0.3,0.5,0.3,0.5,0c0-1.4-0.8-2.6-2.1-3.1s-2.8-0.1-3.6,1c-0.9,1-1,2.5-0.3,3.7s2.1,1.8,3.4,1.6c1.5-0.3,2.6-1.7,2.6-3.2
				C14.3,11.3,13.8,11.3,13.8,11.6z"/>
		</g>
		<g>
			<path class="st0" d="M9.3,11.7c0.3,0.4,0.6,0.8,0.9,1.2c0.1,0.1,0.3,0.1,0.4,0c0.7-0.7,1.5-1.5,2.2-2.2c0.2-0.2-0.1-0.6-0.4-0.4
				c-0.7,0.7-1.5,1.5-2.2,2.2c0.1,0,0.2,0,0.4,0c-0.3-0.4-0.6-0.8-0.9-1.2C9.4,11.1,9.1,11.5,9.3,11.7L9.3,11.7z"/>
		</g>
	</g>
</g>
</svg>
