<?xml version="1.0" encoding="utf-8"?>
<!-- Generator: Adobe Illustrator 22.1.0, SVG Export Plug-In . SVG Version: 6.00 Build 0)  -->
<svg version="1.1" id="Layer_2" xmlns="http://www.w3.org/2000/svg" xmlns:xlink="http://www.w3.org/1999/xlink" x="0px" y="0px"
	 viewBox="0 0 40 37" style="enable-background:new 0 0 40 37;" xml:space="preserve">
<style type="text/css">
	.st0{fill:#EB343C;}
</style>
<g>
	<g>
		<g>
			<path class="st0" d="M8.2,6.9c1.2-0.2,2.7-0.2,4.6,0.2c1.8,0.4,3.1,1.8,3.4,3.6c0.1,1.1,0,2.5-0.7,4.1c-0.6,1.3-1,2.8-1,4.2
				c0,1.1,0.2,2.5,0.7,4.1c0,0,1.8,4.4-3.5,4.5c0,0-3.9,0.5-4.1-3.9c-0.1-1.3-0.3-2.7-0.6-3.9c-0.2-0.8-0.6-1.6-1-2.4
				C5.3,16,4.8,14.5,4.6,13c-0.1-0.4-0.1-0.9-0.1-1.4C4.4,9.3,5.9,7.3,8.2,6.9z"/>
		</g>
		<g>
			<ellipse transform="matrix(0.9448 -0.3277 0.3277 0.9448 -1.345 1.7907)" class="st0" cx="4.6" cy="4.9" rx="1.3" ry="1.5"/>
		</g>
		<g>
			<ellipse transform="matrix(0.9934 -0.1144 0.1144 0.9934 -0.295 1.0275)" class="st0" cx="8.8" cy="3.1" rx="1.7" ry="1.8"/>
		</g>
		<g>
			<ellipse transform="matrix(0.9934 -0.1144 0.1144 0.9934 -0.2866 1.5853)" class="st0" cx="13.7" cy="3.3" rx="1.7" ry="1.8"/>
		</g>
		<g>
			<ellipse transform="matrix(0.4326 -0.9016 0.9016 0.4326 5.286 19.7498)" class="st0" cx="18.3" cy="5.7" rx="2.3" ry="1.6"/>
		</g>
		<g>
			<ellipse transform="matrix(0.9081 -0.4188 0.4188 0.9081 -3.2895 1.6633)" class="st0" cx="2.1" cy="8.3" rx="1.2" ry="1.4"/>
		</g>
	</g>
	<g>
		<g>
			<path class="st0" d="M31.1,14.7c-1.1-0.3-2.7-0.3-4.7,0c-1.8,0.3-3.2,1.7-3.5,3.4c-0.2,1.1-0.1,2.5,0.5,4.2
				c0.6,1.4,0.8,2.8,0.7,4.3c-0.1,1.1-0.3,2.5-0.9,4c0,0-2,4.3,3.3,4.7c0,0,3.9,0.7,4.3-3.7c0.1-1.3,0.4-2.6,0.8-3.9
				c0.3-0.8,0.6-1.6,1.1-2.4c0.8-1.4,1.4-2.8,1.6-4.3c0.1-0.4,0.1-0.9,0.2-1.4C34.7,17.4,33.3,15.2,31.1,14.7z"/>
		</g>
		<g>
			<ellipse transform="matrix(0.3743 -0.9273 0.9273 0.3743 9.7487 40.2431)" class="st0" cx="34.7" cy="12.9" rx="1.5" ry="1.3"/>
		</g>
		<g>
			<ellipse transform="matrix(0.1637 -0.9865 0.9865 0.1637 14.8685 39.3186)" class="st0" cx="30.6" cy="10.9" rx="1.8" ry="1.7"/>
		</g>
		<g>
			<ellipse transform="matrix(0.1637 -0.9865 0.9865 0.1637 10.8322 34.4836)" class="st0" cx="25.8" cy="10.9" rx="1.8" ry="1.7"/>
		</g>
		<g>
			<ellipse transform="matrix(0.922 -0.3872 0.3872 0.922 -3.3977 9.1375)" class="st0" cx="21" cy="13" rx="1.6" ry="2.3"/>
		</g>
		<g>
			<ellipse transform="matrix(0.4636 -0.8861 0.8861 0.4636 5.2785 41.6294)" class="st0" cx="37" cy="16.5" rx="1.4" ry="1.2"/>
		</g>
	</g>
</g>
</svg>
