<?xml version="1.0" encoding="utf-8"?>
<!-- Generator: Adobe Illustrator 21.1.0, SVG Export Plug-In . SVG Version: 6.00 Build 0)  -->
<svg version="1.1" id="Layer_1" xmlns="http://www.w3.org/2000/svg" xmlns:xlink="http://www.w3.org/1999/xlink" x="0px" y="0px"
	 viewBox="0 0 36 40" style="enable-background:new 0 0 36 40;" xml:space="preserve">
<style type="text/css">
	.st0{fill:#4288D5;}
</style>
<path class="st0" d="M8.2,14.9c-0.2,3-4.7,3.1-4.7,0C3.3,11.9,8,11.9,8.2,14.9c0.1,1,1.6,1,1.5,0C9.6,12.8,8,11,5.7,11
	c-2.1,0-3.9,1.8-3.9,3.9s1.7,3.8,3.7,3.9c2.3,0.1,4-1.7,4.1-3.9C9.8,14,8.2,14,8.2,14.9z M5.3,21.2c1.3-1,1.3,1.1,1.3,1.7
	c0,1,0,1.9,0,2.9c0,1.3-0.3,2.8,0.8,3.8c1.1,0.9,3,0.6,4.4,0.6c0.5,0,1.3-0.1,1.8,0c1.1,0.3,0.9,1,0.9,1.7c0,1.4,0.2,3.1,0,4.5
	c-0.3,1.6-2.1,1.2-2.3-0.2c-0.1-0.7,0.1-1.5,0-2.2c-0.3-1.7-1.8-2-3.3-2c-1.2,0-3.5,0.5-4-1c-0.2-0.5,0-1.4,0-1.9c0-1,0-2.1,0-3.1
	C4.9,24.8,4.4,22.1,5.3,21.2c0.7-0.7-0.4-1.8-1.1-1.1c-1.2,1.2-0.9,3.2-0.9,4.8c0,1.9-0.1,3.9,0,5.8c0.1,2,1.4,2.6,3.2,2.6
	c0.9,0,2-0.1,2.9,0c1.4,0.2,1.2,1.3,1.2,2.3c0,1,0.1,1.8,0.9,2.5c0.8,0.7,2,1,3,0.5c1.8-0.9,1.5-3.2,1.5-4.9c0-1.6,0.5-4.2-1.4-5
	c-1.7-0.8-3.8,0.2-5.5-0.2c-1.3-0.3-1.1-1.3-1.1-2.2c0-1.2,0-2.4,0-3.7c0-0.9-0.1-1.7-0.7-2.4c-0.9-0.9-2.2-0.9-3.2-0.1
	C3.4,20.7,4.5,21.8,5.3,21.2z M26.3,15c0.1,2.1,1.7,3.9,3.9,3.9c2.1,0,3.9-1.8,3.9-3.9s-1.7-3.8-3.7-3.9C28.1,11,26.4,12.8,26.3,15
	c-0.1,1,1.5,1,1.5,0c0.2-3,4.7-3.1,4.7,0s-4.6,3-4.7,0C27.8,14,26.2,14,26.3,15z M31.8,20.1c-1.9-1.5-3.9,0.1-4,2.2
	c0,0.9,0,1.9,0,2.9c0,0.8,0.2,1.8,0,2.5c-0.3,1.2-1.6,0.9-2.4,0.9c-1,0-2-0.1-3,0c-2.1,0.1-2.5,1.8-2.5,3.5c0,1.6-0.5,4.1,0.4,5.6
	c1.2,1.9,4.3,1.6,4.9-0.7c0.2-0.8-0.1-1.8,0.1-2.6c0.3-1.4,1.6-1,2.6-1c1.8,0,4.3,0.3,4.7-2c0.3-1.8,0-3.9,0-5.8
	C32.6,23.9,33.1,21.4,31.8,20.1c-0.7-0.7-1.8,0.4-1.1,1.1c0.8,0.8,0.4,3,0.4,4c0,1.6,0,3.3,0,4.9c0,0.7,0.2,1.3-0.8,1.6
	c-0.5,0.2-1.4,0-1.9,0c-1.3,0-3.1-0.3-4,0.8c-1.1,1.2,0.2,3.9-1.4,4.6c-2,0.9-1.5-3.2-1.5-4.1c0-1.4-0.4-3.1,1.5-3.1
	c1.4,0,3,0.2,4.4,0c2-0.4,2-2.1,2-3.7c0-1,0-2,0-2.9c0-0.5-0.2-3.3,1.3-2.2C31.5,21.8,32.6,20.8,31.8,20.1z M23.3,25.4
	c-2.1,0-4.1,0-6.2,0c-1.2,0-2.5,0-3.7,0c-0.2,0-0.5,0-0.7,0c-1.4-0.2-1.5-2,0-2.3c0.6-0.1,1.3,0,1.9,0c1.4,0,2.9,0,4.3,0
	c1.2,0,2.3,0,3.5,0c0.3,0,0.5,0,0.8,0C24.6,23.3,24.9,25.2,23.3,25.4c-1,0.1-1,1.6,0,1.5c3.4-0.3,3.4-5.2,0-5.4
	c-2.5-0.1-5.1,0-7.6,0c-2.1,0-5.4-0.4-5.5,2.6c-0.1,3,3,2.8,5,2.8c2.7,0,5.4,0,8.2,0C24.3,26.9,24.3,25.4,23.3,25.4z M18,38.6
	L18,38.6c-0.3,0-0.5-0.2-0.5-0.5V26.7c0-0.3,0.2-0.5,0.5-0.5l0,0c0.3,0,0.5,0.2,0.5,0.5V38C18.5,38.2,18.3,38.6,18,38.6z M10.7,9.6
	c1.9,0.4,4.2,0.2,6.1,0.1c3-0.1,3.2-2.8,3.1-5.2c0-1.3-0.5-2.4-1.7-3.1c-0.9-0.4-1.9-0.3-2.8-0.3c-2.1,0-5.2-0.6-6.5,1.5
	C8.3,3.7,8.4,5.2,8.5,6.4c0,0.5,0.2,0.9,0.1,1.4C8.5,8.3,8.2,8.9,8.1,9.4C7.9,9.9,8.5,10.6,9,10.3c0.7-0.3,1.4-0.5,2.1-0.8
	C12,9.1,11.6,7.7,10.7,8C10,8.3,9.3,8.6,8.6,8.9c0.3,0.3,0.6,0.6,0.9,0.9c0.3-0.8,0.8-1.6,0.7-2.4c-0.1-1-0.3-2.1-0.2-3.1
	c0.2-1.7,1.5-1.6,2.7-1.6s2.4-0.1,3.6,0c0.4,0,0.9,0,1.3,0.2c0.8,0.5,0.8,1.2,0.8,2c0,1.3,0.3,3.1-1.5,3.3c-1,0.1-2,0-2.9,0
	c-0.9,0-1.9,0.1-2.8-0.1C10.1,7.8,9.7,9.3,10.7,9.6z M12,5.1c1.6,0,3.1,0,4.7,0c1,0,1-1.5,0-1.5c-1.6,0-3.1,0-4.7,0
	C11,3.6,11,5.1,12,5.1L12,5.1z M12,7.1c1,0,2.1,0,3.1,0s1-1.5,0-1.5s-2.1,0-3.1,0C11,5.5,11,7.1,12,7.1L12,7.1z M24.3,18.7
	c1,0,1-1.5,0-1.5C23.3,17.1,23.3,18.7,24.3,18.7L24.3,18.7z M22.7,18.7c-0.9,0.2-1.8,0.1-2.7,0.1c-1.2,0-2.4,0-3.5,0
	c-1.6-0.1-2.3-0.9-2.3-2.4c0-1.2-0.3-3,0.8-3.8c0.8-0.6,2-0.4,2.9-0.4c1.2,0,2.4,0,3.6,0c1.5,0,2.4,0.6,2.5,2.2
	c0.1,1.1,0.2,2.4-0.2,3.4c-0.1,0.3,0,0.5,0.2,0.8c0.4,0.5,0.9,1.1,1.3,1.6c0.2-0.4,0.4-0.9,0.5-1.3c-1-0.1-2-0.1-2.9-0.2
	c-1-0.1-1,1.5,0,1.5c1,0.1,2,0.1,2.9,0.2c0.7,0.1,0.9-0.8,0.5-1.3c-0.4-0.5-0.9-1.1-1.3-1.6c0.1,0.3,0.1,0.5,0.2,0.8
	c0.4-1.1,0.3-2.4,0.3-3.6c0-1.3-0.3-2.6-1.5-3.4c-1.7-1.2-4.9-0.6-6.9-0.6c-1,0-2-0.1-3,0.5c-1.2,0.7-1.6,2-1.6,3.4
	c0,1.1-0.2,2.5,0.2,3.5c0.5,1.4,1.8,2.2,3.3,2.3c1.2,0.1,2.4,0,3.6,0c1.1,0,2.3,0.1,3.4-0.1C24,20,23.6,18.5,22.7,18.7z M22,13.4
	c-1.8,0-3.6,0-5.4,0c-1,0-1,1.5,0,1.5c1.8,0,3.6,0,5.4,0C23,14.9,23,13.4,22,13.4L22,13.4z M22,15.6c-1.2,0-2.4,0-3.6,0
	c-1,0-1,1.5,0,1.5c1.2,0,2.4,0,3.6,0C23,17.3,23,15.6,22,15.6L22,15.6z"/>
</svg>
