<?xml version="1.0" encoding="utf-8"?>
<!-- Generator: Adobe Illustrator 22.1.0, SVG Export Plug-In . SVG Version: 6.00 Build 0)  -->
<svg version="1.1" id="Layer_1" xmlns="http://www.w3.org/2000/svg" xmlns:xlink="http://www.w3.org/1999/xlink" x="0px" y="0px"
	 viewBox="0 0 40 33" style="enable-background:new 0 0 40 33;" xml:space="preserve">
<style type="text/css">
	.st0{fill:#4288D5;}
	.st1{fill:#4288D5;stroke:#231F20;stroke-miterlimit:10;}
</style>
<path class="st0" d="M8.1,2.6c2.2,0.3,4.5,0.5,6.7,0.8s5.6,0.1,7.4,1.8c2.1,2,1.7,5,1.7,7.7c0,3,0,6,0,9.1c0,2.8,0.2,6.1-2.6,7.7
	c-2,1.1-5.3,0-7.4-0.4c-2.3-0.4-4.6-0.6-6.9-1.1c-3.6-0.8-4-4.3-4-7.4c0-3.3,0-6.7,0-10C3.1,7.3,3.4,2.3,8.1,2.6
	c1.2,0.1,1.2-1.8,0-1.9c-8.6-0.6-6.9,11.7-6.9,17c0,2.7-0.4,5.9,0.8,8.5c1.6,3.4,4.6,3.7,7.9,4.3c2.9,0.5,5.7,1,8.6,1.4
	c4.4,0.6,7.3-3.3,7.4-7.4c0.1-2.7,0-5.4,0-8.2c0-2.6,0.3-5.5-0.1-8.1c-0.4-2.4-1.8-4.7-4.1-5.7C20.6,2,19.2,2,18,1.8
	C14.7,1.4,11.5,1,8.2,0.6C6.9,0.6,6.9,2.5,8.1,2.6z"/>
<path class="st0" d="M18.6,16.4c-0.1,2.8-1.5,6.9-5,6.9c-3.4,0-5-4-5-6.9s1.6-6.9,5-6.9S18.5,13.5,18.6,16.4c0,1.2,1.9,1.2,1.9,0
	c-0.1-3.9-2.3-8.7-6.9-8.8c-4.5,0-6.9,4.9-6.9,8.8s2.4,8.8,6.9,8.8s6.8-4.9,6.9-8.8C20.5,15.2,18.6,15.2,18.6,16.4z"/>
<ellipse class="st0" cx="13.6" cy="16.4" rx="2.8" ry="3.7"/>
<path class="st0" d="M13.1,3.2c3.8,2.9,7.6,5.7,11.4,8.6c1,0.7,1.9-0.9,1-1.6C21.6,7.3,17.8,4.4,14,1.5C13.1,0.8,12.1,2.4,13.1,3.2
	L13.1,3.2z"/>
<path class="st0" d="M21.8,31.5c2-0.3,4.1-0.6,6.1-0.9s4.2-0.3,6.1-1.1c5.6-2.2,4.7-8.7,4.7-13.5c0-5,0.9-11.6-4.7-14.2
	c-1.5-0.7-3.1-0.7-4.7-0.7C26.9,1,24.6,1,22.2,0.9C17.5,0.8,12.8,0.7,8,0.6c-1.2,0-1.2,1.9,0,1.9C15.6,2.7,23.1,2.7,30.7,3
	c3,0.1,5.3,2.1,5.9,5.1c0.3,1.7,0.1,3.6,0.1,5.3c0,2.4,0,4.8,0,7.2c0,2.6-0.3,5.2-2.7,6.7c-1.8,1.1-4.7,1.1-6.7,1.4
	s-4.1,0.6-6.1,0.9C20.1,29.9,20.6,31.7,21.8,31.5L21.8,31.5z"/>
<path class="st0" d="M24.9,10.6c4.3,0,8.6-0.1,12.9-0.1c1.2,0,1.2-1.9,0-1.9c-4.3,0-8.6,0.1-12.9,0.1C23.7,8.7,23.7,10.6,24.9,10.6
	L24.9,10.6z"/>
<path class="st1" d="M24.9,24.6"/>
<path class="st0" d="M24.9,22.5c4.3-0.4,8.6-0.7,12.9-1.1c1.2-0.1,1.2-2,0-1.9c-4.3,0.4-8.6,0.7-12.9,1.1
	C23.7,20.7,23.7,22.6,24.9,22.5L24.9,22.5z"/>
<path class="st0" d="M28.7,9.6c0,3.8,0,7.7,0,11.5c0,0.5,0.4,1,0.9,0.9c1.4-0.1,2.8-0.2,4.3-0.4c0.5,0,0.9-0.4,0.9-0.9
	c0-3.8,0-7.5,0-11.3c0-0.5-0.4-1-0.9-0.9c-1.4,0-2.8,0.1-4.3,0.1c-1.2,0-1.2,1.9,0,1.9c1.4,0,2.8-0.1,4.3-0.1
	c-0.3-0.3-0.6-0.6-0.9-0.9c0,3.8,0,7.5,0,11.3c0.3-0.3,0.6-0.6,0.9-0.9c-1.4,0.1-2.8,0.2-4.3,0.4c0.3,0.3,0.6,0.6,0.9,0.9
	c0-3.8,0-7.7,0-11.5C30.6,8.4,28.7,8.4,28.7,9.6z"/>
</svg>
