<?xml version="1.0" encoding="utf-8"?>
<!-- Generator: Adobe Illustrator 21.1.0, SVG Export Plug-In . SVG Version: 6.00 Build 0)  -->
<svg version="1.1" id="Layer_1" xmlns="http://www.w3.org/2000/svg" xmlns:xlink="http://www.w3.org/1999/xlink" x="0px" y="0px"
	 viewBox="0 0 36 40" style="enable-background:new 0 0 36 40;" xml:space="preserve">
<path d="M19.9,15.9c2.9,0,5.7,0,8.6,0c1.4,0,3-0.2,4.1,0.7c1.2,1,0.7,1.7,0.5,2.9c-0.8,3.3-1.5,6.7-2.3,10c-0.5,2.2-0.6,6.5-3.2,7.4
	c-0.9,0.3-2,0.2-2.9,0.2c-1.6,0-3.2,0-4.8,0c-3.3,0-6.5,0-9.8,0c-1.4,0-2.9-0.1-3.4-1.6c-0.3-0.8-0.4-1.7-0.6-2.5
	c-0.8-3.5-1.5-7-2.3-10.4c-0.3-1.4-0.8-2.8-0.9-4.2c-0.2-1.8,1.7-2.4,3.3-2.5c3.1-0.1,6.3,0,9.4,0c1.2,0,1.2-1.8,0-1.8
	c-3.2,0-6.3-0.1-9.5,0c-2,0-4.1,0.7-4.9,2.7c-0.4,1.1-0.1,1.9,0.1,2.9c0.8,3.8,1.7,7.6,2.5,11.4c0.6,2.8,0.7,6.8,4,7.7
	c1,0.3,2.2,0.2,3.3,0.2c1.9,0,3.8,0,5.7,0c3.1,0,6.3,0.1,9.4,0c2.2-0.1,4.4-1.1,5-3.4c0.3-0.9,0.4-1.9,0.6-2.8
	c0.9-3.9,1.8-7.8,2.6-11.6c0.2-1,0.7-2.2,0.7-3.3c-0.1-2.5-2.8-3.7-4.9-3.8c-3.4-0.1-6.9,0-10.4,0C18.7,14.1,18.7,15.9,19.9,15.9
	L19.9,15.9z"/>
<path d="M18.1,18.3c-1.6,0-0.9-6.4-0.9-7.3c0-1.6,0-3.1,0-4.7c0-0.5,0-1,0-1.5c0-0.7-0.1-1.2,0.9-1.2c1,0,0.8,0.4,0.9,1.1
	c0,0.5,0,1,0,1.5c0,1.5,0,3.1,0,4.6s0,3.1,0,4.6c0,1.1,0.4,2.7-1.1,2.9c-1.2,0.2-0.7,1.9,0.5,1.8c3.2-0.4,2.5-4.4,2.5-6.7
	c0-3,0.1-6.1,0-9.1c-0.2-3.6-5.2-3.8-5.4-0.1c-0.2,2.8,0,5.7,0,8.5c0,2.3-0.9,7.4,2.7,7.4C19.2,20.1,19.2,18.3,18.1,18.3z"/>
<path d="M2.4,21.3c9.1,0,18.2,0,27.4,0c1.3,0,2.7,0,4,0c1.2,0,1.2-1.8,0-1.8c-9.1,0-18.2,0-27.4,0c-1.3,0-2.7,0-4,0
	C1.2,19.5,1.2,21.3,2.4,21.3L2.4,21.3z"/>
<path d="M3.5,26.3c9.5,0,18.9,0,28.4,0c1.2,0,1.2-1.8,0-1.8c-9.5,0-18.9,0-28.4,0C2.3,24.4,2.3,26.3,3.5,26.3L3.5,26.3z"/>
<path d="M4.6,31.2c9,0,17.9,0,26.9,0c1.2,0,1.2-1.8,0-1.8c-9,0-17.9,0-26.9,0C3.4,29.4,3.4,31.2,4.6,31.2L4.6,31.2z"/>
<path d="M5.6,35.9c8.3,0,16.5,0,24.8,0c1.2,0,1.2-1.8,0-1.8c-8.3,0-16.5,0-24.8,0C4.4,34.1,4.4,35.9,5.6,35.9L5.6,35.9z"/>
<circle cx="18.1" cy="19.2" r="3.5"/>
<path d="M5.8,14.7c-0.3-1.9,0.3-3.9,2.1-4.7c0.3-0.1,0.5-0.5,0.5-0.8c0-1.5,0-3,0-4.5C8,5,7.7,5.3,7.4,5.6c1.4,0,2.7,0,4.1,0
	c-0.3-0.3-0.6-0.6-0.9-0.9c0,1.6,0,3.1,0,4.7c0,0.5,0.4,0.9,0.9,0.9c1.7,0.1,1.8,3.2,1.6,4.6c-0.1,1.2,1.7,1.2,1.8,0
	c0.3-2.5-0.2-6.3-3.4-6.5c0.3,0.3,0.6,0.6,0.9,0.9c0-1.6,0-3.1,0-4.7c0-0.5-0.4-0.9-0.9-0.9c-1.4,0-2.7,0-4.1,0
	c-0.5,0-0.9,0.4-0.9,0.9c0,1.5,0,3,0,4.5C6.6,9,6.8,8.7,6.9,8.4C4.4,9.6,3.6,12.6,4,15.2C4.2,16.4,6,15.9,5.8,14.7L5.8,14.7z"/>
<path d="M11.5,3.8c-0.9,0-1.9,0-2.8,0c-0.3,0-1.2,0.2-1.5,0C7.1,3.7,6.9,3.1,7.1,2.9c0.1-0.1,0.7,0,0.9,0c0.6,0,1.3,0,1.9,0
	c0.3,0,1.2-0.2,1.5,0c0.2,0.1,0.3,0.8-0.1,0.9c-1.2,0.2-0.7,1.9,0.5,1.8c2.3-0.4,2.1-4.3-0.2-4.5C10.1,1,8.4,0.9,7,1.1
	C4.7,1.4,4.7,5.3,7,5.6c1.5,0.2,3.1,0,4.6,0C12.7,5.6,12.7,3.8,11.5,3.8z"/>
<path d="M7.4,8.3c1.4,0,2.7,0,4.1,0c1.2,0,1.2-1.8,0-1.8c-1.4,0-2.7,0-4.1,0C6.2,6.4,6.2,8.3,7.4,8.3L7.4,8.3z"/>
<path d="M22.9,14.7c-0.3-1.9,0.3-3.9,2.1-4.7c0.3-0.1,0.5-0.5,0.5-0.8c0-1.5,0-3,0-4.5c-0.3,0.3-0.6,0.6-0.9,0.9c1.4,0,2.7,0,4.1,0
	c-0.3-0.3-0.6-0.6-0.9-0.9c0,1.6,0,3.1,0,4.7c0,0.5,0.4,0.9,0.9,0.9c1.7,0.1,1.8,3.2,1.6,4.6c-0.1,1.2,1.7,1.2,1.8,0
	c0.3-2.5-0.2-6.3-3.4-6.5c0.3,0.3,0.6,0.6,0.9,0.9c0-1.6,0-3.1,0-4.7c0-0.5-0.4-0.9-0.9-0.9c-1.4,0-2.7,0-4.1,0
	c-0.5,0-0.9,0.4-0.9,0.9c0,1.5,0,3,0,4.5C23.7,9,23.9,8.7,24,8.4c-2.6,1.2-3.4,4.1-2.9,6.8C21.3,16.4,23.1,15.9,22.9,14.7L22.9,14.7
	z"/>
<path d="M28.6,3.8c-0.9,0-1.9,0-2.8,0c-0.3,0-1.2,0.2-1.5,0c-0.1-0.1-0.3-0.7-0.1-0.9c0.1-0.1,0.7,0,0.9,0c0.6,0,1.3,0,1.9,0
	c0.3,0,1.2-0.2,1.5,0c0.2,0.1,0.3,0.8-0.1,0.9c-1.2,0.2-0.7,1.9,0.5,1.8c2.3-0.4,2.1-4.3-0.2-4.5c-1.4-0.1-3.1-0.2-4.6,0
	c-2.3,0.3-2.3,4.2,0,4.5c1.5,0.2,3.1,0,4.6,0C29.8,5.6,29.8,3.8,28.6,3.8z"/>
<path d="M24.5,8.3c1.4,0,2.7,0,4.1,0c1.2,0,1.2-1.8,0-1.8c-1.4,0-2.7,0-4.1,0C23.3,6.4,23.3,8.3,24.5,8.3L24.5,8.3z"/>
</svg>
