<?xml version="1.0" encoding="utf-8"?>
<!-- Generator: Adobe Illustrator 22.1.0, SVG Export Plug-In . SVG Version: 6.00 Build 0)  -->
<svg version="1.1" id="Layer_1" xmlns="http://www.w3.org/2000/svg" xmlns:xlink="http://www.w3.org/1999/xlink" x="0px" y="0px"
	 viewBox="0 0 16 16" style="enable-background:new 0 0 16 16;" xml:space="preserve">
<style type="text/css">
	.st0{fill:#EB343C;}
</style>
<g id="Layer_16">
	<g>
		<g>
			<path class="st0" d="M8.5,1C4.7,1,2.6,3.5,2.6,6.1c0,1.2,0.7,2.8,1.8,3.3c0.2,0.1,0.3,0,0.3-0.1s0.2-0.7,0.3-1
				c0-0.1,0-0.2-0.1-0.2C4.6,7.7,4.3,6.9,4.3,6.2c0-1.9,1.5-3.7,4-3.7C10.5,2.5,12,3.9,12,6c0,2.3-1.2,3.9-2.8,3.9
				c-0.9,0-1.5-0.7-1.3-1.5c0.2-1,0.7-2.1,0.7-2.8S8.2,4.4,7.5,4.4c-0.9,0-1.6,0.9-1.6,2.1c0,0.8,0.3,1.3,0.3,1.3s-0.9,3.6-1,4.2
				c-0.3,1.1,0,2.9,0.1,3.1c0,0.1,0.1,0.1,0.2,0s1.2-1.6,1.4-2.7c0.1-0.4,0.6-2,0.6-2c0.3,0.5,1.1,1,2,1c2.7,0,4.6-2.4,4.6-5.3
				C14,3.1,11.6,1,8.5,1z"/>
		</g>
	</g>
</g>
</svg>
