<?xml version="1.0" encoding="utf-8"?>
<!-- Generator: Adobe Illustrator 22.1.0, SVG Export Plug-In . SVG Version: 6.00 Build 0)  -->
<svg version="1.1" id="Layer_1" xmlns="http://www.w3.org/2000/svg" xmlns:xlink="http://www.w3.org/1999/xlink" x="0px" y="0px"
	 viewBox="0 0 16 16" style="enable-background:new 0 0 16 16;" xml:space="preserve">
<style type="text/css">
	.st0{fill:#EB343C;}
</style>
<g id="twitter">
	<g>
		<g>
			<path class="st0" d="M15,3.6C14.5,3.8,13.9,4,13.4,4c0.6-0.4,1-0.9,1.2-1.6c-0.5,0.3-1.2,0.6-1.8,0.7c-0.5-0.6-1.3-0.9-2.1-0.9
				C9.1,2.2,7.9,3.5,7.9,5c0,0.2,0,0.4,0.1,0.6c-2.4-0.1-4.4-1.2-5.8-3c-0.3,0.6-0.4,1-0.4,1.6c0,1,0.5,1.9,1.3,2.4
				c-0.5,0-0.9-0.1-1.3-0.3l0,0c0,1.4,1,2.5,2.3,2.8c-0.3,0-0.6,0-0.8,0s-0.4,0-0.5,0c0.4,1.1,1.4,1.9,2.6,2c-1,0.8-2.2,1.2-3.5,1.2
				c-0.2,0-0.5,0-0.7,0c1.3,0.8,2.7,1.3,4.3,1.3c5.2,0,8.1-4.3,8.1-8.1c0-0.1,0-0.2,0-0.4C14.1,4.6,14.6,4.1,15,3.6z"/>
		</g>
	</g>
</g>
</svg>
