<?xml version="1.0" encoding="utf-8"?>
<!-- Generator: Adobe Illustrator 22.1.0, SVG Export Plug-In . SVG Version: 6.00 Build 0)  -->
<svg version="1.1" xmlns="http://www.w3.org/2000/svg" xmlns:xlink="http://www.w3.org/1999/xlink" x="0px" y="0px"
	 viewBox="0 0 16 16" style="enable-background:new 0 0 16 16;" xml:space="preserve">
<style type="text/css">
	.st0{display:none;}
	.st1{display:inline;}
	.st2{fill:#EB343C;}
	.st3{display:inline;fill:#EB343C;}
</style>
<g id="Layer_1" class="st0">
	<g class="st1">
		<path class="st2" d="M14.4,8c0,2.8-1.7,5.4-4.4,6.3c-2.7,1-5.7,0.2-7.5-2C0.7,10.2,0.4,7,1.9,4.6c1.4-2.4,4.3-3.7,7.1-3.2
			C12.1,2,14.3,4.8,14.4,8c0,0.6,0.9,0.6,0.9,0c-0.1-3.2-2-6.1-5.1-7.2c-3-1.1-6.5-0.1-8.5,2.3C-0.3,5.6-0.6,9.3,1.1,12
			c1.6,2.7,4.8,4.1,7.9,3.5c3.6-0.6,6.2-3.9,6.3-7.5C15.3,7.4,14.4,7.4,14.4,8z"/>
	</g>
	<g class="st1">
		<path class="st2" d="M4,7.9c0.9,1.2,1.9,2.4,2.8,3.6c0.5,0.6,1.5,0.5,1.9,0c2.3-2.3,4.6-4.6,6.9-6.9c1.3-1.3-0.7-3.2-1.9-1.9
			C11.3,5,9.1,7.3,6.8,9.6c0.6,0,1.3,0,1.9,0C7.8,8.4,6.8,7.2,5.9,6C5.5,5.4,4.5,5.5,4,6C3.4,6.6,3.5,7.4,4,7.9L4,7.9z"/>
	</g>
</g>
<g id="Layer_2" class="st0">
	<g class="st1">
		<path class="st2" d="M12.6,14c-2.8,0-5.5,0-8.3,0c-0.4,0-0.7,0-1.1,0c-1.4-0.1-2.3-1.3-2.4-2.6c-0.1-1.4,0-2.8,0-4.3
			c0-1.6-0.3-3.6,1.5-4.4C3.4,2.2,5,2.4,6.1,2.4c1.7,0,3.4,0,5.1,0c1.6,0,3.4,0,3.9,1.9c0.2,0.6,0.1,1.3,0.1,1.9c0,1,0,2,0,3
			c0,0.7,0,1.4,0,2C15.1,12.8,14.1,13.9,12.6,14c-0.5,0-0.5,0.8,0,0.8c1.3,0,2.4-0.7,3-1.9c0.4-0.7,0.4-1.4,0.4-2.2
			c0-1.8,0-3.6,0-5.4c0-2-1.3-3.7-3.4-3.8c-1.5,0-2.9,0-4.4,0c-1.5,0-3.1,0-4.6,0C1.5,1.7,0,3.2,0,5.2C0,7,0,8.7,0,10.5
			c0,0.7,0,1.4,0.2,2.1c0.4,1.1,1.5,2,2.7,2.2c0.6,0.1,1.2,0,1.7,0c1,0,2,0,3.1,0c1.6,0,3.3,0,4.9,0C13.1,14.8,13.1,14,12.6,14z"/>
	</g>
	<g class="st1">
		<path class="st2" d="M0.4,5.5c4.4,0,8.8,0,13.2,0c0.6,0,1.3,0,1.9,0c0.5,0,0.5-0.8,0-0.8c-4.4,0-8.8,0-13.2,0c-0.6,0-1.3,0-1.9,0
			C-0.2,4.6-0.2,5.5,0.4,5.5L0.4,5.5z"/>
	</g>
	<circle class="st3" cx="3.5" cy="3.7" r="0.5"/>
	<circle class="st3" cx="5" cy="3.7" r="0.5"/>
	<circle class="st3" cx="6.5" cy="3.7" r="0.5"/>
	<path class="st3" d="M11.8,7.8H4.1c-0.2,0-0.4-0.2-0.4-0.4V7.4C3.8,7.2,3.9,7,4.1,7h7.7c0.2,0,0.4,0.2,0.4,0.4v0.1
		C12.1,7.6,12,7.8,11.8,7.8z"/>
	<path class="st3" d="M8.1,9.9h-4c-0.2,0-0.4-0.2-0.4-0.4V9.4c0-0.2,0.2-0.4,0.4-0.4h4c0.2,0,0.4,0.2,0.4,0.4v0.1
		C8.5,9.7,8.3,9.9,8.1,9.9z"/>
	<path class="st3" d="M8.1,11.9h-4c-0.2,0-0.4-0.2-0.4-0.4v-0.1c0-0.2,0.2-0.4,0.4-0.4h4c0.2,0,0.4,0.2,0.4,0.4v0.1
		C8.5,11.8,8.3,11.9,8.1,11.9z"/>
</g>
<g id="Layer_3">
	<g>
		<path class="st2" d="M1.6,3.4c1-0.4,2-0.7,3.1-1.1c1-0.3,2.1-0.9,3.1-1.1c0.2,0,0.2-0.1,0.4,0c0.2,0,0.4,0.2,0.6,0.2
			c1.9,0.6,3.7,1.3,5.6,1.9c-0.1-0.2-0.2-0.3-0.3-0.5C13.9,6.1,13,9.7,11,12.2c-0.7,0.9-1.6,1.5-2.6,2c-0.3,0.1-0.3,0.2-0.7,0
			c-1.1-0.5-2.1-1.4-2.8-2.3c-2-2.5-2.7-5.8-3-8.9C1.9,2.4,0.9,2.4,1,3c0.4,4.3,1.8,9.9,6.1,12c0.2,0.1,0.5,0.3,0.7,0.3
			c0.9,0.1,2.1-0.7,2.7-1.3c1.9-1.5,2.9-3.9,3.5-6.2C14.6,6.2,14.9,4.6,15,3c0-0.2-0.2-0.4-0.3-0.5c-1.9-0.7-3.9-1.3-5.8-2
			C8.6,0.4,8.3,0.2,8,0.2c-0.5,0-1.2,0.4-1.6,0.5C5.8,1,5.3,1.1,4.8,1.3C3.7,1.7,2.5,2.1,1.3,2.5C0.8,2.7,1,3.6,1.6,3.4z"/>
	</g>
	<circle class="st2" cx="8.5" cy="4.1" r="1.1"/>
	<circle class="st2" cx="8.5" cy="7.2" r="1.1"/>
	<circle class="st2" cx="8.5" cy="10.3" r="1.1"/>
</g>
</svg>
