<?xml version="1.0" encoding="utf-8"?>
<!-- Generator: Adobe Illustrator 21.1.0, SVG Export Plug-In . SVG Version: 6.00 Build 0)  -->
<svg version="1.1" id="Layer_1" xmlns="http://www.w3.org/2000/svg" xmlns:xlink="http://www.w3.org/1999/xlink" x="0px" y="0px"
	 viewBox="0 0 18.6 36.1" style="enable-background:new 0 0 18.6 36.1;" xml:space="preserve">
<path d="M9.8,4.8c0,1.3-0.8,2.9-2.3,2.9S5.1,6.1,5.1,4.8s0.9-3,2.4-3S9.8,3.4,9.8,4.8c0,0.9,1.5,0.9,1.4,0c-0.1-2.1-1.4-4.4-3.8-4.4
	c-2.3,0-3.8,2.2-3.8,4.4C3.6,6.9,5,9,7.2,9.2c2.4,0.1,3.9-2.2,4-4.4C11.3,3.9,9.9,3.9,9.8,4.8z M4.9,7.2c-1.4,0.4-2.3,1.8-2.6,3
	C2,11.3,2,12.5,2.1,13.6c0.1,1.5,0.2,3.1,0.8,4.5s3.1,4.6,4.9,2.7c0.7-0.8,0.4-2.3,0-3.2c-0.3-0.8-0.6-1.3-0.6-2.2
	c0-1,0.1-1.9,0.1-2.9c0.1-0.9-1.4-0.9-1.4,0c-0.1,1.2-0.2,2.4-0.1,3.5c0.1,1,0.6,1.6,0.8,2.5c0.1,0.5,0.3,1.2-0.2,1.4
	c-0.4,0.2-1.1-0.5-1.3-0.8c-0.6-0.7-1-1.5-1.2-2.3C3.4,15,2.6,9.3,5.3,8.6C6.1,8.3,5.8,7,4.9,7.2L4.9,7.2z M9.1,8.6
	c-0.1,0,0,0,0.2,0.1c0.3,0.2,0.6,0.8,0.8,1.3c1.4,3.4,1.2,7.6,1.1,11.2c0.2-0.2,0.5-0.5,0.7-0.7c-3.1,0-6.1,0-9.2,0
	c0.2,0.2,0.5,0.5,0.7,0.7c0-2.5,0-5.1,0-7.6c0-0.9-1.4-0.9-1.4,0c0,2.5,0,5.1,0,7.6C2,21.6,2.3,22,2.7,22c3.1,0,6.1,0,9.2,0
	c0.4,0,0.7-0.3,0.7-0.7c0.1-3.9,0.4-8.6-1.4-12.2c-0.4-0.8-1.1-1.9-2.1-1.9C8.2,7.2,8.2,8.6,9.1,8.6L9.1,8.6z M10.7,12
	c0.4,1.1,0.9,2.1,1.5,3.1c0.3,0.5,1.2,1.3,1.4,1.8c0.3,0.8-0.6,0.9-1.2,0.9c0.2,0.1,0.4,0.2,0.6,0.4c-0.1-0.2-0.3-0.4-0.4-0.6
	c-0.5-0.8-1.7,0-1.2,0.7c0.6,0.9,1.1,1.2,2.2,0.9c0.9-0.2,1.5-1,1.5-2c0-1.1-1-1.8-1.5-2.7c-0.6-0.9-1.1-1.9-1.4-2.9
	C11.7,10.7,10.3,11.1,10.7,12L10.7,12z M3.1,21.4c0.2,1.7,1.1,3.5,2.5,4.5s2.6,1.6,3.4,3.2c0.6,1.2,0.8,2.1,0.8,3.4
	c0,0.4,0.3,0.7,0.7,0.7c1.6,0,3.1,0,4.7,0c0.4,0,0.8-0.3,0.7-0.7c-0.2-1.5-0.6-3-1.1-4.4c-0.4-1.1-1-2.1-1.7-3.1
	c-0.7-0.9-3.2-2.3-2.9-3.6c0.2-0.9-1.1-1.3-1.4-0.4c-0.3,1.2,0.5,2.5,1.4,3.3c1.1,1,2.1,1.8,2.8,3.2c0.8,1.5,1.3,3.4,1.5,4.9
	c0.2-0.2,0.5-0.5,0.7-0.7c-1.6,0-3.1,0-4.7,0c0.2,0.2,0.5,0.5,0.7,0.7c0-2.4-1-4.9-2.9-6.4c-1.2-1-2.5-1.4-3.2-2.8
	c-0.3-0.7-0.6-1.4-0.7-2.2C4.4,20.1,3,20.5,3.1,21.4L3.1,21.4z M10.3,21.2c0,0.9,0,1.9,0,2.8s1.4,0.9,1.4,0s0-1.9,0-2.8
	C11.7,20.3,10.3,20.3,10.3,21.2L10.3,21.2z M4.9,25.1c0,2.5,0,5,0,7.4c0,0.4,0.3,0.7,0.7,0.7c1.6,0,3.3,0,4.9,0c0.9,0,0.9-1.4,0-1.4
	c-1.6,0-3.3,0-4.9,0c0.2,0.2,0.5,0.5,0.7,0.7c0-2.5,0-5,0-7.4C6.4,24.2,4.9,24.2,4.9,25.1L4.9,25.1z M10.7,32.3
	c-0.3,0.9-0.3,2.2,0.6,2.8c0.9,0.6,2.5,0.4,3.6,0.4c0.9,0,1.9,0.2,2.5-0.6c1-1.4-0.6-2.5-1.7-3c-0.8-0.4-1.6,0.9-0.7,1.2
	c0.6,0.2,0.9,0.6,1.3,0.9c0,0,0,0.1-0.1,0.1l-0.1,0.1c-0.2,0.1,0,0.1,0.4-0.2c-0.1-0.2-1.9,0-2.1,0c-0.6,0-1.4,0.2-2,0
	s-0.5-0.8-0.3-1.3C12.3,31.8,11,31.5,10.7,32.3L10.7,32.3z M5.1,32.3c-0.3,0.9-0.3,2.1,0.6,2.8c0.9,0.6,2.5,0.4,3.6,0.4
	c0.9,0,1.9,0.2,2.4-0.6c1-1.4-0.6-2.5-1.7-3c-0.8-0.4-1.6,0.9-0.7,1.2c0.6,0.2,0.9,0.6,1.3,0.9c0,0,0,0.1-0.1,0.1l-0.1,0.1
	c-0.2,0.1,0,0.1,0.4-0.2c-0.1-0.2-1.9,0-2.1,0c-0.6,0-1.4,0.2-2,0s-0.5-0.8-0.3-1.3C6.8,31.8,5.4,31.5,5.1,32.3L5.1,32.3z"/>
</svg>
