<?xml version="1.0" encoding="utf-8"?>
<!-- Generator: Adobe Illustrator 21.1.0, SVG Export Plug-In . SVG Version: 6.00 Build 0)  -->
<svg version="1.1" id="Layer_1" xmlns="http://www.w3.org/2000/svg" xmlns:xlink="http://www.w3.org/1999/xlink" x="0px" y="0px"
	 viewBox="0 0 16 16" style="enable-background:new 0 0 16 16;" xml:space="preserve">
<style type="text/css">
	.st0{fill:#EB343C;}
</style>
<g id="Layer_13">
	<g>
		<circle class="st0" cx="13.2" cy="7.6" r="0.9"/>
		<path class="st0" d="M8,3.3c-0.5,0-0.9-0.4-0.9-0.9S7.5,1.5,8,1.5s0.9,0.4,0.9,0.9S8.5,3.3,8,3.3z"/>
		<path class="st0" d="M5.4,4C5.3,4,5.2,4,5.2,4C4.9,3.9,4.7,3.8,4.6,3.5C4.5,3.3,4.5,3.1,4.5,2.9C4.6,2.6,4.7,2.4,5,2.3
			c0.2-0.1,0.5-0.2,0.7-0.1c0.2,0.1,0.4,0.2,0.5,0.4l0,0c0.2,0.4,0.1,1-0.3,1.2C5.7,4,5.6,4,5.4,4z"/>
		<path class="st0" d="M3.5,5.9c-0.2,0-0.3,0-0.5-0.1C2.8,5.7,2.7,5.5,2.6,5.2s0-0.5,0.1-0.7S3,4.2,3.3,4.1C3.5,4,3.8,4.1,4,4.2
			c0.2,0.1,0.4,0.3,0.4,0.5c0.1,0.2,0,0.5-0.1,0.7C4.1,5.7,3.8,5.9,3.5,5.9z"/>
		<path class="st0" d="M2.8,8.5c-0.5,0-0.9-0.4-0.9-0.9s0.4-0.9,0.9-0.9s0.9,0.4,0.9,0.9C3.7,8.1,3.3,8.5,2.8,8.5z"/>
		<path class="st0" d="M12.5,5.9c-0.3,0-0.6-0.2-0.8-0.5c-0.1-0.2-0.2-0.5-0.1-0.7s0.2-0.4,0.4-0.5s0.5-0.2,0.7-0.1s0.4,0.2,0.5,0.4
			c0.1,0.2,0.2,0.5,0.1,0.7s-0.2,0.4-0.4,0.5l0,0C12.8,5.9,12.7,5.9,12.5,5.9z"/>
		<path class="st0" d="M10.6,4c-0.2,0-0.3,0-0.5-0.1C9.7,3.6,9.6,3.1,9.8,2.6c0.1-0.2,0.3-0.4,0.5-0.4c0.2-0.1,0.5,0,0.7,0.1
			s0.4,0.3,0.4,0.5c0.1,0.2,0,0.5-0.1,0.7S11,3.9,10.8,3.9C10.8,4,10.7,4,10.6,4z"/>
	</g>
	<g>
		<rect x="7.5" y="8.3" class="st0" width="0.5" height="0.5"/>
		<path class="st0" d="M15,7.6c0-0.7-0.4-1.3-1-1.6c0.4-0.6,0.4-1.3,0.1-1.9c-0.3-0.6-1-0.9-1.7-0.9c0-0.7-0.3-1.3-0.9-1.7
			c-0.6-0.3-1.3-0.3-1.9,0.1C9.3,1,8.7,0.6,8,0.6S6.7,1,6.4,1.6C5.8,1.2,5.1,1.2,4.5,1.5s-0.9,1-0.9,1.7c-0.7,0-1.3,0.3-1.7,0.9
			C1.6,4.7,1.6,5.4,2,6C1.4,6.3,1,6.9,1,7.6c0,2,2.7,2.4,3.3,2.5c0.3,0.8,0.9,1.3,1.2,1.5c-0.1,0.3-0.2,0.5-0.2,0.8
			c0,1.2,1.2,2.3,2.7,2.3s2.7-1,2.7-2.3c0-0.3-0.1-0.5-0.2-0.8c0.3-0.2,1-0.7,1.2-1.5C12.3,10,15,9.6,15,7.6z M5.7,12.3
			c0-0.4,0.2-0.8,0.5-1.1c0,0.4,0.3,0.7,0.7,0.8c0,0.5-0.2,1-0.6,1.4C5.9,13.2,5.7,12.8,5.7,12.3z M6.6,9.1l0.5-0.3V8.7
			c0-0.2,0.1-0.5,0.3-0.7l0.1-0.1L7,7.2c0,0,0-0.1,0-0.2c0,0,0.1,0,0.2,0l0.6,0.6v-1c0-0.1,0.1-0.2,0.2-0.2s0.2,0.1,0.2,0.2v1L8.8,7
			c0,0,0.1,0,0.2,0c0,0,0,0.1,0,0.2L8.5,7.9L8.6,8c0.2,0.2,0.3,0.4,0.3,0.7v1.6v0.4v0.1c0.2,0,0.5,0.2,0.5,0.5s-0.2,0.5-0.5,0.5
			c-0.1,0-0.1,0-0.2-0.1l-0.2-0.1l-0.1,0.2C8.3,11.9,8.2,12,8,12s-0.3-0.1-0.4-0.2l-0.1-0.2l-0.2,0.1c-0.1,0-0.1,0.1-0.2,0.1
			c-0.2,0-0.5-0.2-0.5-0.5s0.2-0.5,0.5-0.5v-0.1v-0.4v-1L6.6,9.1z M6.6,13.8c0.4-0.5,0.6-1.1,0.7-1.7l0,0c0.2,0.2,0.4,0.3,0.6,0.3
			s0.5-0.1,0.6-0.3l0,0c0,0.6,0.3,1.2,0.7,1.7C9,14,8.5,14.1,8,14.1S7,14,6.6,13.8z M9.7,13.5c-0.3-0.4-0.5-0.9-0.6-1.4
			c0.4-0.1,0.6-0.4,0.7-0.8c0.3,0.3,0.5,0.7,0.5,1.1C10.3,12.8,10.1,13.2,9.7,13.5z M11.1,8.5c0.1,0.1,0.3,0.6,0.3,0.9
			c0,0.9-0.8,1.5-1.1,1.7c-0.2-0.3-0.6-0.6-0.9-0.8V8.7c0-0.3-0.1-0.6-0.3-0.8l0.3-0.4C9.5,7.3,9.5,7,9.3,6.8
			C9.1,6.6,8.9,6.6,8.7,6.7C8.7,6.3,8.4,6,8,6S7.3,6.3,7.3,6.7C7.1,6.6,6.9,6.6,6.7,6.8C6.5,7,6.5,7.3,6.6,7.5l0.3,0.4
			C6.8,8.1,6.7,8.3,6.7,8.6L5.4,9.2l1.3,0.4v0.7c-0.4,0.2-0.7,0.5-0.9,0.8c-0.3-0.2-1.1-0.8-1.1-1.7c0-0.3,0.1-0.7,0.3-0.9V8.4
			L4.9,8.2C4.7,8.1,4.6,7.8,4.6,7.6c0-0.3,0.1-0.5,0.3-0.7L5,6.8V6.7C4.9,6.4,4.9,6.1,5.1,5.9s0.4-0.4,0.6-0.4h0.2V5.3
			c0-0.3,0.2-0.5,0.4-0.6c0.2-0.1,0.5-0.2,0.8-0.1l0.1,0.1l0.1-0.1C7.5,4.3,7.7,4.2,8,4.2s0.5,0.1,0.7,0.3l0.1,0.1l0.1-0.1
			c0.3-0.1,0.5-0.1,0.8,0.1c0.2,0.1,0.4,0.4,0.4,0.6v0.2h0.2c0.3,0,0.5,0.2,0.6,0.4C11,6,11.1,6.3,11,6.6l-0.1,0.1L11,6.8
			c0.2,0.2,0.3,0.4,0.3,0.7c0,0.2-0.1,0.5-0.3,0.6l0,0.3L11.1,8.5z M11.8,9.6c0-0.1,0-0.1,0-0.2c0-0.3-0.1-0.7-0.3-1
			c0.2-0.2,0.3-0.5,0.3-0.8s-0.1-0.7-0.4-0.9c0.1-0.3,0-0.7-0.1-1c-0.2-0.3-0.5-0.5-0.8-0.6c-0.1-0.3-0.3-0.6-0.6-0.8
			C9.6,4.1,9.3,4,8.9,4.1C8.7,3.9,8.3,3.8,8,3.8S7.3,3.9,7.1,4.2c-0.3-0.1-0.7,0-1,0.1C5.8,4.4,5.6,4.7,5.5,5.1
			C5.1,5.2,4.8,5.4,4.7,5.7s-0.2,0.7-0.1,1C4.3,6.9,4.2,7.2,4.2,7.6c0,0.3,0.1,0.6,0.3,0.8c-0.2,0.3-0.3,0.7-0.3,1
			c0,0.1,0,0.1,0,0.2c-0.7-0.1-2.7-0.5-2.7-2c0-0.6,0.4-1.1,1-1.3l0.4-0.1L2.5,5.9C2.1,5.5,2,4.8,2.3,4.3s0.9-0.8,1.5-0.6l0.4,0.1
			L4.1,3.4C3.9,2.8,4.2,2.2,4.7,1.9s1.2-0.2,1.6,0.2l0.3,0.3L6.7,2C6.9,1.4,7.4,1,8,1s1.1,0.4,1.3,1l0.1,0.4l0.3-0.3
			c0.4-0.4,1.1-0.5,1.6-0.2s0.8,0.9,0.6,1.5l-0.1,0.4l0.4-0.1c0.6-0.1,1.2,0.1,1.5,0.6s0.2,1.2-0.2,1.6l-0.3,0.3l0.4,0.1
			c0.6,0.2,1,0.7,1,1.3C14.5,9.1,12.5,9.5,11.8,9.6z"/>
	</g>
</g>
</svg>
