<?xml version="1.0" encoding="utf-8"?>
<!-- Generator: Adobe Illustrator 21.1.0, SVG Export Plug-In . SVG Version: 6.00 Build 0)  -->
<svg version="1.1" id="Layer_1" xmlns="http://www.w3.org/2000/svg" xmlns:xlink="http://www.w3.org/1999/xlink" x="0px" y="0px"
	 viewBox="0 0 16 16" style="enable-background:new 0 0 16 16;" xml:space="preserve">
<style type="text/css">
	.st0{fill:#EB343C;}
</style>
<g id="Layer_15">
	<g>
		<g>
			<g>
				<g>
					<path class="st0" d="M7.7,1.8c-1.6,0-2.9,1.3-2.9,2.9c0,0.9,0.4,1.8,1.1,2.3l0.3-0.3c-0.6-0.5-1-1.2-1-2c0-1.4,1.1-2.5,2.5-2.5
						s2.5,1.1,2.5,2.5c0,0.1,0,0.1,0,0.2h0.4c0-0.1,0-0.2,0-0.2C10.7,3.2,9.3,1.8,7.7,1.8z"/>
				</g>
			</g>
			<g>
				<g>
					<path class="st0" d="M7.1,2.9H6.7v0.4h0.4h0.2c0.3,0,0.5,0.2,0.6,0.4H6.7v0.4h1.2C7.8,4.4,7.6,4.6,7.3,4.6H6.9v0.5l0.7,0.7
						l0.3-0.3L7.4,5c0.5,0,0.9-0.4,0.9-0.8h0.4V3.7H8.3c0-0.2-0.1-0.3-0.2-0.4h0.6V2.9H7.3H7.1z"/>
				</g>
			</g>
			<g>
				<g>
					<polygon class="st0" points="5.6,8.6 1.4,8.6 1.4,1 14,1 14,7.5 13.6,7.5 13.6,1.4 1.8,1.4 1.8,8.1 5.6,8.1 					"/>
				</g>
			</g>
			<g>
				<g>
					<polygon class="st0" points="13.2,3.7 12.8,3.7 12.8,2.3 11.3,2.3 11.3,1.8 13.2,1.8 					"/>
				</g>
			</g>
			<g>
				<g>
					<polygon class="st0" points="2.7,3.7 2.3,3.7 2.3,1.8 4.1,1.8 4.1,2.3 2.7,2.3 					"/>
				</g>
			</g>
			<g>
				<g>
					<polygon class="st0" points="4.1,7.7 2.3,7.7 2.3,5.8 2.7,5.8 2.7,7.3 4.1,7.3 					"/>
				</g>
			</g>
			<g>
				<g>
					<rect x="12.8" y="5.8" class="st0" width="0.4" height="0.4"/>
				</g>
			</g>
		</g>
		<g>
			<g>
				<path class="st0" d="M9.8,13.9c-2.5,0-4.5-2-4.5-4.5s2-4.5,4.5-4.5s4.5,2,4.5,4.5S12.3,13.9,9.8,13.9z M9.8,5.2
					c-2.3,0-4.2,1.9-4.2,4.2s1.9,4.2,4.2,4.2S14,11.7,14,9.4S12.2,5.2,9.8,5.2z"/>
				<path class="st0" d="M9.8,14c-2.5,0-4.6-2.1-4.6-4.6s2.1-4.6,4.6-4.6s4.6,2.1,4.6,4.6S12.4,14,9.8,14z M9.8,5
					C7.4,5,5.4,7,5.4,9.4s2,4.4,4.4,4.4s4.4-2,4.4-4.4S12.2,5,9.8,5z M9.8,13.7c-2.4,0-4.3-1.9-4.3-4.3s1.9-4.3,4.3-4.3
					s4.3,1.9,4.3,4.3S12.2,13.7,9.8,13.7z M9.8,5.3c-2.3,0-4.1,1.9-4.1,4.1c0,2.3,1.9,4.1,4.1,4.1s4.1-1.9,4.1-4.1
					C13.9,7.1,12.1,5.3,9.8,5.3z"/>
			</g>
		</g>
		<g>
			<g>
				<g>
					<path class="st0" d="M9.8,13.2C7.7,13.2,6,11.5,6,9.4s1.7-3.8,3.8-3.8s3.8,1.7,3.8,3.8c0,0.8-0.3,1.6-0.7,2.2l-0.3-0.2
						c0.4-0.6,0.7-1.3,0.7-2c0-1.9-1.5-3.4-3.4-3.4S6.5,7.6,6.5,9.4s1.5,3.4,3.4,3.4c0.9,0,1.8-0.4,2.4-1l0.3,0.3
						C11.8,12.8,10.9,13.2,9.8,13.2z"/>
				</g>
			</g>
			<g>
				<g>
					<path class="st0" d="M11.9,7.3H9.2H8.6H7.7v0.4h0.8h0.6c0.5,0,0.9,0.4,1,0.8H7.7V9h2.5c-0.1,0.5-0.5,0.8-1,0.8H8.4v0.5l1.5,1.9
						l0.3-0.3l-1.4-1.8h0.4c0.7,0,1.4-0.5,1.5-1.3H12V8.6h-1.3c0-0.3-0.2-0.6-0.4-0.8H12V7.3H11.9z"/>
				</g>
			</g>
		</g>
	</g>
</g>
</svg>
