<?xml version="1.0" encoding="utf-8"?>
<!-- Generator: Adobe Illustrator 21.1.0, SVG Export Plug-In . SVG Version: 6.00 Build 0)  -->
<svg version="1.1" id="Layer_1" xmlns="http://www.w3.org/2000/svg" xmlns:xlink="http://www.w3.org/1999/xlink" x="0px" y="0px"
	 viewBox="0 0 16 16" style="enable-background:new 0 0 16 16;" xml:space="preserve">
<style type="text/css">
	.st0{fill:#EB343C;}
</style>
<g id="Layer_20">
	<g>
		<g>
			<path class="st0" d="M12.2,11.5l-0.6-0.3c-0.9-0.4-1.4-0.6-2.3-0.6H8.8V5.3h0.5c0.9,0,1.4-0.2,2.3-0.6l0.6-0.3
				C12.2,4.4,12.2,11.5,12.2,11.5z M9.2,10.2L9.2,10.2c1,0,1.6,0.2,2.6,0.7V5.1c-1,0.5-1.5,0.7-2.5,0.7H9.2V10.2z"/>
		</g>
		<g>
			<path class="st0" d="M4.1,11.5V4.4l0.6,0.3C5.6,5.1,6.1,5.3,7,5.3h0.5v5.3H6.9c-0.9,0-1.4,0.2-2.3,0.6L4.1,11.5z M4.5,5.1v5.8
				c0.9-0.5,1.5-0.7,2.4-0.7H7V5.7H6.9C6,5.7,5.4,5.5,4.5,5.1z"/>
		</g>
		<g>
			<g>
				<path class="st0" d="M3.5,4.2c-0.6,0-1.1,0.5-1.1,1.1v5.3c0,0.6,0.5,1.1,1.1,1.1s1.1-0.5,1.1-1.1V5.3C4.6,4.7,4.1,4.2,3.5,4.2z
					 M4.1,10.6c0,0.4-0.3,0.7-0.7,0.7S2.8,11,2.8,10.6V5.3c0-0.4,0.3-0.7,0.7-0.7s0.7,0.3,0.7,0.7L4.1,10.6L4.1,10.6z"/>
			</g>
			<g>
				<path class="st0" d="M12.8,11.7c0.6,0,1.1-0.5,1.1-1.1V5.3c0-0.6-0.5-1.1-1.1-1.1s-1.1,0.5-1.1,1.1v5.3
					C11.7,11.2,12.2,11.7,12.8,11.7z M12.1,5.3c0-0.4,0.3-0.7,0.7-0.7s0.7,0.3,0.7,0.7v5.3c0,0.4-0.3,0.7-0.7,0.7s-0.7-0.3-0.7-0.7
					V5.3z"/>
			</g>
			<g>
				<path class="st0" d="M13.7,12.2c-0.7,0-1.2,0.5-1.3,1.1h-3c-0.6,0-1.1-0.5-1.1-1.1v-1.6h0.9V9.9l2.1-1l-1.8-1L11.3,7L9.2,6V5.3
					H8.3V3.7c0-0.9-0.7-1.6-1.6-1.6H3.9c-0.1-0.6-0.7-1-1.3-1c-0.7,0-1.3,0.6-1.3,1.3s0.6,1.3,1.3,1.3s1.2-0.5,1.3-1.1h2.9
					c0.6,0,1.1,0.5,1.1,1.1v1.6H7V6L5,7.1L6.8,8L5,8.8l2.1,1v0.8H8v1.6c0,0.9,0.7,1.6,1.6,1.6h2.9c0.1,0.6,0.7,1.1,1.3,1.1
					c0.7,0,1.3-0.6,1.3-1.3S14.4,12.2,13.7,12.2z M2.6,3.3c-0.5,0-0.9-0.4-0.9-0.9s0.4-0.9,0.9-0.9s0.9,0.4,0.9,0.9S3.1,3.3,2.6,3.3
					z M9.2,9.4V8.3l1.1,0.5L9.2,9.4z M10.3,7.1L9.2,7.6V6.5L10.3,7.1z M7,6.5v1.1L5.9,7.1L7,6.5z M5.9,8.8L7,8.3v1.1L5.9,8.8z
					 M7.4,5.7h0.4v3.6h0.4V5.7h0.4v4.4H8.3V9.7H7.9v0.4H7.4V5.7z M13.7,14.4c-0.5,0-0.9-0.4-0.9-0.9s0.4-0.9,0.9-0.9
					s0.9,0.4,0.9,0.9C14.6,14,14.2,14.4,13.7,14.4z"/>
			</g>
		</g>
	</g>
</g>
</svg>
