<?xml version="1.0" encoding="utf-8"?>
<!-- Generator: Adobe Illustrator 21.1.0, SVG Export Plug-In . SVG Version: 6.00 Build 0)  -->
<svg version="1.1" id="Layer_1" xmlns="http://www.w3.org/2000/svg" xmlns:xlink="http://www.w3.org/1999/xlink" x="0px" y="0px"
	 viewBox="0 0 16 16" style="enable-background:new 0 0 16 16;" xml:space="preserve">
<style type="text/css">
	.st0{fill:#EB343C;}
</style>
<g id="Layer_22">
	<path class="st0" d="M15.2,7.1L8.3,3.7c-0.1,0-0.2,0-0.2,0L1.2,7.1C1.1,7.1,1,7.2,1,7.3s0.1,0.2,0.2,0.2L4.1,9v0.8v0.3v1.1
		c0,1,1.7,1.8,4.1,1.8s4.1-0.8,4.1-1.8v-1.1V9.8V9l1.1-0.6l0.3,0.1v0.7c-0.3,0.1-0.6,0.4-0.6,0.8c0,0.3,0.1,0.5,0.3,0.7l-0.3,0.8
		c-0.1,0.1,0,0.3,0.2,0.4h0.1c0.1,0,0.2-0.1,0.3-0.2l0.3-0.8l0,0l0,0l0.3,0.7c0,0.1,0.1,0.2,0.3,0.2h0.1c0.1-0.1,0.2-0.2,0.2-0.4
		l-0.3-0.7c0.2-0.2,0.3-0.4,0.3-0.6c0-0.4-0.2-0.7-0.6-0.8v-1l0,0V8.2c0-0.1,0-0.1-0.1-0.1l1.1-0.5c0.1,0,0.2-0.1,0.2-0.2
		S15.3,7.1,15.2,7.1z M10.7,12c-0.7,0.3-1.6,0.4-2.6,0.4S6.3,12.3,5.6,12c-0.6-0.2-0.9-0.5-0.9-0.8l0,0c0.2,0.2,0.4,0.3,0.7,0.4
		c0.8,0.3,1.7,0.5,2.8,0.5s2-0.2,2.8-0.5c0.3-0.1,0.5-0.3,0.7-0.4l0,0C11.6,11.5,11.3,11.8,10.7,12z M11.6,9.8v0.3
		c0,0.7-1.4,1.4-3.5,1.4s-3.5-0.7-3.5-1.4V9.8V9.3L8,11h0.1h0.1l3.4-1.6V9.8z M13.9,10.3c-0.2,0-0.3-0.1-0.3-0.3s0.1-0.3,0.3-0.3
		s0.3,0.1,0.3,0.3S14.1,10.3,13.9,10.3z M13.2,7.9L8.2,7C8.1,7,7.9,7.1,7.9,7.3c0,0.1,0.1,0.3,0.2,0.3l4.3,0.7l-4.2,2.1L1.9,7.3
		l6.3-3.1l6.3,3.1L13.2,7.9z"/>
</g>
</svg>
