<?xml version="1.0" encoding="utf-8"?>
<!-- Generator: Adobe Illustrator 21.1.0, SVG Export Plug-In . SVG Version: 6.00 Build 0)  -->
<svg version="1.1" id="Layer_1" xmlns="http://www.w3.org/2000/svg" xmlns:xlink="http://www.w3.org/1999/xlink" x="0px" y="0px"
	 viewBox="0 0 16 16" style="enable-background:new 0 0 16 16;" xml:space="preserve">
<style type="text/css">
	.st0{fill:#EB343C;}
</style>
<g id="Layer_54">
	<g>
		<g>
			<g>
				<g>
					<g>
						<path class="st0" d="M14.8,3h-1.9H3.3H1.4C1,3,0.6,3.4,0.6,3.8v7.5c0,0.4,0.4,0.8,0.8,0.8h1.9h9.6h1.9c0.4,0,0.8-0.4,0.8-0.8
							V3.8C15.6,3.4,15.3,3,14.8,3z M5.4,3C5.2,3,5,3.1,4.9,3.4c0,0.1-0.1,0.2-0.3,0.2c-0.1,0-0.2-0.1-0.3-0.2C4.3,3.1,4.1,3,3.9,3
							H5.4z M3.9,12.1c0.2,0,0.4-0.1,0.5-0.4c0-0.1,0.1-0.2,0.3-0.2c0.1,0,0.2,0.1,0.3,0.2c0,0.3,0.2,0.4,0.4,0.4H3.9z M15.1,11.3
							c0,0.1-0.1,0.3-0.3,0.3h-2.1l0,0l0,0H5.5C5.3,11.3,5,11,4.7,11S4,11.2,3.9,11.5H1.4c-0.1,0-0.3-0.1-0.3-0.3V3.8
							c0-0.1,0.1-0.3,0.3-0.3h2.1c0,0,0,0,0.1,0c0,0,0,0,0.1,0H4c0,0.3,0.3,0.6,0.7,0.6c0.3,0,0.7-0.2,0.8-0.5h9.4
							c0.1,0,0.3,0.1,0.3,0.3L15.1,11.3L15.1,11.3z"/>
					</g>
					<g>
						<circle class="st0" cx="4.6" cy="9.2" r="0.3"/>
					</g>
					<g>
						<circle class="st0" cx="4.6" cy="10.2" r="0.3"/>
					</g>
					<g>
						<circle class="st0" cx="4.6" cy="8.1" r="0.3"/>
					</g>
					<g>
						<circle class="st0" cx="4.6" cy="7" r="0.3"/>
					</g>
					<g>
						<circle class="st0" cx="4.6" cy="5.9" r="0.3"/>
					</g>
					<g>
						<circle class="st0" cx="4.6" cy="4.9" r="0.3"/>
					</g>
				</g>
			</g>
		</g>
		<g>
			<g>
				<path class="st0" d="M7.4,8.2H7.2V6.6h0.9v0.2H7.4v0.6H8v0.2H7.4V8.2z"/>
				<path class="st0" d="M7.4,8.2H7.2c0,0-0.1,0-0.1-0.1V6.6c0,0,0-0.1,0.1-0.1h0.9c0,0,0.1,0,0.1,0.1v0.2c0,0,0,0.1-0.1,0.1H7.5
					v0.4H8c0,0,0.1,0,0.1,0.1v0.2c0,0,0,0.1-0.1,0.1H7.5L7.4,8.2C7.5,8.2,7.4,8.2,7.4,8.2z M7.3,8.1L7.3,8.1l0.1-0.6
					c0,0,0-0.1,0.1-0.1H8l0,0H7.4c0,0-0.1,0-0.1-0.1V6.8c0,0,0-0.1,0.1-0.1H8l0,0H7.3V8.1z"/>
			</g>
			<g>
				<path class="st0" d="M9,7.5v0.6H8.8V6.6h0.4c0.2,0,0.3,0,0.4,0.1C9.7,6.8,9.7,6.9,9.7,7c0,0.2-0.1,0.3-0.3,0.4l0.4,0.7H9.7
					L9.3,7.5H9z M9,7.4h0.2c0.1,0,0.2,0,0.3-0.1c0.1,0,0.1-0.1,0.1-0.2s0-0.2-0.1-0.2S9.3,6.8,9.2,6.8H9V7.4z"/>
				<path class="st0" d="M9.9,8.2H9.7c0,0,0,0-0.1,0L9.3,7.6H9.1v0.6c0,0,0,0.1-0.1,0.1H8.8c0,0-0.1,0-0.1-0.1V6.6
					c0,0,0-0.1,0.1-0.1h0.4c0.2,0,0.4,0,0.5,0.1S9.9,6.8,9.9,7c0,0.2-0.1,0.4-0.3,0.4L9.9,8.2C10,8.2,10,8.2,9.9,8.2
					C10,8.2,9.9,8.2,9.9,8.2z M9.7,8.1L9.7,8.1L9.4,7.5c0,0,0,0,0-0.1l0,0C9.6,7.3,9.7,7.2,9.7,7c0-0.1,0-0.2-0.1-0.3
					c0,0-0.2,0-0.3,0H8.9v1.4H9V7.5c0,0,0-0.1,0.1-0.1h0.3c0,0,0,0,0.1,0L9.7,8.1z M9.3,7.4H9c0,0-0.1,0-0.1-0.1V6.8
					c0,0,0-0.1,0.1-0.1h0.2c0.1,0,0.3,0,0.3,0.1C9.6,6.9,9.7,7,9.7,7.1s0,0.2-0.1,0.3C9.5,7.4,9.4,7.4,9.3,7.4z M9.1,7.3h0.2
					c0.1,0,0.2,0,0.2-0.1c0,0,0.1-0.1,0.1-0.2s0-0.1-0.1-0.2c0,0-0.1-0.1-0.2-0.1H9.1V7.3z"/>
			</g>
			<g>
				<path class="st0" d="M11.5,8.2h-0.9V6.6h0.9v0.2h-0.7v0.5h0.6v0.2h-0.6V8h0.7V8.2z"/>
				<path class="st0" d="M11.5,8.2h-0.9c0,0-0.1,0-0.1-0.1V6.6c0,0,0-0.1,0.1-0.1h0.9c0,0,0.1,0,0.1,0.1v0.2c0,0,0,0.1-0.1,0.1h-0.6
					v0.4h0.6c0,0,0.1,0,0.1,0.1v0.2c0,0,0,0.1-0.1,0.1h-0.6v0.4h0.6c0,0,0.1,0,0.1,0.1H11.5C11.6,8.2,11.5,8.2,11.5,8.2z M10.7,8.1
					h0.7l0,0H10.7C10.8,8.1,10.8,8,10.7,8.1l0.1-0.7c0,0,0-0.1,0.1-0.1h0.6l0,0h-0.6c0,0-0.1,0-0.1-0.1V6.8c0,0,0-0.1,0.1-0.1h0.6
					l0,0h-0.7v1.4H10.7z"/>
			</g>
			<g>
				<path class="st0" d="M13.2,8.2h-0.9V6.6h0.9v0.2h-0.7v0.5h0.6v0.2h-0.6V8h0.7V8.2z"/>
				<path class="st0" d="M13.2,8.2h-0.9c0,0-0.1,0-0.1-0.1V6.6c0,0,0-0.1,0.1-0.1h0.9c0,0,0.1,0,0.1,0.1v0.2c0,0,0,0.1-0.1,0.1h-0.6
					v0.4h0.6c0,0,0.1,0,0.1,0.1v0.2c0,0,0,0.1-0.1,0.1h-0.6v0.4h0.6c0,0,0.1,0,0.1,0.1H13.2L13.2,8.2z M12.4,8.1h0.7l0,0H12.4
					C12.5,8.1,12.4,8,12.4,8.1l0.1-0.7c0,0,0-0.1,0.1-0.1h0.6l0,0h-0.6c0,0-0.1,0-0.1-0.1V6.8c0,0,0-0.1,0.1-0.1h0.6l0,0h-0.7v1.4
					H12.4z"/>
			</g>
		</g>
	</g>
</g>
</svg>
