<?xml version="1.0" encoding="utf-8"?>
<!-- Generator: Adobe Illustrator 21.1.0, SVG Export Plug-In . SVG Version: 6.00 Build 0)  -->
<svg version="1.1" id="Layer_1" xmlns="http://www.w3.org/2000/svg" xmlns:xlink="http://www.w3.org/1999/xlink" x="0px" y="0px"
	 viewBox="0 0 16 16" style="enable-background:new 0 0 16 16;" xml:space="preserve">
<style type="text/css">
	.st0{fill:#EB343C;}
</style>
<g id="Layer_26">
	<g>
		<g>
			<g>
				<path class="st0" d="M13.7,10C13.9,9.4,14,8.7,14,8c0-0.1,0-0.1-0.1-0.2s-0.1-0.1-0.2-0.1h-1.9l0,0l0,0H8.3V7.4
					c1.1-0.1,2-1.1,2-2.2c0-0.3-0.1-0.8-0.7-1.9C9.3,2.8,9,2.4,9,2.3L8.2,1.4c0-0.1-0.1-0.2-0.2-0.2c-0.1,0-0.2,0-0.2,0.1l-0.7,1
					c0,0-0.3,0.4-0.6,1c-0.7,1-0.8,1.5-0.8,1.8c0,1.2,0.9,2.1,2,2.2v0.4H4.2l0,0l0,0H2.3C2.1,7.8,2,7.9,2,8.1c0,0.7,0.1,1.3,0.3,2
					c0.4,1.2,1.1,2.2,2.1,2.9c-0.4,0-0.8,0.5-0.8,1c0,0.6,0.5,1.1,1.1,1.1h6.5c0.6,0,1.1-0.5,1.1-1.1c0-0.5-0.4-1-0.9-1.1
					C12.5,12.2,13.3,11.2,13.7,10z M11.8,8.3c0.2,0,0.4,0.2,0.4,0.4S12,9.1,11.8,9.1s-0.4-0.2-0.4-0.4C11.4,8.5,11.6,8.3,11.8,8.3z
					 M6.3,5.1c0-0.2,0.1-0.7,0.7-1.6C7.2,3,7.5,2.6,7.6,2.6L8,2l0.4,0.6c0,0,0.3,0.4,0.6,0.9c0.6,1,0.7,1.4,0.7,1.6
					c0,0.5-0.2,0.9-0.5,1.2c0-0.1,0-0.1,0-0.2c0-0.6-0.9-1.8-1-2C8.2,4.1,8.1,4,8,4C7.9,4,7.8,4,7.8,4.1c-0.2,0.2-1,1.4-1,2
					c0,0.1,0,0.1,0,0.2C6.5,6,6.3,5.6,6.3,5.1z M7.3,6.2c0-0.3,0.4-0.9,0.7-1.4c0.3,0.5,0.7,1.1,0.7,1.4c0,0.4-0.3,0.7-0.7,0.7l0,0
					l0,0C7.6,6.8,7.3,6.5,7.3,6.2z M8,8.3c0.2,0,0.4,0.2,0.4,0.4S8.2,9.2,8,9.2S7.6,9,7.6,8.8C7.6,8.5,7.8,8.3,8,8.3z M4.2,8.3
					c0.2,0,0.4,0.2,0.4,0.4S4.4,9.2,4.2,9.2S3.7,9,3.7,8.8C3.7,8.5,3.9,8.3,4.2,8.3z M3.2,10L3.2,10L3.2,10C3.2,9.9,3.2,9.9,3.2,10
					c0-0.1,0-0.1-0.1-0.1l0,0l0,0l0,0l0,0l0,0l0,0l0,0l0,0l0,0c0,0,0,0-0.1,0l0,0l0,0C2.7,9.3,2.6,8.8,2.5,8.3h0.8
					C3.2,8.5,3.2,8.6,3.2,8.8c0,0.5,0.4,1,1,1s1-0.4,1-1c0-0.2,0-0.3-0.1-0.4h2.1C7.1,8.5,7,8.6,7,8.8c0,0.5,0.4,1,1,1s1-0.4,1-1
					c0-0.2,0-0.3-0.1-0.4H11c-0.1,0.1-0.1,0.3-0.1,0.4c0,0.5,0.4,1,1,1s1-0.4,1-1c0-0.2,0-0.3-0.1-0.4h0.8c0,0.5-0.1,0.9-0.3,1.4
					l0,0l0,0c0,0,0,0-0.1,0l0,0l0,0l0,0l0,0l0,0l0,0l0,0l0,0l0,0l0,0l0,0l0,0l0,0l0,0l0,0l0,0l0,0l0,0l0,0l0,0l0,0l0,0l0,0l0,0
					c-0.2,0.2-0.4,0.4-0.7,0.4S12,10,11.8,9.8c-0.2-0.3-0.6-0.6-1.1-0.6c-1.4,0.4-1.7,0.8-2,1c-0.2,0.2-0.4,0.4-0.7,0.4
					c-0.4,0-0.5-0.2-0.7-0.4l0,0C7,10,6.8,9.8,6.4,9.7l0,0H6.3H6.2c-0.2,0-0.3,0-0.5,0.1H5.6l0,0C5.3,9.9,5.1,10.1,5,10.2
					c-0.2,0.2-0.3,0.3-0.5,0.4c-0.1,0-0.1,0-0.2,0c-0.4,0-0.5-0.2-0.7-0.4l0,0l0,0l0,0l0,0l0,0l0,0C3.4,10.1,3.3,10.1,3.2,10
					C3.3,10.1,3.3,10.1,3.2,10C3.3,10.1,3.3,10,3.2,10C3.3,10,3.3,10,3.2,10C3.3,10,3.3,10,3.2,10z M11.9,14c0,0.3-0.3,0.6-0.6,0.6
					H4.7c-0.2,0-0.4-0.1-0.5-0.3h5.9c0.1,0,0.3-0.1,0.3-0.3c0-0.1-0.1-0.3-0.3-0.3H4.2c0.1-0.2,0.3-0.3,0.5-0.3h0.6h5.3h0.6
					C11.6,13.4,11.9,13.7,11.9,14z M10.6,12.9H5.4c-0.9-0.5-1.6-1.2-2.2-2.1l0,0l0,0l0,0l0,0l0,0l0,0l0,0l0,0l0,0l0,0l0,0l0,0l0,0
					l0,0l0,0l0,0l0,0c0,0,0,0,0.1,0l0,0l0,0l0,0c0,0,0,0,0.1,0l0,0c0,0,0,0,0.1,0l0,0c0,0,0,0,0.1,0l0,0c0,0,0,0,0.1,0l0,0
					c0,0,0,0,0.1,0l0,0c0,0,0,0,0.1,0c0.6,0,0.9-0.3,1.1-0.6C5.2,10,5.4,9.8,5.7,9.8c0.4,0,0.5,0.2,0.7,0.4c0.2,0.3,0.6,0.6,1.1,0.6
					c0.6,0,0.9-0.3,1.1-0.6C8.8,10,9,9.8,9.3,9.8c0.4,0,0.5,0.2,0.7,0.4c0.2,0.3,0.6,0.6,1.1,0.6c0,0,0,0,0.1,0l0,0c0,0,0,0,0.1,0
					l0,0c0,0,0,0,0.1,0l0,0c0,0,0,0,0.1,0l0,0c0,0,0,0,0.1,0l0,0c0,0,0,0,0.1,0l0,0l0,0l0,0c0,0,0,0,0.1,0l0,0l0,0l0,0l0,0l0,0l0,0
					l0,0l0,0l0,0l0,0l0,0l0,0l0,0l0,0l0,0l0,0l0,0C12.2,11.7,11.5,12.4,10.6,12.9z"/>
			</g>
		</g>
		<g>
			<g>
				<path class="st0" d="M11.3,13.9L11.3,13.9C11.2,13.9,11.2,13.9,11.3,13.9c-0.1-0.1-0.1-0.1-0.1-0.1c-0.1-0.1-0.2-0.1-0.2-0.1
					s0,0-0.1,0l0,0l0,0l0,0l0,0c0,0,0,0,0,0.1c0,0,0,0,0,0.1c0,0,0,0,0,0.1c0,0,0,0,0,0.1l0,0l0,0l0,0l0,0c0,0,0,0,0.1,0s0,0,0.1,0
					s0.1,0,0.2-0.1l0,0l0,0C11.3,14,11.3,14,11.3,13.9C11.3,14,11.3,14,11.3,13.9C11.3,14,11.3,14,11.3,13.9z"/>
			</g>
		</g>
	</g>
</g>
</svg>
