<?xml version="1.0" encoding="utf-8"?>
<!-- Generator: Adobe Illustrator 21.1.0, SVG Export Plug-In . SVG Version: 6.00 Build 0)  -->
<svg version="1.1" id="Layer_1" xmlns="http://www.w3.org/2000/svg" xmlns:xlink="http://www.w3.org/1999/xlink" x="0px" y="0px"
	 viewBox="0 0 16 16" style="enable-background:new 0 0 16 16;" xml:space="preserve">
<style type="text/css">
	.st0{fill:#EB343C;}
</style>
<g id="Layer_30">
	<g>
		<g>
			<g>
				<path class="st0" d="M9,6.9C8.4,7.1,7.7,6.8,7.5,6.1C7.3,5.5,7.7,4.8,8.3,4.6s1.3,0.2,1.5,0.8S9.7,6.7,9,6.9z M8.4,4.9
					C7.9,5,7.6,5.5,7.8,6C8,6.5,8.5,6.8,9,6.6S9.7,6,9.5,5.5S8.9,4.7,8.4,4.9z"/>
				<path class="st0" d="M8.7,7C8.5,7,8.2,7,8.1,6.9C7.8,6.7,7.5,6.5,7.4,6.1c-0.1-0.3-0.1-0.7,0.1-1s0.4-0.5,0.8-0.6
					C9,4.3,9.7,4.7,9.9,5.4C10,5.7,10,6,9.8,6.3C9.6,6.7,9.4,6.9,9,7C8.9,7,8.8,7,8.7,7z M8.7,4.6c-0.1,0-0.2,0-0.3,0.1
					C8,4.7,7.8,4.9,7.6,5.2C7.5,5.5,7.5,5.8,7.5,6.1c0.1,0.3,0.3,0.5,0.6,0.7C8.4,6.9,8.7,6.9,9,6.9l0,0c0.3-0.1,0.5-0.3,0.7-0.6
					C9.8,6,9.9,5.7,9.8,5.4C9.7,5.1,9.5,4.9,9.2,4.7C9,4.6,8.8,4.6,8.7,4.6z M8.7,6.7c-0.2,0-0.3,0-0.5-0.1S7.8,6.3,7.7,6
					c-0.1-0.2,0-0.5,0.1-0.7s0.3-0.4,0.6-0.5s0.5-0.1,0.8,0.1C9.4,5,9.5,5.2,9.6,5.5C9.7,5.7,9.7,6,9.5,6.2C9.4,6.4,9.2,6.6,9,6.7
					C8.9,6.7,8.8,6.7,8.7,6.7z M8.7,4.9c-0.1,0-0.2,0-0.3,0l0,0C8.2,5,8,5.1,7.9,5.3C7.8,5.6,7.8,5.8,7.8,6C7.9,6.2,8,6.4,8.2,6.5
					s0.4,0.1,0.7,0.1c0.2-0.1,0.4-0.2,0.5-0.4C9.5,6,9.5,5.8,9.5,5.5C9.4,5.3,9.3,5.1,9.1,5C8.9,4.9,8.8,4.9,8.7,4.9z"/>
			</g>
		</g>
		<g>
			<g>
				<path class="st0" d="M7.9,3L7.2,0.7L7.1,0.6L7,0.8l0.7,2.3c-1.8,0.6-3.1,2-3.3,3.5l0.2,0.2C4.7,5.4,6,3.9,7.8,3.3l2.7,8.6
					l0.2,0.2l0.1-0.2L8,3.3c1.8-0.5,3.7-0.1,4.6,1.1L12.7,4C11.7,2.9,9.8,2.5,7.9,3z"/>
				<path class="st0" d="M10.7,12.3L10.4,12l0,0L7.7,3.4C6,4,4.8,5.4,4.7,6.8v0.1L4.3,6.6l0,0c0.2-1.5,1.5-2.9,3.3-3.5L6.9,0.8
					L7,0.5l0.2,0.1L8,2.9c1.8-0.5,3.7-0.1,4.7,1l0,0l-0.1,0.5l-0.1-0.1c-0.9-1.1-2.7-1.6-4.4-1.1l2.7,8.6L10.7,12.3z M10.5,11.9
					L10.5,11.9h0.1L7.9,3.2H8c1.8-0.5,3.6-0.1,4.6,1V4c-1-1.1-2.8-1.5-4.6-1H7.9L7.2,0.8H7.1v0.1l0.7,2.3H7.7C6,3.7,4.7,5.1,4.5,6.6
					l0.1,0.1C4.7,5.2,6,3.9,7.8,3.3h0.1L10.5,11.9z"/>
			</g>
		</g>
		<g>
			<g>
				<path class="st0" d="M10.7,12.4l-6.8-6l3.1-6l5.9,3.1L10.7,12.4z M4.3,6.3l6.3,5.6l2-8.1L7.1,0.9L4.3,6.3z"/>
				<path class="st0" d="M10.8,12.5l-7-6.2l3.2-6l6,3.2L10.8,12.5z M4,6.3l6.7,6l2.2-8.7L7,0.5L4,6.3z M10.6,12L4.2,6.3l2.9-5.5
					l5.6,2.9L10.6,12z M4.3,6.3l6.2,5.5l2-8L7.1,0.9L4.3,6.3z"/>
			</g>
		</g>
		<g>
			<g>
				<path class="st0" d="M10.8,15.4c-0.4,0-0.8-0.3-0.9-0.7c-0.2-0.4-0.1-0.9,0.3-1.2c0.7-0.7,0.3-1.2,0.3-1.2l0.2-0.2
					c0,0,0.6,0.8-0.4,1.6c-0.4,0.3-0.3,0.7-0.2,0.9c0.1,0.3,0.4,0.5,0.6,0.5L10.8,15.4z"/>
				<path class="st0" d="M10.8,15.4c-0.4,0-0.8-0.3-1-0.7s-0.1-0.9,0.3-1.3c0.7-0.6,0.3-1.1,0.3-1.1l0,0l0.3-0.3l0,0
					c0,0,0.6,0.8-0.4,1.7C10,14,10,14.3,10.1,14.5c0.1,0.3,0.4,0.5,0.6,0.5h0.1L10.8,15.4L10.8,15.4L10.8,15.4z M10.6,12.3
					c0.1,0.2,0.3,0.7-0.4,1.2c-0.4,0.3-0.5,0.8-0.3,1.2s0.5,0.6,0.8,0.6v-0.2c-0.2,0-0.5-0.2-0.6-0.5c-0.1-0.2-0.1-0.6,0.3-1
					c0.7-0.7,0.5-1.3,0.4-1.5L10.6,12.3z"/>
			</g>
		</g>
		<g>
			<g>
				<path class="st0" d="M10.8,14.4c-0.3,0-0.6-0.2-0.7-0.5c-0.1-0.3,0-0.6,0.2-0.9c0.4-0.4,0.2-0.7,0.2-0.8l0.2-0.2
					c0.1,0.2,0.3,0.7-0.2,1.2c-0.2,0.2-0.2,0.4-0.2,0.5c0.1,0.2,0.3,0.3,0.4,0.3L10.8,14.4z"/>
				<path class="st0" d="M10.8,14.4c-0.3,0-0.6-0.2-0.7-0.5c-0.1-0.3-0.1-0.7,0.2-1c0.4-0.4,0.2-0.6,0.2-0.7l0,0l0.3-0.3l0,0
					c0.2,0.2,0.3,0.7-0.2,1.2c-0.2,0.2-0.2,0.3-0.1,0.5c0.1,0.2,0.2,0.3,0.3,0.3l0,0h0.1L10.8,14.4L10.8,14.4L10.8,14.4z M10.6,12.3
					c0.1,0.1,0.1,0.4-0.2,0.8c-0.3,0.2-0.3,0.5-0.2,0.8c0.1,0.2,0.3,0.4,0.6,0.5v-0.2c-0.1,0-0.3-0.2-0.4-0.3
					c-0.1-0.1-0.1-0.4,0.2-0.6c0.4-0.4,0.4-0.8,0.3-1H10.6z"/>
			</g>
		</g>
	</g>
</g>
</svg>
