<?xml version="1.0" encoding="utf-8"?>
<!-- Generator: Adobe Illustrator 21.1.0, SVG Export Plug-In . SVG Version: 6.00 Build 0)  -->
<svg version="1.1" id="Layer_1" xmlns="http://www.w3.org/2000/svg" xmlns:xlink="http://www.w3.org/1999/xlink" x="0px" y="0px"
	 viewBox="0 0 16 16" style="enable-background:new 0 0 16 16;" xml:space="preserve">
<style type="text/css">
	.st0{fill:#EB343C;}
</style>
<g id="Layer_4">
	<path class="st0" d="M3,5.7c0.2,0,0.4-0.1,0.5-0.1v3H2.4c-0.2,0-0.3,0.1-0.3,0.3V10c0,0.2,0.1,0.3,0.3,0.3h0.1v3.2
		c0,0.2,0.1,0.3,0.3,0.3h1c0.3,0.6,0.9,1.1,1.7,1.1c0.7,0,1.4-0.4,1.7-1.1h1.5c0.3,0.6,0.9,1.1,1.7,1.1c0.7,0,1.4-0.4,1.7-1.1h1
		c0.2,0,0.3-0.1,0.3-0.3v-3.2h0.1c0.2,0,0.3-0.1,0.3-0.3V8.8c0-0.2-0.1-0.3-0.3-0.3h-1.2v-3c0.2,0.1,0.3,0.1,0.5,0.1
		c0.6,0,1.1-0.5,1.1-1.1l0,0l-0.5-3.3c0-0.1-0.1-0.3-0.3-0.3H2.7C2.6,1,2.5,1.1,2.4,1.3L1.9,4.5l0,0C1.9,5.2,2.4,5.7,3,5.7z
		 M11.9,4.5C11.8,4.5,11.8,4.6,11.9,4.5c0,0.4-0.3,0.6-0.5,0.6c-0.3,0-0.5-0.2-0.5-0.5V4.5V4.4V1.6H12L11.9,4.5
		C11.8,4.4,11.8,4.5,11.9,4.5z M10.2,4.5C10.2,4.5,10.2,4.6,10.2,4.5c0,0.4-0.3,0.6-0.5,0.6c-0.3,0-0.5-0.2-0.5-0.5V4.5V4.4V1.6h1.1
		L10.2,4.5C10.2,4.4,10.2,4.5,10.2,4.5z M8.5,4.5C8.5,4.5,8.5,4.6,8.5,4.5c0,0.4-0.3,0.6-0.5,0.6c-0.3,0-0.5-0.2-0.5-0.5V4.5V4.4
		V1.6h1.1L8.5,4.5C8.5,4.4,8.5,4.5,8.5,4.5z M6.9,4.5C6.9,4.5,6.9,4.6,6.9,4.5c0,0.4-0.3,0.6-0.5,0.6c-0.3,0-0.5-0.2-0.5-0.5V4.5
		V4.4V1.6H7L6.9,4.5C6.9,4.4,6.9,4.5,6.9,4.5z M5.2,4.5C5.2,4.5,5.2,4.6,5.2,4.5c0,0.4-0.3,0.6-0.5,0.6S4.2,4.9,4.2,4.6V4.5V4.4V1.6
		h1.1L5.2,4.5C5.2,4.4,5.2,4.5,5.2,4.5z M5.5,14.2c-0.7,0-1.3-0.6-1.3-1.3s0.6-1.3,1.3-1.3s1.3,0.6,1.3,1.3S6.2,14.2,5.5,14.2z
		 M10.5,14.2c-0.7,0-1.3-0.6-1.3-1.3s0.6-1.3,1.3-1.3s1.3,0.6,1.3,1.3S11.2,14.2,10.5,14.2z M12.9,13.2h-0.6c0-0.1,0-0.1,0-0.2
		c0-1-0.8-1.9-1.9-1.9c-1,0-1.9,0.8-1.9,1.9c0,0.1,0,0.1,0,0.2H7.4c0-0.1,0-0.1,0-0.2c0-1-0.8-1.9-1.9-1.9c-1,0-1.9,0.8-1.9,1.9
		c0,0.1,0,0.1,0,0.2H3.1v-2.9h9.8V13.2z M13.3,9.6H2.7V9.1h10.6V9.6z M4.2,8.5v-3c0.2,0.1,0.3,0.1,0.5,0.1c0.3,0,0.6-0.1,0.8-0.4
		C5.7,5.6,6,5.7,6.3,5.7s0.6-0.1,0.8-0.4C7.4,5.6,7.7,5.7,8,5.7s0.6-0.1,0.8-0.4C9,5.6,9.3,5.7,9.7,5.7c0.3,0,0.6-0.1,0.8-0.4
		c0.2,0.2,0.5,0.4,0.8,0.4c0.2,0,0.4-0.1,0.5-0.1v3H4.2V8.5z M13.5,4.6c0,0.3-0.2,0.5-0.5,0.5s-0.5-0.2-0.5-0.5V4.5V4.4V1.6H13
		L13.5,4.6z M3,1.6h0.6v2.8v0.1v0.1c0,0.3-0.2,0.5-0.5,0.5S2.6,4.9,2.6,4.6L3,1.6z"/>
</g>
</svg>
