<?xml version="1.0" encoding="utf-8"?>
<!-- Generator: Adobe Illustrator 21.1.0, SVG Export Plug-In . SVG Version: 6.00 Build 0)  -->
<svg version="1.1" id="Layer_1" xmlns="http://www.w3.org/2000/svg" xmlns:xlink="http://www.w3.org/1999/xlink" x="0px" y="0px"
	 viewBox="0 0 16 16" style="enable-background:new 0 0 16 16;" xml:space="preserve">
<style type="text/css">
	.st0{fill:#EB343C;}
</style>
<g id="Layer_36">
	<g>
		<g>
			<g>
				<path class="st0" d="M15,3l-1.7-1.7l-1.2,1.2l-0.4-0.4l-0.3,0.3l0.4,0.4l-0.6,0.6l0.3,0.3l0.6-0.6l1,1l-0.6,0.6L12.8,5l0.6-0.6
					l0.4,0.4l0.3-0.3l-0.4-0.4L15,3z M12.4,2.9L13.3,2l1,1l-0.9,0.9L12.4,2.9z"/>
			</g>
			<g>
				<polygon class="st0" points="2.9,15.3 1,13.5 4.7,9.7 5,10.1 1.6,13.5 2.9,14.7 6.3,11.3 6.6,11.6 				"/>
			</g>
		</g>
		<g>
			<path class="st0" d="M6.9,12.5l-3.1-3l0.8-0.8c0.1-0.1,0.2-0.3,0.1-0.4c0-0.5-0.1-0.9,0-1.3c0.2-1.8,1.6-3.3,3.5-3.7
				c0.6-0.1,1.1-0.1,1.7,0.1c0.1,0,0.3,0,0.4-0.1l0.6-0.6l2.8,2.8l-0.6,0.6C13,6.2,13,6.3,13,6.5c0.1,0.5,0.1,1.1,0,1.7
				c-0.3,1.8-1.8,3.3-3.7,3.5c-0.4,0-0.9,0-1.3,0c-0.1,0-0.3,0-0.4,0.1L6.9,12.5z M4.4,9.5L6.9,12l0.5-0.5c0.2-0.2,0.5-0.3,0.8-0.3
				c0.4,0.1,0.8,0.1,1.2,0c1.7-0.2,3-1.5,3.3-3.1c0.1-0.5,0.1-1,0-1.5c-0.1-0.3,0-0.6,0.2-0.8l0.3-0.3L11,3.3l-0.3,0.3
				c-0.2,0.2-0.5,0.3-0.8,0.2c-0.5-0.1-1-0.1-1.5,0C6.6,4,5.3,5.3,5.1,7c0,0.4,0,0.8,0,1.2c0.1,0.3,0,0.6-0.3,0.8L4.4,9.5z"/>
		</g>
		<g>
			<g>
				<path class="st0" d="M6.1,7.1L5.7,7c0.2-1.4,1.2-2.5,2.6-2.7c0.2,0,0.4,0,0.5,0v0.4c-0.2,0-0.3,0-0.5,0C7.2,4.9,6.3,5.9,6.1,7.1
					z"/>
			</g>
			<g>
				<path class="st0" d="M5.7,8c0-0.2,0-0.3-0.1-0.5H6c0,0.1,0,0.3,0,0.4L5.7,8z"/>
			</g>
			<g>
				<rect x="2.4" y="13.4" transform="matrix(0.7071 -0.7071 0.7071 0.7071 -8.8528 5.918)" class="st0" width="0.6" height="0.4"/>
			</g>
			<g>
				
					<rect x="3.3" y="12.5" transform="matrix(0.7071 -0.7071 0.7071 0.7071 -7.9528 6.2836)" class="st0" width="0.6" height="0.4"/>
			</g>
			<g>
				
					<rect x="4.2" y="11.6" transform="matrix(0.7071 -0.7071 0.7071 0.7071 -7.0529 6.6492)" class="st0" width="0.6" height="0.4"/>
			</g>
		</g>
	</g>
</g>
</svg>
