<?xml version="1.0" encoding="utf-8"?>
<!-- Generator: Adobe Illustrator 21.1.0, SVG Export Plug-In . SVG Version: 6.00 Build 0)  -->
<svg version="1.1" id="Layer_1" xmlns="http://www.w3.org/2000/svg" xmlns:xlink="http://www.w3.org/1999/xlink" x="0px" y="0px"
	 viewBox="0 0 16 16" style="enable-background:new 0 0 16 16;" xml:space="preserve">
<style type="text/css">
	.st0{fill:#EB343C;}
</style>
<g id="Layer_55">
	<g>
		<g>
			<path class="st0" d="M7.5,11.4c-1.2-0.1-2.4-0.7-3.2-1.6C3.4,8.9,3,7.7,3,6.4c0-2.8,2.3-5,5-5c2.8,0,5,2.3,5,5
				c0,2.5-1.9,4.6-4.3,5v-0.3c2.3-0.3,4.1-2.3,4.1-4.6c0-2.6-2.1-4.7-4.7-4.7S3.4,3.9,3.4,6.5c0,2.4,1.8,4.4,4.2,4.7L7.5,11.4z"/>
		</g>
		<g>
			<path class="st0" d="M4.4,7.6C4.2,7.2,4.2,6.9,4.2,6.4c0-2.1,1.7-3.8,3.8-3.8h0.1c1,0,1.9,0.4,2.6,1.2c0.7,0.7,1.1,1.7,1.1,2.7
				c0,0.4-0.1,0.8-0.2,1.2l-0.3-0.1c0.1-0.3,0.2-0.7,0.2-1.1C11.4,4.6,10,3,8.1,3H8C6.1,3,4.5,4.5,4.5,6.4c0,0.4,0.1,0.7,0.2,1.1
				L4.4,7.6z"/>
		</g>
		<g>
			<path class="st0" d="M10.9,7.4l-0.3-0.1c0.1-0.3,0.1-0.6,0.1-0.9c0-1.4-1-2.5-2.4-2.7l0.1-0.3c0.7,0.1,1.4,0.5,1.9,1
				c0.5,0.6,0.8,1.3,0.8,2C11.1,6.8,11,7.1,10.9,7.4z"/>
		</g>
		<g>
			<path class="st0" d="M5,7.4c-0.1-0.3-0.2-0.6-0.2-1c0-1.5,1.1-2.9,2.7-3.1v0.3C6.2,3.9,5.2,5.1,5.2,6.4c0,0.3,0,0.6,0.1,0.9
				L5,7.4z"/>
		</g>
		<g>
			<path class="st0" d="M5.2,11.3H4.8v-0.7c0-1.8,1.4-3.2,3.2-3.2s3.2,1.4,3.2,3.2v0.5h-0.3v-0.5C10.9,9,9.6,7.7,8,7.7
				S5.1,9,5.1,10.6v0.7H5.2z"/>
		</g>
		<g>
			<path class="st0" d="M8.1,15.1c-1.7,0-3-1.2-3.2-2.9h0.3c0.1,1.5,1.4,2.6,2.8,2.6s2.6-1.1,2.8-2.5h0.3C11,13.9,9.6,15.1,8.1,15.1
				z"/>
		</g>
		<g>
			<path class="st0" d="M8.1,13.9c-0.4,0-0.7-0.3-0.7-0.7h0.3c0,0.2,0.2,0.4,0.4,0.4s0.4-0.2,0.4-0.4h0.3
				C8.8,13.5,8.5,13.9,8.1,13.9z"/>
		</g>
		<g>
			<g>
				<circle class="st0" cx="6.7" cy="12" r="0.2"/>
			</g>
			<g>
				<circle class="st0" cx="9.4" cy="12" r="0.2"/>
			</g>
		</g>
		<g>
			<polygon class="st0" points="8,12.2 7.2,11.3 7.2,9.8 7.6,9.8 7.6,11.2 8,11.7 8.5,11.2 8.5,9.8 8.8,9.8 8.8,11.3 			"/>
		</g>
		<g>
			<path class="st0" d="M11.2,11.5L11,11.2C10,10,9.3,9.8,8.9,9.8c-0.4,0-0.6,0.4-0.6,0.4v0.1H7.9v-0.1c0,0-0.2-0.3-0.6-0.4
				c-0.4,0-1,0.2-2.1,1.4L5,11.5L4.4,9h0.4l0.4,1.8C6,9.9,6.7,9.5,7.3,9.5C7.7,9.5,8,9.8,8.1,10c0.1-0.1,0.4-0.4,0.8-0.5
				c0.6-0.1,1.3,0.4,2.1,1.2L11.2,9h0.4L11.2,11.5z"/>
		</g>
		<g>
			<path class="st0" d="M5.1,10.3l-0.3-0.2c1-1.1,1.8-1.6,2.5-1.5c0.4,0,0.7,0.3,0.8,0.5C8.2,9,8.5,8.7,8.9,8.6
				c0.7-0.1,1.5,0.4,2.4,1.5L11,10.3c-1-1.2-1.7-1.4-2.1-1.4C8.5,9,8.3,9.3,8.3,9.3v0.1H7.9V9.3c0,0-0.2-0.3-0.6-0.4
				C6.8,8.9,6.2,9.1,5.1,10.3z"/>
		</g>
		<g>
			<polygon class="st0" points="11.2,7.7 8,6.6 4.7,7.7 4.6,7.4 8,6.3 11.4,7.4 			"/>
		</g>
		<g>
			<path class="st0" d="M4.9,12.4c-0.3,0-0.6-0.3-0.6-0.6s0.3-0.6,0.6-0.6s0.6,0.3,0.6,0.6S5.3,12.4,4.9,12.4z M4.9,11.5
				c-0.2,0-0.3,0.1-0.3,0.3S4.8,12,4.9,12c0.2,0,0.3-0.1,0.3-0.3S5.1,11.5,4.9,11.5z"/>
		</g>
		<g>
			<circle class="st0" cx="4.9" cy="10.8" r="0.5"/>
		</g>
		<g>
			<path class="st0" d="M11.1,12.4c-0.3,0-0.6-0.3-0.6-0.6s0.3-0.6,0.6-0.6s0.6,0.3,0.6,0.6S11.4,12.4,11.1,12.4z M11.1,11.5
				c-0.2,0-0.3,0.1-0.3,0.3s0.1,0.3,0.3,0.3s0.3-0.1,0.3-0.3S11.2,11.5,11.1,11.5z"/>
		</g>
		<g>
			<path class="st0" d="M4.5,9.1C4,9.1,3.7,8.7,3.7,8.3c0-0.5,0.4-0.9,0.9-0.9s0.9,0.4,0.9,0.9C5.4,8.7,5,9.1,4.5,9.1z M4.5,7.7
				C4.2,7.7,4,8,4,8.3s0.2,0.5,0.5,0.5S5,8.6,5,8.3S4.8,7.7,4.5,7.7z"/>
		</g>
		<g>
			<path class="st0" d="M11.4,9.1c-0.5,0-0.9-0.4-0.9-0.9s0.4-0.9,0.9-0.9s0.9,0.4,0.9,0.9C12.3,8.7,11.9,9.1,11.4,9.1z M11.4,7.7
				c-0.3,0-0.5,0.2-0.5,0.5s0.2,0.5,0.5,0.5s0.5-0.2,0.5-0.5C12,8,11.7,7.7,11.4,7.7z"/>
		</g>
		<g>
			<circle class="st0" cx="11.1" cy="10.8" r="0.5"/>
		</g>
		<g>
			<path class="st0" d="M5.8,7.1H5.5c0-0.6,0.5-1,1.3-1.3l0.1,0.3C6.2,6.4,5.8,6.7,5.8,7.1z"/>
		</g>
		<g>
			<path class="st0" d="M10.5,7.1h-0.3c0-0.4-0.4-0.8-1-1l0.1-0.3C10,6.1,10.5,6.6,10.5,7.1z"/>
		</g>
		<g>
			<path class="st0" d="M8,5.7c-0.6,0-1.1-0.5-1.1-1.1s0.9-1.8,1-2L8,2.5l0.1,0.2c0.1,0.1,1,1.4,1,2C9.1,5.2,8.6,5.7,8,5.7z M8,3.1
				C7.6,3.6,7.2,4.3,7.2,4.6C7.2,5,7.5,5.4,8,5.4c0.4,0,0.8-0.3,0.8-0.8C8.7,4.3,8.3,3.6,8,3.1z"/>
		</g>
		<g>
			<path class="st0" d="M8,6.6c-0.8,0-1.5-0.4-1.5-0.9c0-0.3,0.3-0.6,0.7-0.8l0.1,0.3C7,5.4,6.9,5.5,6.9,5.7C6.9,6,7.3,6.3,8,6.3
				S9.1,6,9.1,5.7c0-0.2-0.2-0.3-0.5-0.5l0.1-0.3c0.4,0.2,0.7,0.5,0.7,0.8C9.4,6.2,8.8,6.6,8,6.6z"/>
		</g>
	</g>
</g>
</svg>
