<?xml version="1.0" encoding="utf-8"?>
<!-- Generator: Adobe Illustrator 21.1.0, SVG Export Plug-In . SVG Version: 6.00 Build 0)  -->
<svg version="1.1" id="Layer_1" xmlns="http://www.w3.org/2000/svg" xmlns:xlink="http://www.w3.org/1999/xlink" x="0px" y="0px"
	 viewBox="0 0 16 16" style="enable-background:new 0 0 16 16;" xml:space="preserve">
<style type="text/css">
	.st0{fill:#EB343C;}
</style>
<g id="Layer_40">
	<g>
		<g>
			<path class="st0" d="M13,15.1H3.5v-1.8H13V15.1z M3.9,14.7h8.7v-0.9H3.9V14.7z"/>
		</g>
		<g>
			<g>
				<rect x="4.2" y="6.5" class="st0" width="0.5" height="7"/>
			</g>
			<g>
				<rect x="11.9" y="6.5" class="st0" width="0.5" height="7"/>
			</g>
			<g>
				<path class="st0" d="M10,3.7c0.1-0.1,0.1-0.2,0.1-0.4c0-0.4-0.3-0.7-0.7-0.7H9.1c0.1-0.2,0.2-0.4,0.2-0.7c0-0.6-0.5-1.1-1.1-1.1
					S7.1,1.3,7.1,1.9c0,0.3,0.1,0.5,0.2,0.7H7.1c-0.4,0-0.7,0.3-0.7,0.7c0,0.1,0,0.3,0.1,0.4C4.4,4.1,4.2,5.2,4.2,5.3l0.4,0.1
					c0,0,0.3-1.4,3.6-1.4s3.6,1.4,3.6,1.4l0.4-0.1C12.3,5.2,12.1,4.1,10,3.7z M7.6,1.9c0-0.4,0.3-0.7,0.7-0.7C8.7,1.2,9,1.5,9,1.9
					S8.6,2.6,8.2,2.6C7.9,2.6,7.6,2.3,7.6,1.9z M7.1,3.5C7,3.5,6.9,3.4,6.9,3.3c0-0.1,0.1-0.2,0.2-0.2h2.3c0.1,0,0.2,0.1,0.2,0.2
					c0,0.1-0.1,0.2-0.2,0.2H7.1z"/>
			</g>
			<g>
				<rect x="5.1" y="6.5" class="st0" width="0.5" height="7"/>
			</g>
			<g>
				<rect x="11" y="6.5" class="st0" width="0.5" height="7"/>
			</g>
			<g>
				<path class="st0" d="M6,9.6v0.2c0,0,0,1.3,1.4,1.7v0.6H6.9v0.5h0.5v0.9h0.5v-0.9h0.9v0.9h0.5v-0.9h0.5v-0.5H9.2v-0.6
					c1.3-0.4,1.4-1.7,1.4-1.7V9.6H6z M8.7,12.1H7.8v-0.5c0.1,0,0.3,0,0.5,0s0.3,0,0.5,0v0.5H8.7z M8.2,11.2c-1.3,0-1.7-0.7-1.8-1.1
					H10C9.9,10.5,9.6,11.2,8.2,11.2z"/>
			</g>
		</g>
		<g>
			<g>
				<path class="st0" d="M8.2,9.9c-0.5,0-1.1-0.3-1.1-1.1c0-1,1-1.5,1-1.6h0.1h0.1c0,0,1,0.5,1,1.6C9.4,9.6,8.8,9.9,8.2,9.9z
					 M8.2,7.6C8,7.8,7.5,8.1,7.5,8.7c0,0.6,0.4,0.7,0.7,0.7c0.3,0,0.7-0.1,0.7-0.7S8.5,7.8,8.2,7.6z"/>
			</g>
			<g>
				<path class="st0" d="M12.7,6.6h-9V5h9V6.6z M4.2,6.2h8.1V5.4H4.2V6.2z"/>
			</g>
		</g>
	</g>
</g>
</svg>
