<?xml version="1.0" encoding="utf-8"?>
<!-- Generator: Adobe Illustrator 21.1.0, SVG Export Plug-In . SVG Version: 6.00 Build 0)  -->
<svg version="1.1" id="Layer_1" xmlns="http://www.w3.org/2000/svg" xmlns:xlink="http://www.w3.org/1999/xlink" x="0px" y="0px"
	 viewBox="0 0 16 16" style="enable-background:new 0 0 16 16;" xml:space="preserve">
<style type="text/css">
	.st0{fill:#EB343C;}
</style>
<g id="Layer_41">
	<g>
		<g>
			<path class="st0" d="M9.4,7.2c-0.5,0-0.9-0.3-1.1-0.7c-0.1-0.3-0.2-0.6,0-0.9c0-0.4,0.2-0.6,0.5-0.8c0.3-0.1,0.6-0.2,0.9,0
				c0.3,0.1,0.6,0.3,0.7,0.6c0.3,0.6,0,1.4-0.6,1.6C9.7,7.1,9.5,7.2,9.4,7.2z M9.4,5.3c-0.1,0-0.2,0-0.3,0.1c-0.2,0-0.3,0.1-0.4,0.3
				s-0.1,0.4,0,0.5c0.2,0.3,0.6,0.5,0.9,0.3C10,6.4,10.1,6,10,5.6C9.9,5.5,9.8,5.4,9.6,5.3C9.5,5.3,9.4,5.3,9.4,5.3z"/>
		</g>
		<g>
			<path class="st0" d="M9.9,5.2C9.9,5.2,9.8,5.2,9.9,5.2C9.6,5.2,9.6,5,9.6,4.9l0.7-2c0.1-0.1,0.2-0.2,0.4-0.2
				c0.1,0.1,0.2,0.2,0.2,0.4l-0.7,2C10.1,5.2,10,5.2,9.9,5.2z"/>
		</g>
		<g>
			<path class="st0" d="M11,3.1c-0.1,0-0.2,0-0.4-0.1c-0.3-0.1-0.5-0.3-0.6-0.5C9.7,2,10,1.3,10.5,1.1C10.8,1,11,1,11.3,1.1
				s0.5,0.3,0.6,0.5l0,0c0.3,0.5,0,1.2-0.5,1.4C11.3,3,11.1,3.1,11,3.1z M11,1.5c-0.1,0-0.1,0-0.2,0c-0.2,0.1-0.4,0.4-0.2,0.7
				c0.1,0.1,0.2,0.2,0.3,0.3c0.1,0,0.3,0,0.4,0c0.2-0.1,0.4-0.4,0.2-0.7l0,0c-0.1-0.1-0.2-0.2-0.3-0.3C11.1,1.5,11,1.5,11,1.5z"/>
		</g>
		<g>
			<path class="st0" d="M10.4,6.2c-0.1,0-0.3-0.1-0.3-0.3c0-0.2,0.1-0.3,0.3-0.3l2.8-0.2c0.2,0,0.3,0.1,0.3,0.3
				c0,0.2-0.1,0.3-0.3,0.3L10.4,6.2L10.4,6.2z"/>
		</g>
		<g>
			<path class="st0" d="M14.1,6.6c-0.2,0-0.4-0.1-0.6-0.2c-0.4-0.3-0.5-0.9-0.2-1.3c0.3-0.4,0.9-0.5,1.3-0.2
				c0.4,0.3,0.5,0.9,0.2,1.3l0,0C14.6,6.4,14.3,6.6,14.1,6.6z M14.6,6L14.6,6L14.6,6z M14.1,5.2c-0.1,0-0.2,0.1-0.3,0.2
				c-0.1,0.2-0.1,0.4,0.1,0.5c0.1,0.2,0.3,0.1,0.5,0l0,0c0.1-0.2,0.1-0.4-0.1-0.5C14.2,5.3,14.1,5.2,14.1,5.2z"/>
		</g>
		<g>
			<path class="st0" d="M10.6,8.2c-0.1,0-0.2,0-0.2-0.1l-0.7-1C9.6,7,9.6,6.8,9.8,6.8c0.1-0.1,0.3-0.1,0.4,0.1l0.7,1
				C11,8,11,8.2,10.8,8.3C10.7,8.2,10.7,8.2,10.6,8.2z"/>
		</g>
		<g>
			<path class="st0" d="M11.1,9.3C11.1,9.3,11,9.3,11.1,9.3L11.1,9.3c-0.6-0.1-0.9-0.5-0.8-0.9c0-0.2,0.1-0.4,0.3-0.6
				c0.2-0.1,0.4-0.2,0.6-0.2c0.5,0,0.8,0.4,0.7,0.9c0,0.2-0.1,0.4-0.3,0.6C11.5,9.2,11.3,9.3,11.1,9.3z M11.1,8.1
				c-0.1,0-0.1,0-0.2,0.1c-0.1,0-0.1,0.1-0.1,0.2c0,0.2,0.1,0.3,0.3,0.3l0,0c0.1,0,0.2,0,0.2-0.1c0.1,0,0.1-0.1,0.1-0.2
				C11.4,8.3,11.3,8.1,11.1,8.1L11.1,8.1z"/>
		</g>
		<g>
			<path class="st0" d="M9.7,10.4C9.5,9,8.6,7.7,7.2,7.2V5.1C7.4,5,7.5,4.9,7.5,4.7l0,0c0-0.3-0.2-0.5-0.5-0.5V3.6
				c0-0.1-0.1-0.2-0.2-0.2H5c-0.1,0-0.2,0.1-0.2,0.2v0.5c-0.3,0-0.5,0.2-0.5,0.5l0,0C4.3,4.8,4.4,5,4.5,5v2.1
				C3.2,7.7,2.2,9,2.1,10.4v0.1c0,0,0,0,0,0.1s0,0.2,0,0.3c0,2.1,1.7,3.8,3.8,3.8s3.8-1.7,3.8-3.8c0-0.1,0-0.2,0-0.3
				S9.7,10.5,9.7,10.4L9.7,10.4z M5.1,3.8h1.5v0.3H5.1V3.8z M4.6,4.7c0-0.1,0.1-0.2,0.2-0.2H7c0.1,0,0.2,0.1,0.2,0.2l0,0
				c0,0.1-0.1,0.2-0.2,0.2H4.8C4.7,4.9,4.6,4.8,4.6,4.7L4.6,4.7z M4.8,7.5L4.8,7.5l0.1-2.3h2v2.3H7C8.2,8,9.1,9,9.3,10.3
				c-0.2,0.1-0.4,0.2-0.5,0.4C8.6,10.9,8.5,11,8.3,11S8,10.9,7.8,10.7s-0.4-0.4-0.7-0.4c-0.4,0-0.6,0.2-0.7,0.4
				C6.2,10.9,6.1,11,5.9,11s-0.3-0.1-0.5-0.3S5,10.3,4.7,10.3c-0.4,0-0.6,0.2-0.7,0.4C3.8,10.9,3.7,11,3.4,11
				c-0.2,0-0.3-0.1-0.5-0.3c-0.1-0.1-0.3-0.3-0.5-0.4C2.6,9,3.5,8,4.8,7.5z M5.9,14.3c-1.9,0-3.5-1.6-3.5-3.5v-0.1
				c0.1,0,0.2,0.1,0.3,0.3c0.2,0.2,0.4,0.4,0.7,0.4c0.4,0,0.6-0.2,0.7-0.4c0.2-0.2,0.3-0.3,0.5-0.3s0.3,0.1,0.5,0.3s0.4,0.4,0.7,0.4
				c0.4,0,0.6-0.2,0.7-0.4c0.2-0.2,0.3-0.3,0.5-0.3s0.3,0.1,0.5,0.3s0.4,0.4,0.7,0.4c0.4,0,0.6-0.2,0.7-0.4c0.1-0.1,0.2-0.2,0.3-0.3
				v0.1C9.3,12.7,7.8,14.3,5.9,14.3z"/>
			<path class="st0" d="M5.9,14.7C3.8,14.7,2,13,2,10.8c0-0.1,0-0.2,0-0.3c0,0,0,0,0-0.1v-0.1c0.2-1.4,1.1-2.6,2.4-3.2v-2
				c-0.1,0-0.2-0.2-0.2-0.4l0,0c0-0.3,0.2-0.5,0.5-0.6V3.6c0-0.1,0.1-0.2,0.2-0.2h1.8C6.9,3.4,7,3.5,7,3.6v0.5
				c0.3,0,0.5,0.3,0.5,0.6l0,0c0,0.2-0.1,0.4-0.2,0.5v2c1.3,0.5,2.3,1.7,2.4,3.2v0.1c0,0,0,0,0,0.1s0,0.2,0,0.3
				C9.7,12.9,8,14.7,5.9,14.7z M5,3.5C4.9,3.5,4.9,3.6,5,3.5L4.9,4.2H4.8c-0.3,0-0.5,0.2-0.5,0.5l0,0c0,0.2,0.1,0.3,0.2,0.4l0,0v2.2
				l0,0C3.2,7.8,2.3,9,2.1,10.4l0,0c0,0,0,0,0,0.1l0,0l0,0l0,0c0,0.1,0,0.2,0,0.3c0,2.1,1.7,3.8,3.8,3.8s3.8-1.7,3.8-3.8
				c0-0.1,0-0.2,0-0.3l0,0l0,0l0,0c0,0,0,0,0-0.1l0,0C9.4,9,8.5,7.8,7.2,7.3l0,0V5.1l0,0C7.3,5,7.4,4.8,7.4,4.7l0,0
				c0-0.3-0.2-0.5-0.5-0.5H6.8V3.6c0-0.1-0.1-0.1-0.1-0.1H5z M5.9,14.3c-1.9,0-3.5-1.6-3.5-3.5v-0.1v-0.1h0.1c0.1,0,0.2,0.1,0.3,0.3
				c0.2,0.2,0.3,0.4,0.7,0.4s0.5-0.2,0.7-0.4s0.3-0.3,0.5-0.3s0.4,0.1,0.5,0.3c0.2,0.2,0.3,0.4,0.7,0.4s0.5-0.2,0.7-0.4
				s0.3-0.3,0.5-0.3s0.4,0.1,0.5,0.3c0.2,0.2,0.3,0.4,0.7,0.4s0.5-0.2,0.7-0.4c0.1-0.1,0.2-0.2,0.3-0.3h0.1v0.1v0.1
				C9.4,12.8,7.8,14.3,5.9,14.3z M2.5,10.8L2.5,10.8c0,1.9,1.5,3.5,3.4,3.5s3.4-1.5,3.4-3.4l0,0c-0.1,0-0.1,0.1-0.2,0.2
				c-0.2,0.2-0.4,0.4-0.8,0.4c-0.4,0-0.6-0.2-0.8-0.4c-0.2-0.2-0.2-0.3-0.4-0.3c-0.2,0-0.3,0.1-0.4,0.3c-0.2,0.2-0.4,0.4-0.8,0.4
				s-0.6-0.2-0.8-0.4c-0.2-0.2-0.2-0.3-0.4-0.3c-0.2,0-0.3,0.1-0.4,0.3c-0.2,0.2-0.4,0.4-0.8,0.4s-0.6-0.2-0.8-0.4
				C2.6,10.9,2.5,10.8,2.5,10.8z M8.3,11c-0.2,0-0.4-0.1-0.5-0.3c-0.2-0.2-0.3-0.4-0.7-0.4c-0.4,0-0.5,0.2-0.7,0.4
				C6.2,10.9,6.1,11,5.9,11s-0.4-0.1-0.5-0.3c-0.2-0.2-0.3-0.4-0.7-0.4c-0.4,0-0.5,0.2-0.7,0.4C3.8,10.9,3.7,11,3.4,11
				c-0.2,0-0.4-0.1-0.5-0.3c-0.1-0.1-0.3-0.3-0.5-0.4l0,0l0,0C2.6,9,3.5,7.9,4.7,7.5h0.1V5.1h2.1v2.3H7C8.3,7.9,9.2,9,9.4,10.3l0,0
				l0,0c-0.2,0.1-0.4,0.2-0.5,0.4C8.6,10.9,8.5,11,8.3,11z M7.1,10.2c0.4,0,0.6,0.2,0.8,0.4s0.2,0.3,0.4,0.3s0.3-0.1,0.4-0.3
				c0.1-0.1,0.3-0.3,0.5-0.4C9,9,8.2,8,7,7.6L6.8,7.5V5.3H4.9v2.3l-0.1,0C3.6,8,2.7,9,2.5,10.3c0.2,0.1,0.4,0.2,0.5,0.4
				C3.2,10.9,3.2,11,3.4,11s0.3-0.1,0.4-0.3c0.2-0.2,0.4-0.4,0.8-0.4s0.6,0.2,0.8,0.4C5.6,10.9,5.6,11,5.8,11c0.2,0,0.3-0.1,0.4-0.3
				C6.5,10.5,6.7,10.2,7.1,10.2z M6.9,4.9H4.8c-0.1,0-0.2-0.1-0.2-0.2l0,0c0-0.1,0.1-0.2,0.2-0.2H7c0.1,0,0.2,0.1,0.2,0.2l0,0
				C7.2,4.8,7.1,4.9,6.9,4.9z M4.8,4.6C4.7,4.6,4.7,4.7,4.8,4.6L4.8,4.6c-0.1,0.2,0,0.2,0,0.2H7c0.1,0,0.1-0.1,0.1-0.1l0,0
				C7.1,4.6,7,4.6,7,4.6H4.8z M6.7,4.2H5.1V3.8h1.6V4.2z M5.2,4.1h1.4V3.9H5.2V4.1z"/>
		</g>
		<g>
			<path class="st0" d="M4.7,11.8c-0.4,0-0.7,0.3-0.7,0.7s0.3,0.7,0.7,0.7s0.7-0.3,0.7-0.7C5.3,12.1,5,11.8,4.7,11.8z M4.7,12.8
				c-0.2,0-0.3-0.1-0.3-0.3s0.1-0.3,0.3-0.3S5,12.3,5,12.5S4.9,12.8,4.7,12.8z"/>
			<path class="st0" d="M4.7,13.2c-0.4,0-0.7-0.3-0.7-0.7s0.3-0.7,0.7-0.7s0.7,0.3,0.7,0.7C5.4,12.9,5.1,13.2,4.7,13.2z M4.7,11.9
				c-0.3,0-0.6,0.3-0.6,0.6s0.3,0.6,0.6,0.6c0.3,0,0.6-0.3,0.6-0.6S5,11.9,4.7,11.9z M4.7,12.9c-0.2,0-0.4-0.2-0.4-0.4
				s0.2-0.4,0.4-0.4c0.2,0,0.4,0.2,0.4,0.4S4.9,12.9,4.7,12.9z M4.7,12.2c-0.1,0-0.3,0.1-0.3,0.3s0.1,0.3,0.3,0.3
				c0.1,0,0.3-0.1,0.3-0.3S4.8,12.2,4.7,12.2z"/>
		</g>
		<g>
			<path class="st0" d="M5.8,12.9c-0.3,0-0.5,0.2-0.5,0.5s0.2,0.5,0.5,0.5s0.5-0.2,0.5-0.5C6.4,13.2,6.1,12.9,5.8,12.9z M5.8,13.6
				c-0.1,0-0.2-0.1-0.2-0.2c0-0.1,0.1-0.2,0.2-0.2S6,13.3,6,13.4S5.9,13.6,5.8,13.6z"/>
			<path class="st0" d="M5.8,14c-0.3,0-0.6-0.3-0.6-0.6s0.3-0.6,0.6-0.6c0.3,0,0.6,0.3,0.6,0.6S6.2,14,5.8,14z M5.8,13
				c-0.2,0-0.4,0.2-0.4,0.4s0.2,0.4,0.4,0.4c0.2,0,0.4-0.2,0.4-0.4C6.3,13.2,6.1,13,5.8,13z M5.8,13.6c-0.1,0-0.2-0.1-0.2-0.2
				c0-0.1,0.1-0.2,0.2-0.2S6,13.3,6,13.4C6,13.5,6,13.5,5.8,13.6C6,13.6,5.9,13.6,5.8,13.6z M5.8,13.3C5.8,13.3,5.8,13.4,5.8,13.3
				c-0.1,0.1-0.1,0.2,0,0.2c0,0,0,0,0.1,0C5.9,13.5,5.9,13.5,5.8,13.3C5.9,13.4,5.9,13.3,5.8,13.3z"/>
		</g>
	</g>
</g>
</svg>
