<?xml version="1.0" encoding="utf-8"?>
<!-- Generator: Adobe Illustrator 21.1.0, SVG Export Plug-In . SVG Version: 6.00 Build 0)  -->
<svg version="1.1" id="Layer_1" xmlns="http://www.w3.org/2000/svg" xmlns:xlink="http://www.w3.org/1999/xlink" x="0px" y="0px"
	 viewBox="0 0 16 16" style="enable-background:new 0 0 16 16;" xml:space="preserve">
<style type="text/css">
	.st0{fill:#EB343C;}
</style>
<g id="Layer_43">
	<g>
		<g transform="translate(0,-952.36215)">
			<path class="st0" d="M4.2,954.5c-0.2,0-0.3,0.2-0.3,0.4v0.4H2.3l0,0c-0.2,0-0.3,0.2-0.3,0.4v1.3c0,0.2,0.2,0.4,0.4,0.4h0.4v2.2
				c0,0.2,0.2,0.4,0.4,0.4s0.4-0.2,0.4-0.4l0,0v-2.2h10.1v6.5H2.3l0,0c-0.2,0-0.3,0.2-0.3,0.4v1.3c0,0.2,0.2,0.4,0.4,0.4h12.3
				c0.2,0,0.4-0.2,0.4-0.4v-1.3c0-0.2-0.2-0.4-0.4-0.4h-0.4v-6.5h0.4c0.2,0,0.4-0.2,0.4-0.4v-1.3c0-0.2-0.2-0.4-0.4-0.4H13v-0.4
				c0-0.2-0.2-0.4-0.4-0.4l0,0c-0.2,0-0.3,0.2-0.3,0.4v0.4H4.6v-0.4C4.6,954.7,4.5,954.5,4.2,954.5C4.3,954.5,4.2,954.5,4.2,954.5z
				 M2.6,956h11.6v0.5H2.6V956z M10,961.1c-0.2,0-0.3,0.2-0.3,0.4v1.4c0,0.2,0.2,0.4,0.4,0.4h2.5c0.2,0,0.4-0.2,0.4-0.4v-1.4
				c0-0.2-0.2-0.4-0.4-0.4H10C10.1,961.1,10,961.1,10,961.1z M10.4,961.8h1.8v0.7h-1.8V961.8z M2.6,964.5h11.6v0.5H2.6V964.5z"/>
		</g>
		<g>
			<path class="st0" d="M3,10.9c-1.1,0-2-0.9-2-2s0.9-2,2-2s2,0.9,2,2S4.2,10.9,3,10.9z M3,7.5c-0.7,0-1.3,0.6-1.3,1.3
				s0.6,1.3,1.3,1.3s1.3-0.6,1.3-1.3S3.8,7.5,3,7.5z"/>
		</g>
		<g>
			<path class="st0" d="M3.7,9.3H3c-0.1,0-0.2-0.1-0.2-0.2V8c0-0.1,0.1-0.2,0.2-0.2c0.1,0,0.2,0.1,0.2,0.2v0.8h0.4
				c0.1,0,0.2,0.1,0.2,0.2C3.9,9.2,3.8,9.3,3.7,9.3z"/>
		</g>
	</g>
</g>
</svg>
