<?xml version="1.0" encoding="utf-8"?>
<!-- Generator: Adobe Illustrator 21.1.0, SVG Export Plug-In . SVG Version: 6.00 Build 0)  -->
<svg version="1.1" id="Layer_1" xmlns="http://www.w3.org/2000/svg" xmlns:xlink="http://www.w3.org/1999/xlink" x="0px" y="0px"
	 viewBox="0 0 16 16" style="enable-background:new 0 0 16 16;" xml:space="preserve">
<style type="text/css">
	.st0{fill:#EB343C;}
</style>
<g id="Layer_44">
	<g>
		<circle class="st0" cx="8" cy="2.3" r="1.3"/>
		<path class="st0" d="M13.8,12l-0.7-3.8c0-0.3-0.3-0.6-0.6-0.6l0,0h-0.1h-0.1l0,0H9.4L9.3,6.4h2.3c0.3,0,0.5-0.2,0.5-0.5
			s-0.2-0.5-0.5-0.5H9.1l0,0L9,4.7C8.9,4.1,8.3,3.8,7.8,3.9C7.2,4,6.9,4.5,7,5l0.6,3.3c0.1,0.5,0.5,0.8,1,0.8l0,0h3.2l0.6,3.1
			c0.1,0.4,0.5,0.7,0.9,0.6C13.6,12.9,13.9,12.5,13.8,12z"/>
		<path class="st0" d="M11.6,12.7c-0.1,0-0.2,0-0.3,0.1l0,0l-0.1,0.1L11.1,13c-0.8,0.8-1.8,1.2-2.8,1.2c-2.2,0-4-1.8-4-4
			c0-1.4,0.7-2.7,1.9-3.4h0.1l0,0c0.1-0.1,0.2-0.2,0.2-0.3c0-0.2-0.2-0.4-0.4-0.4c-0.1,0-0.2,0-0.2,0.1c0,0-0.1,0-0.1,0.1
			c-1.4,0.9-2.3,2.4-2.3,4c0,2.6,2.1,4.7,4.7,4.7c1.3,0,2.5-0.5,3.4-1.4l0.1-0.1l0.1-0.1l0,0l0,0l0,0c0.1-0.1,0.1-0.2,0.1-0.2
			C11.9,12.9,11.8,12.7,11.6,12.7z"/>
	</g>
</g>
</svg>
