<?xml version="1.0" encoding="utf-8"?>
<!-- Generator: Adobe Illustrator 21.1.0, SVG Export Plug-In . SVG Version: 6.00 Build 0)  -->
<svg version="1.1" id="Layer_1" xmlns="http://www.w3.org/2000/svg" xmlns:xlink="http://www.w3.org/1999/xlink" x="0px" y="0px"
	 viewBox="0 0 16 16" style="enable-background:new 0 0 16 16;" xml:space="preserve">
<style type="text/css">
	.st0{fill:#EB343C;}
</style>
<g id="Layer_47">
	<g>
		<g>
			<g>
				<g>
					<g>
						<path class="st0" d="M14.3,3.9H1.7C1.3,3.9,1,4.2,1,4.6v6.6c0,0.4,0.3,0.7,0.7,0.7h12.6c0.4,0,0.7-0.3,0.7-0.7V4.6
							C15,4.2,14.7,3.9,14.3,3.9z M6,3.9C5.8,3.9,5.7,4,5.6,4.2c0,0.1-0.1,0.2-0.2,0.2S5.2,4.3,5.1,4.2c0-0.2-0.2-0.3-0.4-0.3H6z
							 M4.7,11.8c0.2,0,0.4-0.1,0.4-0.3c0-0.1,0.1-0.2,0.2-0.2s0.2,0.1,0.2,0.2c0.1,0.2,0.2,0.3,0.4,0.3H4.7z M14.5,11.1
							c0,0.1-0.1,0.2-0.2,0.2h-1.9l0,0l0,0H6.1C6,11,5.7,10.8,5.4,10.8c-0.3,0-0.6,0.2-0.7,0.5h-3c-0.1,0-0.2-0.1-0.2-0.2V4.6
							c0-0.1,0.1-0.2,0.2-0.2h3c0.1,0.3,0.4,0.5,0.7,0.5c0.3,0,0.6-0.2,0.7-0.5h8.3c0.1,0,0.2,0.1,0.2,0.2L14.5,11.1L14.5,11.1z"/>
					</g>
					<g>
						<circle class="st0" cx="5.3" cy="9.3" r="0.2"/>
					</g>
					<g>
						<circle class="st0" cx="5.3" cy="10.2" r="0.2"/>
					</g>
					<g>
						<circle class="st0" cx="5.3" cy="8.3" r="0.2"/>
					</g>
					<g>
						<circle class="st0" cx="5.3" cy="7.4" r="0.2"/>
					</g>
					<g>
						<circle class="st0" cx="5.3" cy="6.5" r="0.2"/>
					</g>
					<g>
						<circle class="st0" cx="5.3" cy="5.5" r="0.2"/>
					</g>
				</g>
			</g>
		</g>
		<g>
			<g>
				<path class="st0" d="M3.8,7.3L3.8,7.3L3.2,7L2.6,7.3H2.5c0,0-0.1-0.1,0-0.1l0.1-0.6L2.1,6.1V6c0,0,0-0.1,0.1-0.1l0.6-0.1
					l0.3-0.6l0.1-0.1c0,0,0.1,0,0.1,0.1l0.3,0.6l0.6,0.1c0,0,0.1,0,0.1,0.1v0.1L3.8,6.6l0.1,0.6C3.9,7.2,3.9,7.3,3.8,7.3L3.8,7.3z
					 M3.2,6.8L3.2,6.8L3.6,7V6.5V6.4l0.3-0.3L3.5,6c0,0-0.1,0-0.1-0.1L3.2,5.6L3,6H2.9L2.4,6.1l0.3,0.3v0.1V7L3.2,6.8
					C3.1,6.8,3.2,6.8,3.2,6.8z"/>
				<path class="st0" d="M2.6,7.4C2.5,7.4,2.5,7.3,2.6,7.4C2.4,7.3,2.4,7.2,2.4,7.2l0.1-0.6L2.1,6.2C2,6.1,2,6,2,6
					c0-0.1,0.1-0.1,0.1-0.1l0.6-0.1L3,5.2c0-0.1,0.1-0.1,0.1-0.1s0.1,0,0.1,0.1l0.3,0.5l0.6,0.1c0.1,0,0.1,0.1,0.1,0.1
					c0,0.1,0,0.1,0,0.2L3.8,6.6L4,7.2c0,0.1,0,0.1-0.1,0.2c0,0-0.1,0-0.2,0L3.2,7.1L2.6,7.4L2.6,7.4z M3.2,6.9l0.6,0.3
					c0,0,0,0,0.1,0c0,0,0,0,0-0.1L3.7,6.5L4.2,6c0,0,0,0,0-0.1l0,0H3.5L3.2,5.3H3.1L2.8,5.9L2.2,6l0,0c0,0,0,0,0,0.1l0.5,0.5
					L2.5,7.2c0,0,0,0,0,0.1c0,0,0,0,0.1,0L3.2,6.9z M3.7,7.1L3.2,6.8c0,0,0,0-0.1,0L2.6,7.1l0.1-0.6c0,0,0,0,0-0.1L2.3,6.1L2.9,6
					l0,0l0.3-0.5L3.4,6l0,0L4,6.1L3.6,6.5c0,0,0,0,0,0.1L3.7,7.1z M3.2,6.7L3.2,6.7l0.4,0.2L3.5,6.5c0-0.1,0-0.1,0-0.1l0.3-0.3H3.5
					c-0.1,0-0.1,0-0.1-0.1L3.2,5.7L3,6L2.9,6.1H2.5l0.3,0.3c0,0,0.1,0.1,0,0.1v0.4L3.2,6.7C3.1,6.7,3.2,6.7,3.2,6.7z"/>
			</g>
		</g>
		<g>
			<g>
				<path class="st0" d="M4.1,9.3H2.3c-0.1,0-0.1,0-0.1-0.1V8.7c0-0.1,0-0.1,0.1-0.1h1.8c0.1,0,0.1,0,0.1,0.1v0.5
					C4.2,9.2,4.2,9.3,4.1,9.3z M2.4,9H4V8.8H2.4V9z"/>
				<path class="st0" d="M4.1,9.3H2.3c-0.1,0-0.2-0.1-0.2-0.2V8.7c0-0.1,0.1-0.2,0.2-0.2h1.8c0.1,0,0.2,0.1,0.2,0.2v0.5
					C4.3,9.2,4.2,9.3,4.1,9.3z M2.3,8.6C2.2,8.6,2.2,8.6,2.3,8.6L2.2,9.1c0,0,0,0.1,0.1,0.1h1.8c0,0,0.1,0,0.1-0.1V8.7
					c0,0,0-0.1-0.1-0.1C4.1,8.6,2.3,8.6,2.3,8.6z M4,9.1H2.3V8.7H4V9.1z M2.4,9h1.5V8.8H2.4V9z"/>
			</g>
		</g>
		<g>
			<rect x="2.3" y="10" class="st0" width="1.8" height="0.1"/>
			<path class="st0" d="M4.1,10.2H2.3c-0.1,0-0.1,0-0.1-0.1V10c0-0.1,0-0.1,0.1-0.1h1.8c0.1,0,0.1,0,0.1,0.1L4.1,10.2
				C4.2,10.2,4.2,10.2,4.1,10.2z"/>
		</g>
		<g>
			<g>
				<path class="st0" d="M13.3,7.6h-3.1c-0.2,0-0.3-0.1-0.3-0.3C9.9,7.1,10,7,10.2,7h3.1c0.2,0,0.3,0.1,0.3,0.3
					C13.6,7.5,13.5,7.6,13.3,7.6z"/>
			</g>
		</g>
		<g>
			<g>
				<path class="st0" d="M8.9,7.6H8.4c-0.2,0-0.3-0.1-0.3-0.3C8.1,7.1,8.2,7,8.4,7h0.5c0.2,0,0.3,0.1,0.3,0.3S9.1,7.6,8.9,7.6z"/>
			</g>
		</g>
		<g>
			<g>
				<path class="st0" d="M13.3,6.5H8.8c-0.2,0-0.3-0.1-0.3-0.3s0.1-0.3,0.3-0.3h4.5c0.2,0,0.3,0.1,0.3,0.3S13.5,6.5,13.3,6.5z"/>
			</g>
		</g>
		<g>
			<g>
				<path class="st0" d="M13.3,9.8h-3.1c-0.2,0-0.3-0.1-0.3-0.3s0.1-0.3,0.3-0.3h3.1c0.2,0,0.3,0.1,0.3,0.3
					C13.6,9.7,13.5,9.8,13.3,9.8z"/>
			</g>
		</g>
		<g>
			<g>
				<path class="st0" d="M13.3,8.6H8.8c-0.2,0-0.3-0.1-0.3-0.3S8.6,8,8.8,8h4.5c0.2,0,0.3,0.1,0.3,0.3S13.5,8.6,13.3,8.6z"/>
			</g>
		</g>
	</g>
</g>
</svg>
