<?xml version="1.0" encoding="utf-8"?>
<!-- Generator: Adobe Illustrator 21.1.0, SVG Export Plug-In . SVG Version: 6.00 Build 0)  -->
<svg version="1.1" id="Layer_1" xmlns="http://www.w3.org/2000/svg" xmlns:xlink="http://www.w3.org/1999/xlink" x="0px" y="0px"
	 viewBox="0 0 16 16" style="enable-background:new 0 0 16 16;" xml:space="preserve">
<style type="text/css">
	.st0{fill:#EB343C;}
</style>
<g id="Layer_52">
	<path class="st0" d="M13.7,8.2c0.4-0.6,0.6-1.3,0.6-2V5h-2c0,0,0,0-0.1,0c0-0.2,0.1-0.5,0.1-0.7v-2h-0.2c-1,0-1.9,0.3-2.6,0.9
		C8.8,2.1,8.2,1.3,8.2,1.3L8,1.1L7.8,1.3c0,0-0.6,0.8-1.3,1.9C5.8,2.6,4.9,2.3,3.9,2.3H3.7v2c0,0.2,0,0.5,0.1,0.7c0,0,0,0-0.1,0h-2
		v1.1c0,0.7,0.2,1.4,0.6,2H1v0.2c0,2.3,1.8,4.2,4.1,4.3v0.7c0,0.4,0.3,0.7,0.7,0.7h1.1v1.1h0.5V14h1.4v1.1h0.5V14h1.1
		c0.4,0,0.7-0.3,0.7-0.7v-0.7c2.3-0.1,4.1-2,4.1-4.3V8.2H13.7L13.7,8.2z M11.8,2.8v1.6c0,0.2,0,0.5-0.1,0.7
		c-0.5,0.1-0.9,0.2-1.4,0.5c-0.2-0.7-0.5-1.3-0.7-1.9C10.3,3.1,11,2.8,11.8,2.8z M8,1.8c0.6,0.7,2.3,3.2,2.3,6S8.5,12,8,12.3
		C7.5,12,5.7,10.7,5.7,7.8C5.7,5,7.4,2.5,8,1.8z M4.2,4.4V2.8c0.8,0,1.6,0.3,2.2,0.8C6.1,4.2,5.8,4.8,5.6,5.5
		C5.2,5.3,4.7,5.1,4.2,5.1C4.2,4.8,4.2,4.6,4.2,4.4z M2.1,6.2V5.5h1.6C4.3,5.5,5,5.7,5.5,6C5.4,6.5,5.3,7.1,5.3,7.7
		c0,0.2,0,0.5,0,0.7C4.9,8.3,4.4,8.2,3.9,8.2H2.8C2.4,7.6,2.1,6.9,2.1,6.2z M10.3,13.6H5.7c-0.1,0-0.2-0.1-0.2-0.2v-0.7h1.1v-0.5
		H5.3c-2,0-3.7-1.6-3.8-3.6H4c0.5,0,1,0.1,1.5,0.3c0.3,1.7,1.3,2.8,1.9,3.3h-1v0.5h1.5H8h0.1h2.4v0.7C10.5,13.5,10.4,13.6,10.3,13.6
		z M10.7,12.3h-2c0.6-0.5,1.6-1.6,1.9-3.3c0.2-0.1,0.9-0.3,1.1-0.3l-0.1-0.4c-0.2,0-0.8,0.1-1,0.2c0-0.2,0-0.4,0-0.7
		c0-0.6-0.1-1.2-0.2-1.7c0.5-0.3,1.1-0.5,1.8-0.5h1.6v0.7c0,0.7-0.2,1.4-0.7,2H12c-0.1,0-0.3,0-0.4,0v0.4c0.1,0,0.2,0,0.4,0h2.5
		C14.4,10.7,12.8,12.3,10.7,12.3z"/>
</g>
</svg>
