<?xml version="1.0" encoding="utf-8"?>
<!-- Generator: Adobe Illustrator 22.1.0, SVG Export Plug-In . SVG Version: 6.00 Build 0)  -->
<svg version="1.1" id="Layer_1" xmlns="http://www.w3.org/2000/svg" xmlns:xlink="http://www.w3.org/1999/xlink" x="0px" y="0px"
	 viewBox="0 0 40 37" style="enable-background:new 0 0 40 37;" xml:space="preserve">
<style type="text/css">
	.st0{fill:#EE464C;}
</style>
<path class="st0" d="M9,8c2.4-0.4,6.1,0,6.8,2.8c0.6,2.5-1.3,4.9-1.6,7.3c-0.2,1.9,0.2,3.6,0.7,5.4c0.3,0.9,0.4,2-0.5,2.7
	c-0.8,0.6-2.2,0.7-3.2,0.5c-2.2-0.4-2.1-2.6-2.3-4.4c-0.3-2.7-1.7-4.8-2.4-7.4C5.6,12.3,5.7,8.8,9,8c1-0.2,0.6-1.8-0.4-1.5
	C3,7.9,4.2,14.1,6,18c0.7,1.5,1.2,3,1.4,4.7C7.5,23.8,7.5,25,8,26c0.6,1.2,1.7,2.1,3,2.3c2.3,0.5,5.3-0.4,5.8-3
	c0.1-0.8,0-1.6-0.3-2.4c-0.3-1.2-0.7-2.5-0.7-3.8c0-1.8,0.8-3.2,1.3-4.9c0.7-2.2,0.5-4.7-1.3-6.4C14,6.3,10.9,6.1,8.6,6.5
	C7.6,6.7,8,8.2,9,8z"/>
<path class="st0" d="M5.8,5.1c0.1,0.3,0.1,0.6-0.2,0.8C5.3,6.1,5,5.8,4.9,5.5C4.6,4.8,5.5,4.4,5.8,5.1c0.2,0.4,0.5,0.7,1,0.6
	c0.4-0.1,0.7-0.6,0.6-1c-0.5-1-1.5-1.8-2.7-1.5C3.5,3.6,3.1,4.9,3.4,6C3.7,7,4.9,7.8,6,7.5c1.2-0.3,1.7-1.6,1.3-2.8
	C7,3.7,5.5,4.2,5.8,5.1z"/>
<path class="st0" d="M10.2,3.4c0,0.5-0.1,1.1-0.6,1.2c-0.5,0.1-0.9-0.4-1-0.9c0-0.5,0.2-1,0.7-1.1c0.6-0.1,0.9,0.5,0.9,1
	c0.2,1,1.7,0.6,1.5-0.4C11.6,1.9,10.4,0.8,9,1C7.7,1.2,6.9,2.6,7,3.8c0.2,1.3,1.2,2.4,2.6,2.3s2.3-1.4,2.2-2.8
	C11.8,2.4,10.2,2.4,10.2,3.4z"/>
<path class="st0" d="M15,3.6c0,0.5-0.1,1-0.6,1.1s-0.9-0.4-1-0.9c0-0.5,0.2-1,0.7-1c0.6-0.1,0.9,0.5,0.9,1c0.2,1,1.7,0.6,1.5-0.4
	c-0.2-1.3-1.4-2.4-2.8-2.1c-1.3,0.2-2.1,1.5-2,2.8c0.2,1.3,1.2,2.4,2.6,2.3s2.3-1.4,2.2-2.7C16.5,2.6,14.9,2.6,15,3.6z"/>
<path class="st0" d="M19.5,6.4c-0.2,0.4-0.7,1.2-1.3,1c-0.6-0.2-0.4-1.2-0.2-1.6c0.2-0.4,0.7-1.1,1.2-1C19.9,4.9,19.7,6,19.5,6.4
	c-0.4,0.9,1,1.7,1.4,0.8c0.6-1.3,0.6-3.1-0.9-3.8c-1.4-0.6-2.8,0.4-3.4,1.6S16,8.1,17.4,8.8s2.9-0.4,3.5-1.6
	C21.4,6.3,20,5.5,19.5,6.4z"/>
<path class="st0" d="M3.2,8.4c0.1,0.2,0.2,0.6,0,0.8S2.7,9.1,2.6,8.9c-0.1-0.2-0.2-0.6,0-0.7C2.9,8,3.2,8.4,3.3,8.6
	c0.5,0.9,1.8,0.1,1.4-0.8C4.1,6.9,3,6.2,1.9,6.8c-1,0.5-1.2,1.8-0.8,2.7c0.4,1,1.5,1.6,2.6,1.2C4.8,10.3,5.1,9,4.7,8
	c-0.2-0.4-0.5-0.7-1-0.6C3.4,7.6,3,8,3.2,8.4z"/>
<path class="st0" d="M31.4,14.2c-4.2-0.9-9.4,0.6-9.1,5.7c0.1,1.3,0.6,2.4,1,3.7c0.5,1.6,0.4,3.2,0.1,4.8c-0.3,1.1-0.9,2.2-1,3.4
	c-0.2,2.9,2.4,4.1,4.9,4.1c1.2,0,2.3-0.4,3.1-1.3c1.7-1.8,1.3-4.6,2-6.8c1-2.9,2.9-5.3,2.9-8.5C35.4,16.8,33.7,14.9,31.4,14.2
	c-1-0.3-1.4,1.2-0.4,1.5c3.2,0.9,3.1,4.2,2.3,6.9c-0.9,2.6-2.4,4.8-2.9,7.6c-0.3,1.7-0.4,3.8-2.5,4.2c-1,0.2-2.4,0.1-3.3-0.7
	C23.8,33,24,32,24.3,31c0.1-0.2,0.5-1.3,0.6-1.8c0.3-1.1,0.4-2.2,0.4-3.3c-0.1-2.5-1.9-4.9-1.2-7.4c0.7-3,4.5-3.1,7-2.6
	C32,15.9,32.4,14.4,31.4,14.2z"/>
<path class="st0" d="M32.8,12.5c-0.4,1.1,0.1,2.4,1.2,2.8c1.1,0.4,2.2-0.3,2.6-1.3c0.4-1,0.1-2.3-1-2.8s-2.3,0.1-2.8,1.1
	c-0.4,0.9,0.9,1.7,1.4,0.8c0.1-0.3,0.3-0.6,0.7-0.5c0.3,0.1,0.4,0.5,0.3,0.8c-0.1,0.3-0.4,0.5-0.7,0.4c-0.4-0.1-0.3-0.6-0.2-0.9
	C34.7,11.9,33.1,11.5,32.8,12.5z"/>
<path class="st0" d="M28.4,10.9c-0.2,1.3,0.7,2.7,2.1,2.8c1.3,0.1,2.5-0.9,2.7-2.2s-0.5-2.6-1.9-2.9c-1.4-0.3-2.6,0.8-2.9,2.1
	c-0.2,1,1.3,1.4,1.5,0.4c0.1-0.5,0.4-1,0.9-0.9c0.6,0,0.8,0.7,0.7,1.2c-0.1,0.5-0.5,0.9-1,0.8c-0.6-0.1-0.7-0.8-0.6-1.2
	C30.1,9.9,28.5,9.9,28.4,10.9z"/>
<path class="st0" d="M23.6,10.9c-0.2,1.3,0.7,2.6,2.1,2.8c1.3,0.1,2.5-0.9,2.7-2.2s-0.6-2.6-1.9-2.9c-1.4-0.3-2.6,0.7-2.9,2
	c-0.2,1,1.3,1.4,1.5,0.4c0.1-0.5,0.4-1,0.9-0.9s0.8,0.7,0.7,1.1c-0.1,0.5-0.5,0.9-1,0.8c-0.6-0.1-0.7-0.7-0.6-1.2
	C25.3,9.9,23.7,9.9,23.6,10.9z"/>
<path class="st0" d="M19.2,14.3c0.6,1.2,1.8,2.3,3.2,1.8c1.5-0.5,1.7-2.5,1.1-3.7c-0.5-1.2-1.8-2.3-3.2-1.9
	c-1.5,0.5-1.7,2.4-1.3,3.7c0.4,0.9,1.9,0.5,1.5-0.4c-0.2-0.4-0.4-1.5,0.2-1.7c0.6-0.3,1.1,0.6,1.3,1c0.2,0.4,0.4,1.5-0.3,1.6
	c-0.6,0.1-1.1-0.7-1.3-1.1C20.1,12.6,18.7,13.4,19.2,14.3z"/>
<path class="st0" d="M35.3,15.7c-0.5,1-0.4,2.3,0.7,2.9c1,0.5,2.2-0.1,2.7-1s0.4-2.3-0.7-2.8C37,14.2,35.9,14.8,35.3,15.7
	c-0.5,0.9,0.9,1.7,1.4,0.8c0.1-0.2,0.3-0.5,0.6-0.4s0.2,0.5,0.1,0.7c-0.1,0.2-0.3,0.5-0.6,0.4s-0.2-0.5-0.1-0.7
	c0.2-0.4,0.1-0.9-0.3-1.1C36.1,15.2,35.5,15.3,35.3,15.7z"/>
</svg>
