<?xml version="1.0" encoding="utf-8"?>
<!-- Generator: Adobe Illustrator 22.1.0, SVG Export Plug-In . SVG Version: 6.00 Build 0)  -->
<svg version="1.1" id="Layer_1" xmlns="http://www.w3.org/2000/svg" xmlns:xlink="http://www.w3.org/1999/xlink" x="0px" y="0px"
	 viewBox="0 0 34 40" style="enable-background:new 0 0 34 40;" xml:space="preserve">
<style type="text/css">
	.st0{fill:#EE464C;}
</style>
<path class="st0" d="M7.1,14.9c-0.2,3-4.7,3.1-4.7,0C2.3,11.9,6.9,11.9,7.1,14.9c0.1,1,1.6,1,1.5,0C8.5,12.8,6.9,11,4.7,11
	c-2.1,0-3.9,1.8-3.9,3.9s1.7,3.8,3.7,3.9c2.3,0.1,4-1.7,4.1-3.9C8.7,14,7.1,14,7.1,14.9z"/>
<path class="st0" d="M4.3,21.1c1.3-1,1.3,1.1,1.3,1.7c0,1,0,1.9,0,2.9c0,1.3-0.3,2.8,0.8,3.8c1.1,0.9,3,0.6,4.4,0.6
	c0.5,0,1.3-0.1,1.8,0c1.1,0.3,0.9,1,0.9,1.7c0,1.4,0.2,3.1,0,4.5c-0.3,1.6-2.1,1.2-2.3-0.2c-0.1-0.7,0.1-1.5,0-2.2
	c-0.3-1.7-1.8-2-3.3-2c-1.2,0-3.5,0.5-4-1c-0.2-0.5,0-1.4,0-1.9c0-1,0-2.1,0-3.1C3.9,24.7,3.4,22,4.3,21.1C5,20.4,3.9,19.3,3.2,20
	c-1.2,1.2-0.9,3.2-0.9,4.8c0,1.9-0.1,3.9,0,5.8c0.1,2,1.4,2.6,3.2,2.6c0.9,0,2-0.1,2.9,0c1.4,0.2,1.2,1.3,1.2,2.3s0.1,1.8,0.9,2.5
	c0.8,0.7,2,1,3,0.5c1.8-0.9,1.5-3.2,1.5-4.9c0-1.6,0.5-4.2-1.4-5c-1.7-0.8-3.8,0.2-5.5-0.2C6.8,28.1,7,27.1,7,26.2
	c0-1.2,0-2.4,0-3.7c0-0.9-0.1-1.7-0.7-2.4c-0.9-0.9-2.2-0.9-3.2-0.1C2.4,20.6,3.5,21.7,4.3,21.1z"/>
<path class="st0" d="M25.2,15c0.1,2.1,1.7,3.9,3.9,3.9c2.1,0,3.9-1.8,3.9-3.9s-1.7-3.8-3.7-3.9C27,11,25.3,12.8,25.2,15
	c-0.1,1,1.5,1,1.5,0c0.2-3,4.7-3.1,4.7,0s-4.6,3-4.7,0C26.7,14,25.1,14,25.2,15z"/>
<path class="st0" d="M30.6,20c-1.9-1.5-3.9,0.1-4,2.2c0,0.9,0,1.9,0,2.9c0,0.8,0.2,1.8,0,2.5c-0.3,1.2-1.6,0.9-2.4,0.9
	c-1,0-2-0.1-3,0c-2.1,0.1-2.5,1.8-2.5,3.5c0,1.6-0.5,4.1,0.4,5.6c1.2,1.9,4.3,1.6,4.9-0.7c0.2-0.8-0.1-1.8,0.1-2.6
	c0.3-1.4,1.6-1,2.6-1c1.8,0,4.3,0.3,4.7-2c0.3-1.8,0-3.9,0-5.8C31.4,23.8,31.9,21.3,30.6,20c-0.7-0.7-1.8,0.4-1.1,1.1
	c0.8,0.8,0.4,3,0.4,4c0,1.6,0,3.3,0,4.9c0,0.7,0.2,1.3-0.8,1.6c-0.5,0.2-1.4,0-1.9,0c-1.3,0-3.1-0.3-4,0.8c-1.1,1.2,0.2,3.9-1.4,4.6
	c-2,0.9-1.5-3.2-1.5-4.1c0-1.4-0.4-3.1,1.5-3.1c1.4,0,3,0.2,4.4,0c2-0.4,2-2.1,2-3.7c0-1,0-2,0-2.9c0-0.5-0.2-3.3,1.3-2.2
	C30.3,21.7,31.4,20.7,30.6,20z"/>
<path class="st0" d="M22.2,25.3c-2.1,0-4.1,0-6.2,0c-1.2,0-2.5,0-3.7,0c-0.2,0-0.5,0-0.7,0c-1.4-0.2-1.5-2,0-2.3
	c0.6-0.1,1.3,0,1.9,0c1.4,0,2.9,0,4.3,0c1.2,0,2.3,0,3.5,0c0.3,0,0.5,0,0.8,0C23.5,23.2,23.8,25.1,22.2,25.3c-1,0.1-1,1.6,0,1.5
	c3.4-0.3,3.4-5.2,0-5.4c-2.5-0.1-5.1,0-7.6,0c-2.1,0-5.4-0.4-5.5,2.6s3,2.8,5,2.8c2.7,0,5.4,0,8.2,0C23.2,26.8,23.2,25.3,22.2,25.3z
	"/>
<path class="st0" d="M16.9,38.4L16.9,38.4c-0.3,0-0.5-0.2-0.5-0.5V26.6c0-0.3,0.2-0.5,0.5-0.5l0,0c0.3,0,0.5,0.2,0.5,0.5v11.3
	C17.4,38.1,17.2,38.4,16.9,38.4z"/>
<path class="st0" d="M9.6,9.6c1.9,0.4,4.2,0.2,6.1,0.1c3-0.1,3.2-2.8,3.1-5.2c0-1.3-0.5-2.4-1.7-3.1c-0.9-0.4-1.9-0.3-2.8-0.3
	c-2.1,0-5.2-0.6-6.5,1.5C7.2,3.7,7.3,5.2,7.4,6.4c0,0.5,0.2,0.9,0.1,1.4S7.1,8.9,7,9.4c-0.2,0.5,0.4,1.2,0.9,0.9
	C8.6,10,9.3,9.8,10,9.5c0.9-0.4,0.5-1.8-0.4-1.5C8.9,8.3,8.2,8.6,7.5,8.9c0.3,0.3,0.6,0.6,0.9,0.9C8.7,9,9.2,8.2,9.1,7.4
	C9,6.4,8.8,5.3,8.9,4.3c0.2-1.7,1.5-1.6,2.7-1.6s2.4-0.1,3.6,0c0.4,0,0.9,0,1.3,0.2c0.8,0.5,0.8,1.2,0.8,2c0,1.3,0.3,3.1-1.5,3.3
	c-1,0.1-2,0-2.9,0S11,8.3,10.1,8.1C9,7.8,8.6,9.3,9.6,9.6z"/>
<path class="st0" d="M10.9,5.1c1.6,0,3.1,0,4.7,0c1,0,1-1.5,0-1.5c-1.6,0-3.1,0-4.7,0C9.9,3.6,9.9,5.1,10.9,5.1L10.9,5.1z"/>
<path class="st0" d="M10.9,7.1c1,0,2.1,0,3.1,0s1-1.5,0-1.5s-2.1,0-3.1,0C9.9,5.5,9.9,7.1,10.9,7.1L10.9,7.1z"/>
<path class="st0" d="M23.2,18.6c1,0,1-1.5,0-1.5C22.2,17,22.2,18.6,23.2,18.6L23.2,18.6z"/>
<path class="st0" d="M21.6,18.6c-0.9,0.2-1.8,0.1-2.7,0.1c-1.2,0-2.4,0-3.5,0c-1.6-0.1-2.3-0.9-2.3-2.4c0-1.2-0.3-3,0.8-3.8
	c0.8-0.6,2-0.4,2.9-0.4c1.2,0,2.4,0,3.6,0c1.5,0,2.4,0.6,2.5,2.2c0.1,1.1,0.2,2.4-0.2,3.4c-0.1,0.3,0,0.5,0.2,0.8
	c0.4,0.5,0.9,1.1,1.3,1.6c0.2-0.4,0.4-0.9,0.5-1.3c-1-0.1-2-0.1-2.9-0.2c-1-0.1-1,1.5,0,1.5c1,0.1,2,0.1,2.9,0.2
	c0.7,0.1,0.9-0.8,0.5-1.3s-0.9-1.1-1.3-1.6c0.1,0.3,0.1,0.5,0.2,0.8c0.4-1.1,0.3-2.4,0.3-3.6c0-1.3-0.3-2.6-1.5-3.4
	C21.2,10,18,10.6,16,10.6c-1,0-2-0.1-3,0.5c-1.2,0.7-1.6,2-1.6,3.4c0,1.1-0.2,2.5,0.2,3.5c0.5,1.4,1.8,2.2,3.3,2.3
	c1.2,0.1,2.4,0,3.6,0c1.1,0,2.3,0.1,3.4-0.1C22.9,19.9,22.5,18.4,21.6,18.6z"/>
<path class="st0" d="M20.9,13.4c-1.8,0-3.6,0-5.4,0c-1,0-1,1.5,0,1.5c1.8,0,3.6,0,5.4,0C21.9,14.9,21.9,13.4,20.9,13.4L20.9,13.4z"
	/>
<path class="st0" d="M20.9,15.6c-1.2,0-2.4,0-3.6,0c-1,0-1,1.5,0,1.5c1.2,0,2.4,0,3.6,0C21.9,17.2,21.9,15.6,20.9,15.6L20.9,15.6z"
	/>
</svg>
