<?xml version="1.0" encoding="utf-8"?>
<!-- Generator: Adobe Illustrator 21.1.0, SVG Export Plug-In . SVG Version: 6.00 Build 0)  -->
<svg version="1.1" id="Layer_1" xmlns="http://www.w3.org/2000/svg" xmlns:xlink="http://www.w3.org/1999/xlink" x="0px" y="0px"
	 viewBox="0 0 16 16" style="enable-background:new 0 0 16 16;" xml:space="preserve">
<style type="text/css">
	.st0{fill:#FDAA00;}
</style>
<g id="call">
	<g>
		<g>
			<path class="st0" d="M10,5.4c1.1-0.9,2.2-1.8,3.3-2.7c-0.2,0-0.4,0-0.6,0c0.9,0.8,1.6,2.1,1.6,3.3s-0.9,2-1.7,2.7
				C11,10.1,9.4,11.6,7.8,13C6,14.5,3,14,1.6,12.3c0,0.2,0,0.4,0,0.6c1-0.9,2.1-1.9,3.1-2.8c-0.2,0-0.3,0-0.5,0.1
				c0.8,0.6,2,0.9,2.9,0.5c0.7-0.3,1.2-0.9,1.8-1.4c0.5-0.5,1.2-0.9,1.5-1.6c0.5-1,0.3-2.1-0.5-2.9C9.6,4.5,9,5,9.4,5.4
				C10.8,6.7,9.2,8,8.2,8.8c-0.3,0.3-0.6,0.6-1,0.9C6.4,10.2,5.4,10,4.6,9.4c-0.1-0.1-0.4,0-0.5,0.1c-1,0.9-2.1,1.9-3.1,2.8
				c-0.2,0.2-0.1,0.4,0,0.6c1.3,1.6,4.2,2.5,6.2,1.5c1-0.4,1.8-1.3,2.6-2.1c1.1-1,2.2-2,3.3-3c0.9-0.8,1.9-1.6,2.1-3
				c0.2-1.6-0.7-3.2-1.8-4.3c-0.2-0.2-0.4-0.1-0.6,0c-1.2,1-2.3,1.9-3.4,2.8C9,5.2,9.6,5.7,10,5.4z"/>
		</g>
		<g>
			<path class="st0" d="M2.3,13.6c1.1-1,2.3-2,3.4-3.1c0.4-0.3-0.2-0.9-0.6-0.6c-1.1,1-2.3,2-3.4,3.1C1.4,13.4,2,14,2.3,13.6
				L2.3,13.6z"/>
		</g>
		<g>
			<path class="st0" d="M10.7,6.3c1.1-1,2.2-1.9,3.2-2.9c0.4-0.3-0.2-0.9-0.6-0.6c-1.1,1-2.2,1.9-3.2,2.9C9.7,6,10.3,6.6,10.7,6.3
				L10.7,6.3z"/>
		</g>
		<g>
			<path class="st0" d="M3.9,13.4c0.8,0.5,2,0.3,2.9,0c0.5-0.1,0.3-0.9-0.2-0.8c-0.7,0.2-1.7,0.4-2.2,0C3.9,12.4,3.5,13.1,3.9,13.4
				L3.9,13.4z"/>
		</g>
	</g>
</g>
</svg>
