<?xml version="1.0" encoding="utf-8"?>
<!-- Generator: Adobe Illustrator 22.1.0, SVG Export Plug-In . SVG Version: 6.00 Build 0)  -->
<svg version="1.1" id="Layer_1" xmlns="http://www.w3.org/2000/svg" xmlns:xlink="http://www.w3.org/1999/xlink" x="0px" y="0px"
	 viewBox="0 0 40 33" style="enable-background:new 0 0 40 33;" xml:space="preserve">
<style type="text/css">
	.st0{fill:#7C4548;}
</style>
<g>
	<path class="st0" d="M30.3,31.2H9.7c-4.8,0-8.7-3.9-8.7-8.7v-8.6C1,9,4.9,5.1,9.7,5.1h20.5c4.8,0,8.7,3.9,8.7,8.7v8.6
		C39,27.3,35.1,31.2,30.3,31.2z M20.3,12.5c-3.3,0-5.9,2.7-5.9,5.9s2.7,5.9,5.9,5.9s5.9-2.7,5.9-5.9S23.6,12.5,20.3,12.5z M31.4,9.2
		c-1,0-1.8,0.8-1.8,1.8s0.8,1.8,1.8,1.8c1,0,1.8-0.8,1.8-1.8S32.4,9.2,31.4,9.2z"/>
	<path class="st0" d="M22.5,6.7h-5.1c-1.6,0-2.8-1.3-2.8-2.8l0,0c0-1.6,1.3-2.8,2.8-2.8h5.1c1.6,0,2.8,1.3,2.8,2.8l0,0
		C25.4,5.4,24.1,6.7,22.5,6.7z"/>
</g>
</svg>
