<?xml version="1.0" encoding="utf-8"?>
<!-- Generator: Adobe Illustrator 21.1.0, SVG Export Plug-In . SVG Version: 6.00 Build 0)  -->
<svg version="1.1" id="Layer_1" xmlns="http://www.w3.org/2000/svg" xmlns:xlink="http://www.w3.org/1999/xlink" x="0px" y="0px"
	 viewBox="0 0 58.2 33" style="enable-background:new 0 0 58.2 33;" xml:space="preserve">
<path d="M17.2,2.4c3.7,0,7.4,0,11.1,0c3.9,0,7.9-0.3,11.8,0c1.7,0.1,2.7,1.8,3.8,3c1.7,2,3.4,4,5.1,5.9c1.4,1.6,2.8,3.2,4.1,4.8
	C54.4,17.8,54,20,54,22s-0.8,3.5-3,3.6c-1.2,0-2.4,0-3.6,0c-4.7,0-9.4,0-14.1,0c-8.4,0-16.8,0.4-25.2,0c-3-0.1-3-3.2-2.8-5.6
	C5.5,18.1,7,16.4,8,14.8c1.6-2.6,3.2-5.1,4.8-7.7C13.8,5.5,15,2.6,17.2,2.4c1.2-0.1,1.2-1.9,0-1.8c-2.5,0.2-3.5,1.8-4.7,3.6
	C11,6.6,9.5,9,8,11.3c-1.2,1.9-2.5,3.8-3.6,5.8c-1.1,1.8-1,3.8-0.9,5.9c0.2,4.7,4.7,4.4,8.1,4.4c5.2,0,10.5,0,15.7,0
	c5.7,0,11.4,0,17.1,0c1.8,0,3.7,0,5.5,0c1.1,0,2.3,0.1,3.4-0.4c2.9-1.3,2.5-4.5,2.5-7.2c0-1.3,0.1-2.6-0.6-3.7
	c-0.3-0.5-0.8-1-1.2-1.5c-3.3-3.9-6.6-7.8-10-11.7c-1.1-1.3-2.3-2.2-4.2-2.2s-3.8,0-5.6,0c-5.3,0-10.7,0-16,0c-0.4,0-0.7,0-1.1,0
	C16,0.6,16,2.4,17.2,2.4z"/>
<path d="M35.9,21.9c-2.6,0-5.2,0-7.8,0c-1.4,0-2.7,0.1-4.1,0c-0.6,0-1.1,0-1.6-0.4c-1.7-1.2-0.7-3.5,1.1-3.7c2.5-0.3,5.3,0,7.8,0
	c1.4,0,2.7-0.1,4.1,0c0.5,0,0.8-0.1,1.4,0.2C38.7,19,37.9,21.8,35.9,21.9c-1.2,0.1-1.2,1.9,0,1.8c4.9-0.4,5-7.4,0-7.7
	c-2.9-0.2-5.8,0-8.7,0c-2.8,0-6.7-0.5-7.5,3.1c-0.4,2,0.9,4,2.8,4.5c1,0.3,2.2,0.1,3.2,0.1c3.4,0,6.7,0,10.1,0
	C37,23.8,37,21.9,35.9,21.9z"/>
<path d="M44.2,21.1c-0.6-0.9-0.6-1.8,0.3-2.4c0.9-0.6,3.9-1.5,4.7-0.1c0.8,1.3-0.5,2.1-1.4,2.4C47,21.3,44.9,22,44.2,21.1
	c-0.7-1-2.2-0.1-1.6,0.9c1.3,2,4.1,1.4,6,0.7c2-0.7,3.4-3,2.2-5c-1.4-2.4-5.2-1.8-7.2-0.6c-1.8,1-2.1,3.2-1,4.9
	C43.3,23,44.9,22,44.2,21.1z"/>
<path d="M17,22.3c1.1-1.6,0.9-3.7-0.8-4.8c-2-1.3-5.9-1.9-7.4,0.5C6.2,22.4,14.7,25.8,17,22.3c0.7-1-0.9-1.9-1.6-0.9
	c-0.7,1-2.7,0.2-3.6-0.1c-0.3-0.1-0.6-0.2-0.9-0.3c0.3,0.1,0.2,0.1-0.3-0.3c-0.2-0.2-0.3-0.5-0.4-0.7c-0.1-0.4-0.1-0.8,0.1-1.1
	c0.8-1.4,3.8-0.5,4.7,0.1s0.9,1.5,0.3,2.4C14.8,22.4,16.3,23.3,17,22.3z"/>
<path d="M19.9,31c-1.4,0-2.7,0-4.1,0c-0.8,0-1.4,0.2-1.8-0.9c-0.3-0.8,0-2.2,0.9-2.5c1-0.4,2.8,0,3.8,0c0.8,0,1.7-0.2,2.1,0.9
	C21,29.1,20.8,30.8,19.9,31c-1.2,0.1-1.2,2,0,1.8c1.6-0.2,2.6-1.2,2.7-2.8c0.1-1.3,0.1-2.8-1.1-3.7c-0.9-0.7-2-0.5-3.1-0.5
	c-1.2,0-2.4-0.1-3.5,0C12,26,11,30.3,13.1,32.1c0.9,0.8,2.1,0.7,3.3,0.7c1.2,0,2.3,0,3.5,0C21,32.8,21,31,19.9,31z"/>
<path d="M45.4,31c-1.4,0-2.7,0-4.1,0c-0.8,0-1.4,0.2-1.8-0.9c-0.3-0.8,0-2.2,0.9-2.5c1-0.4,2.8,0,3.8,0c0.8,0,1.7-0.2,2.1,0.9
	C46.5,29.1,46.3,30.8,45.4,31c-1.2,0.1-1.2,2,0,1.8c1.6-0.2,2.6-1.2,2.7-2.8c0.1-1.3,0.1-2.8-1.1-3.7c-0.9-0.7-2-0.5-3.1-0.5
	c-1.2,0-2.4-0.1-3.5,0c-2.8,0.3-3.8,4.5-1.8,6.3c0.9,0.8,2.1,0.7,3.3,0.7s2.3,0,3.5,0C46.6,32.8,46.6,31,45.4,31z"/>
<path d="M17.5,5.5c4.5,0,8.9,0,13.4,0c2.5,0,5.1,0,7.6,0c0.3,0,0.7,0,1,0c0.3-0.1,0.5,0.2,0.1-0.1c-0.6-0.4,0,0.2,0.1,0.3
	C40,6.2,40.5,6.6,40.9,7c1.8,2,3.5,4,5.3,6c0.2-0.5,0.4-1,0.6-1.6c-9.9,0-19.9,0-29.8,0c-1.4,0-2.8,0-4.2,0c0.3,0.5,0.5,0.9,0.8,1.4
	c1.6-2.6,3.2-5.2,4.8-7.8c0.6-1-1-1.9-1.6-0.9c-1.6,2.6-3.2,5.2-4.8,7.8c-0.4,0.6,0.1,1.4,0.8,1.4c9.9,0,19.9,0,29.8,0
	c1.4,0,2.8,0,4.2,0c0.8,0,1.2-1,0.6-1.6c-1.6-1.8-3.2-3.6-4.7-5.4c-0.9-1.1-1.8-2.6-3.3-2.7c-5.4-0.2-10.8,0-16.1,0
	c-1.9,0-3.8,0-5.7,0C16.3,3.7,16.3,5.5,17.5,5.5z"/>
<path d="M20.2,20.6c0.7,0.5,2.2,0.2,2.9,0.2c2.1,0,4.1,0,6.2,0c3.1,0,6.2-0.1,9.3-0.1c1.2,0,1.2-1.8,0-1.8c-2.9,0-5.7,0.1-8.6,0.1
	c-2,0-4,0-6,0c-0.7,0-1.5,0-2.2,0c-0.2,0-0.5,0-0.7,0c-0.3,0-0.3-0.1,0,0.1C20.2,18.3,19.3,19.9,20.2,20.6L20.2,20.6z"/>
<path d="M50,10.7c0.5-0.9,1-1.8,1.5-2.6c0.7-1,2.5-1.6,3.7-1c2.1,1-1.1,2.6-2.1,3c-0.9,0.4-1.9,0.8-2.8,1.3c-1.1,0.5-0.1,2,0.9,1.6
	c1.4-0.6,2.8-1.1,4.1-1.8c1.9-1,3.4-3.6,1.4-5.3C55.4,4.7,52.4,5,51.1,6c-1.2,0.9-1.9,2.6-2.7,3.9C47.8,10.8,49.4,11.7,50,10.7
	L50,10.7z"/>
<path d="M10.1,9.8c-0.7-1.3-1.4-3-2.7-3.9C6,4.9,3.1,4.7,1.8,5.8c-2,1.7-0.5,4.3,1.4,5.3c1.3,0.7,2.7,1.2,4.1,1.8
	c1.1,0.5,2-1.1,0.9-1.6c-0.9-0.4-1.9-0.8-2.8-1.3c-1-0.4-4.1-2-2.1-3C4.5,6.4,6.4,7,7,8c0.6,0.8,1,1.8,1.5,2.6
	C9.1,11.7,10.7,10.8,10.1,9.8L10.1,9.8z"/>
</svg>
