<?xml version="1.0" encoding="utf-8"?>
<!-- Generator: Adobe Illustrator 21.1.0, SVG Export Plug-In . SVG Version: 6.00 Build 0)  -->
<svg version="1.1" id="Layer_1" xmlns="http://www.w3.org/2000/svg" xmlns:xlink="http://www.w3.org/1999/xlink" x="0px" y="0px"
	 viewBox="0 0 19.2 19" style="enable-background:new 0 0 19.2 19;" xml:space="preserve">
<g id="Layer_1_1_">
	<path d="M10.1,18.7c-0.3,0-0.7,0-1,0H9c-1.1-0.1-2.1-0.3-3.1-0.8c-3-1.4-4.8-3.8-5.4-7.1c0-0.2-0.1-0.5-0.1-0.7c0-0.3,0-0.7,0-1
		c0-0.2,0-0.4,0.1-0.6c0.2-1.8,0.9-3.4,2.1-4.8c1.5-1.9,3.4-3,5.7-3.3c0.2,0,0.5-0.1,0.7-0.1c0.3,0,0.7,0,1,0c0.2,0,0.4,0,0.6,0.1
		c1.8,0.2,3.5,1,4.9,2.2c1.7,1.5,2.8,3.4,3.1,5.7c0,0.2,0.1,0.5,0.1,0.7c0,0.3,0,0.7,0,1s-0.1,0.6-0.1,0.8c-0.3,2.2-1.3,4-2.9,5.5
		c-1.4,1.3-3,2-4.9,2.3C10.6,18.6,10.3,18.7,10.1,18.7z M17.2,9.5c0-4.2-3.4-7.7-7.6-7.7S1.9,5.2,1.9,9.5c0,4.2,3.4,7.7,7.6,7.7
		C13.8,17.2,17.2,13.7,17.2,9.5z"/>
	<path d="M8,8.4c0-0.6,0-1.2,0-1.9C8,6,8.3,5.7,8.8,5.7c0.4,0,0.8,0.3,0.8,0.8c0,1.1,0,2.2,0,3.3c0,0.1,0,0.2,0.1,0.3
		c0.7,0.7,1.3,1.3,2,2c0.2,0.2,0.3,0.5,0.2,0.8s-0.3,0.5-0.6,0.5c-0.3,0.1-0.5,0-0.7-0.2c-0.8-0.8-1.5-1.5-2.3-2.3
		C8,10.7,8,10.5,8,10.3C8,9.7,8,9,8,8.4z"/>
</g>
</svg>
