<?xml version="1.0" encoding="utf-8"?>
<!-- Generator: Adobe Illustrator 22.1.0, SVG Export Plug-In . SVG Version: 6.00 Build 0)  -->
<svg version="1.1" id="Layer_1" xmlns="http://www.w3.org/2000/svg" xmlns:xlink="http://www.w3.org/1999/xlink" x="0px" y="0px"
	 viewBox="0 0 41.8 33" style="enable-background:new 0 0 41.8 33;" xml:space="preserve">
<g>
	<path d="M13.9,24.9c-0.1,3.2-2.6,5.9-5.9,5.9c-3.2,0-5.9-2.7-5.9-5.9c0-3.1,2.6-5.8,5.7-5.9C11.1,18.9,13.7,21.6,13.9,24.9
		c0,1.1,1.7,1.1,1.7,0c-0.1-4.1-3.3-7.6-7.6-7.6c-4.1,0-7.6,3.4-7.6,7.6c0,4.1,3.4,7.6,7.6,7.6c4.2,0,7.4-3.4,7.6-7.6
		C15.5,23.8,13.9,23.8,13.9,24.9z"/>
</g>
<g>
	<path d="M39.4,24.9c-0.1,3.2-2.6,5.9-5.9,5.9c-3.2,0-5.9-2.7-5.9-5.9c0-3.1,2.6-5.8,5.7-5.9C36.7,18.9,39.3,21.6,39.4,24.9
		c0,1.1,1.7,1.1,1.7,0c-0.1-4.1-3.3-7.6-7.6-7.6c-4.1,0-7.6,3.4-7.6,7.6c0,4.1,3.4,7.6,7.6,7.6c4.2,0,7.4-3.4,7.6-7.6
		C41.1,23.8,39.4,23.8,39.4,24.9z"/>
</g>
<g>
	<path d="M14.1,8.1c-1.1,0-2.3,0-3.4,0c-0.6,0-1.2,0.1-1.8,0C8,7.9,6.7,6.8,8.6,6.3c0.9-0.3,2.2,0,3.1,0c0.6,0,1.3-0.1,1.9,0
		C14.5,6.3,16.2,7.8,14.1,8.1c-1,0.1-1.1,1.8,0,1.7c3.3-0.4,3.3-4.8,0-5.1c-1.8-0.2-3.8-0.2-5.6,0c-3,0.3-3.5,4.5-0.4,5.1
		c1.9,0.3,4.1,0,6,0C15.2,9.7,15.2,8.1,14.1,8.1z"/>
</g>
<g>
	<path d="M10.5,8.9c0,1.7,0,3.3,0,5c0,1.1,1.7,1.1,1.7,0c0-1.7,0-3.3,0-5C12.2,7.8,10.5,7.8,10.5,8.9L10.5,8.9z"/>
</g>
<g>
	<path d="M27.2,2.3c1.5,0,2.9,0,4.4,0C31.3,2,31,1.7,30.8,1.5c0.6,7.8,1.3,15.6,1.9,23.4c0.1,1.1,1.7,1.1,1.7,0
		c-0.6-7.8-1.3-15.6-1.9-23.4c0-0.4-0.3-0.8-0.8-0.8c-1.5,0-2.9,0-4.4,0C26.1,0.6,26.1,2.3,27.2,2.3L27.2,2.3z"/>
</g>
<g>
	<path d="M10.8,14.5c3.3,2.8,6.6,5.6,9.9,8.4c0.1-0.5,0.2-0.9,0.4-1.4c-4.4,0.9-8.9,1.7-13.3,2.6c0.3,0.3,0.7,0.7,1,1
		c1.1-3.7,2.3-7.4,3.4-11c-0.3,0.2-0.5,0.4-0.8,0.6c7-0.4,13.9-0.8,20.9-1.2c1.1-0.1,1.1-1.7,0-1.7c-7,0.4-13.9,0.8-20.9,1.2
		c-0.4,0-0.7,0.2-0.8,0.6c-1.1,3.7-2.3,7.4-3.4,11c-0.2,0.6,0.4,1.1,1,1c4.4-0.9,8.9-1.7,13.3-2.6c0.6-0.1,0.8-1,0.4-1.4
		c-3.3-2.8-6.6-5.6-9.9-8.4C11.1,12.6,10,13.8,10.8,14.5L10.8,14.5z"/>
</g>
<g>
	<path d="M22.6,19.2c1.1,0,2.3,0,3.4,0c-0.3-0.3-0.5-0.7-0.8-1c-0.2,0.6-0.3,1.2-0.5,1.8c0.3-0.2,0.5-0.4,0.8-0.6
		c-1.1,0-2.3,0-3.4,0c0.3,0.3,0.5,0.7,0.8,1c0.2-0.6,0.3-1.2,0.5-1.8c0.3-1-1.3-1.5-1.6-0.4c-0.2,0.6-0.3,1.2-0.5,1.8
		c-0.1,0.5,0.3,1,0.8,1c1.1,0,2.3,0,3.4,0c0.4,0,0.7-0.3,0.8-0.6c0.2-0.6,0.3-1.2,0.5-1.8c0.1-0.5-0.3-1-0.8-1c-1.1,0-2.3,0-3.4,0
		C21.6,17.6,21.6,19.2,22.6,19.2z"/>
</g>
<g>
	<path d="M21.4,20c-0.4,1.4-0.8,2.8-1.3,4.2c-0.3,1,1.3,1.5,1.6,0.4c0.4-1.4,0.8-2.8,1.3-4.2C23.3,19.4,21.7,19,21.4,20L21.4,20z"/>
</g>
</svg>
