<?xml version="1.0" encoding="utf-8"?>
<!-- Generator: Adobe Illustrator 22.1.0, SVG Export Plug-In . SVG Version: 6.00 Build 0)  -->
<svg version="1.1" id="Layer_1" xmlns="http://www.w3.org/2000/svg" xmlns:xlink="http://www.w3.org/1999/xlink" x="0px" y="0px"
	 viewBox="0 0 36 40" style="enable-background:new 0 0 36 40;" xml:space="preserve">
<style type="text/css">
	.st0{fill:#EB343C;}
</style>
<g>
	<path class="st0" d="M18.2,16.3L18.2,16.3c-1,0-1.9-0.8-1.9-1.9V3.8c0-1,0.8-1.9,1.9-1.9h0c1,0,1.9,0.8,1.9,1.9v10.6
		C20.1,15.4,19.2,16.3,18.2,16.3z"/>
	<path class="st0" d="M31.1,35.4L31,36.2c-0.4,1.6-2.2,2.8-4.3,2.8H9c-1.7,0-3.2-1-3.5-2.3l-0.3-1.2L31.1,35.4z"/>
	<path class="st0" d="M31.6,33.2"/>
	<polygon class="st0" points="32.2,30.8 31.5,33.8 4.8,33.8 4.2,30.8 	"/>
	<path class="st0" d="M2.8,24.5 M33.2,26.3l-0.7,3l-28.7,0l-0.7-3 M14.9,21.3 M34.3,21.5l-0.7,3L2.8,24.5l-0.7-3l12.9,0
		c0.5,1.1,1.7,2,3.2,2c1.4,0,2.6-0.8,3.2-2 M34.3,21.5 M34.7,19.8 M21.8,19.9c0-2-1.6-3.6-3.6-3.6s-3.6,1.6-3.6,3.6l-12.9,0
		l-0.4-1.6c0-1.7,1.8-3.2,4.1-3.2h10.2h4.4H31c2.2,0,4.1,1.4,4.1,3.2l-0.4,1.6L21.8,19.9z"/>
	<path class="st0" d="M4.6,14.2c0,0-0.8-3.4,2.6-4.4V6.3h4.2l0,3.6c0,0,3.4,0.1,2.6,4.3H4.6z"/>
	<path class="st0" d="M11.4,4.3H6.8c-0.5,0-0.9-0.4-0.9-0.9v-1c0-0.5,0.4-0.9,0.9-0.9h4.6c0.5,0,0.9,0.4,0.9,0.9v1
		C12.4,3.9,12,4.3,11.4,4.3z"/>
	<path class="st0" d="M22.3,14.2c0,0-0.8-3.4,2.6-4.4V6.3h4.2l0,3.6c0,0,3.4,0.1,2.6,4.3H22.3z"/>
	<path class="st0" d="M29.2,4.3h-4.6c-0.5,0-0.9-0.4-0.9-0.9v-1c0-0.5,0.4-0.9,0.9-0.9h4.6c0.5,0,0.9,0.4,0.9,0.9v1
		C30.1,3.9,29.7,4.3,29.2,4.3z"/>
	<circle class="st0" cx="18.2" cy="19.9" r="2"/>
</g>
</svg>
