<?xml version="1.0" encoding="utf-8"?>
<!-- Generator: Adobe Illustrator 21.1.0, SVG Export Plug-In . SVG Version: 6.00 Build 0)  -->
<svg version="1.1" id="Layer_1" xmlns="http://www.w3.org/2000/svg" xmlns:xlink="http://www.w3.org/1999/xlink" x="0px" y="0px"
	 viewBox="0 0 32 40" style="enable-background:new 0 0 32 40;" xml:space="preserve">
<style type="text/css">
	.st0{fill:#38A6E8;}
	.st1{enable-background:new    ;}
</style>
<g>
	<g>
		<g>
			<path class="st0" d="M1.5,6.9c0,7.8,0,15.6,0,23.5c0,3.4,0.3,7.7,4.7,8c3.8,0.2,7.7,0,11.5,0c2.1,0,4.2,0,6.3,0
				c1.6,0,3-0.1,4.2-1.2c2.6-2.4,1.7-7.5,1.7-10.6c0-4.5,0-9,0-13.5c0-1.8-0.2-3.4-1.4-4.9C27.3,6.5,26,5,24.7,3.4
				C23.4,1.8,22.1,1,20,1c-2.4,0-4.8,0.1-7.2,0.2c-2.1,0.1-4.3,0.1-6.5,0.2C3.3,1.6,1.7,4,1.5,6.9c-0.1,1.3,2,1.3,2.1,0
				c0.1-2.8,1.8-3.4,4.1-3.4c2-0.1,4.1-0.1,6.1-0.2c1.9-0.1,3.9-0.1,5.8-0.2c0.4,0,0.7-0.1,1.1,0c1.2,0.1,1.7,0.8,2.4,1.6
				c1.3,1.5,2.5,3,3.7,4.5c0.9,1.2,1,2.5,1,3.9c0,3.9,0,7.8,0,11.7c0,2,0,3.9,0,5.9c0,1.1,0.1,2.3-0.2,3.3c-0.6,2.1-2.1,2.2-3.9,2.2
				s-3.6,0-5.4,0c-3.8,0-7.7,0.2-11.5,0c-3.5-0.1-3.2-3.5-3.2-6.1c0-7.7,0-15.5,0-23.2C3.6,5.5,1.5,5.5,1.5,6.9z"/>
		</g>
		<g>
			<path class="st0" d="M19.6,2c0,3.4,0,6.8,0,10.2c0,0.6,0.5,1,1,1c2.7,0,5.4,0,8.2,0c1.3,0,1.3-2.1,0-2.1c-2.7,0-5.4,0-8.2,0
				c0.3,0.3,0.7,0.7,1,1c0-3.4,0-6.8,0-10.2C21.7,0.7,19.6,0.7,19.6,2L19.6,2z"/>
		</g>
	</g>
</g>
<g class="st1">
	<path class="st0" d="M6.4,29.6v-1.3h1.3v1.3H6.4z"/>
	<path class="st0" d="M8.3,32.2l0.2-1c0.2,0.1,0.4,0.1,0.5,0.1c0.2,0,0.4-0.1,0.5-0.2C9.6,31,9.7,30.6,9.7,30v-7h1.1v7
		c0,0.8-0.1,1.4-0.3,1.7c-0.3,0.4-0.7,0.6-1.4,0.6C8.8,32.3,8.5,32.3,8.3,32.2z M9.7,21.8v-1.3h1.1v1.3H9.7z"/>
	<path class="st0" d="M12.5,32.2V23h1v0.9c0.2-0.3,0.5-0.6,0.8-0.8s0.7-0.3,1.1-0.3c0.6,0,1.1,0.1,1.5,0.4s0.8,0.7,1,1.2
		c0.2,0.5,0.3,1.1,0.3,1.7c0,0.7-0.1,1.3-0.4,1.8c-0.2,0.5-0.6,1-1.1,1.3c-0.5,0.3-1,0.4-1.5,0.4c-0.4,0-0.7-0.1-1-0.2
		c-0.3-0.2-0.5-0.4-0.7-0.6v3.2H12.5z M13.5,26.3c0,0.9,0.2,1.5,0.5,1.9c0.3,0.4,0.8,0.6,1.3,0.6c0.5,0,0.9-0.2,1.3-0.6
		s0.5-1.1,0.5-2c0-0.8-0.2-1.5-0.5-1.9c-0.3-0.4-0.8-0.6-1.2-0.6c-0.5,0-0.9,0.2-1.3,0.7C13.7,24.8,13.5,25.5,13.5,26.3z"/>
	<path class="st0" d="M19.4,30.2l1.1,0.2c0,0.3,0.2,0.6,0.4,0.7c0.3,0.2,0.7,0.3,1.1,0.3c0.5,0,0.9-0.1,1.2-0.3
		c0.3-0.2,0.5-0.5,0.6-0.9c0.1-0.2,0.1-0.7,0.1-1.4c-0.5,0.6-1.1,0.9-1.8,0.9c-0.9,0-1.6-0.3-2.1-1c-0.5-0.7-0.8-1.4-0.8-2.4
		c0-0.6,0.1-1.2,0.3-1.8c0.2-0.5,0.6-0.9,1-1.2s0.9-0.4,1.5-0.4c0.8,0,1.4,0.3,1.9,1V23h1v5.7c0,1-0.1,1.8-0.3,2.2
		c-0.2,0.4-0.5,0.8-1,1s-1,0.4-1.7,0.4c-0.8,0-1.4-0.2-1.9-0.5C19.7,31.4,19.4,30.9,19.4,30.2z M20.4,26.2c0,0.9,0.2,1.5,0.5,1.9
		c0.3,0.4,0.8,0.6,1.3,0.6c0.5,0,1-0.2,1.3-0.6c0.4-0.4,0.5-1,0.5-1.9c0-0.8-0.2-1.4-0.5-1.8c-0.4-0.4-0.8-0.6-1.3-0.6
		c-0.5,0-0.9,0.2-1.3,0.6C20.5,24.8,20.4,25.4,20.4,26.2z"/>
</g>
</svg>
