<?xml version="1.0" encoding="utf-8"?>
<!-- Generator: Adobe Illustrator 22.1.0, SVG Export Plug-In . SVG Version: 6.00 Build 0)  -->
<svg version="1.1" id="Layer_1" xmlns="http://www.w3.org/2000/svg" xmlns:xlink="http://www.w3.org/1999/xlink" x="0px" y="0px"
	 viewBox="0 0 16 16" style="enable-background:new 0 0 16 16;" xml:space="preserve">
<style type="text/css">
	.st0{fill:#EB343C;}
</style>
<g id="insta">
	<g>
		<g>
			<path class="st0" d="M10.6,1H5.4C3,1,1,3,1,5.4v5.3C1,13,3,15,5.4,15h5.3c2.4,0,4.4-2,4.4-4.4V5.4C15,3,13,1,10.6,1z M13.7,10.6
				c0,1.7-1.4,3.1-3.1,3.1H5.4c-1.7,0-3.1-1.4-3.1-3.1V5.4c0-1.7,1.4-3.1,3.1-3.1h5.3c1.7,0,3.1,1.4,3.1,3.1v5.2H13.7z"/>
		</g>
	</g>
	<g>
		<g>
			<path class="st0" d="M8,4.5C6.1,4.5,4.5,6.1,4.5,8s1.6,3.5,3.5,3.5s3.5-1.6,3.5-3.5S9.9,4.5,8,4.5z M8,10.2c-1.2,0-2.2-1-2.2-2.2
				s1-2.2,2.2-2.2s2.2,1,2.2,2.2S9.2,10.2,8,10.2z"/>
		</g>
	</g>
	<g>
		<g>
			<circle class="st0" cx="11.8" cy="4.2" r="0.5"/>
		</g>
	</g>
</g>
</svg>
