<?xml version="1.0" encoding="utf-8"?>
<!-- Generator: Adobe Illustrator 22.1.0, SVG Export Plug-In . SVG Version: 6.00 Build 0)  -->
<svg version="1.1" id="Layer_1" xmlns="http://www.w3.org/2000/svg" xmlns:xlink="http://www.w3.org/1999/xlink" x="0px" y="0px"
	 viewBox="0 0 19.2 19" style="enable-background:new 0 0 19.2 19;" xml:space="preserve">
<style type="text/css">
	.st0{fill:#EB343C;}
</style>
<g id="Layer_4">
	<g>
		<path class="st0" d="M15.8,6.3c0,0.3,0,0.5,0,0.8c0,0.1,0,0.2,0,0.2c-0.1,0.8-0.4,1.6-0.8,2.4c-1.3,3-3.1,5.9-5,8.5
			c-0.1,0.1-0.3,0.2-0.4,0.4H9.5c-0.1-0.1-0.2-0.1-0.3-0.2c-1.6-2.3-3-4.7-4.4-7.1c-0.6-1.1-1.1-2.2-1.4-3.4
			C3.3,7.7,3.3,7.4,3.2,7.1c0-0.3,0-0.5,0-0.8c0-0.2,0-0.3,0.1-0.5c0.4-2.5,2.4-4.7,4.9-5.2c0.3,0,0.6,0,0.9-0.1c0.3,0,0.5,0,0.8,0
			c0.2,0,0.5,0.1,0.7,0.1c2.3,0.4,4.5,2.3,5,4.7C15.7,5.7,15.7,6,15.8,6.3z M9.5,2.8c-2.1,0-3.7,1.7-3.7,3.7c0,2.1,1.7,3.7,3.7,3.7
			c2.1,0,3.7-1.7,3.7-3.7C13.2,4.6,11.6,2.8,9.5,2.8z"/>
	</g>
</g>
</svg>
