<?xml version="1.0" encoding="utf-8"?>
<!-- Generator: Adobe Illustrator 22.1.0, SVG Export Plug-In . SVG Version: 6.00 Build 0)  -->
<svg version="1.1" id="Layer_1" xmlns="http://www.w3.org/2000/svg" xmlns:xlink="http://www.w3.org/1999/xlink" x="0px" y="0px"
	 viewBox="0 0 29 40" style="enable-background:new 0 0 29 40;" xml:space="preserve">
<style type="text/css">
	.st0{fill:#EB343C;}
</style>
<path class="st0" d="M22,13c-3.2-0.3-6.9-1.6-8.8-4.3C12.7,8,11.4,8,11.2,9c-0.5,2.3,0.3,4.4,2.6,5.3c0.1-0.7,0.2-1.4,0.3-2.2
	c-1.8-0.1-6.4-0.2-7.4-2c-0.5-0.9-2.2-0.6-2,0.6c0.7,6,1.1,12.9,7.4,15.9c3.8,1.8,7.6-1.8,9.2-5c1.2-2.2,1.9-4.9,1.9-7.5
	c0-1.4-2.2-1.4-2.2,0c0,1.9-0.5,3.9-1.2,5.6s-1.8,3.2-3.3,4.2c-2,1.4-3.4,1.1-5.2-0.4c-3.9-3.1-3.9-8.3-4.4-12.8
	c-0.7,0.2-1.4,0.4-2,0.6c1.5,2.7,6.6,2.9,9.3,3.1c1.3,0.1,1.3-1.7,0.3-2.2c-1-0.4-1.2-1.6-1-2.6c-0.7,0.1-1.3,0.2-2,0.3
	c2.4,3.4,6.6,5,10.7,5.4C23.4,15.3,23.4,13.1,22,13z"/>
<path class="st0" d="M10.2,25.2c-0.4,1.1-0.8,2.8-1.7,3.6c-0.9,0.7-2.3,1.1-3.4,1.6C1.8,32,0.7,35,0.7,38.5c0,0.6,0.5,1.1,1.1,1.1
	c8.4,0,16.8,0,25.1,0c0.6,0,1.1-0.5,1.1-1.1c0-3.7-1.1-7-4.9-8.3c-1.1-0.4-2.4-0.8-3.6-0.9c-0.2,0-0.5-0.2-0.7-0.2
	c0.5,0,0.7,0.9,0.3,0c-0.6-1.3-1.3-2.4-1.4-3.9c-0.1-1.4-2.3-1.4-2.2,0c0.1,1.8,0.7,3.8,1.9,5.3c0.7,0.8,1.4,0.9,2.4,1.2
	c1.4,0.4,3,0.6,4.1,1.5c1.8,1.4,1.8,3.3,1.8,5.4c0.4-0.4,0.7-0.7,1.1-1.1c-8.4,0-16.8,0-25.1,0c0.4,0.4,0.7,0.7,1.1,1.1
	c0-1.8,0.1-3.5,1.5-4.9c1-1.1,2.6-1.6,4-2.2c1-0.5,1.8-0.8,2.4-1.7c0.7-1.1,1.2-2.5,1.7-3.8C12.8,24.5,10.7,23.9,10.2,25.2
	L10.2,25.2z"/>
<path class="st0" d="M8.6,21.6c-1.9-1.9-3.4-4.3-4.2-6.9C2.7,9.9,5.2,4.1,10.7,3.3c1.5-0.2,3.1-0.1,4.5,0.5c1,0.4,1.7,1.4,2.8,1.4
	c0.4,0,0.9-0.2,1.3-0.3C22.9,4.5,24,8,24,11.1c0,1.5-0.1,2.6-0.7,4.4c-0.9,2.8-2.5,5.3-4.9,7c-1.2,0.8-0.1,2.7,1.1,1.9
	c5.2-3.5,8.1-11.1,6.2-17.2C24.5,3.6,21,1.7,17.4,3c0.4,0.1,0.7,0.2,1.1,0.3C12.3-1.7,3,2,1.7,9.7C0.9,14.6,3.6,19.8,7,23.2
	C8,24.2,9.6,22.6,8.6,21.6L8.6,21.6z"/>
<path class="st0" d="M9.3,31.2c3.1,0,6.2,0,9.2,0c1.4,0,1.4-2.2,0-2.2c-3.1,0-6.2,0-9.2,0C7.9,29,7.9,31.2,9.3,31.2L9.3,31.2z"/>
</svg>
