<?xml version="1.0" encoding="utf-8"?>
<!-- Generator: Adobe Illustrator 22.1.0, SVG Export Plug-In . SVG Version: 6.00 Build 0)  -->
<svg version="1.1" id="Layer_1" xmlns="http://www.w3.org/2000/svg" xmlns:xlink="http://www.w3.org/1999/xlink" x="0px" y="0px"
	 viewBox="0 0 34 40" style="enable-background:new 0 0 34 40;" xml:space="preserve">
<style type="text/css">
	.st0{fill:#EB343C;}
	.st1{fill:#FFFFFF;}
</style>
<g>
	<circle class="st0" cx="4.1" cy="14.3" r="3.3"/>
	<path class="st0" d="M3.1,20.1L3.1,20.1c0.6-0.5,1.4-0.5,2,0l0,0c0.4,0.3,0.7,0.8,0.7,1.4v6c0,0.9,0.8,1.7,1.7,1.7h4.9
		c0.9,0,1.7,0.8,1.7,1.7v5.6c0,0.4-0.1,0.7-0.3,1l-0.2,0.3c-0.5,0.7-1.4,0.9-2.1,0.5L11,38.1c-0.6-0.3-0.9-0.9-0.9-1.5v-2.2
		c0-0.9-0.8-1.7-1.7-1.7H4.1c-0.9,0-1.7-0.8-1.7-1.7v-9.5C2.4,21,2.7,20.5,3.1,20.1z"/>
	<circle class="st0" cx="29.6" cy="14.3" r="3.3"/>
	<path class="st0" d="M30.6,20.2L30.6,20.2c-0.6-0.5-1.4-0.5-2,0l0,0c-0.4,0.3-0.7,0.8-0.7,1.4v6c0,0.9-0.8,1.7-1.7,1.7h-4.9
		c-0.9,0-1.7,0.8-1.7,1.7v5.6c0,0.4,0.1,0.7,0.3,1l0.2,0.3c0.5,0.7,1.4,0.9,2.1,0.5l0.4-0.2c0.6-0.3,0.9-0.9,0.9-1.5v-2.2
		c0-0.9,0.8-1.7,1.7-1.7h4.3c0.9,0,1.7-0.8,1.7-1.7v-9.5C31.3,21,31,20.5,30.6,20.2z"/>
	<path class="st0" d="M22.4,25.9h-11c-1.1,0-1.9-0.9-1.9-1.9v-0.1c0-1.1,0.9-1.9,1.9-1.9h11c1.1,0,1.9,0.9,1.9,1.9v0.1
		C24.3,25,23.5,25.9,22.4,25.9z"/>
	<path class="st0" d="M16.9,38.7L16.9,38.7c-0.3,0-0.6-0.3-0.6-0.6V26.4c0-0.3,0.3-0.6,0.6-0.6l0,0c0.3,0,0.6,0.3,0.6,0.6v11.8
		C17.4,38.5,17.2,38.7,16.9,38.7z"/>
	<path class="st0" d="M9.4,10.4c0.2,0.1,0.4,0.1,0.7,0.1h5.6c1.3,0,2.4-1.1,2.4-2.4V5.5c0-1.3-1.1-2.4-2.4-2.4h-5.6
		c-1.3,0-2.4,1.1-2.4,2.4v2.6c0,0.4,0.1,0.7,0.2,1l-0.7,2.1L9.4,10.4z"/>
	<g>
		<path class="st1" d="M10.6,6.5c1.6,0,3.3,0,4.9,0c1,0,1-1.6,0-1.6c-1.6,0-3.3,0-4.9,0C9.6,4.9,9.6,6.5,10.6,6.5L10.6,6.5z"/>
	</g>
	<g>
		<path class="st1" d="M10.6,8.6c1.1,0,2.1,0,3.2,0c1,0,1-1.6,0-1.6c-1.1,0-2.1,0-3.2,0C9.5,7,9.5,8.6,10.6,8.6L10.6,8.6z"/>
	</g>
	<path class="st0" d="M25,20.1l-3.1-0.2c-0.3,0.1-0.5,0.1-0.8,0.1h-6.4c-1.5,0-2.8-1.2-2.8-2.8v-3c0-1.5,1.2-2.8,2.8-2.8h6.4
		c1.5,0,2.8,1.2,2.8,2.8l0.1,3.8"/>
	<g>
		<path class="st1" d="M21,13.6c-1.9,0-3.8,0-5.7,0c-1,0-1,1.6,0,1.6c1.9,0,3.8,0,5.7,0C22,15.2,22,13.6,21,13.6L21,13.6z"/>
	</g>
	<g>
		<path class="st1" d="M21,15.9c-1.2,0-2.5,0-3.7,0c-1,0-1,1.6,0,1.6c1.2,0,2.5,0,3.7,0C22.1,17.6,22.1,15.9,21,15.9L21,15.9z"/>
	</g>
</g>
</svg>
