<?xml version="1.0" encoding="utf-8"?>
<!-- Generator: Adobe Illustrator 22.1.0, SVG Export Plug-In . SVG Version: 6.00 Build 0)  -->
<svg version="1.1" id="Layer_1" xmlns="http://www.w3.org/2000/svg" xmlns:xlink="http://www.w3.org/1999/xlink" x="0px" y="0px"
	 viewBox="0 0 28.7 23.8" style="enable-background:new 0 0 28.7 23.8;" xml:space="preserve">
<style type="text/css">
	.st0{fill:#FFFFFF;}
</style>
<g>
	<g>
		<path class="st0" d="M23.7,21.5c-4.9,0-9.8,0-14.7,0c-1.7,0-4.7,0.5-6.1-0.7c-1-0.9-0.9-2.1-0.9-3.3c0-1.4,0-2.9,0-4.3
			s0-2.9,0-4.3C2,7.6,2,6.4,3,5.5C4.3,4.3,7.4,4.8,9,4.8c4.9,0,9.8-0.3,14.7,0c3.8,0.2,2.8,5.6,2.8,8.2
			C26.5,15.6,27.6,21.3,23.7,21.5c-0.9,0.1-0.9,1.5,0,1.5c2.1-0.1,3.9-1.6,4.2-3.8c0.1-1,0-2,0-3c0-2.9,0.1-5.7,0-8.6
			c-0.1-2-1.3-3.7-3.3-4.2c-0.7-0.2-1.5-0.1-2.3-0.1c-3.3,0-6.6,0-9.8,0c-2.5,0-5.1-0.1-7.6,0c-1.6,0-3.1,0.8-3.9,2.3
			C0.5,6.7,0.6,7.8,0.6,9c0,3.1,0,6.2,0,9.3c0,2.9,2.1,4.6,4.9,4.6c6.1,0,12.2,0,18.3,0C24.7,23,24.7,21.5,23.7,21.5z"/>
	</g>
	<path class="st0" d="M19,11.5c0,3-2.7,6.2-4,7.6c-0.4,0.4-1,0.4-1.3,0c-1.3-1.4-4-4.7-4-7.6c0-2.6,2.1-4.7,4.7-4.7S19,9,19,11.5z
		 M14.3,9.3c-1.2,0-2.2,1-2.2,2.2s1,2.2,2.2,2.2s2.2-1,2.2-2.2S15.5,9.3,14.3,9.3z"/>
	<path class="st0" d="M6.7,6.6L6.7,6.6c-0.5,0-0.9-0.4-0.9-0.9V1.5c0-0.5,0.4-0.9,0.9-0.9h0c0.5,0,0.9,0.4,0.9,0.9v4.2
		C7.5,6.2,7.2,6.6,6.7,6.6z"/>
	<path class="st0" d="M21.6,6.6L21.6,6.6c-0.5,0-0.9-0.4-0.9-0.9V1.5c0-0.5,0.4-0.9,0.9-0.9h0c0.5,0,0.9,0.4,0.9,0.9v4.2
		C22.5,6.2,22.1,6.6,21.6,6.6z"/>
</g>
</svg>
