<?xml version="1.0" encoding="utf-8"?>
<!-- Generator: Adobe Illustrator 21.1.0, SVG Export Plug-In . SVG Version: 6.00 Build 0)  -->
<svg version="1.1" id="Layer_1" xmlns="http://www.w3.org/2000/svg" xmlns:xlink="http://www.w3.org/1999/xlink" x="0px" y="0px"
	 viewBox="0 0 16 16" style="enable-background:new 0 0 16 16;" xml:space="preserve">
<style type="text/css">
	.st0{fill:#FDAA00;}
</style>
<g id="play">
	<g>
		<g>
			<path class="st0" d="M12.9,12.7c-2.6,0-5.2,0-7.8,0c-1,0-2.7,0.3-3.2-0.8c-0.2-0.4-0.1-1-0.1-1.5c0-0.8,0-1.5,0-2.3s0-1.5,0-2.3
				c0-0.6-0.1-1.2,0.4-1.6c0.7-0.7,2.3-0.4,3.2-0.4c1.7,0,3.3,0,5,0c0.6,0,1.3,0,1.9,0c0.4,0,0.8,0,1.1,0.1c0.9,0.3,0.9,1.2,0.9,2
				c0,0.9,0,1.7,0,2.6c0,0.8,0,1.6,0,2.4C14.2,11.7,14,12.6,12.9,12.7c-0.5,0-0.5,0.8,0,0.7c1.1-0.1,2-0.8,2.1-1.9
				c0.1-0.5,0-1,0-1.6c0-1.6,0-3.2,0-4.7c0-0.9-0.5-1.7-1.3-2C13.2,3,12.8,3,12.3,3c-1.7,0-3.3,0-5,0C5.9,3,4.5,3,3.2,3
				c-0.8,0-1.6,0.4-2,1.2C1,4.8,1,5.3,1,5.9c0,1.7,0,3.3,0,5c0,1.5,0.8,2.5,2.4,2.5c3.2,0,6.3,0,9.5,0
				C13.3,13.4,13.3,12.7,12.9,12.7z"/>
		</g>
		<path class="st0" d="M6.3,6.4V10c0,0.2,0.2,0.3,0.4,0.2l2.8-2c0.2-0.1,0.1-0.3,0-0.4L6.7,6.2C6.5,6.1,6.3,6.2,6.3,6.4z"/>
	</g>
</g>
</svg>
