<?xml version="1.0" encoding="utf-8"?>
<!-- Generator: Adobe Illustrator 22.1.0, SVG Export Plug-In . SVG Version: 6.00 Build 0)  -->
<svg version="1.1" xmlns="http://www.w3.org/2000/svg" xmlns:xlink="http://www.w3.org/1999/xlink" x="0px" y="0px"
	 viewBox="0 0 16 16" style="enable-background:new 0 0 16 16;" xml:space="preserve">
<style type="text/css">
	.st0{display:none;}
	.st1{display:inline;}
	.st2{fill:#FDAA00;}
	.st3{display:inline;fill:#FDAA00;}
	.st4{display:inline;fill:#FFFFFF;}
	.st5{fill:#EB343C;}
</style>
<g id="Layer_2">
</g>
<g id="play" class="st0">
	<g class="st1">
		<g>
			<path class="st2" d="M12.9,12.7c-2.6,0-5.2,0-7.8,0c-1,0-2.7,0.3-3.2-0.8c-0.2-0.4-0.1-1-0.1-1.5c0-0.8,0-1.5,0-2.3
				c0-0.8,0-1.5,0-2.3c0-0.6-0.1-1.2,0.4-1.6c0.7-0.7,2.3-0.4,3.2-0.4c1.7,0,3.3,0,5,0c0.6,0,1.3,0,1.9,0c0.4,0,0.8,0,1.1,0.1
				c0.9,0.3,0.9,1.2,0.9,2c0,0.9,0,1.7,0,2.6c0,0.8,0,1.6,0,2.4C14.2,11.7,14,12.6,12.9,12.7c-0.5,0-0.5,0.8,0,0.7
				c1.1-0.1,2-0.8,2.1-1.9c0.1-0.5,0-1,0-1.6c0-1.6,0-3.2,0-4.7c0-0.9-0.5-1.7-1.3-2C13.2,3,12.8,3,12.3,3c-1.7,0-3.3,0-5,0
				C5.9,3,4.5,3,3.2,3c-0.8,0-1.6,0.4-2,1.2C1,4.8,1,5.3,1,5.9c0,1.7,0,3.3,0,5c0,1.5,0.8,2.5,2.4,2.5c3.2,0,6.3,0,9.5,0
				C13.3,13.4,13.3,12.7,12.9,12.7z"/>
		</g>
		<path class="st2" d="M6.3,6.4V10c0,0.2,0.2,0.3,0.4,0.2l2.8-2c0.2-0.1,0.1-0.3,0-0.4L6.7,6.2C6.5,6.1,6.3,6.2,6.3,6.4z"/>
	</g>
</g>
<g id="call" class="st0">
	<g class="st1">
		<g>
			<path class="st2" d="M10,5.4c1.1-0.9,2.2-1.8,3.3-2.7c-0.2,0-0.4,0-0.6,0c0.9,0.8,1.6,2.1,1.6,3.3c0,1.2-0.9,2-1.7,2.7
				C11,10.1,9.4,11.6,7.8,13c-1.8,1.5-4.8,1-6.2-0.7c0,0.2,0,0.4,0,0.6c1-0.9,2.1-1.9,3.1-2.8c-0.2,0-0.3,0-0.5,0.1
				c0.8,0.6,2,0.9,2.9,0.5c0.7-0.3,1.2-0.9,1.8-1.4c0.5-0.5,1.2-0.9,1.5-1.6c0.5-1,0.3-2.1-0.5-2.9C9.6,4.5,9,5,9.4,5.4
				C10.8,6.7,9.2,8,8.2,8.8c-0.3,0.3-0.6,0.6-1,0.9C6.4,10.2,5.4,10,4.6,9.4c-0.1-0.1-0.4,0-0.5,0.1c-1,0.9-2.1,1.9-3.1,2.8
				c-0.2,0.2-0.1,0.4,0,0.6c1.3,1.6,4.2,2.5,6.2,1.5c1-0.4,1.8-1.3,2.6-2.1c1.1-1,2.2-2,3.3-3c0.9-0.8,1.9-1.6,2.1-3
				c0.2-1.6-0.7-3.2-1.8-4.3c-0.2-0.2-0.4-0.1-0.6,0C11.6,3,10.5,3.9,9.4,4.8C9,5.2,9.6,5.7,10,5.4z"/>
		</g>
		<g>
			<path class="st2" d="M2.3,13.6c1.1-1,2.3-2,3.4-3.1c0.4-0.3-0.2-0.9-0.6-0.6c-1.1,1-2.3,2-3.4,3.1C1.4,13.4,2,14,2.3,13.6
				L2.3,13.6z"/>
		</g>
		<g>
			<path class="st2" d="M10.7,6.3c1.1-1,2.2-1.9,3.2-2.9c0.4-0.3-0.2-0.9-0.6-0.6c-1.1,1-2.2,1.9-3.2,2.9C9.7,6,10.3,6.6,10.7,6.3
				L10.7,6.3z"/>
		</g>
		<g>
			<path class="st2" d="M3.9,13.4c0.8,0.5,2,0.3,2.9,0c0.5-0.1,0.3-0.9-0.2-0.8c-0.7,0.2-1.7,0.4-2.2,0C3.9,12.4,3.5,13.1,3.9,13.4
				L3.9,13.4z"/>
		</g>
	</g>
</g>
<g id="internal" class="st0">
	<path class="st3" d="M4.7,2c0-0.6-0.4-1-1-1s-1,0.4-1,1c0,0.5,0.3,0.9,0.8,1v11.4H4V3C4.4,2.9,4.7,2.5,4.7,2z"/>
	<polygon class="st3" points="13.3,3 4.3,3 4.3,7.7 13,7.7 11.1,5.4 	"/>
</g>
<g id="down_x5F_arrow" class="st0">
	<g class="st1">
		<path d="M14,3.9c-2.2,2.5-4.3,5-6.5,7.5c0.3,0,0.6,0,0.8,0C6.2,8.8,4,6.3,1.8,3.9C1.3,3.3,0.5,4.1,1,4.7c2.2,2.5,4.3,5,6.5,7.5
			c0.2,0.2,0.6,0.2,0.8,0c2.2-2.5,4.3-5,6.5-7.5C15.3,4.1,14.5,3.3,14,3.9L14,3.9z"/>
	</g>
</g>
<g id="up_x5F_arrow" class="st0">
	<g class="st1">
		<path d="M1.8,11.8c2.2-2.5,4.3-5,6.5-7.5c-0.3,0-0.6,0-0.8,0c2.2,2.5,4.3,5,6.5,7.5c0.5,0.6,1.3-0.3,0.8-0.8
			c-2.2-2.5-4.3-5-6.5-7.5c-0.2-0.2-0.6-0.2-0.8,0C5.3,6,3.1,8.5,1,11C0.5,11.6,1.3,12.4,1.8,11.8L1.8,11.8z"/>
	</g>
</g>
<g id="lf_x5F_arrow" class="st0">
	<g class="st1">
		<path d="M12.5,14.4c-2.5-2.2-5-4.3-7.5-6.5c0,0.3,0,0.6,0,0.8c2.5-2.2,5-4.3,7.5-6.5c0.6-0.5-0.3-1.3-0.8-0.8
			c-2.5,2.2-5,4.3-7.5,6.5c-0.2,0.2-0.2,0.6,0,0.8c2.5,2.2,5,4.3,7.5,6.5C12.2,15.8,13,14.9,12.5,14.4L12.5,14.4z"/>
	</g>
</g>
<g id="rt_x5F_arrow" class="st0">
	<g class="st1">
		<path d="M4.2,2.2c2.5,2.2,5,4.3,7.5,6.5c0-0.3,0-0.6,0-0.8c-2.5,2.2-5,4.3-7.5,6.5c-0.6,0.5,0.3,1.3,0.8,0.8
			c2.5-2.2,5-4.3,7.5-6.5c0.2-0.2,0.2-0.6,0-0.8C10,5.7,7.5,3.6,5,1.4C4.4,0.9,3.6,1.7,4.2,2.2L4.2,2.2z"/>
	</g>
</g>
<g id="menu" class="st0">
	<rect x="1" y="1" class="st4" width="14" height="1.2"/>
	<rect x="1" y="9.6" class="st4" width="14" height="1.2"/>
	<rect x="1" y="13.8" class="st4" width="14" height="1.2"/>
	<rect x="1" y="5.3" class="st4" width="14" height="1.2"/>
</g>
<g id="date" class="st0">
	<g class="st1">
		<g>
			<path d="M12.3,13.5c-2.4,0-4.9,0-7.3,0c-1.2,0-2.8,0.1-2.9-1.6c-0.1-1.2,0-2.4,0-3.6c0-1-0.3-2.9,0.5-3.7C3.4,3.9,5,4.2,5.9,4.2
				c1.6,0,3.1,0,4.7,0c1.1,0,2.7-0.3,3.2,1.1c0.2,0.5,0.1,1.1,0.1,1.6c0,0.9,0,1.7,0,2.6C13.9,10.8,14.4,13.4,12.3,13.5
				c-0.5,0-0.5,0.9,0,0.8c1.1-0.1,2-0.7,2.3-1.7c0.2-0.5,0.1-1.1,0.1-1.6c0-1.6,0-3.3,0-4.9c0-1.6-0.9-2.7-2.5-2.8
				c-1.4,0-2.9,0-4.3,0c-1.4,0-2.8,0-4.1,0C2.1,3.4,1.3,4.7,1.3,6.3c0,1.6,0,3.2,0,4.8c0,0.6,0,1.1,0.2,1.6c0.4,1,1.3,1.6,2.3,1.6
				c2.9,0.1,5.7,0,8.6,0C12.9,14.3,12.9,13.5,12.3,13.5z"/>
		</g>
		<path d="M5.6,4.9H4.9c-0.1,0-0.1-0.1-0.1-0.1V2.1C4.8,2.1,4.8,2,4.9,2h0.7c0.1,0,0.1,0.1,0.1,0.1v2.6C5.8,4.9,5.7,4.9,5.6,4.9z"/>
		<path d="M10.8,4.9h-0.7c-0.1,0-0.1-0.1-0.1-0.1V2.1C9.9,2.1,10,2,10.1,2h0.7c0.1,0,0.1,0.1,0.1,0.1v2.6
			C10.9,4.9,10.8,4.9,10.8,4.9z"/>
		<g>
			<path d="M5.4,8.5H4.1C4,8.5,3.8,8.4,3.8,8.3V6.9c0-0.1,0.1-0.3,0.3-0.3h1.3c0.1,0,0.3,0.1,0.3,0.3v1.3C5.7,8.4,5.6,8.5,5.4,8.5z"
				/>
			<g>
				<path d="M5.4,8.1c-0.2,0-0.4,0-0.6,0c-0.1,0-0.6-0.1-0.7,0c0.1,0.2,0.2,0.2,0.2,0.1c0,0,0,0,0-0.1c0,0,0-0.1,0-0.1
					c0-0.1,0-0.3,0-0.4c0-0.2,0-0.3,0-0.5C4.3,7,4.3,6.9,4.2,7c-0.1,0.1,0,0.1,0.1,0.1c0.1,0,0.3,0,0.4,0c0.1,0,0.3,0,0.4,0
					c0.1,0,0.3,0.1,0.1-0.1C5.2,6.9,5.3,7,5.3,7.2c0,0.1,0,0.3,0,0.4c0,0.1,0,0.3,0,0.4c0,0,0,0.1,0,0.1c0,0.2-0.1,0,0-0.1
					C4.8,8.2,5,9,5.5,8.9c0.8-0.1,0.6-1.2,0.6-1.7c0-0.3,0-0.6-0.3-0.8C5.6,6.2,5.2,6.3,4.9,6.3C4.3,6.3,3.5,6.1,3.4,7
					c0,0.3,0,0.6,0,0.9c0,0.3,0,0.6,0.1,0.8c0.2,0.3,0.6,0.3,1,0.3c0.3,0,0.6,0,0.9,0C6,8.9,6,8.1,5.4,8.1z"/>
			</g>
		</g>
		<g>
			<path d="M8.7,8.5H7.4c-0.1,0-0.3-0.1-0.3-0.3V6.9c0-0.1,0.1-0.3,0.3-0.3h1.3C8.8,6.7,9,6.8,9,6.9v1.3C9,8.4,8.8,8.5,8.7,8.5z"/>
			<g>
				<path d="M8.7,8.1c-0.2,0-0.4,0-0.6,0C8,8.1,7.4,8,7.4,8.1c0.1,0.2,0.2,0.2,0.2,0.1c0,0,0,0,0-0.1c0,0,0-0.1,0-0.1
					c0-0.1,0-0.3,0-0.4c0-0.2,0-0.3,0-0.5C7.5,7,7.6,6.9,7.5,7c-0.1,0.1,0,0.1,0.1,0.1c0.1,0,0.3,0,0.4,0c0.1,0,0.3,0,0.4,0
					c0.1,0,0.3,0.1,0.1-0.1C8.5,6.9,8.5,7,8.5,7.2c0,0.1,0,0.3,0,0.4c0,0.1,0,0.3,0,0.4c0,0,0,0.1,0,0.1c0,0.2-0.1,0,0-0.1
					C8.1,8.2,8.3,9,8.8,8.9c0.8-0.1,0.6-1.2,0.6-1.7c0-0.3,0-0.6-0.3-0.8C8.8,6.2,8.5,6.3,8.2,6.3C7.6,6.3,6.7,6.1,6.7,7
					c0,0.3,0,0.6,0,0.9c0,0.3,0,0.6,0.1,0.8c0.2,0.3,0.6,0.3,1,0.3c0.3,0,0.6,0,0.9,0C9.2,8.9,9.2,8.1,8.7,8.1z"/>
			</g>
		</g>
		<g>
			<path d="M12,8.5h-1.3c-0.1,0-0.3-0.1-0.3-0.3V6.9c0-0.1,0.1-0.3,0.3-0.3H12c0.1,0,0.3,0.1,0.3,0.3v1.3C12.3,8.4,12.1,8.5,12,8.5z
				"/>
			<g>
				<path d="M12,8.1c-0.2,0-0.4,0-0.6,0c-0.1,0-0.6-0.1-0.7,0c0.1,0.2,0.2,0.2,0.2,0.1c0,0,0,0,0-0.1c0,0,0-0.1,0-0.1
					c0-0.1,0-0.3,0-0.4c0-0.2,0-0.3,0-0.5c0-0.1,0.1-0.3-0.1-0.1c-0.1,0.1,0,0.1,0.1,0.1c0.1,0,0.3,0,0.4,0s0.3,0,0.4,0
					c0.1,0,0.3,0.1,0.1-0.1c-0.1-0.1-0.1,0-0.1,0.1c0,0.1,0,0.3,0,0.4c0,0.1,0,0.3,0,0.4c0,0,0,0.1,0,0.1c0,0.2-0.1,0,0-0.1
					c-0.5,0.1-0.3,0.9,0.2,0.8c0.8-0.1,0.6-1.2,0.6-1.7c0-0.3,0-0.6-0.3-0.8c-0.2-0.2-0.6-0.1-0.8-0.1C10.9,6.3,10,6.1,10,7
					c0,0.3,0,0.6,0,0.9c0,0.3,0,0.6,0.1,0.8c0.2,0.3,0.6,0.3,1,0.3c0.3,0,0.6,0,0.9,0C12.5,8.9,12.5,8.1,12,8.1z"/>
			</g>
		</g>
		<g>
			<path d="M5.5,11.8H4.1c-0.1,0-0.3-0.1-0.3-0.3v-1.3c0-0.1,0.1-0.3,0.3-0.3h1.3c0.1,0,0.3,0.1,0.3,0.3v1.3
				C5.7,11.7,5.6,11.8,5.5,11.8z"/>
			<g>
				<path d="M5.5,11.4c-0.2,0-0.4,0-0.6,0c-0.1,0-0.6-0.1-0.7,0c0.1,0.2,0.2,0.2,0.2,0.1c0,0,0,0,0-0.1c0,0,0-0.1,0-0.1
					c0-0.1,0-0.3,0-0.4c0-0.2,0-0.3,0-0.5c0-0.1,0.1-0.3-0.1-0.1c-0.1,0.1,0,0.1,0.1,0.1c0.1,0,0.3,0,0.4,0c0.1,0,0.3,0,0.4,0
					c0.1,0,0.3,0.1,0.1-0.1c-0.1-0.1-0.1,0-0.1,0.1c0,0.1,0,0.3,0,0.4c0,0.1,0,0.3,0,0.4c0,0,0,0.1,0,0.1c0,0.2-0.1,0,0-0.1
					c-0.5,0.1-0.3,0.9,0.2,0.8c0.8-0.1,0.6-1.2,0.6-1.7c0-0.3,0-0.6-0.3-0.8C5.6,9.5,5.3,9.5,5,9.5c-0.6,0-1.5-0.1-1.5,0.7
					c0,0.3,0,0.6,0,0.9c0,0.3,0,0.6,0.1,0.8c0.2,0.3,0.6,0.3,1,0.3c0.3,0,0.6,0,0.9,0C6,12.2,6,11.4,5.5,11.4z"/>
			</g>
		</g>
		<g>
			<path d="M8.7,11.8H7.4c-0.1,0-0.3-0.1-0.3-0.3v-1.3c0-0.1,0.1-0.3,0.3-0.3h1.3c0.1,0,0.3,0.1,0.3,0.3v1.3
				C9,11.7,8.9,11.8,8.7,11.8z"/>
			<g>
				<path d="M8.7,11.4c-0.2,0-0.4,0-0.6,0c-0.1,0-0.6-0.1-0.7,0c0.1,0.2,0.2,0.2,0.2,0.1c0,0,0,0,0-0.1c0,0,0-0.1,0-0.1
					c0-0.1,0-0.3,0-0.4c0-0.2,0-0.3,0-0.5c0-0.1,0.1-0.3-0.1-0.1c-0.1,0.1,0,0.1,0.1,0.1c0.1,0,0.3,0,0.4,0c0.1,0,0.3,0,0.4,0
					c0.1,0,0.3,0.1,0.1-0.1c-0.1-0.1-0.1,0-0.1,0.1c0,0.1,0,0.3,0,0.4c0,0.1,0,0.3,0,0.4c0,0,0,0.1,0,0.1c0,0.2-0.1,0,0-0.1
					c-0.5,0.1-0.3,0.9,0.2,0.8c0.8-0.1,0.6-1.2,0.6-1.7c0-0.3,0-0.6-0.3-0.8C8.9,9.5,8.5,9.5,8.3,9.5c-0.6,0-1.5-0.1-1.5,0.7
					c0,0.3,0,0.6,0,0.9c0,0.3,0,0.6,0.1,0.8c0.2,0.3,0.6,0.3,1,0.3c0.3,0,0.6,0,0.9,0C9.3,12.2,9.3,11.4,8.7,11.4z"/>
			</g>
		</g>
	</g>
</g>
<g id="loc" class="st0">
	<path class="st1" d="M13.3,6.2c0,3.3-3,6.9-4.5,8.5c-0.4,0.4-1.1,0.4-1.5,0c-1.5-1.6-4.5-5.2-4.5-8.5C2.7,3.3,5.1,1,8,1
		S13.3,3.3,13.3,6.2z M8,3.7c-1.3,0-2.5,1.1-2.5,2.5S6.6,8.7,8,8.7s2.5-1.1,2.5-2.5S9.3,3.7,8,3.7z"/>
</g>
<g id="youtube">
	<g>
		<path id="YouTube__x28_alt_x29_" class="st5" d="M15.3,5.2c0-1.2-1-2.2-2.2-2.2H2.9C1.7,3,0.7,4,0.7,5.2V11c0,1.2,1,2.2,2.2,2.2
			h10.2c1.2,0,2.2-1,2.2-2.2V5.2z M6.5,10.6V5.1l4.2,2.7L6.5,10.6z"/>
	</g>
</g>
<g id="Layer_13" class="st0">
	<g class="st1">
		<path id="Facebook" class="st5" d="M6.2,3.7c0,0.4,0,1.9,0,1.9H4.8V8h1.4v7h2.9V8h1.9c0,0,0.2-1.1,0.3-2.4c-0.3,0-2.2,0-2.2,0
			s0-1.4,0-1.6c0-0.2,0.3-0.6,0.6-0.6c0.3,0,1,0,1.6,0c0-0.3,0-1.4,0-2.5c-0.8,0-1.7,0-2.1,0C6.2,1,6.2,3.4,6.2,3.7z"/>
	</g>
</g>
<g id="Layer_14" class="st0">
	<g class="st1">
		<g>
			<path class="st5" d="M15,3.6c-0.5,0.2-1.1,0.4-1.6,0.4c0.6-0.4,1-0.9,1.2-1.6c-0.5,0.3-1.2,0.6-1.8,0.7c-0.5-0.6-1.3-0.9-2.1-0.9
				c-1.6,0-2.8,1.3-2.8,2.8c0,0.2,0,0.4,0.1,0.6c-2.4-0.1-4.4-1.2-5.8-3C1.9,3.2,1.8,3.6,1.8,4.2c0,1,0.5,1.9,1.3,2.4
				c-0.5,0-0.9-0.1-1.3-0.3c0,0,0,0,0,0c0,1.4,1,2.5,2.3,2.8C3.8,9.1,3.5,9.1,3.3,9.1c-0.2,0-0.4,0-0.5,0c0.4,1.1,1.4,1.9,2.6,2
				c-1,0.8-2.2,1.2-3.5,1.2c-0.2,0-0.5,0-0.7,0c1.3,0.8,2.7,1.3,4.3,1.3c5.2,0,8.1-4.3,8.1-8.1c0-0.1,0-0.2,0-0.4
				C14.1,4.6,14.6,4.1,15,3.6z"/>
		</g>
	</g>
</g>
<g id="Layer_15" class="st0">
	<g class="st1">
		<path id="Vimeo" class="st5" d="M13.1,2c-2-0.1-3.3,1-4,3.3c0.4-0.1,0.7-0.2,1.1-0.2c0.7,0,1,0.4,1,1.2c0,0.5-0.4,1.2-1,2.1
			c-0.6,0.9-1,1.4-1.3,1.4c-0.4,0-0.7-0.7-1.1-2.2C7.7,7.3,7.5,6.2,7.2,4.4C7,2.8,6.3,2.1,5.2,2.2C4.7,2.2,4,2.6,3.1,3.4
			C2.4,4.1,1.7,4.7,1,5.3l0.7,0.9c0.6-0.4,1-0.7,1.1-0.7c0.5,0,0.9,0.8,1.4,2.3c0.4,1.4,0.8,2.8,1.1,4.2c0.6,1.5,1.3,2.3,2.1,2.3
			c1.3,0,3-1.3,4.9-3.8c1.9-2.4,2.8-4.3,2.9-5.7C15.3,3,14.6,2,13.1,2z"/>
	</g>
</g>
<g id="Layer_16" class="st0">
	<g class="st1">
		<g>
			<path class="st5" d="M8.5,1C4.7,1,2.6,3.5,2.6,6.1c0,1.2,0.7,2.8,1.8,3.3c0.2,0.1,0.3,0,0.3-0.1c0-0.1,0.2-0.7,0.3-1
				c0-0.1,0-0.2-0.1-0.2C4.6,7.7,4.3,6.9,4.3,6.2c0-1.9,1.5-3.7,4-3.7c2.2,0,3.7,1.4,3.7,3.5c0,2.3-1.2,3.9-2.8,3.9
				c-0.9,0-1.5-0.7-1.3-1.5c0.2-1,0.7-2.1,0.7-2.8c0-0.7-0.4-1.2-1.1-1.2c-0.9,0-1.6,0.9-1.6,2.1c0,0.8,0.3,1.3,0.3,1.3
				s-0.9,3.6-1,4.2c-0.3,1.1,0,2.9,0.1,3.1c0,0.1,0.1,0.1,0.2,0c0.1-0.1,1.2-1.6,1.4-2.7c0.1-0.4,0.6-2,0.6-2c0.3,0.5,1.1,1,2,1
				c2.7,0,4.6-2.4,4.6-5.3C14,3.1,11.6,1,8.5,1z"/>
		</g>
	</g>
</g>
<g id="Layer_17" class="st0">
	<g class="st1">
		<path id="LinkedIn" class="st5" d="M15,9.3v5.2h-3V9.6c0-1.2-0.4-2.1-1.5-2.1c-0.8,0-1.3,0.6-1.5,1.1C8.9,8.8,8.8,9.1,8.8,9.4v5.1
			h-3c0,0,0-8.2,0-9.1h3v1.3c0,0,0,0,0,0h0v0C9.2,6,10,5.2,11.6,5.2C13.6,5.2,15,6.5,15,9.3z M2.7,1C1.6,1,1,1.7,1,2.6
			c0,0.9,0.7,1.6,1.7,1.6h0c1.1,0,1.7-0.7,1.7-1.6C4.3,1.7,3.7,1,2.7,1z M1.1,14.5h3V5.4h-3V14.5z"/>
	</g>
</g>
<g id="Layer_18" class="st0">
	<g class="st1">
		<g>
			<path class="st5" d="M10.6,1H5.4C3,1,1,3,1,5.4v5.3C1,13,3,15,5.4,15h5.3c2.4,0,4.4-2,4.4-4.4V5.4C15,3,13,1,10.6,1z M13.7,10.6
				c0,1.7-1.4,3.1-3.1,3.1H5.4c-1.7,0-3.1-1.4-3.1-3.1V5.4c0-1.7,1.4-3.1,3.1-3.1h5.3c1.7,0,3.1,1.4,3.1,3.1V10.6z"/>
		</g>
	</g>
	<g class="st1">
		<g>
			<path class="st5" d="M8,4.5C6.1,4.5,4.5,6.1,4.5,8s1.6,3.5,3.5,3.5s3.5-1.6,3.5-3.5S9.9,4.5,8,4.5z M8,10.2c-1.2,0-2.2-1-2.2-2.2
				c0-1.2,1-2.2,2.2-2.2s2.2,1,2.2,2.2C10.2,9.2,9.2,10.2,8,10.2z"/>
		</g>
	</g>
	<g class="st1">
		<g>
			<circle class="st5" cx="11.8" cy="4.2" r="0.5"/>
		</g>
	</g>
</g>
<g id="Layer_19" class="st0">
</g>
</svg>
