<?xml version="1.0" encoding="utf-8"?>
<!-- Generator: Adobe Illustrator 21.1.0, SVG Export Plug-In . SVG Version: 6.00 Build 0)  -->
<svg version="1.1" id="Layer_1" xmlns="http://www.w3.org/2000/svg" xmlns:xlink="http://www.w3.org/1999/xlink" x="0px" y="0px"
	 viewBox="0 0 36 40" style="enable-background:new 0 0 36 40;" xml:space="preserve">
<style type="text/css">
	.st0{fill:#EE464C;}
</style>
<path class="st0" d="M7.9,9.3c-5,1.2-3.9,6.8-2.3,10.3c0.6,1.3,1.1,2.7,1.2,4.2c0.1,1,0.1,2.1,0.5,2.9c0.5,1.1,1.5,1.9,2.7,2.1
	c2.1,0.4,4.7-0.4,5.2-2.7c0.1-0.7,0-1.4-0.3-2.1c-0.3-1.1-0.6-2.2-0.6-3.4c0-1.6,0.7-2.9,1.2-4.4c0.6-2,0.4-4.2-1.2-5.7
	C12.7,9.2,9.9,9,7.9,9.3z M12.9,19.7c-0.2,1.7,0.2,3.2,0.6,4.8c0.3,0.8,0.4,1.8-0.4,2.4c-0.7,0.5-2,0.6-2.9,0.4
	c-2-0.4-1.9-2.3-2.1-3.9C7.9,21,6.6,19.2,6,16.8c-0.8-2.3-0.7-5.4,2.2-6.2c2.1-0.4,5.4,0,6.1,2.5C14.8,15.4,13.1,17.6,12.9,19.7z
	 M5.5,10.2C6.5,10,7,9,6.8,8.1c0-0.1,0-0.1,0-0.2c0.4,0.7,1.1,1.2,2,1.1c1-0.1,1.7-0.8,1.9-1.7c0.2,1.2,1.1,2.1,2.3,2s2.1-1.2,2-2.4
	c0-0.1,0-0.2,0-0.3c-0.2-1.2-1.2-2.1-2.5-1.9c-0.9,0.2-1.5,0.9-1.7,1.7c0-0.1-0.1-0.2-0.1-0.3c-0.3-1.1-1.2-1.9-2.4-1.7
	C7.1,4.6,6.4,5.9,6.4,6.9c0,0.1,0.1,0.3,0.1,0.4C6,6.7,5.3,6.2,4.4,6.4C3.3,6.8,3,7.9,3.2,8.9C3.5,9.8,4.6,10.5,5.5,10.2z M12.8,6
	c0.5-0.1,0.8,0.4,0.8,0.8c0,0.4-0.1,0.8-0.5,0.9c-0.4,0.1-0.8-0.4-0.9-0.8C12.2,6.5,12.3,6,12.8,6z M8.5,5.9C9,5.8,9.3,6.2,9.3,6.7
	c0,0.4-0.1,0.9-0.5,1S8,7.3,7.9,6.8C7.9,6.4,8,6,8.5,5.9z M5.4,8.1c0.1,0.3,0.1,0.5-0.2,0.7C4.9,9,4.7,8.7,4.6,8.5
	C4.3,7.8,5.1,7.5,5.4,8.1z M18.9,10c0.5-1.2,0.5-2.8-0.8-3.4C16.8,6,15.5,6.9,15,8c-0.5,1.1-0.5,2.8,0.7,3.4C17,12,18.3,11,18.9,10z
	 M17.6,9.3c-0.2,0.4-0.6,1.1-1.2,0.9c-0.5-0.2-0.4-1.1-0.2-1.4c0.2-0.4,0.6-1,1.1-0.9C18,7.9,17.8,8.9,17.6,9.3z M4.5,10.9
	c0-0.1,0-0.3-0.1-0.4C3.9,9.7,2.9,9.1,1.9,9.6C1,10.1,0.8,11.2,1.2,12c0.4,0.9,1.3,1.4,2.3,1.1C4.4,12.7,4.7,11.8,4.5,10.9z M3,11.8
	c-0.2,0.2-0.4-0.1-0.5-0.3c-0.1-0.2-0.2-0.5,0-0.6C2.8,10.7,3,11,3,11.1C3.1,11.3,3.2,11.6,3,11.8z M28.2,16.2
	c-3.7-0.8-8.4,0.5-8.1,5.1c0.1,1.2,0.5,2.1,0.9,3.3c0.4,1.4,0.4,2.9,0.1,4.3c-0.3,1-0.8,2-0.9,3c-0.2,2.6,2.1,3.7,4.4,3.7
	c1.1,0,2.1-0.4,2.8-1.2c1.5-1.6,1.2-4.1,1.8-6.1c0.9-2.6,2.6-4.7,2.6-7.6C31.8,18.5,30.3,16.8,28.2,16.2z M29.9,23.7
	c-0.8,2.3-2.1,4.3-2.6,6.8c-0.3,1.5-0.4,3.4-2.2,3.7c-0.9,0.2-2.1,0.1-2.9-0.6c-0.7-0.6-0.5-1.5-0.3-2.4c0.1-0.2,0.4-1.2,0.5-1.6
	c0.3-1,0.4-2,0.4-2.9c-0.1-2.2-1.7-4.4-1.1-6.6c0.6-2.7,4-2.8,6.2-2.3c0.1,0,0.2,0,0.3-0.1C30.7,18.6,30.6,21.4,29.9,23.7z
	 M23.1,15.8c1.2,0.1,2.2-0.8,2.4-2c0.1,1,0.8,1.9,1.9,2c0.8,0.1,1.5-0.4,2-1v0.1c-0.3,0.9,0.2,2,1.2,2.3c1,0.4,2-0.3,2.3-1.2
	c0.4-0.9,0.1-2.1-0.9-2.5c-0.8-0.4-1.7-0.1-2.2,0.5c0-0.1,0.1-0.2,0.1-0.3c0.2-1.2-0.4-2.3-1.7-2.6c-1.2-0.3-2.3,0.7-2.6,1.9v0.1
	c-0.1-0.9-0.7-1.7-1.7-2c-1.2-0.3-2.3,0.6-2.6,1.8c0,0.1,0,0.2,0,0.3C21.1,14.4,21.9,15.6,23.1,15.8z M30.8,15.1
	c0.1-0.2,0.3-0.4,0.5-0.3c0.3,0.1,0.4,0.4,0.3,0.7c-0.1,0.3-0.4,0.4-0.6,0.4C30.6,15.8,30.7,15.3,30.8,15.1z M26.9,13.5
	c0.1-0.4,0.4-0.9,0.8-0.8c0.5,0,0.7,0.6,0.6,1.1c-0.1,0.4-0.4,0.8-0.9,0.7C27,14.3,26.8,13.8,26.9,13.5z M22.6,13.4
	c0.1-0.4,0.4-0.9,0.8-0.8c0.4,0.1,0.7,0.6,0.6,1c-0.1,0.4-0.4,0.8-0.9,0.7C22.7,14.2,22.6,13.8,22.6,13.4
	C22.6,13.5,22.6,13.5,22.6,13.4z M21.2,14.6c-0.4-1.1-1.6-2.1-2.9-1.7c-1.3,0.4-1.5,2.1-1.2,3.3c0.1,0.2,0.2,0.3,0.4,0.4
	c0.5,1,1.6,1.8,2.7,1.3C21.5,17.5,21.7,15.7,21.2,14.6z M19.6,16.7c-0.4,0.1-0.9-0.4-1.1-0.9c-0.2-0.4-0.4-1.3,0.2-1.4
	c0.5-0.3,1,0.5,1.2,0.9C20,15.6,20.2,16.6,19.6,16.7z M34.1,16.8c-0.9-0.5-1.9,0-2.4,0.8c-0.4,0.9-0.4,2.1,0.6,2.6
	c0.9,0.4,2-0.1,2.4-0.9C35.2,18.5,35.1,17.2,34.1,16.8z M33.6,18.5c-0.1,0.2-0.3,0.4-0.5,0.4c-0.3-0.1-0.2-0.4-0.1-0.6
	c0.1-0.2,0.3-0.4,0.5-0.4C33.8,18,33.7,18.4,33.6,18.5z"/>
</svg>
