<?xml version="1.0" encoding="utf-8"?>
<!-- Generator: Adobe Illustrator 22.1.0, SVG Export Plug-In . SVG Version: 6.00 Build 0)  -->
<svg version="1.1" id="Layer_1" xmlns="http://www.w3.org/2000/svg" xmlns:xlink="http://www.w3.org/1999/xlink" x="0px" y="0px"
	 viewBox="0 0 16 16" style="enable-background:new 0 0 16 16;" xml:space="preserve">
<style type="text/css">
	.st0{fill:#EB343C;}
</style>
<g>
	<path class="st0" d="M14.4,8c0,2.8-1.7,5.4-4.4,6.3c-2.7,1-5.7,0.2-7.5-2C0.7,10.2,0.4,7,1.9,4.6c1.4-2.4,4.3-3.7,7.1-3.2
		C12.1,2,14.3,4.8,14.4,8c0,0.6,0.9,0.6,0.9,0c-0.1-3.2-2-6.1-5.1-7.2c-3-1.1-6.5-0.1-8.5,2.3C-0.3,5.6-0.6,9.3,1.1,12
		c1.6,2.7,4.8,4.1,7.9,3.5c3.6-0.6,6.2-3.9,6.3-7.5C15.3,7.4,14.4,7.4,14.4,8z"/>
</g>
<g>
	<path class="st0" d="M4,7.9c0.9,1.2,1.9,2.4,2.8,3.6c0.5,0.6,1.5,0.5,1.9,0c2.3-2.3,4.6-4.6,6.9-6.9c1.3-1.3-0.7-3.2-1.9-1.9
		C11.3,5,9.1,7.3,6.8,9.6c0.6,0,1.3,0,1.9,0C7.8,8.4,6.8,7.2,5.9,6C5.5,5.4,4.5,5.5,4,6C3.4,6.6,3.5,7.4,4,7.9L4,7.9z"/>
</g>
</svg>
