<?xml version="1.0" encoding="utf-8"?>
<!-- Generator: Adobe Illustrator 21.1.0, SVG Export Plug-In . SVG Version: 6.00 Build 0)  -->
<svg version="1.1" id="Layer_3" xmlns="http://www.w3.org/2000/svg" xmlns:xlink="http://www.w3.org/1999/xlink" x="0px" y="0px"
	 viewBox="0 0 56.8 57.3" style="enable-background:new 0 0 56.8 57.3;" xml:space="preserve">
<style type="text/css">
	.st0{fill:#EB343C;}
</style>
<path class="st0" d="M51.9,54.9L27.8,31.3L5,53.5L2,50.8l22.8-22.3L2,6.3L5,3.6l22.8,22.1L51.9,2.2l2.9,2.8L30.6,28.5l24.3,23.6
	L51.9,54.9z M41.1,41.5L52,52.1l0,0L41.1,41.5z M4.9,50.7L4.9,50.7l22.8-22.2l0,0l0,0L4.9,6.3l0,0l22.8,22.1L4.9,50.7z M52,5
	L41.2,15.5L52,5L52,5z"/>
</svg>
