<?xml version="1.0" encoding="utf-8"?>
<!-- Generator: Adobe Illustrator 22.1.0, SVG Export Plug-In . SVG Version: 6.00 Build 0)  -->
<svg version="1.1" id="Layer_1" xmlns="http://www.w3.org/2000/svg" xmlns:xlink="http://www.w3.org/1999/xlink" x="0px" y="0px"
	 viewBox="0 0 16 16" style="enable-background:new 0 0 16 16;" xml:space="preserve">
<style type="text/css">
	.st0{fill:#EB343C;}
</style>
<g id="Layer_13">
	<g>
		<path id="Facebook" class="st0" d="M6.2,3.7c0,0.4,0,1.9,0,1.9H4.8V8h1.4v7h2.9V8H11c0,0,0.2-1.1,0.3-2.4c-0.3,0-2.2,0-2.2,0
			s0-1.4,0-1.6c0-0.2,0.3-0.6,0.6-0.6s1,0,1.6,0c0-0.3,0-1.4,0-2.5c-0.8,0-1.7,0-2.1,0C6.2,1,6.2,3.4,6.2,3.7z"/>
	</g>
</g>
</svg>
