<?xml version="1.0" encoding="utf-8"?>
<!-- Generator: Adobe Illustrator 22.1.0, SVG Export Plug-In . SVG Version: 6.00 Build 0)  -->
<svg version="1.1" id="Layer_1" xmlns="http://www.w3.org/2000/svg" xmlns:xlink="http://www.w3.org/1999/xlink" x="0px" y="0px"
	 viewBox="0 0 31 40" style="enable-background:new 0 0 31 40;" xml:space="preserve">
<style type="text/css">
	.st0{fill:#EB343C;}
</style>
<path class="st0" d="M7.2,14.8c3.8-0.3,7.8-1.8,10.1-5c-0.7-0.1-1.3-0.2-2-0.3c0.2,0.9,0,2-0.9,2.3c-1,0.4-1.1,2.3,0.3,2.2
	c2.6-0.2,7.4-0.3,8.8-2.9c-0.7-0.2-1.4-0.4-2-0.6c-0.5,4.1-0.5,8.8-3.9,11.8c-1.6,1.4-2.9,1.9-4.7,0.7c-1.4-0.9-2.5-2.3-3.2-3.8
	c-0.8-1.7-1.3-3.6-1.3-5.5c0-1.4-2.2-1.4-2.2,0c0,2.5,0.7,5.2,2,7.4c1.7,2.9,5.2,6,8.7,4.3c5.9-2.8,6.2-9.3,6.9-14.9
	c0.1-1.1-1.6-1.5-2-0.6c-0.9,1.6-5.2,1.7-6.9,1.8c0.1,0.7,0.2,1.4,0.3,2.2c2.1-0.9,2.9-2.8,2.4-5c-0.2-1-1.5-1-2-0.3
	c-1.8,2.5-5.2,3.7-8.2,4C5.8,12.7,5.8,14.9,7.2,14.8z"/>
<path class="st0" d="M3.7,33.1c0-3.5,0-6.9,0-10.4c0-3.6-0.4-7.5,0.3-11c0.6-3,2.1-6.2,4.9-7.9c3.2-1.9,6.3-0.5,9.7-0.3
	c2.7,0.2,4.6,1.4,5.9,3.9c1.6,3.4,1.2,7,1.3,10.7c0,4.2,0,8.4-0.2,12.6c-0.1,1.4,2.1,1.4,2.2,0C28,26.5,28,22.3,28,18.1
	c0-3.5,0.2-7-1-10.4c-1.3-3.7-4.1-6.1-8-6.4c-2.4-0.2-4.7-1-7.2-0.7C8.5,1,5.8,2.8,4.1,5.5c-2.7,4-2.7,8.6-2.6,13.2
	c0,4.8,0,9.6,0.1,14.5C1.5,34.5,3.7,34.5,3.7,33.1L3.7,33.1z"/>
<path class="st0" d="M10.9,24.2c0.2,0.8,0.2,1.7,0.4,2.5c-0.2,0.5-0.2,0.7,0.1,0.5c0.2-0.1,0.3-0.1,0.1,0c-0.1,0.1-0.5,0.2-0.7,0.2
	c-1.5,0.5-3,0.9-4.5,1.4c-4.2,1.4-5.7,4.9-5.7,9c0,0.6,0.5,1.1,1.1,1.1c9.1,0,18.2,0,27.2,0c0.6,0,1.1-0.5,1.1-1.1
	c0-4.2-1.3-7.7-5.7-9c-1.6-0.5-3.2-0.8-4.8-1.2c-0.3-0.1-0.6-0.2-0.9-0.2c-0.9-0.1,0.1-0.4,0.1,0.3c0-0.2-0.2-0.6-0.3-0.9
	c-0.2-1.1,0-2.1,0.4-3.1c0.5-1.3-1.6-1.9-2.1-0.6c-0.6,1.5-1.1,4.3,0.1,5.7c0.7,0.9,2.6,1,3.6,1.3c1.5,0.4,3.4,0.6,4.8,1.5
	c2.3,1.4,2.5,3.8,2.5,6.2c0.4-0.4,0.7-0.7,1.1-1.1c-9.1,0-18.2,0-27.2,0c0.4,0.4,0.7,0.7,1.1,1.1c0-2.5,0.4-4.8,2.7-6.2
	c1.4-0.9,3.2-1.2,4.7-1.7c1.1-0.3,2.5-0.5,3.1-1.6c0.7-1.4,0.2-3.3-0.1-4.7C12.7,22.3,10.5,22.9,10.9,24.2L10.9,24.2z"/>
<path class="st0" d="M8.9,30.1c3.6,4.2,8.9,3.7,12.5-0.2c1-1-0.6-2.6-1.6-1.6c-1.9,2.1-4.3,3.4-7,2c-0.9-0.4-1.7-1.1-2.4-1.8
	C9.6,27.5,8,29,8.9,30.1L8.9,30.1z"/>
</svg>
