<?xml version="1.0" encoding="utf-8"?>
<!-- Generator: Adobe Illustrator 22.1.0, SVG Export Plug-In . SVG Version: 6.00 Build 0)  -->
<svg version="1.1" id="Layer_1" xmlns="http://www.w3.org/2000/svg" xmlns:xlink="http://www.w3.org/1999/xlink" x="0px" y="0px"
	 viewBox="0 0 16 16" style="enable-background:new 0 0 16 16;" xml:space="preserve">
<style type="text/css">
	.st0{fill:#EB343C;}
</style>
<g id="Layer_17">
	<g>
		<path id="LinkedIn" class="st0" d="M15,9.3v5.2h-3V9.6c0-1.2-0.4-2.1-1.5-2.1C9.7,7.5,9.2,8.1,9,8.6C8.9,8.8,8.8,9.1,8.8,9.4v5.1
			h-3c0,0,0-8.2,0-9.1h3v1.3l0,0l0,0l0,0C9.2,6,10,5.2,11.6,5.2C13.6,5.2,15,6.5,15,9.3z M2.7,1C1.6,1,1,1.7,1,2.6s0.7,1.6,1.7,1.6
			l0,0c1.1,0,1.7-0.7,1.7-1.6C4.3,1.7,3.7,1,2.7,1z M1.1,14.5h3V5.4h-3C1.1,5.4,1.1,14.5,1.1,14.5z"/>
	</g>
</g>
</svg>
