<?xml version="1.0" encoding="utf-8"?>
<!-- Generator: Adobe Illustrator 22.1.0, SVG Export Plug-In . SVG Version: 6.00 Build 0)  -->
<svg version="1.1" id="Layer_1" xmlns:sketch="http://www.bohemiancoding.com/sketch/ns"
	 xmlns="http://www.w3.org/2000/svg" xmlns:xlink="http://www.w3.org/1999/xlink" x="0px" y="0px" viewBox="0 0 29.3 29.1"
	 style="enable-background:new 0 0 29.3 29.1;" xml:space="preserve">
<style type="text/css">
	.st0{fill:#EB343C;}
	.st1{fill:#F9F9F9;}
</style>
<g id="Layer_3">
	<g sketch:type="MSPage">
		<path sketch:type="MSShapeGroup" class="st0" d="M0.6,28.2c0,0.4,0.4,0.6,0.7,0.5l9-3.7l8.4,3.5c0.1,0.1,0.3,0.1,0.4,0l9.2-3.8
			c0.2-0.1,0.3-0.3,0.3-0.5V0.8c0-0.4-0.4-0.6-0.7-0.5l-9,3.7l-8.4-3.5c-0.1-0.1-0.3-0.1-0.4,0L0.9,4.4C0.8,4.5,0.6,4.7,0.6,4.9
			V28.2z"/>
	</g>
</g>
<g id="Layer_2">
	<path class="st1" d="M23.2,13.4c1-0.3,1.7-1.3,1.7-2.4c0-1.4-1.1-2.5-2.5-2.5s-2.5,1.1-2.5,2.5c0,1.1,0.7,2,1.7,2.4l0.5,2.2
		c0.1,0.5,0.4,0.5,0.5,0L23.2,13.4z"/>
	<circle class="st0" cx="22.4" cy="11" r="1.5"/>
	<path class="st1" d="M3.6,17.7c0.2,0.1,0.5,0,0.7-0.2c0.1-0.2,0-0.5-0.2-0.7c-0.2-0.1-0.3-0.2-0.4-0.2c-0.2-0.1-0.5,0-0.7,0.2
		c-0.1,0.2,0,0.5,0.2,0.7C3.2,17.5,3.4,17.6,3.6,17.7z"/>
	<path class="st1" d="M6.2,18.5c0.3,0,0.5-0.2,0.5-0.5s-0.2-0.5-0.5-0.5c-0.1,0-0.3,0-0.4-0.1c-0.3-0.1-0.5,0.1-0.6,0.4
		c-0.1,0.3,0.1,0.5,0.4,0.6C5.8,18.5,6,18.5,6.2,18.5z"/>
	<path class="st1" d="M8.3,16.3c0-0.3-0.2-0.5-0.5-0.5S7.3,16,7.3,16.3c0,0.2,0,0.3,0,0.4c0,0.3,0.2,0.5,0.4,0.6s0.5-0.2,0.6-0.4
		C8.3,16.7,8.3,16.5,8.3,16.3z"/>
	<path class="st1" d="M8.3,13.9c0.1-0.3-0.1-0.5-0.4-0.6c-0.3-0.1-0.5,0.1-0.6,0.4c0,0.2-0.1,0.4-0.1,0.6c0,0.3,0.2,0.5,0.5,0.5
		c0.3,0,0.5-0.2,0.5-0.5C8.2,14.2,8.3,14,8.3,13.9z"/>
	<path class="st1" d="M9.7,13.1c0.3,0,0.5-0.3,0.5-0.5c0-0.3-0.3-0.5-0.5-0.5c-0.2,0-0.4,0-0.5,0.1c-0.3,0.1-0.4,0.3-0.4,0.6
		C8.7,13,9,13.2,9.3,13.1C9.4,13.1,9.6,13.1,9.7,13.1z"/>
	<path class="st1" d="M12,13.3c0.3,0.1,0.5-0.1,0.6-0.4c0.1-0.3-0.1-0.5-0.4-0.6c-0.2,0-0.3-0.1-0.5-0.1c-0.3-0.1-0.5,0.1-0.6,0.4
		c-0.1,0.3,0.1,0.5,0.4,0.6C11.7,13.2,11.9,13.3,12,13.3z"/>
	<path class="st1" d="M14.2,14.2c0.2,0.2,0.5,0.1,0.7-0.1c0.2-0.2,0.1-0.5-0.1-0.7c-0.1-0.1-0.3-0.2-0.5-0.3
		c-0.2-0.1-0.5-0.1-0.7,0.2c-0.1,0.2-0.1,0.5,0.2,0.7C13.9,14.1,14,14.2,14.2,14.2z"/>
	<path class="st1" d="M14.5,15.8c-0.2,0.2-0.1,0.5,0.1,0.7c0.2,0.2,0.5,0.1,0.7-0.1c0.1-0.2,0.2-0.4,0.3-0.5c0.1-0.3,0-0.5-0.3-0.7
		s-0.5,0-0.7,0.3C14.6,15.6,14.6,15.7,14.5,15.8z"/>
	<path class="st1" d="M13,18.1c0,0.3,0.1,0.5,0.4,0.6c0.3,0,0.5-0.1,0.6-0.4c0-0.1,0.1-0.2,0.1-0.3c0.1-0.2,0-0.5-0.2-0.7
		s-0.5,0-0.7,0.2C13.1,17.7,13,17.9,13,18.1z"/>
	<path class="st1" d="M14.8,20.4c0.3,0,0.5-0.2,0.6-0.4c0-0.3-0.2-0.5-0.4-0.6c-0.1,0-0.3-0.1-0.4-0.1c-0.3-0.1-0.5,0-0.7,0.3
		c-0.1,0.3,0,0.5,0.3,0.7C14.4,20.4,14.6,20.4,14.8,20.4z"/>
	<path class="st1" d="M17.5,20c0.3-0.1,0.4-0.4,0.3-0.6c-0.1-0.3-0.4-0.4-0.6-0.3c-0.2,0.1-0.3,0.1-0.4,0.2
		c-0.3,0.1-0.4,0.4-0.3,0.6s0.4,0.4,0.6,0.3C17.2,20.1,17.4,20,17.5,20z"/>
	<path class="st1" d="M19.9,18.8c0.2-0.1,0.3-0.4,0.2-0.7s-0.4-0.3-0.7-0.2c-0.1,0.1-0.3,0.2-0.4,0.2c-0.2,0.1-0.3,0.4-0.2,0.7
		s0.4,0.3,0.7,0.2C19.6,19,19.8,18.9,19.9,18.8z"/>
	<path class="st1" d="M22.1,17.5c0.2-0.2,0.3-0.5,0.1-0.7c-0.2-0.2-0.5-0.3-0.7-0.1c-0.1,0.1-0.3,0.2-0.4,0.3
		c-0.2,0.2-0.3,0.5-0.1,0.7c0.2,0.2,0.5,0.3,0.7,0.1C21.8,17.7,21.9,17.6,22.1,17.5z"/>
</g>
</svg>
