<?xml version="1.0" encoding="utf-8"?>
<!-- Generator: Adobe Illustrator 21.1.0, SVG Export Plug-In . SVG Version: 6.00 Build 0)  -->
<svg version="1.1" id="Layer_1" xmlns="http://www.w3.org/2000/svg" xmlns:xlink="http://www.w3.org/1999/xlink" x="0px" y="0px"
	 viewBox="0 0 14.4 19" style="enable-background:new 0 0 14.4 19;" xml:space="preserve">
<style type="text/css">
	.st0{fill:#EB343C;}
</style>
<g id="Layer_2">
	<g>
		<path class="st0" d="M13.8,2.5c0,5.2,0,10.5,0,15.8v0.1l-0.1-0.1c-1.6-1.3-3.3-2.4-4.8-3.7c-0.5-0.4-1-0.8-1.6-1.2
			c0,0-0.1,0-0.1,0.1c-2.1,1.6-4.2,3.1-6.4,4.8l-0.1,0.1l0,0v-0.1c0-5.2,0-10.4,0-15.6c0-1.4,1.2-2.4,2.4-2.4c2.7,0,5.6,0,8.3,0
			c1,0,2.1,0.7,2.3,1.8C13.7,2.3,13.8,2.4,13.8,2.5z M12.1,15.1c0-0.1,0-0.1,0-0.1c0-4.1,0-8.1,0-12.2c0-0.5-0.3-0.8-0.8-0.8
			C8.6,2,5.8,2,3.1,2C2.6,2,2.3,2.3,2.3,2.8c0,4.1,0,8.1,0,12.2v0.1c0.1,0,0.1-0.1,0.2-0.1c1.5-1.2,3-2.3,4.6-3.5
			c0.1-0.1,0.2-0.1,0.3,0c0.8,0.6,1.8,1.4,2.6,2C10.7,14.1,11.4,14.6,12.1,15.1z"/>
	</g>
</g>
</svg>
