<?xml version="1.0" encoding="utf-8"?>
<!-- Generator: Adobe Illustrator 22.1.0, SVG Export Plug-In . SVG Version: 6.00 Build 0)  -->
<svg version="1.1" xmlns="http://www.w3.org/2000/svg" xmlns:xlink="http://www.w3.org/1999/xlink" x="0px" y="0px"
	 viewBox="0 0 16 16" style="enable-background:new 0 0 16 16;" xml:space="preserve">
<style type="text/css">
	.st1{display:none;}
	.st2{display:inline;}
</style>
<g id="Layer_2">
</g>
<g id="play">
	<g>
		<g>
			<path class="st0" d="M12.9,12.7c-2.6,0-5.2,0-7.8,0c-1,0-2.7,0.3-3.2-0.8c-0.2-0.4-0.1-1-0.1-1.5c0-0.8,0-1.5,0-2.3
				c0-0.8,0-1.5,0-2.3c0-0.6-0.1-1.2,0.4-1.6c0.7-0.7,2.3-0.4,3.2-0.4c1.7,0,3.3,0,5,0c0.6,0,1.3,0,1.9,0c0.4,0,0.8,0,1.1,0.1
				c0.9,0.3,0.9,1.2,0.9,2c0,0.9,0,1.7,0,2.6c0,0.8,0,1.6,0,2.4C14.2,11.7,14,12.6,12.9,12.7c-0.5,0-0.5,0.8,0,0.7
				c1.1-0.1,2-0.8,2.1-1.9c0.1-0.5,0-1,0-1.6c0-1.6,0-3.2,0-4.7c0-0.9-0.5-1.7-1.3-2C13.2,3,12.8,3,12.3,3c-1.7,0-3.3,0-5,0
				C5.9,3,4.5,3,3.2,3c-0.8,0-1.6,0.4-2,1.2C1,4.8,1,5.3,1,5.9c0,1.7,0,3.3,0,5c0,1.5,0.8,2.5,2.4,2.5c3.2,0,6.3,0,9.5,0
				C13.3,13.4,13.3,12.7,12.9,12.7z"/>
		</g>
		<path class="st0" d="M6.3,6.4V10c0,0.2,0.2,0.3,0.4,0.2l2.8-2c0.2-0.1,0.1-0.3,0-0.4L6.7,6.2C6.5,6.1,6.3,6.2,6.3,6.4z"/>
	</g>
</g>
<g id="call" class="st1">
	<g class="st2">
		<g>
			<path d="M10,5.4c1.1-0.9,2.2-1.8,3.3-2.7c-0.2,0-0.4,0-0.6,0c0.9,0.8,1.6,2.1,1.6,3.3c0,1.2-0.9,2-1.7,2.7
				C11,10.1,9.4,11.6,7.8,13c-1.8,1.5-4.8,1-6.2-0.7c0,0.2,0,0.4,0,0.6c1-0.9,2.1-1.9,3.1-2.8c-0.2,0-0.3,0-0.5,0.1
				c0.8,0.6,2,0.9,2.9,0.5c0.7-0.3,1.2-0.9,1.8-1.4c0.5-0.5,1.2-0.9,1.5-1.6c0.5-1,0.3-2.1-0.5-2.9C9.6,4.5,9,5,9.4,5.4
				C10.8,6.7,9.2,8,8.2,8.8c-0.3,0.3-0.6,0.6-1,0.9C6.4,10.2,5.4,10,4.6,9.4c-0.1-0.1-0.4,0-0.5,0.1c-1,0.9-2.1,1.9-3.1,2.8
				c-0.2,0.2-0.1,0.4,0,0.6c1.3,1.6,4.2,2.5,6.2,1.5c1-0.4,1.8-1.3,2.6-2.1c1.1-1,2.2-2,3.3-3c0.9-0.8,1.9-1.6,2.1-3
				c0.2-1.6-0.7-3.2-1.8-4.3c-0.2-0.2-0.4-0.1-0.6,0C11.6,3,10.5,3.9,9.4,4.8C9,5.2,9.6,5.7,10,5.4z"/>
		</g>
		<g>
			<path d="M2.3,13.6c1.1-1,2.3-2,3.4-3.1c0.4-0.3-0.2-0.9-0.6-0.6c-1.1,1-2.3,2-3.4,3.1C1.4,13.4,2,14,2.3,13.6L2.3,13.6z"/>
		</g>
		<g>
			<path d="M10.7,6.3c1.1-1,2.2-1.9,3.2-2.9c0.4-0.3-0.2-0.9-0.6-0.6c-1.1,1-2.2,1.9-3.2,2.9C9.7,6,10.3,6.6,10.7,6.3L10.7,6.3z"/>
		</g>
		<g>
			<path d="M3.9,13.4c0.8,0.5,2,0.3,2.9,0c0.5-0.1,0.3-0.9-0.2-0.8c-0.7,0.2-1.7,0.4-2.2,0C3.9,12.4,3.5,13.1,3.9,13.4L3.9,13.4z"/>
		</g>
	</g>
</g>
<g id="down_x5F_arrow" class="st1">
	<g class="st2">
		<path d="M14,3.9c-2.2,2.5-4.3,5-6.5,7.5c0.3,0,0.6,0,0.8,0C6.2,8.8,4,6.3,1.8,3.9C1.3,3.3,0.5,4.1,1,4.7c2.2,2.5,4.3,5,6.5,7.5
			c0.2,0.2,0.6,0.2,0.8,0c2.2-2.5,4.3-5,6.5-7.5C15.3,4.1,14.5,3.3,14,3.9L14,3.9z"/>
	</g>
</g>
<g id="up_x5F_arrow" class="st1">
	<g class="st2">
		<path d="M1.8,11.8c2.2-2.5,4.3-5,6.5-7.5c-0.3,0-0.6,0-0.8,0c2.2,2.5,4.3,5,6.5,7.5c0.5,0.6,1.3-0.3,0.8-0.8
			c-2.2-2.5-4.3-5-6.5-7.5c-0.2-0.2-0.6-0.2-0.8,0C5.3,6,3.1,8.5,1,11C0.5,11.6,1.3,12.4,1.8,11.8L1.8,11.8z"/>
	</g>
</g>
<g id="lf_x5F_arrow" class="st1">
	<g class="st2">
		<path d="M12.5,14.4c-2.5-2.2-5-4.3-7.5-6.5c0,0.3,0,0.6,0,0.8c2.5-2.2,5-4.3,7.5-6.5c0.6-0.5-0.3-1.3-0.8-0.8
			c-2.5,2.2-5,4.3-7.5,6.5c-0.2,0.2-0.2,0.6,0,0.8c2.5,2.2,5,4.3,7.5,6.5C12.2,15.8,13,14.9,12.5,14.4L12.5,14.4z"/>
	</g>
</g>
<g id="Layer_7" class="st1">
	<g class="st2">
		<path d="M4.2,2.2c2.5,2.2,5,4.3,7.5,6.5c0-0.3,0-0.6,0-0.8c-2.5,2.2-5,4.3-7.5,6.5c-0.6,0.5,0.3,1.3,0.8,0.8
			c2.5-2.2,5-4.3,7.5-6.5c0.2-0.2,0.2-0.6,0-0.8C10,5.7,7.5,3.6,5,1.4C4.4,0.9,3.6,1.7,4.2,2.2L4.2,2.2z"/>
	</g>
</g>
</svg>
