<?xml version="1.0" encoding="utf-8"?>
<!-- Generator: Adobe Illustrator 22.1.0, SVG Export Plug-In . SVG Version: 6.00 Build 0)  -->
<svg version="1.1" id="Layer_1" xmlns="http://www.w3.org/2000/svg" xmlns:xlink="http://www.w3.org/1999/xlink" x="0px" y="0px"
	 viewBox="0 0 16 16" style="enable-background:new 0 0 16 16;" xml:space="preserve">
<style type="text/css">
	.st0{fill:#EE464C;}
</style>
<g id="walk_x5F_review">
	<g>
		<g>
			<g>
				<g>
					<path class="st0" d="M4.6,3.3c0.8-0.1,2,0,2.2,0.9C7,5,6.4,5.7,6.3,6.5C6.2,7.1,6.4,7.7,6.5,8.3c0.1,0.3,0.1,0.6-0.2,0.9
						C6,9.4,5.6,9.4,5.3,9.4C4.6,9.2,4.6,8.5,4.6,7.9C4.5,7,4,6.3,3.8,5.5C3.5,4.6,3.5,3.5,4.6,3.3c0.3-0.1,0.2-0.6-0.1-0.5
						C2.7,3.2,3,5.2,3.6,6.5C3.8,6.9,4,7.4,4.1,8c0,0.4,0,0.7,0.2,1.1c0.2,0.4,0.5,0.7,1,0.8C6,10,7,9.8,7.2,8.9
						c0-0.3,0-0.5-0.1-0.8C6.9,7.7,6.8,7.3,6.8,6.9c0-0.6,0.2-1,0.4-1.6c0.2-0.7,0.2-1.5-0.4-2C6.2,2.7,5.2,2.6,4.5,2.8
						C4.1,2.8,4.3,3.3,4.6,3.3z"/>
				</g>
				<g>
					<path class="st0" d="M3.6,2.3c0,0.1,0,0.2-0.1,0.3c-0.1,0-0.2,0-0.2-0.1C3.2,2.2,3.5,2.1,3.6,2.3c0.1,0.1,0.2,0.2,0.3,0.2
						C4,2.5,4.1,2.3,4,2.2C3.9,1.9,3.6,1.6,3.2,1.7C2.8,1.8,2.7,2.3,2.8,2.6s0.5,0.6,0.8,0.5C4,3,4.2,2.6,4,2.2C4,1.9,3.5,2,3.6,2.3
						z"/>
				</g>
				<g>
					<path class="st0" d="M5,1.8c0,0.1,0,0.3-0.2,0.4C4.6,2.2,4.5,2,4.5,1.9s0.1-0.3,0.2-0.3C4.9,1.5,5,1.7,5,1.8
						C5.1,2.2,5.5,2,5.5,1.7C5.4,1.3,5,0.9,4.6,1S3.9,1.5,4,1.9c0,0.4,0.4,0.8,0.8,0.8c0.5,0,0.7-0.5,0.7-0.9S5,1.4,5,1.8z"/>
				</g>
				<g>
					<path class="st0" d="M6.5,1.8c0,0.1,0,0.3-0.2,0.4C6.1,2.2,6,2.1,6,1.9s0.1-0.3,0.2-0.3C6.4,1.6,6.5,1.7,6.5,1.8
						c0.1,0.4,0.6,0.3,0.5,0C6.9,1.3,6.6,1,6.1,1.1C5.7,1.2,5.4,1.6,5.5,2s0.4,0.8,0.8,0.7C6.7,2.7,7,2.2,7,1.8
						C7,1.5,6.5,1.5,6.5,1.8z"/>
				</g>
				<g>
					<path class="st0" d="M8,2.7C7.9,2.9,7.7,3.1,7.6,3.1C7.4,3,7.4,2.7,7.5,2.5c0.1-0.1,0.2-0.4,0.4-0.3C8.1,2.2,8,2.6,8,2.7
						C7.8,3,8.3,3.3,8.4,3c0.2-0.4,0.2-1-0.3-1.2C7.7,1.6,7.2,1.9,7,2.3s-0.2,1,0.2,1.2c0.5,0.2,1-0.1,1.2-0.5
						C8.6,2.7,8.1,2.4,8,2.7z"/>
				</g>
				<g>
					<path class="st0" d="M2.7,3.4c0,0.1,0.1,0.2,0,0.3c0,0-0.1-0.1-0.2-0.2c0-0.1-0.1-0.2,0-0.2S2.7,3.4,2.7,3.4
						c0.2,0.4,0.6,0.1,0.5-0.2C3,2.9,2.7,2.7,2.3,2.9C2,3,1.9,3.4,2.1,3.7C2.2,4,2.6,4.2,2.9,4.1s0.4-0.5,0.3-0.8
						C3.2,3.1,3,3,2.9,3.1C2.8,3.1,2.7,3.3,2.7,3.4z"/>
				</g>
			</g>
			<g>
				<g>
					<path class="st0" d="M12.9,8.1c0.2-0.7,0.4-1.4,0-2.1c-0.4-0.6-1-0.9-1.7-0.9S9.7,5.2,9.3,5.8C8.7,6.4,8.8,7.3,9.1,7.9
						c0.1,0.3,0.6,0.2,0.5-0.1c-0.2-0.5-0.3-1.1,0-1.6s1-0.5,1.6-0.5c0.5,0,1,0.2,1.3,0.7s0.1,1.1-0.1,1.6
						C12.3,8.3,12.8,8.4,12.9,8.1L12.9,8.1z"/>
				</g>
				<g>
					<path class="st0" d="M12.2,4.7c-0.1,0.3,0,0.8,0.4,0.9c0.3,0.1,0.7-0.1,0.8-0.4s0-0.7-0.3-0.9C12.8,4.1,12.4,4.3,12.2,4.7
						c-0.1,0.2,0.3,0.5,0.5,0.2c0-0.1,0.1-0.2,0.2-0.2C13,4.7,13,4.9,13,5s-0.1,0.2-0.2,0.1c-0.1,0-0.1-0.2-0.1-0.3
						C12.8,4.5,12.3,4.4,12.2,4.7z"/>
				</g>
				<g>
					<path class="st0" d="M10.8,4.2c0,0.4,0.2,0.9,0.7,0.9c0.4,0,0.8-0.3,0.9-0.7c0.1-0.4-0.2-0.8-0.6-0.9
						C11.3,3.4,10.9,3.7,10.8,4.2c-0.1,0.3,0.4,0.4,0.5,0.1c0-0.1,0.1-0.3,0.3-0.3s0.3,0.2,0.2,0.4c0,0.1-0.2,0.3-0.3,0.3
						c-0.2,0-0.2-0.2-0.2-0.4C11.4,3.9,10.9,3.9,10.8,4.2z"/>
				</g>
				<g>
					<path class="st0" d="M9.3,4.2C9.2,4.6,9.5,5,10,5.1c0.4,0,0.8-0.3,0.9-0.7C11,4,10.7,3.6,10.3,3.5C9.8,3.4,9.4,3.7,9.3,4.2
						C9.2,4.4,9.7,4.6,9.8,4.3C9.8,4.2,9.9,4,10.1,4s0.3,0.2,0.2,0.4c0,0.1-0.2,0.3-0.3,0.3c-0.2,0-0.2-0.2-0.2-0.4
						C9.8,3.9,9.3,3.9,9.3,4.2z"/>
				</g>
				<g>
					<path class="st0" d="M7.9,5.3C8,5.7,8.5,6,8.9,5.8C9.4,5.6,9.4,5,9.3,4.6C9.1,4.3,8.7,3.9,8.2,4C7.7,4.2,7.7,4.8,7.9,5.3
						C8,5.5,8.5,5.4,8.4,5.1c-0.1-0.2-0.2-0.5,0-0.6s0.4,0.2,0.4,0.3C8.9,5,8.9,5.3,8.7,5.4C8.5,5.4,8.4,5.2,8.3,5
						C8.2,4.7,7.7,5,7.9,5.3z"/>
				</g>
				<g>
					<path class="st0" d="M13,5.7c-0.2,0.3-0.1,0.7,0.2,0.9c0.3,0.2,0.7,0,0.9-0.3s0.1-0.7-0.2-0.9C13.6,5.2,13.2,5.4,13,5.7
						C12.9,6,13.3,6.3,13.5,6c0-0.1,0.1-0.2,0.2-0.1c0.1,0,0.1,0.2,0,0.2c0,0.1-0.1,0.1-0.2,0.1c-0.1,0-0.1-0.2,0-0.2
						c0.1-0.1,0-0.3-0.1-0.3C13.3,5.6,13.1,5.6,13,5.7z"/>
				</g>
			</g>
			<g>
				<path class="st0" d="M14,11.7c0,1.5-1.2,2.8-2.8,2.8c-1.5,0-2.8-1.3-2.8-2.8s1.3-2.8,2.8-2.8S13.9,10.2,14,11.7
					c0,0.3,0.5,0.3,0.5,0c0-1.4-0.9-2.6-2.2-3.1s-2.8-0.1-3.7,1c-0.9,1-1,2.6-0.3,3.7c0.7,1.2,2.1,1.8,3.5,1.6
					c1.6-0.3,2.6-1.7,2.7-3.2C14.5,11.4,14,11.4,14,11.7z"/>
			</g>
		</g>
		<g>
			<path class="st0" d="M10,10.5c0.2,0.3,0.3,0.5,0.5,0.8c0.1,0.2,0.3,0.6,0.5,0.7c0.2,0.2,0.6,0.3,0.8,0.4c0.3,0.1,0.6,0.3,0.8,0.4
				c0.3,0.1,0.5-0.3,0.3-0.4c-0.5-0.3-1.1-0.5-1.6-0.8c0,0,0.1,0.1,0,0l-0.1-0.1c-0.1-0.2-0.2-0.3-0.3-0.5c-0.1-0.3-0.3-0.5-0.4-0.8
				C10.3,10,9.9,10.2,10,10.5L10,10.5z"/>
		</g>
	</g>
</g>
</svg>
