<?xml version="1.0" encoding="utf-8"?>
<!-- Generator: Adobe Illustrator 21.1.0, SVG Export Plug-In . SVG Version: 6.00 Build 0)  -->
<svg version="1.1" id="Layer_2_1_" xmlns="http://www.w3.org/2000/svg" xmlns:xlink="http://www.w3.org/1999/xlink" x="0px" y="0px"
	 viewBox="0 0 16 16" style="enable-background:new 0 0 16 16;" xml:space="preserve">
<style type="text/css">
	.st0{fill:#EB343C;}
</style>
<g>
	<path id="WhatsApp" class="st0" d="M14.9,8c0,3.8-3.1,6.9-7,6.9c-1.2,0-2.4-0.3-3.4-0.9l-3.9,1.2L2,11.6c-0.6-1-1-2.3-1-3.6
		c0-3.8,3.1-6.9,7-6.9C11.8,1.1,14.9,4.2,14.9,8z M7.9,2.2C4.7,2.2,2.1,4.8,2.1,8c0,1.3,0.4,2.5,1.1,3.4l-0.7,2.2l2.3-0.7
		c0.9,0.6,2,1,3.2,1c3.2,0,5.9-2.6,5.9-5.8S11.2,2.2,7.9,2.2z M11.5,9.6c0-0.1-0.2-0.1-0.3-0.2c-0.2-0.1-1-0.5-1.2-0.6
		C9.8,8.8,9.7,8.8,9.6,8.9C9.5,9.1,9.1,9.5,9,9.6c-0.1,0.1-0.2,0.1-0.4,0C8.5,9.6,7.9,9.4,7.3,8.8c-0.5-0.5-0.9-1-1-1.2
		c-0.1-0.2,0-0.3,0.1-0.3C6.5,7.2,6.6,7.1,6.7,7c0.1-0.1,0.1-0.2,0.2-0.3c0.1-0.1,0-0.2,0-0.3c0-0.1-0.4-0.9-0.5-1.3
		C6.2,4.8,6,4.9,5.9,4.9c-0.1,0-0.2,0-0.3,0c-0.1,0-0.3,0-0.5,0.2C5,5.2,4.5,5.6,4.5,6.5c0,0.8,0.6,1.6,0.7,1.8
		c0.1,0.1,1.2,1.9,2.9,2.6c1.7,0.7,1.7,0.5,2.1,0.4c0.3,0,1-0.4,1.2-0.8C11.5,10,11.5,9.7,11.5,9.6z"/>
</g>
</svg>
