<?xml version="1.0" encoding="utf-8"?>
<!-- Generator: Adobe Illustrator 21.1.0, SVG Export Plug-In . SVG Version: 6.00 Build 0)  -->
<svg version="1.1" id="Layer_2" xmlns="http://www.w3.org/2000/svg" xmlns:xlink="http://www.w3.org/1999/xlink" x="0px" y="0px"
	 viewBox="0 0 36 40" style="enable-background:new 0 0 36 40;" xml:space="preserve">
<style type="text/css">
	.st0{fill:#F27E41;}
</style>
<g>
	<path class="st0" d="M31,17.5H5.4c-0.2,0-0.4-0.1-0.5-0.2l-2-2.6c-0.1-0.2-0.2-0.4-0.1-0.6c0.1-0.2,0.3-0.3,0.6-0.3H33
		c0.2,0,0.4,0.1,0.6,0.3c0.1,0.2,0.1,0.5-0.1,0.6l-2,2.6C31.4,17.4,31.2,17.5,31,17.5z M5.7,16.3h25l1-1.3h-27L5.7,16.3z"/>
	<path class="st0" d="M31.2,14.9h-26c-0.3,0-0.6-0.3-0.6-0.6v-2.7c0-0.3,0.3-0.6,0.6-0.6h26c0.3,0,0.6,0.3,0.6,0.6v2.7
		C31.8,14.7,31.5,14.9,31.2,14.9z M5.9,13.7h24.7v-1.5H5.9V13.7z"/>
	<path class="st0" d="M29.8,12.2H6.6c-0.3,0-0.6-0.3-0.6-0.6v-2C6,9.3,6.3,9,6.6,9h23.2c0.3,0,0.6,0.3,0.6,0.6v2
		C30.4,11.9,30.2,12.2,29.8,12.2z M7.2,11h22v-0.8h-22C7.2,10.2,7.2,11,7.2,11z"/>
	<path class="st0" d="M28.5,10.2H7.9c-0.3,0-0.6-0.3-0.6-0.6V5.2c0-0.3,0.3-0.6,0.6-0.6h2.9c0.6-1.8,3.5-3,7.4-3s6.8,1.3,7.4,3h2.9
		c0.3,0,0.6,0.3,0.6,0.6v4.4C29.1,9.9,28.9,10.2,28.5,10.2z M8.5,8.9h19.3V5.8H25c-0.3,0-0.6-0.3-0.6-0.6c0-1.1-2.7-2.4-6.2-2.4
		S12,4,12,5.2c0,0.3-0.3,0.6-0.6,0.6H8.5V8.9z"/>
	<path class="st0" d="M21.5,24.4c-0.3,0-0.6-0.3-0.6-0.6c0-1.5-1.2-2.7-2.7-2.7s-2.7,1.2-2.7,2.7c0,0.3-0.3,0.6-0.6,0.6
		s-0.6-0.3-0.6-0.6c0-2.2,1.8-3.9,3.9-3.9c2.2,0,3.9,1.8,3.9,3.9C22.1,24.2,21.9,24.4,21.5,24.4z"/>
	<path class="st0" d="M14.9,38.2H5.4c-0.3,0-0.6-0.3-0.6-0.6V16.9c0-0.3,0.3-0.6,0.6-0.6h9.5c0.3,0,0.6,0.3,0.6,0.6v20.7
		C15.5,38,15.2,38.2,14.9,38.2z M6,37h8.3V17.5H6V37z"/>
	<path class="st0" d="M31,38.2h-9.5c-0.3,0-0.6-0.3-0.6-0.6V16.9c0-0.3,0.3-0.6,0.6-0.6H31c0.3,0,0.6,0.3,0.6,0.6v20.7
		C31.6,38,31.4,38.2,31,38.2z M22.1,37h8.3V17.5h-8.3C22.1,17.5,22.1,37,22.1,37z"/>
	<path class="st0" d="M14.9,24.4H4.6c-0.3,0-0.6-0.3-0.6-0.6c0-0.3,0.3-0.6,0.6-0.6h10.3c0.3,0,0.6,0.3,0.6,0.6
		C15.5,24.2,15.2,24.4,14.9,24.4z"/>
	<path class="st0" d="M15.7,32.6h-11C4.3,32.6,4,32.3,4,32s0.3-0.6,0.6-0.6h11c0.3,0,0.6,0.3,0.6,0.6C16.3,32.3,16,32.6,15.7,32.6z"
		/>
	<path class="st0" d="M31.8,24.4H21.5c-0.3,0-0.6-0.3-0.6-0.6c0-0.3,0.3-0.6,0.6-0.6h10.3c0.3,0,0.6,0.3,0.6,0.6
		C32.4,24.2,32.1,24.4,31.8,24.4z"/>
	<path class="st0" d="M31.8,32.6h-11c-0.3,0-0.6-0.3-0.6-0.6c0-0.3,0.3-0.6,0.6-0.6h11c0.3,0,0.6,0.3,0.6,0.6
		C32.4,32.3,32.1,32.6,31.8,32.6z"/>
	<path class="st0" d="M10.1,22.2c-1.1,0-2-0.9-2-1.9c0-1.1,0.9-2,2-2s2,0.9,2,2C12.1,21.4,11.2,22.2,10.1,22.2z M10.1,19.6
		c-0.4,0-0.7,0.3-0.7,0.7c0,0.4,0.3,0.7,0.7,0.7s0.7-0.3,0.7-0.7C10.9,19.9,10.6,19.6,10.1,19.6z"/>
	<path class="st0" d="M26.3,22.2c-1.1,0-2-0.9-2-1.9c0-1.1,0.9-2,2-2s2,0.9,2,2C28.2,21.4,27.4,22.2,26.3,22.2z M26.3,19.6
		c-0.4,0-0.7,0.3-0.7,0.7c0,0.4,0.3,0.7,0.7,0.7c0.4,0,0.7-0.3,0.7-0.7S26.7,19.6,26.3,19.6z"/>
	<path class="st0" d="M12.6,30.6c-0.3,0-0.6-0.3-0.6-0.6v-4.1c0-0.3,0.3-0.6,0.6-0.6s0.6,0.3,0.6,0.6V30
		C13.2,30.3,13,30.6,12.6,30.6z"/>
	<path class="st0" d="M23.8,30.6c-0.3,0-0.6-0.3-0.6-0.6v-4.1c0-0.3,0.3-0.6,0.6-0.6s0.6,0.3,0.6,0.6V30
		C24.4,30.3,24.2,30.6,23.8,30.6z"/>
	<path class="st0" d="M14.9,36.4h-3.7c-0.3,0-0.6-0.3-0.6-0.6s0.3-0.6,0.6-0.6h3.7c0.3,0,0.6,0.3,0.6,0.6
		C15.5,36.1,15.2,36.4,14.9,36.4z"/>
	<path class="st0" d="M25.2,36.4h-3.7c-0.3,0-0.6-0.3-0.6-0.6s0.3-0.6,0.6-0.6h3.7c0.3,0,0.6,0.3,0.6,0.6
		C25.9,36.1,25.6,36.4,25.2,36.4z"/>
	<path class="st0" d="M21.6,8.1h-6.8c-0.3,0-0.6-0.3-0.6-0.6V5.6c0-0.3,0.3-0.6,0.6-0.6h6.8c0.3,0,0.6,0.3,0.6,0.6v1.8
		C22.2,7.8,21.9,8.1,21.6,8.1z M15.5,6.8H21V6.2h-5.5V6.8z"/>
</g>
</svg>
