<?xml version="1.0" encoding="utf-8"?>
<!-- Generator: Adobe Illustrator 21.1.0, SVG Export Plug-In . SVG Version: 6.00 Build 0)  -->
<svg version="1.1" id="Layer_2" xmlns="http://www.w3.org/2000/svg" xmlns:xlink="http://www.w3.org/1999/xlink" x="0px" y="0px"
	 viewBox="0 0 42.9 33" style="enable-background:new 0 0 42.9 33;" xml:space="preserve">
<path d="M27.5,28.8c-2.2,1.2-4.5,1.6-7.2,1.6c-6.6,0-12.2-4.8-12.2-12.6c0-8.3,5.8-15.5,14.7-15.5c7,0,11.7,4.9,11.7,11.6
	c0,6-3.4,9.6-7.2,9.6c-1.6,0-3.1-1.1-3-3.5h-0.2c-1.4,2.4-3.3,3.5-5.7,3.5c-2.3,0-4.4-1.9-4.4-5.1c0-5,3.9-9.6,9.6-9.6
	c1.7,0,3.3,0.4,4.3,0.8l-1.4,7.3c-0.6,3.1-0.1,4.5,1.2,4.5c2.1,0,4.4-2.7,4.4-7.4c0-5.8-3.5-10-9.8-10c-6.6,0-12.1,5.2-12.1,13.4
	c0,6.7,4.4,10.9,10.4,10.9c2.3,0,4.4-0.5,6.1-1.4L27.5,28.8z M25.3,11.4c-0.4-0.1-1.1-0.3-2-0.3c-3.5,0-6.4,3.3-6.4,7.3
	c0,1.8,0.9,3.1,2.7,3.1c2.3,0,4.5-3,4.9-5.5L25.3,11.4z"/>
</svg>
