<?xml version="1.0" encoding="utf-8"?>
<!-- Generator: Adobe Illustrator 21.1.0, SVG Export Plug-In . SVG Version: 6.00 Build 0)  -->
<svg version="1.1" id="Layer_1" xmlns="http://www.w3.org/2000/svg" xmlns:xlink="http://www.w3.org/1999/xlink" x="0px" y="0px"
	 viewBox="0 0 16 16" style="enable-background:new 0 0 16 16;" xml:space="preserve">
<style type="text/css">
	.st0{fill:#FFFFFF;}
</style>
<g id="Layer_25">
	<path class="st0" d="M12.3,16c-0.2-0.1-0.3-0.2-0.4-0.4c-0.7-2.2-1.4-4.3-2.1-6.5V9L9.7,9.1c-0.7,0.7-1.3,1.3-2,2
		c-0.1,0.1-0.1,0.2-0.1,0.3c0,1,0,1.9,0,2.9c0,0.2-0.1,0.3-0.2,0.4c-0.4,0.3-0.7,0.7-1,1.1C6,16,5.7,16,5.5,15.6
		c-0.5-1.1-1-2.1-1.6-3.2c0-0.1-0.1-0.2-0.2-0.2c-1.1-0.5-2.1-1.1-3.2-1.6c-0.4-0.2-0.4-0.5-0.1-0.8c0.4-0.4,0.7-0.7,1.1-1.1
		C1.6,8.6,1.8,8.5,2,8.5c0.9,0,1.9,0,2.8,0c0.1,0,0.2,0,0.2-0.1C5.6,7.7,6.3,7,7,6.3c0,0,0-0.1,0.1-0.1C6.6,6,6.1,5.9,5.6,5.7
		C3.9,5.2,2.2,4.6,0.5,4C0.1,3.9,0,3.5,0.3,3.2C0.7,2.8,1.1,2.4,1.4,2c0.1-0.1,0.3-0.2,0.4-0.2c1,0.2,2,0.3,2.9,0.3
		c1.1,0.1,2.1,0.2,3.2,0.3c0.8,0.1,1.6,0.1,2.5,0.2c0.2,0,0.3,0,0.4-0.1c0.5-0.5,1-1.1,1.6-1.6c0.5-0.4,1-0.7,1.6-0.9
		c0.1,0,0.2,0,0.2-0.1c0.1,0,0.2,0,0.3,0h0.1C15,0,15.3,0.1,15.5,0.4C16,1.1,16,1.6,15.8,2.2c-0.2,0.7-0.7,1.3-1.2,1.8
		c-0.4,0.4-0.8,0.9-1.3,1.3c0,0-0.1,0.1-0.1,0.2c0.1,1.4,0.2,2.8,0.4,4.2c0.1,1.5,0.3,3.1,0.4,4.6c0,0.2,0,0.3-0.2,0.4
		c-0.4,0.4-0.8,0.8-1.1,1.1C12.6,15.9,12.5,16,12.3,16C12.4,16,12.3,16,12.3,16z M6,14.8c0.2-0.2,0.4-0.4,0.6-0.6
		c0.1-0.1,0.1-0.2,0.1-0.3c0-1,0-1.9,0-2.9c0-0.2,0-0.3,0.2-0.4c0.9-0.9,1.8-1.8,2.7-2.7c0.3-0.3,0.6-0.2,0.8,0.2
		c0.6,1.8,1.2,3.6,1.8,5.4c0.1,0.4,0.3,0.9,0.4,1.3c0.2-0.2,0.4-0.4,0.6-0.5c0.1-0.1,0.1-0.2,0.1-0.3c-0.1-0.8-0.2-1.7-0.2-2.5
		c-0.1-1.1-0.2-2.2-0.3-3.2c-0.1-0.9-0.2-1.9-0.3-2.8c0-0.2,0-0.4,0.2-0.5c0.5-0.5,0.9-0.9,1.4-1.4c0.3-0.3,0.5-0.6,0.7-0.9
		c0.1-0.4,0.2-0.7,0.3-1c0.1-0.5-0.3-0.9-0.8-0.8c-0.2,0-0.3,0.1-0.5,0.2c-0.4,0.2-0.8,0.5-1.1,0.8c-0.5,0.5-1,1-1.5,1.5
		c-0.1,0.1-0.3,0.2-0.4,0.2C9.5,3.4,8.4,3.3,7.2,3.2C5.5,3,3.8,2.9,2.1,2.7H2C1.7,3,1.5,3.2,1.3,3.4c0.1,0,0.2,0.1,0.2,0.1
		c2.1,0.7,4.3,1.4,6.4,2.2c0.4,0.1,0.5,0.5,0.2,0.8C7.2,7.3,6.3,8.2,5.4,9.1C5.3,9.3,5.1,9.3,5,9.3c-0.9,0-1.9,0-2.8,0
		c-0.1,0-0.1,0-0.2,0C1.7,9.6,1.5,9.8,1.2,10c0.1,0,0.1,0.1,0.2,0.1c0.9,0.5,1.8,0.9,2.8,1.4c0.2,0.1,0.3,0.2,0.3,0.4
		c0.5,0.9,0.9,1.8,1.4,2.8C5.9,14.7,6,14.7,6,14.8z"/>
</g>
</svg>
