<?xml version="1.0" encoding="utf-8"?>
<!-- Generator: Adobe Illustrator 21.1.0, SVG Export Plug-In . SVG Version: 6.00 Build 0)  -->
<svg version="1.1" id="Layer_3" xmlns="http://www.w3.org/2000/svg" xmlns:xlink="http://www.w3.org/1999/xlink" x="0px" y="0px"
	 viewBox="0 0 42.9 33" style="enable-background:new 0 0 42.9 33;" xml:space="preserve">
<g>
	<g>
		<path d="M38,7H4.6c-0.6,0-1,0.4-1,1v15.7c0,0.6,0.4,1,1,1h11.8c0.4,0,0.7-0.2,0.9-0.6l2.3-4.5c0.4-0.7,1-1.1,1.8-1.1
			c0.8,0,1.5,0.4,1.8,1.1l2.3,4.5c0.2,0.3,0.5,0.6,0.9,0.6H38c0.6,0,1-0.4,1-1V8C39,7.5,38.6,7,38,7z M37,22.7H26.8l-2-3.9
			c-0.7-1.4-2.1-2.2-3.5-2.2s-2.9,0.9-3.5,2.2l-2,3.9H5.6V9H37V22.7z"/>
		<path d="M12.4,20.8c2.8,0,4.9-2.2,4.9-4.9s-2.2-4.9-4.9-4.9s-4.9,2.2-4.9,4.9S9.7,20.8,12.4,20.8z M12.4,12.9c1.7,0,3,1.3,3,3
			s-1.3,3-3,3s-3-1.3-3-3S10.8,12.9,12.4,12.9z"/>
		<path d="M30.1,20.8c2.8,0,4.9-2.2,4.9-4.9s-2.2-4.9-4.9-4.9s-4.9,2.2-4.9,4.9S27.4,20.8,30.1,20.8z M30.1,12.9c1.7,0,3,1.3,3,3
			s-1.3,3-3,3c-1.7,0-3-1.3-3-3S28.5,12.9,30.1,12.9z"/>
	</g>
</g>
</svg>
